<svg width="120" height="35" viewBox="0 0 120 35" fill="none" xmlns="http://www.w3.org/2000/svg">
<path d="M119.333 30.8354C119.333 32.6828 117.806 34.1793 115.916 34.1793H4.08828C2.19966 34.1793 0.666656 32.6828 0.666656 30.8354V4.16902C0.666656 2.32246 2.19966 0.82077 4.08828 0.82077H115.915C117.806 0.82077 119.332 2.32246 119.332 4.16902L119.333 30.8354Z" fill="white"/>
<path d="M115.556 0.861092C117.613 0.861092 119.288 2.49368 119.288 4.50001V30.5C119.288 32.5063 117.613 34.1389 115.556 34.1389H4.44444C2.38667 34.1389 0.712222 32.5063 0.712222 30.5V4.50001C0.712222 2.49368 2.38667 0.861092 4.44444 0.861092H115.556ZM115.556 0.166676H4.44444C2.00111 0.166676 0 2.11776 0 4.50001V30.5C0 32.8823 2.00111 34.8333 4.44444 34.8333H115.556C117.999 34.8333 120 32.8823 120 30.5V4.50001C120 2.11776 117.999 0.166676 115.556 0.166676Z" fill="#A6A6A6"/>
<path d="M26.7804 17.3128C26.7547 14.5195 29.1262 13.1606 29.2347 13.0973C27.8916 11.1881 25.8098 10.9272 25.0782 10.9064C23.3298 10.727 21.6338 11.9265 20.7431 11.9265C19.8347 11.9265 18.4631 10.9237 16.9849 10.9532C15.0827 10.9818 13.3031 12.0556 12.3271 13.7231C10.3129 17.123 11.8151 22.1193 13.7449 24.8675C14.7102 26.2135 15.8382 27.7163 17.3147 27.6634C18.7591 27.6053 19.2987 26.7655 21.0418 26.7655C22.7689 26.7655 23.2755 27.6634 24.7813 27.6296C26.3315 27.6053 27.3075 26.2776 28.2391 24.9195C29.3547 23.3769 29.8027 21.8576 29.8204 21.7796C29.784 21.7675 26.8098 20.6607 26.7804 17.3128Z" fill="black"/>
<path d="M23.936 9.09855C24.7129 8.15128 25.2444 6.86255 25.0969 5.55475C23.9724 5.60328 22.5662 6.31308 21.7564 7.23955C21.04 8.05595 20.4 9.39408 20.5653 10.6525C21.8284 10.7443 23.1253 10.0311 23.936 9.09855Z" fill="black"/>
<path d="M43.6 8.84115C43.6 9.86122 43.2862 10.6291 42.6596 11.1448C42.0791 11.6206 41.2542 11.8589 40.1858 11.8589C39.656 11.8589 39.2027 11.8364 38.8231 11.7913V6.21775C39.3182 6.13975 39.8516 6.09988 40.4276 6.09988C41.4453 6.09988 42.2125 6.31568 42.7298 6.74728C43.3093 7.23522 43.6 7.93288 43.6 8.84115ZM42.6178 8.86628C42.6178 8.20502 42.4382 7.69802 42.0791 7.34442C41.72 6.99168 41.1956 6.81488 40.5049 6.81488C40.2116 6.81488 39.9618 6.83395 39.7547 6.87382V11.111C39.8693 11.1283 40.0791 11.1361 40.384 11.1361C41.0969 11.1361 41.6471 10.9428 42.0347 10.5563C42.4222 10.1698 42.6178 9.60642 42.6178 8.86628Z" fill="black"/>
<path d="M48.808 9.73209C48.808 10.3604 48.624 10.8752 48.256 11.2791C47.8702 11.6942 47.3591 11.9014 46.7209 11.9014C46.1058 11.9014 45.616 11.7029 45.2506 11.3042C44.8862 10.9064 44.704 10.4046 44.704 9.79969C44.704 9.16702 44.8915 8.64789 45.2684 8.24489C45.6453 7.84189 46.152 7.63995 46.7902 7.63995C47.4053 7.63995 47.8995 7.83842 48.2738 8.23622C48.6293 8.62275 48.808 9.12195 48.808 9.73209ZM47.8418 9.76155C47.8418 9.38455 47.7582 9.06129 47.592 8.79175C47.3964 8.46589 47.1182 8.30295 46.7564 8.30295C46.3822 8.30295 46.0978 8.46589 45.9022 8.79175C45.7351 9.06129 45.6524 9.38975 45.6524 9.77802C45.6524 10.155 45.736 10.4783 45.9022 10.7478C46.104 11.0737 46.3849 11.2366 46.7475 11.2366C47.1031 11.2366 47.3822 11.0711 47.5831 10.7392C47.7555 10.4644 47.8418 10.1386 47.8418 9.76155Z" fill="black"/>
<path d="M55.7911 7.72314L54.48 11.8086H53.6267L53.0836 10.0345C52.9458 9.59168 52.8338 9.15141 52.7467 8.71461H52.7298C52.6489 9.16354 52.5369 9.60294 52.3929 10.0345L51.816 11.8086H50.9529L49.72 7.72314H50.6774L51.1511 9.66534C51.2658 10.1247 51.36 10.5623 51.4356 10.9766H51.4525C51.5218 10.6351 51.6365 10.2001 51.7983 9.67401L52.3929 7.72401H53.152L53.7218 9.63241C53.8596 10.0978 53.9716 10.5459 54.0578 10.9775H54.0836C54.1467 10.5571 54.2418 10.1091 54.368 9.63241L54.8765 7.72401H55.7911V7.72314Z" fill="black"/>
<path d="M60.6204 11.8086H59.6889V9.46863C59.6889 8.74756 59.408 8.38703 58.8445 8.38703C58.568 8.38703 58.3449 8.48583 58.1716 8.68429C58 8.88276 57.9129 9.11676 57.9129 9.38456V11.8078H56.9813V8.89056C56.9813 8.53176 56.9698 8.14263 56.9476 7.72143H57.7662L57.8098 8.36016H57.8356C57.944 8.16169 58.1058 7.99789 58.3182 7.86703C58.5707 7.71449 58.8533 7.63736 59.1627 7.63736C59.5538 7.63736 59.8791 7.76043 60.1378 8.00743C60.4596 8.30989 60.6204 8.76143 60.6204 9.36116V11.8086Z" fill="black"/>
<path d="M63.1893 11.8086H62.2587V5.84854H63.1893V11.8086Z" fill="black"/>
<path d="M68.6738 9.73209C68.6738 10.3604 68.4898 10.8752 68.1218 11.2791C67.736 11.6942 67.2241 11.9014 66.5867 11.9014C65.9707 11.9014 65.4809 11.7029 65.1165 11.3042C64.752 10.9064 64.5698 10.4046 64.5698 9.79969C64.5698 9.16702 64.7574 8.64789 65.1343 8.24489C65.5112 7.84189 66.0178 7.63995 66.6552 7.63995C67.2712 7.63995 67.7645 7.83842 68.1396 8.23622C68.4952 8.62275 68.6738 9.12195 68.6738 9.73209ZM67.7067 9.76155C67.7067 9.38455 67.6232 9.06129 67.4569 8.79175C67.2623 8.46589 66.9832 8.30295 66.6223 8.30295C66.2472 8.30295 65.9627 8.46589 65.768 8.79175C65.6009 9.06129 65.5183 9.38975 65.5183 9.77802C65.5183 10.155 65.6018 10.4783 65.768 10.7478C65.9698 11.0737 66.2507 11.2366 66.6134 11.2366C66.9689 11.2366 67.2472 11.0711 67.448 10.7392C67.6214 10.4644 67.7067 10.1386 67.7067 9.76155Z" fill="black"/>
<path d="M73.1822 11.8086H72.3458L72.2765 11.338H72.2507C71.9645 11.7133 71.5565 11.9014 71.0267 11.9014C70.6311 11.9014 70.3111 11.7774 70.0703 11.5313C69.8516 11.3077 69.7422 11.0295 69.7422 10.6993C69.7422 10.2001 69.9556 9.81962 70.3849 9.55615C70.8134 9.29269 71.416 9.16355 72.192 9.16962V9.09335C72.192 8.55515 71.9022 8.28649 71.3218 8.28649C70.9085 8.28649 70.544 8.38789 70.2294 8.58895L70.04 7.99269C70.4294 7.75782 70.9102 7.63995 71.4774 7.63995C72.5725 7.63995 73.1218 8.20329 73.1218 9.32995V10.8345C73.1218 11.2427 73.1422 11.5677 73.1822 11.8086ZM72.2151 10.4046V9.77455C71.1876 9.75722 70.6738 10.032 70.6738 10.5979C70.6738 10.8111 70.7325 10.9706 70.8525 11.0772C70.9725 11.1838 71.1254 11.2366 71.3076 11.2366C71.512 11.2366 71.7031 11.1734 71.8774 11.0477C72.0525 10.9212 72.16 10.7608 72.2 10.5641C72.2098 10.5199 72.2151 10.4662 72.2151 10.4046Z" fill="black"/>
<path d="M78.4756 11.8086H77.6489L77.6054 11.1525H77.5796C77.3156 11.6517 76.8658 11.9013 76.2338 11.9013C75.7289 11.9013 75.3085 11.7081 74.9751 11.3215C74.6418 10.935 74.4756 10.4332 74.4756 9.81701C74.4756 9.15574 74.656 8.62014 75.0187 8.21107C75.3698 7.82974 75.8 7.63907 76.312 7.63907C76.8747 7.63907 77.2685 7.82367 77.4925 8.19374H77.5102V5.84854H78.4427V10.7079C78.4427 11.1057 78.4534 11.4723 78.4756 11.8086ZM77.5102 10.0857V9.40447C77.5102 9.28661 77.5014 9.19128 77.4845 9.11847C77.432 8.90007 77.3191 8.71634 77.1476 8.56814C76.9742 8.41994 76.7654 8.34541 76.5245 8.34541C76.1769 8.34541 75.9049 8.47974 75.7049 8.74927C75.5067 9.01881 75.4062 9.36287 75.4062 9.78321C75.4062 10.1871 75.5014 10.5147 75.6925 10.7669C75.8942 11.0355 76.1662 11.1699 76.5067 11.1699C76.8125 11.1699 77.0569 11.0581 77.2427 10.8336C77.4222 10.6265 77.5102 10.3769 77.5102 10.0857Z" fill="black"/>
<path d="M86.4427 9.73209C86.4427 10.3604 86.2587 10.8752 85.8907 11.2791C85.5049 11.6942 84.9947 11.9014 84.3556 11.9014C83.7414 11.9014 83.2516 11.7029 82.8854 11.3042C82.5209 10.9064 82.3387 10.4046 82.3387 9.79969C82.3387 9.16702 82.5262 8.64789 82.9031 8.24489C83.28 7.84189 83.7867 7.63995 84.4258 7.63995C85.04 7.63995 85.5351 7.83842 85.9085 8.23622C86.264 8.62275 86.4427 9.12195 86.4427 9.73209ZM85.4773 9.76155C85.4773 9.38455 85.3938 9.06129 85.2276 8.79175C85.0311 8.46589 84.7538 8.30295 84.3911 8.30295C84.0178 8.30295 83.7333 8.46589 83.5369 8.79175C83.3698 9.06129 83.2871 9.38975 83.2871 9.77802C83.2871 10.155 83.3707 10.4783 83.5369 10.7478C83.7387 11.0737 84.0196 11.2366 84.3822 11.2366C84.7378 11.2366 85.0178 11.0711 85.2187 10.7392C85.3902 10.4644 85.4773 10.1386 85.4773 9.76155Z" fill="black"/>
<path d="M91.4515 11.8086H90.5209V9.46863C90.5209 8.74756 90.24 8.38703 89.6755 8.38703C89.3991 8.38703 89.176 8.48583 89.0035 8.68429C88.8311 8.88276 88.7449 9.11676 88.7449 9.38456V11.8078H87.8124V8.89056C87.8124 8.53176 87.8018 8.14263 87.7795 7.72143H88.5973L88.6409 8.36016H88.6667C88.776 8.16169 88.9378 7.99789 89.1493 7.86703C89.4026 7.71449 89.6844 7.63736 89.9947 7.63736C90.3849 7.63736 90.7102 7.76043 90.9689 8.00743C91.2915 8.30989 91.4515 8.76143 91.4515 9.36116V11.8086Z" fill="black"/>
<path d="M97.7209 8.40349H96.6952V10.3882C96.6952 10.8926 96.8774 11.1448 97.2383 11.1448C97.4054 11.1448 97.5441 11.1309 97.6534 11.1023L97.6774 11.7913C97.4934 11.8589 97.2516 11.8927 96.9538 11.8927C96.5858 11.8927 96.2996 11.7835 96.0925 11.5651C95.8845 11.3467 95.7814 10.9792 95.7814 10.4636V8.40349H95.1689V7.72316H95.7814V6.97436L96.6943 6.70569V7.72229H97.7201V8.40349H97.7209Z" fill="black"/>
<path d="M102.652 11.8086H101.72V9.48594C101.72 8.75361 101.439 8.38701 100.876 8.38701C100.444 8.38701 100.149 8.59934 99.9876 9.02401C99.96 9.11327 99.944 9.22247 99.944 9.35074V11.8077H99.0134V5.84854H99.944V8.31074H99.9618C100.255 7.86267 100.676 7.63907 101.22 7.63907C101.606 7.63907 101.925 7.76214 102.179 8.00914C102.494 8.31681 102.652 8.77441 102.652 9.37934V11.8086Z" fill="black"/>
<path d="M107.74 9.57261C107.74 9.73554 107.727 9.87247 107.705 9.98427H104.911C104.924 10.3881 105.057 10.6958 105.316 10.909C105.552 11.0997 105.857 11.195 106.23 11.195C106.644 11.195 107.02 11.1309 107.36 11.0017L107.506 11.6327C107.108 11.8008 106.641 11.8849 106.1 11.8849C105.451 11.8849 104.94 11.6985 104.57 11.3259C104.198 10.9532 104.014 10.4531 104.014 9.82567C104.014 9.20947 104.186 8.69641 104.532 8.28734C104.892 7.85054 105.38 7.63214 105.996 7.63214C106.599 7.63214 107.057 7.85054 107.366 8.28734C107.616 8.63401 107.74 9.06301 107.74 9.57261ZM106.851 9.33774C106.858 9.06821 106.796 8.83594 106.67 8.64007C106.508 8.38787 106.262 8.26134 105.929 8.26134C105.625 8.26134 105.377 8.38441 105.188 8.63141C105.033 8.82814 104.941 9.06301 104.911 9.33774H106.851Z" fill="black"/>
<path d="M47.6844 27.4701H45.6658L44.56 24.0823H40.7164L39.6631 27.4701H37.6978L41.5058 15.9365H43.8578L47.6844 27.4701ZM44.2266 22.661L43.2266 19.6493C43.1209 19.3417 42.9226 18.6171 42.6302 17.4766H42.5946C42.4782 17.9671 42.2906 18.6917 42.0329 19.6493L41.0506 22.661H44.2266Z" fill="black"/>
<path d="M57.4773 23.2096C57.4773 24.624 57.0853 25.742 56.3013 26.5627C55.5991 27.2933 54.7271 27.6582 53.6862 27.6582C52.5626 27.6582 51.7555 27.2647 51.2639 26.4778H51.2284V30.8588H49.3333V21.8914C49.3333 21.0022 49.3093 20.0896 49.2631 19.1536H50.9297L51.0355 20.4718H51.0711C51.7031 19.4786 52.6622 18.9829 53.9493 18.9829C54.9555 18.9829 55.7955 19.3703 56.4675 20.1459C57.1413 20.9225 57.4773 21.9434 57.4773 23.2096ZM55.5466 23.2772C55.5466 22.4677 55.36 21.8004 54.9848 21.2752C54.5751 20.7275 54.0248 20.4536 53.3351 20.4536C52.8675 20.4536 52.4426 20.6061 52.0631 20.9069C51.6826 21.2102 51.4337 21.6063 51.3173 22.0968C51.2586 22.3256 51.2293 22.5128 51.2293 22.6601V24.0468C51.2293 24.6517 51.4195 25.1622 51.8 25.5791C52.1804 25.9959 52.6746 26.2039 53.2826 26.2039C53.9964 26.2039 54.5519 25.9353 54.9493 25.3997C55.3475 24.8632 55.5466 24.156 55.5466 23.2772Z" fill="black"/>
<path d="M67.288 23.2096C67.288 24.624 66.896 25.742 66.1111 26.5627C65.4098 27.2933 64.5378 27.6582 63.4969 27.6582C62.3733 27.6582 61.5662 27.2647 61.0755 26.4778H61.04V30.8588H59.1449V21.8914C59.1449 21.0022 59.1209 20.0896 59.0746 19.1536H60.7413L60.8471 20.4718H60.8826C61.5138 19.4786 62.4729 18.9829 63.7609 18.9829C64.7662 18.9829 65.6062 19.3703 66.28 20.1459C66.9511 20.9225 67.288 21.9434 67.288 23.2096ZM65.3573 23.2772C65.3573 22.4677 65.1698 21.8004 64.7946 21.2752C64.3849 20.7275 63.8364 20.4536 63.1458 20.4536C62.6773 20.4536 62.2533 20.6061 61.8729 20.9069C61.4924 21.2102 61.2444 21.6063 61.128 22.0968C61.0702 22.3256 61.04 22.5128 61.04 22.6601V24.0468C61.04 24.6517 61.2302 25.1622 61.6089 25.5791C61.9893 25.9951 62.4835 26.2039 63.0933 26.2039C63.8071 26.2039 64.3627 25.9353 64.76 25.3997C65.1582 24.8632 65.3573 24.156 65.3573 23.2772Z" fill="black"/>
<path d="M78.2569 24.2357C78.2569 25.2168 77.9075 26.015 77.2062 26.6312C76.4355 27.3046 75.3627 27.6409 73.984 27.6409C72.7111 27.6409 71.6907 27.4017 70.9182 26.9224L71.3573 25.3823C72.1893 25.8729 73.1022 26.119 74.0969 26.119C74.8107 26.119 75.3662 25.9613 75.7653 25.6475C76.1627 25.3338 76.3609 24.9126 76.3609 24.3874C76.3609 23.9194 76.1973 23.5251 75.8693 23.2053C75.5431 22.8855 74.9982 22.5882 74.2373 22.3135C72.1662 21.5603 71.1316 20.4571 71.1316 19.0063C71.1316 18.0581 71.4942 17.2807 72.2204 16.6758C72.944 16.07 73.9093 15.7675 75.1164 15.7675C76.1929 15.7675 77.0871 15.9504 77.8009 16.3153L77.3271 17.8215C76.6604 17.4679 75.9067 17.2911 75.0631 17.2911C74.3964 17.2911 73.8756 17.4515 73.5022 17.7704C73.1867 18.0555 73.0284 18.4031 73.0284 18.8147C73.0284 19.2706 73.2089 19.6476 73.5715 19.944C73.8871 20.2179 74.4604 20.5143 75.2924 20.8341C76.3102 21.2336 77.0578 21.7007 77.5387 22.2363C78.0178 22.7702 78.2569 23.4384 78.2569 24.2357Z" fill="black"/>
<path d="M84.5227 20.5403H82.4338V24.5781C82.4338 25.6051 82.8018 26.1181 83.5396 26.1181C83.8782 26.1181 84.1591 26.0895 84.3813 26.0323L84.4338 27.4355C84.0604 27.5715 83.5689 27.64 82.96 27.64C82.2116 27.64 81.6267 27.4173 81.2044 26.9727C80.784 26.5272 80.5724 25.7801 80.5724 24.7306V20.5385H79.328V19.1519H80.5724V17.6291L82.4338 17.0814V19.1519H84.5227V20.5403Z" fill="black"/>
<path d="M93.9475 23.2434C93.9475 24.5217 93.5724 25.5713 92.8239 26.392C92.0391 27.237 90.9973 27.6582 89.6986 27.6582C88.4471 27.6582 87.4506 27.2535 86.7075 26.444C85.9644 25.6345 85.5928 24.6127 85.5928 23.3812C85.5928 22.0925 85.9751 21.0369 86.7422 20.2161C87.5075 19.3945 88.5404 18.9837 89.8391 18.9837C91.0906 18.9837 92.0977 19.3885 92.8577 20.1988C93.5848 20.9849 93.9475 21.9997 93.9475 23.2434ZM91.9813 23.3032C91.9813 22.5362 91.8133 21.8784 91.4728 21.3298C91.0755 20.6659 90.5075 20.3349 89.7715 20.3349C89.0097 20.3349 88.4311 20.6668 88.0337 21.3298C87.6933 21.8793 87.5253 22.5475 87.5253 23.3379C87.5253 24.1049 87.6933 24.7627 88.0337 25.3104C88.4435 25.9743 89.0159 26.3053 89.7546 26.3053C90.4782 26.3053 91.0462 25.9673 91.4559 25.2931C91.8053 24.7341 91.9813 24.0693 91.9813 23.3032Z" fill="black"/>
<path d="M100.108 20.7786C99.92 20.7448 99.72 20.7275 99.5102 20.7275C98.8435 20.7275 98.328 20.9727 97.9653 21.4641C97.6497 21.8975 97.4915 22.4452 97.4915 23.1065V27.4701H95.5973L95.6151 21.7727C95.6151 20.8141 95.5911 19.9414 95.5439 19.1545H97.1946L97.264 20.7457H97.3164C97.5164 20.1988 97.832 19.7585 98.264 19.4283C98.6862 19.1311 99.1422 18.9829 99.6337 18.9829C99.8089 18.9829 99.9671 18.995 100.108 19.0167V20.7786Z" fill="black"/>
<path d="M108.583 22.9184C108.583 23.2495 108.561 23.5286 108.514 23.7565H102.828C102.851 24.5781 103.125 25.2064 103.653 25.6398C104.132 26.0272 104.752 26.2213 105.513 26.2213C106.355 26.2213 107.123 26.0904 107.813 25.8278L108.11 27.1105C107.303 27.4537 106.35 27.6244 105.251 27.6244C103.928 27.6244 102.89 27.2448 102.134 26.4865C101.38 25.7282 101.003 24.7098 101.003 23.4324C101.003 22.1783 101.354 21.134 102.057 20.3011C102.793 19.4119 103.788 18.9673 105.039 18.9673C106.268 18.9673 107.199 19.4119 107.831 20.3011C108.332 21.0074 108.583 21.881 108.583 22.9184ZM106.776 22.4392C106.788 21.8914 106.665 21.4182 106.408 21.0187C106.08 20.5048 105.576 20.2482 104.898 20.2482C104.278 20.2482 103.774 20.4987 103.389 21.0014C103.074 21.4009 102.886 21.8802 102.828 22.4383H106.776V22.4392Z" fill="black"/>
</svg>
