<svg width="24" height="24" viewBox="0 0 24 24" fill="none" xmlns="http://www.w3.org/2000/svg">
<path d="M19.071 19.821C18.9228 19.8209 18.7779 19.7768 18.6547 19.6944C18.5314 19.612 18.4354 19.4949 18.3787 19.3579C18.322 19.221 18.3071 19.0703 18.336 18.9249C18.3649 18.7795 18.4362 18.6459 18.541 18.541C20.273 16.8045 21.2456 14.4521 21.2456 11.9995C21.2456 9.54693 20.273 7.19446 18.541 5.458C18.4641 5.39024 18.4018 5.30743 18.3582 5.21468C18.3145 5.12193 18.2903 5.02121 18.2871 4.91874C18.2838 4.81627 18.3016 4.71422 18.3394 4.61891C18.3772 4.5236 18.4341 4.43704 18.5066 4.36458C18.5791 4.29212 18.6657 4.2353 18.7611 4.19763C18.8564 4.15995 18.9585 4.14223 19.061 4.14555C19.1634 4.14887 19.2641 4.17316 19.3568 4.21693C19.4496 4.26069 19.5323 4.323 19.6 4.4C21.6128 6.41818 22.7431 9.15218 22.7431 12.0025C22.7431 14.8528 21.6128 17.5868 19.6 19.605C19.4593 19.7443 19.269 19.822 19.071 19.821Z" fill="#002D72"/>
<path d="M4.929 19.821C4.83061 19.8208 4.73323 19.8012 4.64245 19.7633C4.55167 19.7253 4.46928 19.6699 4.4 19.6C2.38875 17.582 1.2594 14.8491 1.2594 12C1.2594 9.15091 2.38875 6.41798 4.4 4.4C4.46922 4.3284 4.552 4.27131 4.64352 4.23204C4.73504 4.19278 4.83347 4.17214 4.93305 4.17132C5.03264 4.1705 5.13139 4.18953 5.22354 4.22728C5.3157 4.26503 5.39941 4.32076 5.46979 4.39121C5.54018 4.46167 5.59583 4.54543 5.6335 4.63762C5.67117 4.72981 5.6901 4.82858 5.68918 4.92816C5.68827 5.02775 5.66754 5.12615 5.62819 5.21764C5.58884 5.30912 5.53166 5.39185 5.46 5.461C3.728 7.19746 2.75535 9.54993 2.75535 12.0025C2.75535 14.4551 3.728 16.8075 5.46 18.544C5.56475 18.6489 5.63608 18.7825 5.66496 18.9279C5.69385 19.0733 5.679 19.224 5.62228 19.3609C5.56557 19.4979 5.46955 19.615 5.34633 19.6974C5.22311 19.7798 5.07824 19.8239 4.93 19.824L4.929 19.821Z" fill="#002D72"/>
<path d="M12.0538 23.0588C10.8444 23.058 9.64352 22.8552 8.50084 22.4588C8.31307 22.3925 8.15933 22.2544 8.07343 22.0747C7.98754 21.895 7.97654 21.6886 8.04284 21.5008C8.10915 21.3131 8.24733 21.1593 8.42699 21.0734C8.60665 20.9875 8.81307 20.9765 9.00084 21.0428C10.9793 21.7255 13.1294 21.7255 15.1078 21.0428C15.2956 20.9765 15.502 20.9875 15.6817 21.0734C15.8614 21.1593 15.9995 21.3131 16.0658 21.5008C16.1321 21.6886 16.1211 21.895 16.0353 22.0747C15.9494 22.2544 15.7956 22.3925 15.6078 22.4588C14.465 22.8558 13.2637 23.0586 12.0538 23.0588Z" fill="#002D72"/>
<path d="M15.3 3.342C15.2156 3.34171 15.1318 3.32752 15.052 3.3C13.073 2.61869 10.923 2.61869 8.94399 3.3C8.75622 3.3663 8.54979 3.3553 8.37013 3.26941C8.19047 3.18352 8.05229 3.02977 7.98599 2.842C7.91968 2.65423 7.93069 2.4478 8.01658 2.26814C8.10247 2.08848 8.25622 1.9503 8.44399 1.884C10.7442 1.09068 13.2438 1.09068 15.544 1.884C15.7109 1.94235 15.8519 2.05782 15.942 2.21002C16.0321 2.36223 16.0655 2.54137 16.0363 2.7158C16.0071 2.89023 15.9172 3.04874 15.7825 3.16332C15.6477 3.2779 15.4768 3.34119 15.3 3.342Z" fill="#002D72"/>
<path d="M8.73898 12V10.325C8.73898 8.248 10.211 7.398 12.011 8.436L13.461 9.274L14.911 10.111C16.711 11.15 16.711 12.85 14.911 13.889L13.461 14.726L12.011 15.564C10.211 16.602 8.73898 15.752 8.73898 13.675V12Z" fill="#002D72"/>
</svg>
