<svg width="22" height="23" viewBox="0 0 22 23" fill="none" xmlns="http://www.w3.org/2000/svg">
<path d="M18.0712 18.821C17.9229 18.8209 17.7781 18.7768 17.6548 18.6944C17.5316 18.612 17.4356 18.4949 17.3789 18.3579C17.3222 18.2209 17.3073 18.0702 17.3362 17.9248C17.3651 17.7795 17.4364 17.6459 17.5412 17.541C19.2732 15.8045 20.2458 13.4521 20.2458 10.9995C20.2458 8.54691 19.2732 6.19445 17.5412 4.45799C17.4642 4.39023 17.402 4.30742 17.3583 4.21466C17.3147 4.12191 17.2905 4.02119 17.2872 3.91872C17.284 3.81625 17.3018 3.71421 17.3396 3.61889C17.3774 3.52358 17.4343 3.43702 17.5068 3.36456C17.5793 3.2921 17.6659 3.23528 17.7613 3.19761C17.8566 3.15994 17.9587 3.14222 18.0612 3.14553C18.1636 3.14885 18.2643 3.17315 18.357 3.21691C18.4497 3.26068 18.5325 3.32298 18.6002 3.39999C20.613 5.41817 21.7433 8.15217 21.7433 11.0025C21.7433 13.8528 20.613 16.5868 18.6002 18.605C18.4594 18.7442 18.2692 18.8219 18.0712 18.821Z" fill="white"/>
<path d="M3.92912 18.821C3.83073 18.8208 3.73336 18.8012 3.64257 18.7633C3.55179 18.7253 3.4694 18.6699 3.40012 18.6C1.38887 16.582 0.259521 13.8491 0.259521 11C0.259521 8.15091 1.38887 5.41798 3.40012 3.4C3.46934 3.3284 3.55212 3.27131 3.64365 3.23204C3.73517 3.19278 3.83359 3.17214 3.93318 3.17132C4.03276 3.1705 4.13151 3.18953 4.22366 3.22728C4.31582 3.26503 4.39953 3.32076 4.46992 3.39121C4.5403 3.46167 4.59595 3.54543 4.63362 3.63762C4.67129 3.72981 4.69022 3.82858 4.68931 3.92816C4.68839 4.02775 4.66766 4.12615 4.62831 4.21764C4.58896 4.30912 4.53178 4.39185 4.46012 4.461C2.72812 6.19746 1.75547 8.54993 1.75547 11.0025C1.75547 13.4551 2.72812 15.8075 4.46012 17.544C4.56488 17.6489 4.6362 17.7825 4.66508 17.9279C4.69397 18.0733 4.67912 18.224 4.62241 18.3609C4.56569 18.4979 4.46967 18.615 4.34645 18.6974C4.22324 18.7798 4.07836 18.8239 3.93012 18.824L3.92912 18.821Z" fill="white"/>
<path d="M11.0538 22.0588C9.84437 22.058 8.64352 21.8552 7.50084 21.4588C7.31307 21.3925 7.15933 21.2544 7.07343 21.0747C6.98754 20.895 6.97654 20.6886 7.04284 20.5008C7.10915 20.3131 7.24733 20.1593 7.42699 20.0734C7.60665 19.9875 7.81307 19.9765 8.00084 20.0428C9.97927 20.7255 12.1294 20.7255 14.1078 20.0428C14.2956 19.9765 14.502 19.9875 14.6817 20.0734C14.8614 20.1593 14.9995 20.3131 15.0658 20.5008C15.1321 20.6886 15.1211 20.895 15.0353 21.0747C14.9494 21.2544 14.7956 21.3925 14.6078 21.4588C13.465 21.8558 12.2637 22.0586 11.0538 22.0588Z" fill="white"/>
<path d="M14.3002 2.34199C14.2158 2.3417 14.132 2.32751 14.0522 2.29999C12.0732 1.61869 9.92321 1.61869 7.9442 2.29999C7.75643 2.3663 7.55001 2.35529 7.37035 2.2694C7.19069 2.18351 7.05251 2.02977 6.9862 1.84199C6.9199 1.65422 6.9309 1.4478 7.01679 1.26814C7.10269 1.08848 7.25643 0.950296 7.4442 0.883992C9.74439 0.0906713 12.244 0.0906713 14.5442 0.883992C14.7112 0.942341 14.8521 1.05781 14.9422 1.21002C15.0323 1.36222 15.0657 1.54136 15.0365 1.71579C15.0073 1.89023 14.9174 2.04873 14.7827 2.16331C14.6479 2.2779 14.4771 2.34118 14.3002 2.34199Z" fill="white"/>
<path d="M7.73901 11V9.325C7.73901 7.248 9.21101 6.398 11.011 7.436L12.461 8.274L13.911 9.111C15.711 10.15 15.711 11.85 13.911 12.889L12.461 13.726L11.011 14.564C9.21101 15.602 7.73901 14.752 7.73901 12.675V11Z" fill="white"/>
</svg>
