<svg width="25" height="25" viewBox="0 0 25 25" fill="none" xmlns="http://www.w3.org/2000/svg">
<g id="icon / jam-icons / outline &#38; logos / chevron-left">
<path id="Vector" d="M11.257 12.3679L16.207 17.3179C16.3025 17.4101 16.3787 17.5204 16.4311 17.6425C16.4835 17.7645 16.5111 17.8957 16.5122 18.0285C16.5134 18.1612 16.4881 18.2929 16.4378 18.4158C16.3875 18.5387 16.3133 18.6504 16.2194 18.7443C16.1255 18.8381 16.0138 18.9124 15.8909 18.9627C15.768 19.013 15.6364 19.0383 15.5036 19.0371C15.3708 19.036 15.2396 19.0084 15.1176 18.956C14.9956 18.9035 14.8852 18.8274 14.793 18.7319L9.13599 13.0749C8.94852 12.8873 8.8432 12.633 8.8432 12.3679C8.8432 12.1027 8.94852 11.8484 9.13599 11.6609L14.793 6.00386C14.9816 5.8217 15.2342 5.7209 15.4964 5.72318C15.7586 5.72546 16.0094 5.83063 16.1948 6.01604C16.3802 6.20145 16.4854 6.45226 16.4877 6.71446C16.4899 6.97665 16.3891 7.22925 16.207 7.41786L11.257 12.3679Z" fill="#475569"/>
</g>
</svg>
