<svg width="24" height="25" viewBox="0 0 24 25" fill="none" xmlns="http://www.w3.org/2000/svg">
<g clip-path="url(#clip0_130_1589)">
<path d="M21 0.368164H3C1.3455 0.368164 0 1.71366 0 3.36816V21.3682C0 23.0227 1.3455 24.3682 3 24.3682H12V16.1182H9V12.3682H12V9.36816C12 8.17469 12.4741 7.0301 13.318 6.18618C14.1619 5.34227 15.3065 4.86816 16.5 4.86816H19.5V8.61816H18C17.172 8.61816 16.5 8.54016 16.5 9.36816V12.3682H20.25L18.75 16.1182H16.5V24.3682H21C22.6545 24.3682 24 23.0227 24 21.3682V3.36816C24 1.71366 22.6545 0.368164 21 0.368164Z" fill="white"/>
</g>
<defs>
<clipPath id="clip0_130_1589">
<rect width="24" height="24" fill="white" transform="translate(0 0.368164)"/>
</clipPath>
</defs>
</svg>
