<svg width="230" height="231" viewBox="0 0 230 231" fill="none" xmlns="http://www.w3.org/2000/svg">
<g filter="url(#filter0_d_130_1914)">
<rect width="200" height="200" transform="translate(11 11.3679)" fill="white"/>
<g clip-path="url(#clip0_130_1914)">
<path d="M86.6747 81.1519C86.8987 81.5581 87.1373 81.9635 87.3907 82.3679C91.8987 89.5759 110.844 109.687 110.844 109.687C110.844 109.687 129.088 90.6346 134.219 82.9706L135.863 80.1279C141.976 67.7866 135.609 55.0492 125.313 55.0492C122.308 54.9479 119.341 55.745 116.792 57.3386C114.242 58.9323 112.225 61.2502 111 63.9959C109.775 61.2502 107.758 58.9323 105.208 57.3386C102.659 55.745 99.6917 54.9479 96.6867 55.0492C87 55.0492 80.796 66.3133 85.176 77.9199L86.6747 81.1519Z" fill="#EA4867"/>
<path d="M142 79.128H137.412C140.085 72.728 139.812 65.7506 136.612 60.5946C135.458 58.6169 133.808 56.9737 131.826 55.8268C129.844 54.6798 127.598 54.0686 125.308 54.0533C122.448 53.9768 119.618 54.6578 117.105 56.027C114.592 57.3963 112.486 59.4054 111 61.8506C109.514 59.404 107.407 57.3938 104.894 56.0238C102.381 54.6537 99.5495 53.9725 96.688 54.0493C94.5309 54.0641 92.4106 54.6091 90.5137 55.6363C88.6169 56.6636 87.0018 58.1415 85.8107 59.94C82.372 64.9133 81.7853 71.7666 84.24 78.2733C84.3449 78.5048 84.5341 78.6877 84.7691 78.7848C85.004 78.8818 85.2671 78.8857 85.5049 78.7957C85.7426 78.7057 85.9372 78.5285 86.0489 78.3002C86.1607 78.0719 86.1814 77.8096 86.1067 77.5666C83.888 71.6746 84.3907 65.5106 87.456 61.0773C88.4554 59.5376 89.823 58.2715 91.435 57.3936C93.0469 56.5157 94.8524 56.0536 96.688 56.0493C99.4931 55.935 102.268 56.6654 104.653 58.1459C107.038 59.6264 108.924 61.7889 110.067 64.3533C110.153 64.5273 110.286 64.6738 110.451 64.7762C110.616 64.8786 110.806 64.9328 111 64.9328C111.194 64.9328 111.384 64.8786 111.549 64.7762C111.714 64.6738 111.847 64.5273 111.933 64.3533C113.076 61.7889 114.962 59.6264 117.347 58.1459C119.732 56.6654 122.507 55.935 125.312 56.0493C127.26 56.0697 129.17 56.5967 130.853 57.5785C132.536 58.5604 133.935 59.9632 134.912 61.6493C137.903 66.4693 137.979 73.116 135.2 79.132H131.085C130.928 79.1324 130.773 79.1697 130.632 79.2411C130.492 79.3124 130.37 79.4157 130.277 79.5426L129.537 80.5586L127.833 74.272C127.777 74.0652 127.656 73.882 127.488 73.7492C127.32 73.6164 127.114 73.5412 126.9 73.5346H126.867C126.657 73.5348 126.453 73.6006 126.283 73.7228C126.113 73.8451 125.986 74.0175 125.919 74.216L123.017 82.8546L120.825 68.4546C120.791 68.2296 120.682 68.0229 120.514 67.8686C120.347 67.7144 120.132 67.6219 119.905 67.6063C119.678 67.5908 119.452 67.6531 119.265 67.7831C119.079 67.9131 118.942 68.103 118.877 68.3213L115.716 79.128H111.492C111.27 79.128 111.054 79.2021 110.879 79.3385C110.703 79.4749 110.579 79.6659 110.524 79.8813L109.948 82.148L107.096 73.7333C107.03 73.5395 106.907 73.3705 106.742 73.2492C106.577 73.1278 106.379 73.0599 106.175 73.0546C105.969 73.0478 105.767 73.1052 105.596 73.2187C105.424 73.3322 105.293 73.4962 105.219 73.688L100.627 85.3413L97.96 62.6893C97.9328 62.4551 97.8236 62.2381 97.6519 62.0765C97.4802 61.9149 97.2569 61.8193 97.0215 61.8063C96.7861 61.7934 96.5537 61.8641 96.3653 62.0059C96.1769 62.1477 96.0447 62.3515 95.992 62.5813L91.976 79.932H80C79.7348 79.932 79.4804 80.0373 79.2929 80.2249C79.1054 80.4124 79 80.6667 79 80.932C79 81.1972 79.1054 81.4515 79.2929 81.6391C79.4804 81.8266 79.7348 81.932 80 81.932H85.9733C86.1573 82.2546 86.3413 82.5773 86.5427 82.8986C91.052 90.1013 109.34 109.548 110.116 110.368C110.209 110.467 110.321 110.546 110.446 110.6C110.57 110.654 110.704 110.682 110.84 110.683C110.975 110.683 111.109 110.655 111.233 110.602C111.357 110.55 111.469 110.472 111.563 110.375C112.309 109.593 129.924 91.1746 135.045 83.524C135.12 83.4149 135.173 83.2921 135.2 83.1627C135.227 83.0333 135.228 82.8997 135.203 82.7699C135.178 82.64 135.127 82.5164 135.054 82.4062C134.981 82.2959 134.887 82.2013 134.777 82.1277C134.667 82.0541 134.544 82.003 134.414 81.9773C134.285 81.9517 134.151 81.9521 134.022 81.9784C133.892 82.0047 133.769 82.0565 133.66 82.1306C133.55 82.2048 133.456 82.3 133.384 82.4106C128.939 89.048 114.291 104.597 110.851 108.227C107.363 104.501 92.296 88.244 88.3013 81.932H92.772C92.9981 81.932 93.2176 81.8555 93.3946 81.7148C93.5716 81.5741 93.6957 81.3776 93.7467 81.1573L96.64 68.6346L99.1053 89.5253C99.1319 89.7465 99.2314 89.9526 99.3881 90.111C99.5448 90.2694 99.7498 90.371 99.9707 90.4C100.015 90.4055 100.059 90.4081 100.104 90.408C100.305 90.4091 100.502 90.3492 100.669 90.2361C100.836 90.1231 100.964 89.9622 101.037 89.7746L106.089 76.964L109.133 85.9946C109.203 86.1988 109.336 86.3751 109.514 86.4972C109.691 86.6194 109.904 86.6808 110.119 86.6724C110.335 86.664 110.542 86.5862 110.709 86.4506C110.877 86.315 110.996 86.1289 111.049 85.92L112.265 81.128H116.467C116.683 81.128 116.893 81.0579 117.066 80.9284C117.239 80.7988 117.365 80.6167 117.425 80.4093L119.533 73.2186L121.667 87.2333C121.701 87.4548 121.808 87.6585 121.972 87.8116C122.135 87.9648 122.345 88.0586 122.569 88.078C122.792 88.0973 123.015 88.0412 123.203 87.9185C123.39 87.7958 123.531 87.6136 123.603 87.4013L126.769 77.9746L128.157 83.0906C128.207 83.2725 128.307 83.4367 128.445 83.5644C128.584 83.692 128.756 83.7778 128.941 83.812C129.127 83.8461 129.318 83.8272 129.493 83.7574C129.668 83.6875 129.82 83.5696 129.931 83.4173L131.599 81.128H141.999C142.264 81.128 142.518 81.0226 142.706 80.8351C142.893 80.6475 142.999 80.3932 142.999 80.128C142.999 79.8627 142.893 79.6084 142.706 79.4209C142.518 79.2333 142.265 79.128 142 79.128Z" fill="#1A1A1A"/>
</g>
<path d="M57.5523 152.368V142.186H58.7852V146.72H64.2142V142.186H65.4472V152.368H64.2142V147.814H58.7852V152.368H57.5523ZM71.4582 152.527C70.7224 152.527 70.0877 152.365 69.5541 152.04C69.0238 151.712 68.6144 151.254 68.3261 150.668C68.041 150.078 67.8985 149.392 67.8985 148.609C67.8985 147.827 68.041 147.138 68.3261 146.541C68.6144 145.941 69.0155 145.474 69.5292 145.139C70.0463 144.801 70.6495 144.632 71.3389 144.632C71.7366 144.632 72.1294 144.698 72.5171 144.831C72.9049 144.964 73.2579 145.179 73.5761 145.477C73.8943 145.772 74.1478 146.163 74.3367 146.651C74.5257 147.138 74.6201 147.738 74.6201 148.45V148.947H68.7338V147.933H73.4269C73.4269 147.502 73.3408 147.118 73.1684 146.78C72.9994 146.442 72.7574 146.175 72.4426 145.979C72.131 145.784 71.7631 145.686 71.3389 145.686C70.8715 145.686 70.4672 145.802 70.1258 146.034C69.7877 146.263 69.5276 146.561 69.3453 146.929C69.163 147.297 69.0718 147.691 69.0718 148.112V148.788C69.0718 149.365 69.1713 149.854 69.3701 150.255C69.5723 150.653 69.8524 150.956 70.2103 151.165C70.5683 151.37 70.9842 151.473 71.4582 151.473C71.7664 151.473 72.0448 151.43 72.2934 151.344C72.5453 151.254 72.7624 151.122 72.9447 150.946C73.127 150.767 73.2678 150.545 73.3673 150.28L74.5008 150.598C74.3815 150.983 74.181 151.321 73.8992 151.612C73.6175 151.901 73.2695 152.126 72.8552 152.288C72.4409 152.447 71.9752 152.527 71.4582 152.527ZM79.1521 152.547C78.6682 152.547 78.229 152.456 77.8346 152.273C77.4402 152.088 77.127 151.821 76.895 151.473C76.663 151.122 76.547 150.697 76.547 150.2C76.547 149.763 76.6331 149.408 76.8055 149.136C76.9778 148.861 77.2082 148.646 77.4965 148.49C77.7849 148.334 78.1031 148.218 78.4511 148.142C78.8024 148.063 79.1554 148 79.51 147.953C79.974 147.893 80.3502 147.849 80.6386 147.819C80.9303 147.786 81.1424 147.731 81.2749 147.655C81.4108 147.579 81.4788 147.446 81.4788 147.257V147.217C81.4788 146.727 81.3445 146.346 81.0761 146.074C80.8109 145.802 80.4082 145.666 79.868 145.666C79.3079 145.666 78.8687 145.789 78.5505 146.034C78.2323 146.279 78.0086 146.541 77.8794 146.82L76.7657 146.422C76.9646 145.958 77.2297 145.597 77.5612 145.338C77.8959 145.076 78.2605 144.894 78.6549 144.791C79.0526 144.685 79.4437 144.632 79.8282 144.632C80.0735 144.632 80.3552 144.662 80.6734 144.722C80.9949 144.778 81.3048 144.896 81.6031 145.075C81.9047 145.254 82.1549 145.524 82.3538 145.885C82.5526 146.246 82.6521 146.73 82.6521 147.337V152.368H81.4788V151.334H81.4191C81.3396 151.5 81.207 151.677 81.0214 151.866C80.8358 152.055 80.5889 152.215 80.2806 152.348C79.9724 152.481 79.5962 152.547 79.1521 152.547ZM79.3311 151.493C79.7951 151.493 80.1862 151.402 80.5044 151.219C80.8258 151.037 81.0678 150.802 81.2302 150.514C81.3959 150.225 81.4788 149.922 81.4788 149.604V148.53C81.4291 148.59 81.3197 148.644 81.1507 148.694C80.9849 148.74 80.7927 148.782 80.574 148.818C80.3585 148.851 80.1481 148.881 79.9426 148.908C79.7404 148.931 79.5763 148.951 79.4504 148.967C79.1454 149.007 78.8604 149.072 78.5953 149.161C78.3334 149.247 78.1213 149.378 77.9589 149.554C77.7998 149.726 77.7203 149.962 77.7203 150.26C77.7203 150.668 77.8711 150.976 78.1727 151.185C78.4776 151.39 78.8637 151.493 79.3311 151.493ZM86.4669 142.186V152.368H85.2936V142.186H86.4669ZM92.4369 144.732V145.726H88.4795V144.732H92.4369ZM89.6329 142.902H90.8062V150.18C90.8062 150.512 90.8543 150.76 90.9504 150.926C91.0498 151.089 91.1758 151.198 91.3282 151.254C91.484 151.307 91.6481 151.334 91.8204 151.334C91.9497 151.334 92.0557 151.327 92.1386 151.314C92.2214 151.297 92.2877 151.284 92.3374 151.274L92.5761 152.328C92.4965 152.358 92.3855 152.388 92.243 152.418C92.1005 152.451 91.9198 152.467 91.7011 152.467C91.3696 152.467 91.0448 152.396 90.7267 152.254C90.4118 152.111 90.1499 151.894 89.9411 151.602C89.7356 151.311 89.6329 150.943 89.6329 150.499V142.902ZM96.0392 147.774V152.368H94.8659V142.186H96.0392V145.925H96.1386C96.3176 145.53 96.586 145.217 96.944 144.985C97.3052 144.75 97.7858 144.632 98.3857 144.632C98.9061 144.632 99.3618 144.737 99.7529 144.945C100.144 145.151 100.447 145.467 100.663 145.895C100.881 146.319 100.991 146.859 100.991 147.516V152.368H99.8176V147.595C99.8176 146.989 99.6601 146.52 99.3453 146.188C99.0337 145.853 98.6012 145.686 98.0477 145.686C97.6632 145.686 97.3185 145.767 97.0136 145.93C96.712 146.092 96.4733 146.329 96.2977 146.641C96.1253 146.952 96.0392 147.33 96.0392 147.774ZM106.74 152.527C106.024 152.527 105.407 152.358 104.89 152.02C104.373 151.682 103.975 151.216 103.697 150.623C103.419 150.03 103.279 149.352 103.279 148.59C103.279 147.814 103.422 147.13 103.707 146.536C103.995 145.94 104.396 145.474 104.91 145.139C105.427 144.801 106.03 144.632 106.72 144.632C107.257 144.632 107.741 144.732 108.171 144.93C108.602 145.129 108.955 145.408 109.23 145.766C109.505 146.124 109.676 146.541 109.742 147.018H108.569C108.48 146.67 108.281 146.362 107.973 146.094C107.668 145.822 107.257 145.686 106.74 145.686C106.282 145.686 105.881 145.805 105.536 146.044C105.195 146.279 104.928 146.612 104.736 147.043C104.547 147.471 104.453 147.973 104.453 148.55C104.453 149.14 104.545 149.653 104.731 150.091C104.92 150.528 105.185 150.868 105.527 151.11C105.871 151.352 106.276 151.473 106.74 151.473C107.045 151.473 107.321 151.42 107.57 151.314C107.818 151.208 108.029 151.055 108.201 150.857C108.374 150.658 108.496 150.419 108.569 150.141H109.742C109.676 150.591 109.512 150.997 109.25 151.359C108.992 151.717 108.649 152.002 108.221 152.214C107.797 152.423 107.303 152.527 106.74 152.527ZM114.205 152.547C113.721 152.547 113.282 152.456 112.887 152.273C112.493 152.088 112.18 151.821 111.948 151.473C111.716 151.122 111.6 150.697 111.6 150.2C111.6 149.763 111.686 149.408 111.858 149.136C112.031 148.861 112.261 148.646 112.549 148.49C112.838 148.334 113.156 148.218 113.504 148.142C113.855 148.063 114.208 148 114.563 147.953C115.027 147.893 115.403 147.849 115.691 147.819C115.983 147.786 116.195 147.731 116.328 147.655C116.464 147.579 116.532 147.446 116.532 147.257V147.217C116.532 146.727 116.397 146.346 116.129 146.074C115.864 145.802 115.461 145.666 114.921 145.666C114.361 145.666 113.921 145.789 113.603 146.034C113.285 146.279 113.061 146.541 112.932 146.82L111.818 146.422C112.017 145.958 112.282 145.597 112.614 145.338C112.949 145.076 113.313 144.894 113.708 144.791C114.105 144.685 114.496 144.632 114.881 144.632C115.126 144.632 115.408 144.662 115.726 144.722C116.048 144.778 116.358 144.896 116.656 145.075C116.957 145.254 117.208 145.524 117.407 145.885C117.605 146.246 117.705 146.73 117.705 147.337V152.368H116.532V151.334H116.472C116.392 151.5 116.26 151.677 116.074 151.866C115.889 152.055 115.642 152.215 115.333 152.348C115.025 152.481 114.649 152.547 114.205 152.547ZM114.384 151.493C114.848 151.493 115.239 151.402 115.557 151.219C115.879 151.037 116.121 150.802 116.283 150.514C116.449 150.225 116.532 149.922 116.532 149.604V148.53C116.482 148.59 116.372 148.644 116.203 148.694C116.038 148.74 115.845 148.782 115.627 148.818C115.411 148.851 115.201 148.881 114.995 148.908C114.793 148.931 114.629 148.951 114.503 148.967C114.198 149.007 113.913 149.072 113.648 149.161C113.386 149.247 113.174 149.378 113.012 149.554C112.853 149.726 112.773 149.962 112.773 150.26C112.773 150.668 112.924 150.976 113.225 151.185C113.53 151.39 113.916 151.493 114.384 151.493ZM120.346 152.368V144.732H121.48V145.885H121.559C121.699 145.507 121.95 145.201 122.315 144.965C122.68 144.73 123.091 144.612 123.548 144.612C123.634 144.612 123.742 144.614 123.871 144.617C124 144.621 124.098 144.625 124.165 144.632V145.825C124.125 145.815 124.034 145.8 123.891 145.781C123.752 145.757 123.604 145.746 123.449 145.746C123.077 145.746 122.746 145.824 122.454 145.979C122.166 146.132 121.937 146.344 121.768 146.616C121.602 146.884 121.52 147.191 121.52 147.536V152.368H120.346ZM129.025 152.527C128.289 152.527 127.654 152.365 127.12 152.04C126.59 151.712 126.181 151.254 125.892 150.668C125.607 150.078 125.465 149.392 125.465 148.609C125.465 147.827 125.607 147.138 125.892 146.541C126.181 145.941 126.582 145.474 127.096 145.139C127.613 144.801 128.216 144.632 128.905 144.632C129.303 144.632 129.696 144.698 130.084 144.831C130.471 144.964 130.824 145.179 131.142 145.477C131.461 145.772 131.714 146.163 131.903 146.651C132.092 147.138 132.187 147.738 132.187 148.45V148.947H126.3V147.933H130.993C130.993 147.502 130.907 147.118 130.735 146.78C130.566 146.442 130.324 146.175 130.009 145.979C129.697 145.784 129.33 145.686 128.905 145.686C128.438 145.686 128.034 145.802 127.692 146.034C127.354 146.263 127.094 146.561 126.912 146.929C126.729 147.297 126.638 147.691 126.638 148.112V148.788C126.638 149.365 126.738 149.854 126.937 150.255C127.139 150.653 127.419 150.956 127.777 151.165C128.135 151.37 128.551 151.473 129.025 151.473C129.333 151.473 129.611 151.43 129.86 151.344C130.112 151.254 130.329 151.122 130.511 150.946C130.693 150.767 130.834 150.545 130.934 150.28L132.067 150.598C131.948 150.983 131.747 151.321 131.466 151.612C131.184 151.901 130.836 152.126 130.422 152.288C130.007 152.447 129.542 152.527 129.025 152.527ZM139.486 152.368H138.193L141.932 142.186H143.204L146.943 152.368H145.65L142.608 143.797H142.528L139.486 152.368ZM139.963 148.391H145.173V149.484H139.963V148.391ZM150.043 147.774V152.368H148.87V144.732H150.003V145.925H150.103C150.282 145.537 150.553 145.225 150.918 144.99C151.283 144.751 151.753 144.632 152.33 144.632C152.847 144.632 153.299 144.738 153.687 144.95C154.075 145.159 154.377 145.477 154.592 145.905C154.807 146.329 154.915 146.866 154.915 147.516V152.368H153.742V147.595C153.742 146.995 153.586 146.528 153.275 146.193C152.963 145.855 152.535 145.686 151.992 145.686C151.617 145.686 151.283 145.767 150.988 145.93C150.696 146.092 150.466 146.329 150.297 146.641C150.128 146.952 150.043 147.33 150.043 147.774ZM160.443 152.527C159.806 152.527 159.245 152.366 158.757 152.045C158.27 151.72 157.889 151.263 157.614 150.673C157.339 150.079 157.201 149.378 157.201 148.57C157.201 147.768 157.339 147.072 157.614 146.482C157.889 145.892 158.272 145.436 158.762 145.114C159.253 144.793 159.82 144.632 160.463 144.632C160.96 144.632 161.353 144.715 161.641 144.881C161.933 145.043 162.155 145.229 162.307 145.438C162.463 145.643 162.584 145.812 162.67 145.945H162.769V142.186H163.943V152.368H162.809V151.195H162.67C162.584 151.334 162.461 151.509 162.302 151.722C162.143 151.93 161.916 152.118 161.621 152.283C161.326 152.446 160.933 152.527 160.443 152.527ZM160.602 151.473C161.072 151.473 161.47 151.35 161.795 151.105C162.12 150.857 162.367 150.514 162.536 150.076C162.705 149.635 162.789 149.126 162.789 148.55C162.789 147.98 162.706 147.481 162.541 147.053C162.375 146.622 162.13 146.288 161.805 146.049C161.48 145.807 161.079 145.686 160.602 145.686C160.105 145.686 159.69 145.814 159.359 146.069C159.031 146.321 158.784 146.664 158.618 147.098C158.456 147.529 158.375 148.013 158.375 148.55C158.375 149.093 158.457 149.587 158.623 150.031C158.792 150.472 159.041 150.823 159.369 151.085C159.7 151.344 160.111 151.473 160.602 151.473ZM54.148 169.368V159.186H57.5883C58.3871 159.186 59.04 159.33 59.5471 159.619C60.0576 159.904 60.4354 160.29 60.6807 160.777C60.9259 161.264 61.0486 161.808 61.0486 162.408C61.0486 163.008 60.9259 163.553 60.6807 164.043C60.4387 164.534 60.0642 164.925 59.5571 165.217C59.05 165.505 58.4004 165.649 57.6082 165.649H55.1423V164.555H57.5684C58.1153 164.555 58.5545 164.461 58.8859 164.272C59.2174 164.083 59.4577 163.828 59.6068 163.506C59.7593 163.182 59.8355 162.815 59.8355 162.408C59.8355 162 59.7593 161.635 59.6068 161.314C59.4577 160.992 59.2157 160.741 58.8809 160.558C58.5462 160.373 58.1021 160.28 57.5486 160.28H55.3809V169.368H54.148ZM64.5489 164.774V169.368H63.3756V159.186H64.5489V162.925H64.6483C64.8273 162.53 65.0958 162.217 65.4537 161.985C65.815 161.75 66.2956 161.632 66.8955 161.632C67.4159 161.632 67.8716 161.737 68.2627 161.945C68.6538 162.151 68.9571 162.467 69.1725 162.895C69.3912 163.319 69.5006 163.859 69.5006 164.516V169.368H68.3273V164.595C68.3273 163.989 68.1699 163.52 67.855 163.188C67.5435 162.853 67.1109 162.686 66.5574 162.686C66.173 162.686 65.8283 162.767 65.5233 162.93C65.2217 163.092 64.9831 163.329 64.8074 163.641C64.6351 163.952 64.5489 164.33 64.5489 164.774ZM74.3943 169.547C73.9104 169.547 73.4712 169.456 73.0768 169.273C72.6824 169.088 72.3692 168.821 72.1372 168.473C71.9052 168.122 71.7892 167.697 71.7892 167.2C71.7892 166.763 71.8753 166.408 72.0477 166.136C72.22 165.861 72.4504 165.646 72.7387 165.49C73.0271 165.334 73.3453 165.218 73.6933 165.142C74.0446 165.063 74.3976 165 74.7522 164.953C75.2162 164.893 75.5924 164.849 75.8808 164.819C76.1724 164.786 76.3846 164.731 76.5171 164.655C76.653 164.579 76.721 164.446 76.721 164.257V164.217C76.721 163.727 76.5867 163.346 76.3183 163.074C76.0531 162.802 75.6504 162.666 75.1102 162.666C74.55 162.666 74.1109 162.789 73.7927 163.034C73.4745 163.279 73.2508 163.541 73.1215 163.82L72.0079 163.422C72.2068 162.958 72.4719 162.597 72.8034 162.338C73.1381 162.076 73.5027 161.894 73.8971 161.791C74.2948 161.685 74.6859 161.632 75.0704 161.632C75.3157 161.632 75.5974 161.662 75.9156 161.722C76.2371 161.778 76.547 161.896 76.8453 162.075C77.1469 162.254 77.3971 162.524 77.596 162.885C77.7948 163.246 77.8943 163.73 77.8943 164.337V169.368H76.721V168.334H76.6613C76.5818 168.5 76.4492 168.677 76.2636 168.866C76.078 169.055 75.8311 169.215 75.5228 169.348C75.2146 169.481 74.8384 169.547 74.3943 169.547ZM74.5732 168.493C75.0373 168.493 75.4284 168.402 75.7465 168.219C76.068 168.037 76.31 167.802 76.4724 167.514C76.6381 167.225 76.721 166.922 76.721 166.604V165.53C76.6713 165.59 76.5619 165.644 76.3928 165.694C76.2271 165.74 76.0349 165.782 75.8161 165.818C75.6007 165.851 75.3902 165.881 75.1847 165.908C74.9826 165.931 74.8185 165.951 74.6926 165.967C74.3876 166.007 74.1026 166.072 73.8374 166.161C73.5756 166.247 73.3635 166.378 73.2011 166.554C73.042 166.726 72.9624 166.962 72.9624 167.26C72.9624 167.668 73.1133 167.976 73.4149 168.185C73.7198 168.39 74.1059 168.493 74.5732 168.493ZM80.5358 169.368V161.732H81.6693V162.885H81.7488C81.8881 162.507 82.1399 162.201 82.5045 161.965C82.8691 161.73 83.2801 161.612 83.7375 161.612C83.8237 161.612 83.9314 161.614 84.0606 161.617C84.1899 161.621 84.2877 161.625 84.354 161.632V162.825C84.3142 162.815 84.223 162.8 84.0805 162.781C83.9413 162.757 83.7938 162.746 83.6381 162.746C83.2668 162.746 82.9354 162.824 82.6437 162.979C82.3554 163.132 82.1267 163.344 81.9577 163.616C81.7919 163.884 81.7091 164.191 81.7091 164.536V169.368H80.5358ZM86.2448 169.368V161.732H87.3783V162.925H87.4777C87.6368 162.517 87.8937 162.201 88.2483 161.975C88.603 161.746 89.0289 161.632 89.526 161.632C90.0298 161.632 90.4491 161.746 90.7838 161.975C91.1219 162.201 91.3854 162.517 91.5743 162.925H91.6539C91.8494 162.53 92.1427 162.217 92.5338 161.985C92.9249 161.75 93.3939 161.632 93.9408 161.632C94.6236 161.632 95.182 161.846 95.6162 162.273C96.0504 162.698 96.2675 163.359 96.2675 164.257V169.368H95.0942V164.257C95.0942 163.694 94.9401 163.291 94.6318 163.049C94.3236 162.807 93.9607 162.686 93.5431 162.686C93.0061 162.686 92.5902 162.849 92.2952 163.173C92.0002 163.495 91.8527 163.902 91.8527 164.396V169.368H90.6595V164.138C90.6595 163.704 90.5187 163.354 90.2369 163.089C89.9552 162.82 89.5923 162.686 89.1482 162.686C88.8432 162.686 88.5582 162.767 88.2931 162.93C88.0312 163.092 87.8191 163.317 87.6567 163.606C87.4976 163.891 87.4181 164.221 87.4181 164.595V169.368H86.2448ZM101.16 169.547C100.676 169.547 100.237 169.456 99.8424 169.273C99.448 169.088 99.1348 168.821 98.9028 168.473C98.6708 168.122 98.5548 167.697 98.5548 167.2C98.5548 166.763 98.641 166.408 98.8133 166.136C98.9856 165.861 99.216 165.646 99.5044 165.49C99.7927 165.334 100.111 165.218 100.459 165.142C100.81 165.063 101.163 165 101.518 164.953C101.982 164.893 102.358 164.849 102.646 164.819C102.938 164.786 103.15 164.731 103.283 164.655C103.419 164.579 103.487 164.446 103.487 164.257V164.217C103.487 163.727 103.352 163.346 103.084 163.074C102.819 162.802 102.416 162.666 101.876 162.666C101.316 162.666 100.877 162.789 100.558 163.034C100.24 163.279 100.016 163.541 99.8872 163.82L98.7735 163.422C98.9724 162.958 99.2375 162.597 99.569 162.338C99.9037 162.076 100.268 161.894 100.663 161.791C101.06 161.685 101.452 161.632 101.836 161.632C102.081 161.632 102.363 161.662 102.681 161.722C103.003 161.778 103.313 161.896 103.611 162.075C103.912 162.254 104.163 162.524 104.362 162.885C104.56 163.246 104.66 163.73 104.66 164.337V169.368H103.487V168.334H103.427C103.347 168.5 103.215 168.677 103.029 168.866C102.844 169.055 102.597 169.215 102.288 169.348C101.98 169.481 101.604 169.547 101.16 169.547ZM101.339 168.493C101.803 168.493 102.194 168.402 102.512 168.219C102.834 168.037 103.076 167.802 103.238 167.514C103.404 167.225 103.487 166.922 103.487 166.604V165.53C103.437 165.59 103.328 165.644 103.158 165.694C102.993 165.74 102.801 165.782 102.582 165.818C102.366 165.851 102.156 165.881 101.95 165.908C101.748 165.931 101.584 165.951 101.458 165.967C101.153 166.007 100.868 166.072 100.603 166.161C100.341 166.247 100.129 166.378 99.9667 166.554C99.8076 166.726 99.7281 166.962 99.7281 167.26C99.7281 167.668 99.8789 167.976 100.18 168.185C100.485 168.39 100.872 168.493 101.339 168.493ZM110.404 169.527C109.688 169.527 109.071 169.358 108.554 169.02C108.037 168.682 107.639 168.216 107.361 167.623C107.083 167.03 106.943 166.352 106.943 165.59C106.943 164.814 107.086 164.13 107.371 163.536C107.659 162.94 108.06 162.474 108.574 162.139C109.091 161.801 109.694 161.632 110.384 161.632C110.921 161.632 111.405 161.732 111.835 161.93C112.266 162.129 112.619 162.408 112.894 162.766C113.17 163.124 113.34 163.541 113.407 164.018H112.233C112.144 163.67 111.945 163.362 111.637 163.094C111.332 162.822 110.921 162.686 110.404 162.686C109.946 162.686 109.545 162.805 109.201 163.044C108.859 163.279 108.592 163.612 108.4 164.043C108.211 164.471 108.117 164.973 108.117 165.55C108.117 166.14 108.21 166.653 108.395 167.091C108.584 167.528 108.849 167.868 109.191 168.11C109.535 168.352 109.94 168.473 110.404 168.473C110.709 168.473 110.985 168.42 111.234 168.314C111.483 168.208 111.693 168.055 111.865 167.857C112.038 167.658 112.16 167.419 112.233 167.141H113.407C113.34 167.591 113.176 167.997 112.914 168.359C112.656 168.717 112.313 169.002 111.885 169.214C111.461 169.423 110.967 169.527 110.404 169.527ZM118.823 169.527C118.088 169.527 117.453 169.365 116.919 169.04C116.389 168.712 115.98 168.254 115.691 167.668C115.406 167.078 115.264 166.392 115.264 165.609C115.264 164.827 115.406 164.138 115.691 163.541C115.98 162.941 116.381 162.474 116.894 162.139C117.411 161.801 118.015 161.632 118.704 161.632C119.102 161.632 119.495 161.698 119.882 161.831C120.27 161.964 120.623 162.179 120.941 162.477C121.259 162.772 121.513 163.163 121.702 163.651C121.891 164.138 121.985 164.738 121.985 165.45V165.947H116.099V164.933H120.792C120.792 164.502 120.706 164.118 120.534 163.78C120.365 163.442 120.123 163.175 119.808 162.979C119.496 162.784 119.128 162.686 118.704 162.686C118.237 162.686 117.832 162.802 117.491 163.034C117.153 163.263 116.893 163.561 116.71 163.929C116.528 164.297 116.437 164.691 116.437 165.112V165.788C116.437 166.365 116.536 166.854 116.735 167.255C116.938 167.653 117.218 167.956 117.576 168.165C117.934 168.37 118.349 168.473 118.823 168.473C119.132 168.473 119.41 168.43 119.659 168.344C119.911 168.254 120.128 168.122 120.31 167.946C120.492 167.767 120.633 167.545 120.733 167.28L121.866 167.598C121.747 167.983 121.546 168.321 121.264 168.612C120.983 168.901 120.635 169.126 120.22 169.288C119.806 169.447 119.34 169.527 118.823 169.527ZM129.083 166.246V161.732H130.256V169.368H129.083V168.075H129.003C128.824 168.463 128.546 168.793 128.168 169.065C127.79 169.333 127.313 169.467 126.736 169.467C126.259 169.467 125.835 169.363 125.463 169.154C125.092 168.942 124.8 168.624 124.588 168.2C124.376 167.772 124.27 167.233 124.27 166.584V161.732H125.443V166.504C125.443 167.061 125.599 167.505 125.911 167.837C126.226 168.168 126.627 168.334 127.114 168.334C127.406 168.334 127.702 168.259 128.004 168.11C128.309 167.961 128.564 167.732 128.769 167.424C128.978 167.116 129.083 166.723 129.083 166.246ZM136.226 161.732V162.726H132.269V161.732H136.226ZM133.422 159.902H134.595V167.18C134.595 167.512 134.643 167.76 134.739 167.926C134.839 168.089 134.965 168.198 135.117 168.254C135.273 168.307 135.437 168.334 135.609 168.334C135.739 168.334 135.845 168.327 135.928 168.314C136.011 168.297 136.077 168.284 136.127 168.274L136.365 169.328C136.286 169.358 136.175 169.388 136.032 169.418C135.89 169.451 135.709 169.467 135.49 169.467C135.159 169.467 134.834 169.396 134.516 169.254C134.201 169.111 133.939 168.894 133.73 168.602C133.525 168.311 133.422 167.943 133.422 167.499V159.902ZM138.491 169.368V161.732H139.664V169.368H138.491ZM139.087 160.459C138.859 160.459 138.662 160.381 138.496 160.225C138.333 160.069 138.252 159.882 138.252 159.663C138.252 159.445 138.333 159.257 138.496 159.102C138.662 158.946 138.859 158.868 139.087 158.868C139.316 158.868 139.512 158.946 139.674 159.102C139.84 159.257 139.923 159.445 139.923 159.663C139.923 159.882 139.84 160.069 139.674 160.225C139.512 160.381 139.316 160.459 139.087 160.459ZM145.415 169.527C144.699 169.527 144.083 169.358 143.566 169.02C143.049 168.682 142.651 168.216 142.373 167.623C142.094 167.03 141.955 166.352 141.955 165.59C141.955 164.814 142.098 164.13 142.383 163.536C142.671 162.94 143.072 162.474 143.586 162.139C144.103 161.801 144.706 161.632 145.396 161.632C145.932 161.632 146.416 161.732 146.847 161.93C147.278 162.129 147.631 162.408 147.906 162.766C148.181 163.124 148.352 163.541 148.418 164.018H147.245C147.155 163.67 146.957 163.362 146.648 163.094C146.343 162.822 145.932 162.686 145.415 162.686C144.958 162.686 144.557 162.805 144.212 163.044C143.871 163.279 143.604 163.612 143.412 164.043C143.223 164.471 143.128 164.973 143.128 165.55C143.128 166.14 143.221 166.653 143.407 167.091C143.596 167.528 143.861 167.868 144.202 168.11C144.547 168.352 144.951 168.473 145.415 168.473C145.72 168.473 145.997 168.42 146.246 168.314C146.494 168.208 146.705 168.055 146.877 167.857C147.049 167.658 147.172 167.419 147.245 167.141H148.418C148.352 167.591 148.188 167.997 147.926 168.359C147.668 168.717 147.324 169.002 146.897 169.214C146.473 169.423 145.979 169.527 145.415 169.527ZM152.881 169.547C152.397 169.547 151.958 169.456 151.563 169.273C151.169 169.088 150.855 168.821 150.623 168.473C150.391 168.122 150.275 167.697 150.275 167.2C150.275 166.763 150.362 166.408 150.534 166.136C150.706 165.861 150.937 165.646 151.225 165.49C151.513 165.334 151.832 165.218 152.18 165.142C152.531 165.063 152.884 165 153.239 164.953C153.703 164.893 154.079 164.849 154.367 164.819C154.659 164.786 154.871 164.731 155.003 164.655C155.139 164.579 155.207 164.446 155.207 164.257V164.217C155.207 163.727 155.073 163.346 154.805 163.074C154.539 162.802 154.137 162.666 153.597 162.666C153.036 162.666 152.597 162.789 152.279 163.034C151.961 163.279 151.737 163.541 151.608 163.82L150.494 163.422C150.693 162.958 150.958 162.597 151.29 162.338C151.624 162.076 151.989 161.894 152.383 161.791C152.781 161.685 153.172 161.632 153.557 161.632C153.802 161.632 154.084 161.662 154.402 161.722C154.723 161.778 155.033 161.896 155.332 162.075C155.633 162.254 155.883 162.524 156.082 162.885C156.281 163.246 156.381 163.73 156.381 164.337V169.368H155.207V168.334H155.148C155.068 168.5 154.936 168.677 154.75 168.866C154.564 169.055 154.317 169.215 154.009 169.348C153.701 169.481 153.325 169.547 152.881 169.547ZM153.06 168.493C153.524 168.493 153.915 168.402 154.233 168.219C154.554 168.037 154.796 167.802 154.959 167.514C155.124 167.225 155.207 166.922 155.207 166.604V165.53C155.158 165.59 155.048 165.644 154.879 165.694C154.713 165.74 154.521 165.782 154.302 165.818C154.087 165.851 153.877 165.881 153.671 165.908C153.469 165.931 153.305 165.951 153.179 165.967C152.874 166.007 152.589 166.072 152.324 166.161C152.062 166.247 151.85 166.378 151.687 166.554C151.528 166.726 151.449 166.962 151.449 167.26C151.449 167.668 151.6 167.976 151.901 168.185C152.206 168.39 152.592 168.493 153.06 168.493ZM160.195 159.186V169.368H159.022V159.186H160.195ZM168.253 163.442L167.199 163.74C167.133 163.564 167.035 163.394 166.906 163.228C166.78 163.059 166.608 162.92 166.389 162.81C166.17 162.701 165.89 162.646 165.549 162.646C165.082 162.646 164.692 162.754 164.381 162.969C164.072 163.182 163.918 163.452 163.918 163.78C163.918 164.072 164.024 164.302 164.236 164.471C164.449 164.64 164.78 164.781 165.231 164.893L166.364 165.172C167.047 165.338 167.556 165.591 167.891 165.933C168.225 166.271 168.393 166.706 168.393 167.24C168.393 167.678 168.267 168.069 168.015 168.413C167.766 168.758 167.418 169.03 166.971 169.229C166.523 169.428 166.003 169.527 165.41 169.527C164.631 169.527 163.986 169.358 163.476 169.02C162.965 168.682 162.642 168.188 162.506 167.538L163.62 167.26C163.726 167.671 163.927 167.979 164.222 168.185C164.52 168.39 164.909 168.493 165.39 168.493C165.937 168.493 166.371 168.377 166.692 168.145C167.017 167.91 167.18 167.628 167.18 167.3C167.18 167.035 167.087 166.813 166.901 166.634C166.716 166.451 166.431 166.315 166.046 166.226L164.773 165.928C164.074 165.762 163.56 165.505 163.232 165.157C162.907 164.806 162.745 164.366 162.745 163.84C162.745 163.409 162.866 163.027 163.108 162.696C163.353 162.365 163.686 162.104 164.107 161.916C164.531 161.727 165.012 161.632 165.549 161.632C166.305 161.632 166.898 161.798 167.329 162.129C167.763 162.461 168.071 162.898 168.253 163.442Z" fill="black"/>
</g>
<defs>
<filter id="filter0_d_130_1914" x="0" y="0.36792" width="230" height="230" filterUnits="userSpaceOnUse" color-interpolation-filters="sRGB">
<feFlood flood-opacity="0" result="BackgroundImageFix"/>
<feColorMatrix in="SourceAlpha" type="matrix" values="0 0 0 0 0 0 0 0 0 0 0 0 0 0 0 0 0 0 127 0" result="hardAlpha"/>
<feOffset dx="4" dy="4"/>
<feGaussianBlur stdDeviation="7.5"/>
<feComposite in2="hardAlpha" operator="out"/>
<feColorMatrix type="matrix" values="0 0 0 0 0 0 0 0 0 0 0 0 0 0 0 0 0 0 0.25 0"/>
<feBlend mode="normal" in2="BackgroundImageFix" result="effect1_dropShadow_130_1914"/>
<feBlend mode="normal" in="SourceGraphic" in2="effect1_dropShadow_130_1914" result="shape"/>
</filter>
<clipPath id="clip0_130_1914">
<rect width="64" height="64" fill="white" transform="translate(79 50.3679)"/>
</clipPath>
</defs>
</svg>
