<svg width="230" height="231" viewBox="0 0 230 231" fill="none" xmlns="http://www.w3.org/2000/svg">
<g filter="url(#filter0_d_130_1989)">
<rect width="200" height="200" transform="translate(11 11.3679)" fill="white"/>
<path d="M112.408 110.882V105.856C112.408 105.748 112.451 105.644 112.528 105.567C112.604 105.491 112.708 105.448 112.816 105.448C112.925 105.448 113.028 105.491 113.105 105.567C113.181 105.644 113.224 105.748 113.224 105.856V110.882C113.224 116.917 119.452 121.006 124.914 118.529C135.658 113.658 142.419 102.885 142.137 91.0844C141.762 75.3993 128.556 62.4703 112.833 62.4703C100.021 62.4703 88.5293 70.9317 84.772 83.2019C84.7403 83.3054 84.6688 83.3921 84.5731 83.4429C84.4775 83.4937 84.3656 83.5044 84.2621 83.4727C84.1586 83.441 84.0719 83.3694 84.0212 83.2738C83.9704 83.1782 83.9597 83.0663 83.9914 82.9628C87.853 70.3518 99.6658 61.6541 112.833 61.6541C129.092 61.6541 142.563 74.7688 142.953 91.0649C143.243 103.194 136.294 114.266 125.251 119.272C119.24 121.996 112.408 117.503 112.408 110.882Z" fill="#646464"/>
<path d="M102.418 88.594C102.418 87.6292 103.201 86.8469 104.165 86.8469H121.366C122.331 86.8469 123.113 87.6292 123.113 88.594C123.113 89.5589 122.331 90.3412 121.366 90.3412H104.165C103.2 90.3412 102.418 89.5589 102.418 88.594Z" fill="#F9E109"/>
<path d="M104.266 98.0091V90.3413H121.266V98.0091C121.266 102.703 117.46 106.509 112.766 106.509C108.071 106.509 104.266 102.703 104.266 98.0091Z" fill="#F8664F"/>
<path d="M109.254 78.6837V86.847H106.551V78.6837C106.551 77.9373 107.156 77.3322 107.903 77.3322C108.649 77.3322 109.254 77.9373 109.254 78.6837ZM118.981 78.6837V86.847H116.278V78.6837C116.278 77.9373 116.883 77.3322 117.629 77.3322C118.376 77.3322 118.981 77.9373 118.981 78.6837Z" fill="#878787"/>
<path d="M112.766 100.768C114.557 100.768 116.01 99.3155 116.01 97.524C116.01 95.7325 114.557 94.2803 112.766 94.2803C110.974 94.2803 109.522 95.7325 109.522 97.524C109.522 99.3155 110.974 100.768 112.766 100.768Z" fill="#EEF0EE"/>
<path d="M93.3084 99.4223C92.4605 101.336 91.0489 105.499 92.9099 108.864C93.1989 109.386 92.7111 109.991 92.1429 109.808C86.5924 108.017 71.2346 101.18 83.9446 82.9866C83.9944 82.912 84.0452 82.8385 84.0971 82.7648C84.1318 82.7154 84.1779 82.6751 84.2316 82.6474C84.2852 82.6198 84.3448 82.6055 84.4051 82.6058C84.4932 82.6064 84.5813 82.6081 84.6694 82.6111C86.9581 82.683 96.8966 83.6428 94.6862 95.1355C94.4022 96.6145 93.919 98.0446 93.3084 99.4223Z" fill="#A1D51C"/>
<path d="M87.0136 96.4218C86.989 96.6156 86.8464 96.7777 86.5566 96.7777C86.3346 96.7483 86.1746 96.5458 86.204 96.3206C86.2138 96.2455 87.0954 88.808 83.9446 82.9866C83.994 82.9126 84.0444 82.8397 84.096 82.7666C84.131 82.7166 84.1777 82.6758 84.2319 82.6478C84.2862 82.6198 84.3464 82.6054 84.4075 82.6058C84.4778 82.6062 84.5658 82.6076 84.6695 82.6111C87.9409 88.6611 87.0528 96.1051 87.0136 96.4218Z" fill="#96BF16"/>
<path d="M87.98 160.868V150.686H94.1249V151.78H89.213V155.22H93.8067V156.314H89.213V159.774H94.2045V160.868H87.98ZM97.8614 156.274V160.868H96.6881V153.232H97.8216V154.425H97.9211C98.1001 154.037 98.3718 153.725 98.7364 153.49C99.101 153.251 99.5716 153.132 100.148 153.132C100.665 153.132 101.118 153.238 101.506 153.45C101.893 153.659 102.195 153.977 102.41 154.405C102.626 154.829 102.734 155.366 102.734 156.016V160.868H101.56V156.095C101.56 155.495 101.405 155.028 101.093 154.693C100.781 154.355 100.354 154.186 99.8103 154.186C99.4358 154.186 99.101 154.267 98.806 154.43C98.5144 154.592 98.284 154.829 98.115 155.141C97.9459 155.452 97.8614 155.83 97.8614 156.274ZM108.579 161.027C107.843 161.027 107.209 160.865 106.675 160.54C106.145 160.212 105.736 159.754 105.447 159.168C105.162 158.578 105.02 157.892 105.02 157.109C105.02 156.327 105.162 155.638 105.447 155.041C105.736 154.441 106.137 153.974 106.65 153.639C107.167 153.301 107.771 153.132 108.46 153.132C108.858 153.132 109.25 153.198 109.638 153.331C110.026 153.464 110.379 153.679 110.697 153.977C111.015 154.272 111.269 154.663 111.458 155.151C111.647 155.638 111.741 156.238 111.741 156.95V157.447H105.855V156.433H110.548C110.548 156.002 110.462 155.618 110.29 155.28C110.12 154.942 109.879 154.675 109.564 154.479C109.252 154.284 108.884 154.186 108.46 154.186C107.993 154.186 107.588 154.302 107.247 154.534C106.909 154.763 106.649 155.061 106.466 155.429C106.284 155.797 106.193 156.191 106.193 156.612V157.288C106.193 157.865 106.292 158.354 106.491 158.755C106.693 159.153 106.973 159.456 107.331 159.665C107.689 159.87 108.105 159.973 108.579 159.973C108.888 159.973 109.166 159.93 109.415 159.844C109.666 159.754 109.883 159.622 110.066 159.446C110.248 159.267 110.389 159.045 110.488 158.78L111.622 159.098C111.503 159.483 111.302 159.821 111.02 160.112C110.739 160.401 110.391 160.626 109.976 160.788C109.562 160.947 109.096 161.027 108.579 161.027ZM114.026 160.868V153.232H115.16V154.385H115.239C115.378 154.007 115.63 153.701 115.995 153.465C116.359 153.23 116.77 153.112 117.228 153.112C117.314 153.112 117.422 153.114 117.551 153.117C117.68 153.121 117.778 153.125 117.844 153.132V154.325C117.804 154.315 117.713 154.3 117.571 154.281C117.432 154.257 117.284 154.246 117.128 154.246C116.757 154.246 116.426 154.324 116.134 154.479C115.846 154.632 115.617 154.844 115.448 155.116C115.282 155.384 115.199 155.691 115.199 156.036V160.868H114.026ZM122.585 163.891C122.018 163.891 121.531 163.818 121.123 163.672C120.716 163.529 120.376 163.34 120.104 163.105C119.836 162.873 119.622 162.625 119.463 162.359L120.397 161.703C120.504 161.842 120.638 162.001 120.8 162.18C120.963 162.363 121.185 162.52 121.466 162.653C121.751 162.789 122.124 162.857 122.585 162.857C123.201 162.857 123.71 162.707 124.111 162.409C124.512 162.111 124.713 161.643 124.713 161.007V159.456H124.613C124.527 159.595 124.405 159.768 124.245 159.973C124.09 160.175 123.864 160.356 123.569 160.515C123.278 160.671 122.883 160.749 122.386 160.749C121.77 160.749 121.216 160.603 120.726 160.311C120.238 160.019 119.852 159.595 119.567 159.038C119.285 158.482 119.145 157.805 119.145 157.01C119.145 156.228 119.282 155.547 119.557 154.967C119.832 154.383 120.215 153.933 120.706 153.614C121.196 153.293 121.763 153.132 122.406 153.132C122.903 153.132 123.298 153.215 123.589 153.381C123.884 153.543 124.11 153.729 124.265 153.938C124.424 154.143 124.547 154.312 124.633 154.445H124.753V153.232H125.886V161.087C125.886 161.743 125.737 162.277 125.439 162.688C125.144 163.102 124.746 163.405 124.245 163.597C123.748 163.793 123.195 163.891 122.585 163.891ZM122.545 159.695C123.016 159.695 123.414 159.587 123.738 159.371C124.063 159.156 124.31 158.846 124.479 158.442C124.648 158.037 124.733 157.554 124.733 156.99C124.733 156.44 124.65 155.954 124.484 155.533C124.318 155.112 124.073 154.783 123.748 154.544C123.424 154.305 123.022 154.186 122.545 154.186C122.048 154.186 121.634 154.312 121.302 154.564C120.974 154.816 120.727 155.154 120.562 155.578C120.399 156.002 120.318 156.473 120.318 156.99C120.318 157.52 120.401 157.989 120.566 158.397C120.736 158.801 120.984 159.12 121.312 159.352C121.644 159.58 122.055 159.695 122.545 159.695ZM129.29 163.732C129.091 163.732 128.913 163.715 128.758 163.682C128.602 163.652 128.494 163.622 128.434 163.592L128.733 162.558C129.018 162.631 129.27 162.658 129.488 162.638C129.707 162.618 129.901 162.52 130.07 162.344C130.242 162.172 130.4 161.892 130.542 161.504L130.761 160.908L127.937 153.232H129.21L131.318 159.317H131.397L133.505 153.232H134.778L131.537 161.982C131.391 162.376 131.21 162.702 130.995 162.961C130.779 163.223 130.529 163.417 130.244 163.543C129.962 163.669 129.644 163.732 129.29 163.732Z" fill="black"/>
</g>
<defs>
<filter id="filter0_d_130_1989" x="0" y="0.36792" width="230" height="230" filterUnits="userSpaceOnUse" color-interpolation-filters="sRGB">
<feFlood flood-opacity="0" result="BackgroundImageFix"/>
<feColorMatrix in="SourceAlpha" type="matrix" values="0 0 0 0 0 0 0 0 0 0 0 0 0 0 0 0 0 0 127 0" result="hardAlpha"/>
<feOffset dx="4" dy="4"/>
<feGaussianBlur stdDeviation="7.5"/>
<feComposite in2="hardAlpha" operator="out"/>
<feColorMatrix type="matrix" values="0 0 0 0 0 0 0 0 0 0 0 0 0 0 0 0 0 0 0.25 0"/>
<feBlend mode="normal" in2="BackgroundImageFix" result="effect1_dropShadow_130_1989"/>
<feBlend mode="normal" in="SourceGraphic" in2="effect1_dropShadow_130_1989" result="shape"/>
</filter>
</defs>
</svg>
