<svg width="230" height="231" viewBox="0 0 230 231" fill="none" xmlns="http://www.w3.org/2000/svg">
<g filter="url(#filter0_d_133_2747)">
<rect width="200" height="200" transform="translate(11 11.3679)" fill="white"/>
<path d="M119 92.8678C119.353 92.8678 119.689 92.928 120.015 93.0138C119.791 89.2929 124.647 87.4191 127 90.2473C129.355 87.4184 134.209 89.294 133.985 93.0138C139.836 91.7714 140.988 100.539 135 100.868C132.791 100.868 121.209 100.868 119 100.868C113.718 100.707 113.71 93.0315 119 92.8678Z" fill="#E6F3FF"/>
<path d="M135 101.868H119C112.335 101.642 112.398 91.9404 119.101 91.869C119.687 88.3978 124.213 86.6239 127 88.8866C129.787 86.6236 134.313 88.3982 134.9 91.869C141.585 91.9805 141.679 101.624 135 101.868ZM119 93.868C115.051 93.9682 115.04 99.7644 119 99.868C119 99.868 135 99.868 135 99.868C139.458 99.7094 138.587 92.967 134.24 93.9813C133.541 94.1859 132.846 93.51 133.003 92.8064C133.043 90.1646 129.473 88.8083 127.753 90.9062C127.372 91.3397 126.628 91.3397 126.247 90.9061C124.505 88.8021 120.949 90.1591 121 92.8681C121.137 93.5385 120.424 94.1861 119.76 93.9812C119.466 93.9041 119.225 93.868 119 93.868Z" fill="#21257C"/>
<path d="M121.919 113.868H132.081C134.941 113.868 137.404 111.849 137.965 109.045L140 98.8679H114L116.035 109.045C116.596 111.849 119.059 113.868 121.919 113.868Z" fill="#4AA5FF"/>
<path d="M132.081 114.868H121.919C118.595 114.868 115.707 112.502 115.055 109.241L113.02 99.0642C112.961 98.7703 113.037 98.4656 113.227 98.2341C113.417 98.0027 113.7 97.8679 114 97.8679H140C140.3 97.8679 140.583 98.0027 140.774 98.2341C140.963 98.4656 141.039 98.7703 140.981 99.0642L138.945 109.241C138.293 112.502 135.405 114.868 132.081 114.868ZM115.22 99.8679L117.016 108.848C117.483 111.177 119.544 112.868 121.919 112.868H132.081C134.456 112.868 136.518 111.177 136.984 108.848L138.78 99.8679H115.22Z" fill="#21257C"/>
<path d="M129.5 103.868C128.119 103.868 127 102.749 127 101.368V96.8679H132V101.368C132 102.749 130.881 103.868 129.5 103.868ZM82.0001 75.8679H118V106.868C118 108.524 116.656 109.868 115 109.868H85.0001C83.3443 109.868 82.0001 108.524 82.0001 106.868V75.8679Z" fill="#E6F3FF"/>
<path d="M115 110.868H85.0001C82.794 110.868 81.0001 109.074 81.0001 106.868V75.8679C81.0001 75.3152 81.4474 74.8679 82.0001 74.8679H118C118.553 74.8679 119 75.3152 119 75.8679V106.868C119 109.074 117.206 110.868 115 110.868ZM83.0001 76.8679V106.868C83.0001 107.97 83.8976 108.868 85.0001 108.868H115C116.103 108.868 117 107.97 117 106.868V76.8679H83.0001Z" fill="#21257C"/>
<path d="M85.0001 67.8679H115C116.656 67.8679 118 69.2122 118 70.8679V75.8679H82.0001V70.8679C82.0001 69.2122 83.3443 67.8679 85.0001 67.8679Z" fill="#4AA5FF"/>
<path d="M118 76.8679H82.0001C81.4474 76.8679 81.0001 76.4206 81.0001 75.8679V70.8679C81.0001 68.6619 82.794 66.8679 85.0001 66.8679H115C117.206 66.8679 119 68.6619 119 70.8679V75.8679C119 76.4206 118.553 76.8679 118 76.8679ZM83.0001 74.8679H117V70.8679C117 69.7654 116.103 68.8679 115 68.8679H85.0001C83.8976 68.8679 83.0001 69.7654 83.0001 70.8679V74.8679Z" fill="#21257C"/>
<path d="M113 72.8679H109C107.687 72.8465 107.685 70.8896 109 70.8679H113C114.313 70.8893 114.315 72.8462 113 72.8679ZM85.0001 109.868H115V110.868C115 112.524 113.656 113.868 112 113.868H88.0001C86.3443 113.868 85.0001 112.524 85.0001 110.868V109.868Z" fill="#E6F3FF"/>
<path d="M112 114.868H88.0001C85.794 114.868 84.0001 113.074 84.0001 110.868V109.868C84.0001 109.315 84.4474 108.868 85.0001 108.868H115C115.553 108.868 116 109.315 116 109.868V110.868C116 113.074 114.206 114.868 112 114.868ZM86.0001 110.868C86.0001 111.97 86.8976 112.868 88.0001 112.868H112C113.103 112.868 114 111.97 114 110.868H86.0001Z" fill="#21257C"/>
<path d="M113 92.8679C113 100.048 107.18 105.868 100 105.868C82.7558 105.183 82.7608 80.5501 100 79.8679C107.18 79.8679 113 85.6882 113 92.8679Z" fill="#4AA5FF"/>
<path d="M100 106.868C92.2804 106.868 86.0001 100.588 86.0001 92.8678C86.769 74.2949 113.234 74.3003 114 92.868C114 100.588 107.72 106.868 100 106.868ZM100 80.8678C93.3829 80.8678 88.0001 86.2507 88.0001 92.8678C88.6587 108.788 111.344 108.783 112 92.8678C112 86.2507 106.617 80.8678 100 80.8678Z" fill="#21257C"/>
<path d="M106 100.57C105.12 100.601 104.643 99.4006 105.333 98.8249C107.028 97.3074 108 95.1355 108 92.8679C108 92.3152 108.447 91.8679 109 91.8679C109.553 91.8679 110 92.3152 110 92.8679C110 95.7039 108.785 98.4187 106.667 100.315C106.477 100.486 106.238 100.57 106 100.57ZM102 101.868C102.026 100.554 103.975 100.555 104 101.868C103.975 103.182 102.025 103.181 102 101.868Z" fill="#E6F3FF"/>
<path d="M126 78.8679C126 76.1065 124.209 73.8679 122 73.8679C124.209 73.8679 126 71.6293 126 68.8679C126 71.6293 127.791 73.8679 130 73.8679C127.791 73.8679 126 76.1065 126 78.8679ZM135 85.8679C135 83.1065 133.209 80.8679 131 80.8679C133.209 80.8679 135 78.6293 135 75.8679C135 78.6293 136.791 80.8679 139 80.8679C136.791 80.8679 135 83.1065 135 85.8679Z" fill="#21257C"/>
<path d="M59.7953 153.868H58.5623C58.4894 153.513 58.3618 153.202 58.1795 152.933C58.0005 152.665 57.7818 152.439 57.5233 152.257C57.2681 152.072 56.9847 151.932 56.6731 151.84C56.3616 151.747 56.0368 151.7 55.6987 151.7C55.0822 151.7 54.5237 151.856 54.0233 152.168C53.5261 152.479 53.13 152.938 52.835 153.545C52.5434 154.151 52.3975 154.895 52.3975 155.777C52.3975 156.659 52.5434 157.403 52.835 158.009C53.13 158.616 53.5261 159.075 54.0233 159.386C54.5237 159.698 55.0822 159.854 55.6987 159.854C56.0368 159.854 56.3616 159.807 56.6731 159.715C56.9847 159.622 57.2681 159.484 57.5233 159.302C57.7818 159.116 58.0005 158.889 58.1795 158.621C58.3618 158.349 58.4894 158.037 58.5623 157.686H59.7953C59.7025 158.206 59.5334 158.672 59.2882 159.083C59.0429 159.494 58.738 159.844 58.3734 160.132C58.0088 160.417 57.5995 160.634 57.1454 160.783C56.6947 160.933 56.2124 161.007 55.6987 161.007C54.8303 161.007 54.0581 160.795 53.3819 160.371C52.7058 159.947 52.1738 159.343 51.786 158.561C51.3983 157.779 51.2044 156.851 51.2044 155.777C51.2044 154.703 51.3983 153.775 51.786 152.993C52.1738 152.211 52.7058 151.608 53.3819 151.183C54.0581 150.759 54.8303 150.547 55.6987 150.547C56.2124 150.547 56.6947 150.621 57.1454 150.771C57.5995 150.92 58.0088 151.139 58.3734 151.427C58.738 151.712 59.0429 152.06 59.2882 152.471C59.5334 152.879 59.7025 153.344 59.7953 153.868ZM65.2308 161.027C64.5414 161.027 63.9366 160.863 63.4162 160.535C62.8991 160.207 62.4948 159.748 62.2031 159.158C61.9148 158.568 61.7706 157.878 61.7706 157.09C61.7706 156.294 61.9148 155.6 62.2031 155.006C62.4948 154.413 62.8991 153.952 63.4162 153.624C63.9366 153.296 64.5414 153.132 65.2308 153.132C65.9202 153.132 66.5234 153.296 67.0405 153.624C67.5608 153.952 67.9652 154.413 68.2536 155.006C68.5452 155.6 68.6911 156.294 68.6911 157.09C68.6911 157.878 68.5452 158.568 68.2536 159.158C67.9652 159.748 67.5608 160.207 67.0405 160.535C66.5234 160.863 65.9202 161.027 65.2308 161.027ZM65.2308 159.973C65.7545 159.973 66.1854 159.839 66.5234 159.57C66.8615 159.302 67.1117 158.949 67.2741 158.511C67.4366 158.074 67.5178 157.6 67.5178 157.09C67.5178 156.579 67.4366 156.103 67.2741 155.663C67.1117 155.222 66.8615 154.866 66.5234 154.594C66.1854 154.322 65.7545 154.186 65.2308 154.186C64.7071 154.186 64.2763 154.322 63.9382 154.594C63.6001 154.866 63.3499 155.222 63.1875 155.663C63.0251 156.103 62.9439 156.579 62.9439 157.09C62.9439 157.6 63.0251 158.074 63.1875 158.511C63.3499 158.949 63.6001 159.302 63.9382 159.57C64.2763 159.839 64.7071 159.973 65.2308 159.973ZM72.1554 156.274V160.868H70.9821V153.232H72.1156V154.425H72.215C72.394 154.037 72.6658 153.725 73.0304 153.49C73.3949 153.251 73.8656 153.132 74.4423 153.132C74.9593 153.132 75.4118 153.238 75.7995 153.45C76.1873 153.659 76.4889 153.977 76.7044 154.405C76.9198 154.829 77.0275 155.366 77.0275 156.016V160.868H75.8542V156.095C75.8542 155.495 75.6984 155.028 75.3869 154.693C75.0753 154.355 74.6478 154.186 74.1042 154.186C73.7297 154.186 73.3949 154.267 73.1 154.43C72.8083 154.592 72.5779 154.829 72.4089 155.141C72.2399 155.452 72.1554 155.83 72.1554 156.274ZM85.0806 154.942L84.0266 155.24C83.9603 155.064 83.8626 154.894 83.7333 154.728C83.6074 154.559 83.435 154.42 83.2163 154.31C82.9975 154.201 82.7174 154.146 82.3761 154.146C81.9087 154.146 81.5193 154.254 81.2077 154.469C80.8995 154.682 80.7454 154.952 80.7454 155.28C80.7454 155.572 80.8514 155.802 81.0636 155.971C81.2757 156.14 81.6071 156.281 82.0579 156.393L83.1914 156.672C83.8742 156.838 84.3829 157.091 84.7177 157.433C85.0524 157.771 85.2198 158.206 85.2198 158.74C85.2198 159.178 85.0939 159.569 84.842 159.913C84.5934 160.258 84.2454 160.53 83.7979 160.729C83.3505 160.928 82.8301 161.027 82.2369 161.027C81.458 161.027 80.8133 160.858 80.3029 160.52C79.7925 160.182 79.4693 159.688 79.3335 159.038L80.4471 158.76C80.5531 159.171 80.7537 159.479 81.0487 159.685C81.3469 159.89 81.7364 159.993 82.217 159.993C82.7638 159.993 83.198 159.877 83.5195 159.645C83.8443 159.41 84.0067 159.128 84.0067 158.8C84.0067 158.535 83.9139 158.313 83.7283 158.134C83.5427 157.951 83.2577 157.815 82.8732 157.726L81.6005 157.428C80.9012 157.262 80.3874 157.005 80.0593 156.657C79.7345 156.306 79.5721 155.866 79.5721 155.34C79.5721 154.909 79.6931 154.527 79.935 154.196C80.1803 153.865 80.5134 153.604 80.9343 153.416C81.3585 153.227 81.8391 153.132 82.3761 153.132C83.1317 153.132 83.725 153.298 84.1559 153.629C84.5901 153.961 84.8983 154.398 85.0806 154.942ZM92.2985 157.746V153.232H93.4718V160.868H92.2985V159.575H92.2189C92.04 159.963 91.7615 160.293 91.3837 160.565C91.0059 160.833 90.5286 160.967 89.9519 160.967C89.4746 160.967 89.0504 160.863 88.6792 160.654C88.3079 160.442 88.0163 160.124 87.8042 159.7C87.592 159.272 87.486 158.733 87.486 158.084V153.232H88.6593V158.004C88.6593 158.561 88.815 159.005 89.1266 159.337C89.4415 159.668 89.8425 159.834 90.3297 159.834C90.6214 159.834 90.918 159.759 91.2196 159.61C91.5246 159.461 91.7798 159.232 91.9853 158.924C92.1941 158.616 92.2985 158.223 92.2985 157.746ZM96.1207 160.868V153.232H97.2543V154.425H97.3537C97.5128 154.017 97.7696 153.701 98.1243 153.475C98.4789 153.246 98.9048 153.132 99.402 153.132C99.9058 153.132 100.325 153.246 100.66 153.475C100.998 153.701 101.261 154.017 101.45 154.425H101.53C101.725 154.03 102.019 153.717 102.41 153.485C102.801 153.25 103.27 153.132 103.817 153.132C104.5 153.132 105.058 153.346 105.492 153.773C105.926 154.198 106.143 154.859 106.143 155.757V160.868H104.97V155.757C104.97 155.194 104.816 154.791 104.508 154.549C104.2 154.307 103.837 154.186 103.419 154.186C102.882 154.186 102.466 154.349 102.171 154.673C101.876 154.995 101.729 155.402 101.729 155.896V160.868H100.536V155.638C100.536 155.204 100.395 154.854 100.113 154.589C99.8312 154.32 99.4683 154.186 99.0241 154.186C98.7192 154.186 98.4342 154.267 98.169 154.43C97.9072 154.592 97.6951 154.817 97.5327 155.106C97.3736 155.391 97.294 155.721 97.294 156.095V160.868H96.1207ZM111.99 161.027C111.255 161.027 110.62 160.865 110.086 160.54C109.556 160.212 109.147 159.754 108.858 159.168C108.573 158.578 108.431 157.892 108.431 157.109C108.431 156.327 108.573 155.638 108.858 155.041C109.147 154.441 109.548 153.974 110.061 153.639C110.578 153.301 111.182 153.132 111.871 153.132C112.269 153.132 112.662 153.198 113.049 153.331C113.437 153.464 113.79 153.679 114.108 153.977C114.426 154.272 114.68 154.663 114.869 155.151C115.058 155.638 115.152 156.238 115.152 156.95V157.447H109.266V156.433H113.959C113.959 156.002 113.873 155.618 113.701 155.28C113.532 154.942 113.29 154.675 112.975 154.479C112.663 154.284 112.295 154.186 111.871 154.186C111.404 154.186 110.999 154.302 110.658 154.534C110.32 154.763 110.06 155.061 109.877 155.429C109.695 155.797 109.604 156.191 109.604 156.612V157.288C109.604 157.865 109.703 158.354 109.902 158.755C110.105 159.153 110.385 159.456 110.743 159.665C111.1 159.87 111.516 159.973 111.99 159.973C112.299 159.973 112.577 159.93 112.826 159.844C113.078 159.754 113.295 159.622 113.477 159.446C113.659 159.267 113.8 159.045 113.9 158.78L115.033 159.098C114.914 159.483 114.713 159.821 114.431 160.112C114.15 160.401 113.802 160.626 113.387 160.788C112.973 160.947 112.507 161.027 111.99 161.027ZM117.437 160.868V153.232H118.571V154.385H118.65C118.789 154.007 119.041 153.701 119.406 153.465C119.77 153.23 120.181 153.112 120.639 153.112C120.725 153.112 120.833 153.114 120.962 153.117C121.091 153.121 121.189 153.125 121.255 153.132V154.325C121.216 154.315 121.124 154.3 120.982 154.281C120.843 154.257 120.695 154.246 120.539 154.246C120.168 154.246 119.837 154.324 119.545 154.479C119.257 154.632 119.028 154.844 118.859 155.116C118.693 155.384 118.61 155.691 118.61 156.036V160.868H117.437ZM134.703 153.868C134.594 153.533 134.449 153.233 134.27 152.968C134.095 152.7 133.884 152.471 133.639 152.282C133.397 152.093 133.122 151.949 132.814 151.849C132.506 151.75 132.167 151.7 131.8 151.7C131.196 151.7 130.648 151.856 130.154 152.168C129.66 152.479 129.267 152.938 128.976 153.545C128.684 154.151 128.538 154.895 128.538 155.777C128.538 156.659 128.686 157.403 128.981 158.009C129.276 158.616 129.675 159.075 130.179 159.386C130.683 159.698 131.249 159.854 131.879 159.854C132.462 159.854 132.976 159.729 133.42 159.481C133.868 159.229 134.216 158.874 134.464 158.417C134.716 157.956 134.842 157.414 134.842 156.791L135.22 156.871H132.157V155.777H136.035V156.871C136.035 157.709 135.856 158.438 135.498 159.058C135.144 159.678 134.653 160.159 134.027 160.5C133.404 160.838 132.688 161.007 131.879 161.007C130.978 161.007 130.185 160.795 129.503 160.371C128.823 159.947 128.293 159.343 127.912 158.561C127.534 157.779 127.345 156.851 127.345 155.777C127.345 154.972 127.453 154.247 127.668 153.604C127.887 152.958 128.195 152.408 128.593 151.954C128.991 151.5 129.461 151.152 130.005 150.91C130.548 150.668 131.147 150.547 131.8 150.547C132.336 150.547 132.837 150.628 133.301 150.791C133.768 150.95 134.184 151.177 134.549 151.472C134.917 151.763 135.223 152.113 135.469 152.521C135.714 152.925 135.883 153.374 135.976 153.868H134.703ZM141.59 161.027C140.901 161.027 140.296 160.863 139.776 160.535C139.259 160.207 138.854 159.748 138.562 159.158C138.274 158.568 138.13 157.878 138.13 157.09C138.13 156.294 138.274 155.6 138.562 155.006C138.854 154.413 139.259 153.952 139.776 153.624C140.296 153.296 140.901 153.132 141.59 153.132C142.28 153.132 142.883 153.296 143.4 153.624C143.92 153.952 144.325 154.413 144.613 155.006C144.905 155.6 145.05 156.294 145.05 157.09C145.05 157.878 144.905 158.568 144.613 159.158C144.325 159.748 143.92 160.207 143.4 160.535C142.883 160.863 142.28 161.027 141.59 161.027ZM141.59 159.973C142.114 159.973 142.545 159.839 142.883 159.57C143.221 159.302 143.471 158.949 143.634 158.511C143.796 158.074 143.877 157.6 143.877 157.09C143.877 156.579 143.796 156.103 143.634 155.663C143.471 155.222 143.221 154.866 142.883 154.594C142.545 154.322 142.114 154.186 141.59 154.186C141.067 154.186 140.636 154.322 140.298 154.594C139.96 154.866 139.709 155.222 139.547 155.663C139.384 156.103 139.303 156.579 139.303 157.09C139.303 157.6 139.384 158.074 139.547 158.511C139.709 158.949 139.96 159.302 140.298 159.57C140.636 159.839 141.067 159.973 141.59 159.973ZM150.444 161.027C149.754 161.027 149.149 160.863 148.629 160.535C148.112 160.207 147.708 159.748 147.416 159.158C147.128 158.568 146.983 157.878 146.983 157.09C146.983 156.294 147.128 155.6 147.416 155.006C147.708 154.413 148.112 153.952 148.629 153.624C149.149 153.296 149.754 153.132 150.444 153.132C151.133 153.132 151.736 153.296 152.253 153.624C152.774 153.952 153.178 154.413 153.466 155.006C153.758 155.6 153.904 156.294 153.904 157.09C153.904 157.878 153.758 158.568 153.466 159.158C153.178 159.748 152.774 160.207 152.253 160.535C151.736 160.863 151.133 161.027 150.444 161.027ZM150.444 159.973C150.967 159.973 151.398 159.839 151.736 159.57C152.074 159.302 152.325 158.949 152.487 158.511C152.649 158.074 152.731 157.6 152.731 157.09C152.731 156.579 152.649 156.103 152.487 155.663C152.325 155.222 152.074 154.866 151.736 154.594C151.398 154.322 150.967 154.186 150.444 154.186C149.92 154.186 149.489 154.322 149.151 154.594C148.813 154.866 148.563 155.222 148.4 155.663C148.238 156.103 148.157 156.579 148.157 157.09C148.157 157.6 148.238 158.074 148.4 158.511C148.563 158.949 148.813 159.302 149.151 159.57C149.489 159.839 149.92 159.973 150.444 159.973ZM159.078 161.027C158.442 161.027 157.88 160.866 157.393 160.545C156.906 160.22 156.525 159.763 156.25 159.173C155.975 158.579 155.837 157.878 155.837 157.07C155.837 156.268 155.975 155.572 156.25 154.982C156.525 154.392 156.908 153.936 157.398 153.614C157.889 153.293 158.455 153.132 159.098 153.132C159.596 153.132 159.988 153.215 160.277 153.381C160.568 153.543 160.79 153.729 160.943 153.938C161.099 154.143 161.22 154.312 161.306 154.445H161.405V150.686H162.578V160.868H161.445V159.695H161.306C161.22 159.834 161.097 160.009 160.938 160.222C160.779 160.43 160.552 160.618 160.257 160.783C159.962 160.946 159.569 161.027 159.078 161.027ZM159.238 159.973C159.708 159.973 160.106 159.85 160.431 159.605C160.756 159.357 161.002 159.014 161.172 158.576C161.341 158.135 161.425 157.626 161.425 157.05C161.425 156.48 161.342 155.981 161.176 155.553C161.011 155.122 160.766 154.788 160.441 154.549C160.116 154.307 159.715 154.186 159.238 154.186C158.74 154.186 158.326 154.314 157.995 154.569C157.667 154.821 157.42 155.164 157.254 155.598C157.092 156.029 157.01 156.513 157.01 157.05C157.01 157.593 157.093 158.087 157.259 158.531C157.428 158.972 157.676 159.323 158.005 159.585C158.336 159.844 158.747 159.973 159.238 159.973ZM170.799 154.942L169.745 155.24C169.679 155.064 169.581 154.894 169.452 154.728C169.326 154.559 169.154 154.42 168.935 154.31C168.716 154.201 168.436 154.146 168.095 154.146C167.627 154.146 167.238 154.254 166.926 154.469C166.618 154.682 166.464 154.952 166.464 155.28C166.464 155.572 166.57 155.802 166.782 155.971C166.994 156.14 167.326 156.281 167.777 156.393L168.91 156.672C169.593 156.838 170.102 157.091 170.436 157.433C170.771 157.771 170.939 158.206 170.939 158.74C170.939 159.178 170.813 159.569 170.561 159.913C170.312 160.258 169.964 160.53 169.517 160.729C169.069 160.928 168.549 161.027 167.956 161.027C167.177 161.027 166.532 160.858 166.022 160.52C165.511 160.182 165.188 159.688 165.052 159.038L166.166 158.76C166.272 159.171 166.472 159.479 166.767 159.685C167.066 159.89 167.455 159.993 167.936 159.993C168.483 159.993 168.917 159.877 169.238 159.645C169.563 159.41 169.725 159.128 169.725 158.8C169.725 158.535 169.633 158.313 169.447 158.134C169.261 157.951 168.976 157.815 168.592 157.726L167.319 157.428C166.62 157.262 166.106 157.005 165.778 156.657C165.453 156.306 165.291 155.866 165.291 155.34C165.291 154.909 165.412 154.527 165.654 154.196C165.899 153.865 166.232 153.604 166.653 153.416C167.077 153.227 167.558 153.132 168.095 153.132C168.85 153.132 169.444 153.298 169.875 153.629C170.309 153.961 170.617 154.398 170.799 154.942Z" fill="black"/>
</g>
<defs>
<filter id="filter0_d_133_2747" x="0" y="0.36792" width="230" height="230" filterUnits="userSpaceOnUse" color-interpolation-filters="sRGB">
<feFlood flood-opacity="0" result="BackgroundImageFix"/>
<feColorMatrix in="SourceAlpha" type="matrix" values="0 0 0 0 0 0 0 0 0 0 0 0 0 0 0 0 0 0 127 0" result="hardAlpha"/>
<feOffset dx="4" dy="4"/>
<feGaussianBlur stdDeviation="7.5"/>
<feComposite in2="hardAlpha" operator="out"/>
<feColorMatrix type="matrix" values="0 0 0 0 0 0 0 0 0 0 0 0 0 0 0 0 0 0 0.25 0"/>
<feBlend mode="normal" in2="BackgroundImageFix" result="effect1_dropShadow_133_2747"/>
<feBlend mode="normal" in="SourceGraphic" in2="effect1_dropShadow_133_2747" result="shape"/>
</filter>
</defs>
</svg>
