<svg width="230" height="231" viewBox="0 0 230 231" fill="none" xmlns="http://www.w3.org/2000/svg">
<g filter="url(#filter0_d_133_2715)">
<rect width="200" height="200" transform="translate(11 11.3679)" fill="white"/>
<g clip-path="url(#clip0_133_2715)">
<path d="M106.612 86.1679L103.125 90.4929H96.5875C90.9125 90.4929 85.525 93.0054 81.875 97.3679V106.618H134.875V76.2429H127.375C119.312 76.2429 111.688 79.8929 106.612 86.1679Z" fill="#68A1D6"/>
<path d="M96.5875 90.4929C94 90.4929 91.4875 90.9929 89.15 91.9929H134.875V90.4929H103.125H96.5875Z" fill="#9AD2FC"/>
<path d="M94.625 114.618C98.9742 114.618 102.5 111.092 102.5 106.743C102.5 102.394 98.9742 98.8679 94.625 98.8679C90.2758 98.8679 86.75 102.394 86.75 106.743C86.75 111.092 90.2758 114.618 94.625 114.618Z" fill="#323D2C"/>
<path d="M93.85 98.9055C90.125 99.268 87.15 102.243 86.7875 105.968C87.675 106.756 88.8375 107.243 90.125 107.243C92.8875 107.243 95.125 105.006 95.125 102.243C95.125 100.956 94.6375 99.793 93.85 98.9055Z" fill="#485143"/>
<path d="M94.625 110.743C96.8341 110.743 98.625 108.952 98.625 106.743C98.625 104.534 96.8341 102.743 94.625 102.743C92.4159 102.743 90.625 104.534 90.625 106.743C90.625 108.952 92.4159 110.743 94.625 110.743Z" fill="#1C2617"/>
<path d="M86.75 103.493H79.625V109.993H86.75V103.493Z" fill="#9AD2FC"/>
<path d="M86.75 105.618H79.625V109.993H86.75V105.618Z" fill="#3179AF"/>
<path d="M127.375 103.493H102.5V109.993H127.375V103.493Z" fill="#9AD2FC"/>
<path d="M127.375 105.618H102.5V109.993H127.375V105.618Z" fill="#3179AF"/>
<path d="M131.75 79.3679H125.475C119.75 79.3679 114.325 81.9304 110.688 86.3429L107.25 90.4929H131.75V79.3679Z" fill="#323D2C"/>
<path d="M129.938 79.3679H123.812L111.562 90.4929H117.688L129.938 79.3679Z" fill="#485143"/>
<path d="M113.125 87.2429H108.875C107.975 87.2429 107.25 87.9679 107.25 88.8679V90.4929H113.125C114.025 90.4929 114.75 89.7679 114.75 88.8679C114.75 87.9679 114.025 87.2429 113.125 87.2429Z" fill="#3179AF"/>
<path d="M113.125 87.2429H110.438C109.988 87.2429 109.625 87.6054 109.625 88.0554C109.625 88.5054 109.988 88.8679 110.438 88.8679H114.75C114.75 87.9679 114.025 87.2429 113.125 87.2429Z" fill="#68A1D6"/>
<path d="M89.375 94.3679H88.3C85.825 94.3679 83.475 95.4679 81.875 97.3679H86.375C88.0375 97.3679 89.375 96.0304 89.375 94.3679Z" fill="#F8D707"/>
<path d="M128.875 106.618V102.868H126.775C126.575 101.993 126.25 101.268 125.825 100.568L127.312 99.0804L124.662 96.4304L123.175 97.9179C122.475 97.4929 121.7 97.1679 120.875 96.9679V94.8679H117.125V96.9679C116.3 97.1679 115.525 97.4929 114.825 97.9179L113.338 96.4304L110.688 99.0804L112.175 100.568C111.75 101.268 111.425 101.993 111.225 102.868H109.125V106.618H111.225C111.425 107.493 111.75 108.218 112.175 108.918L110.688 110.405L113.338 113.055L114.825 111.568C115.525 111.993 116.3 112.318 117.125 112.518V114.618H120.875V112.518C121.7 112.318 122.475 111.993 123.175 111.568L124.662 113.055L127.312 110.405L125.825 108.918C126.25 108.218 126.575 107.493 126.775 106.618H128.875ZM119 109.118C116.588 109.118 114.625 107.155 114.625 104.743C114.625 102.33 116.588 100.368 119 100.368C121.413 100.368 123.375 102.33 123.375 104.743C123.375 107.155 121.413 109.118 119 109.118Z" fill="#C4C1AB"/>
<path d="M142.375 77.0304V69.3554L138 67.1179V72.5429L134.875 74.1429L131.75 72.5429V67.1179L127.375 69.3554V77.0304L131.75 79.2679V102.468L127.375 104.705V112.38L131.75 114.618V109.193L134.875 107.593L138 109.193V114.618L142.375 112.38V104.705L138 102.468V79.2679L142.375 77.0304Z" fill="#F8D707"/>
<path d="M132.75 107.618L129.625 109.193V113.53L131.75 114.618V109.193L134.875 107.618H132.75Z" fill="#FFFA5A"/>
<path d="M129.625 68.2054V72.5429L132.75 74.1179H134.875L131.75 72.5429V67.1179L129.625 68.2054Z" fill="#FFFA5A"/>
<path d="M142.375 77.0303V69.3553L140.25 68.2678V77.0303L135.875 79.2678V102.468L140.25 104.705V113.468L142.375 112.38V104.705L138 102.468V79.2678L142.375 77.0303Z" fill="#FFFA5A"/>
<path d="M118.725 100.38C118.825 99.9553 118.875 99.5178 118.875 99.0553C118.875 97.4428 118.2 95.9928 117.125 94.9553V96.9678C116.3 97.1678 115.525 97.4928 114.825 97.9178L113.338 96.4303L110.688 99.0803L112.175 100.568C111.75 101.268 111.425 101.993 111.225 102.868H109.125V103.03C110.163 104.08 111.6 104.743 113.188 104.743C113.688 104.743 114.175 104.68 114.625 104.555C114.725 102.318 116.5 100.518 118.725 100.38Z" fill="#EBEADF"/>
<path d="M94.625 115.243C89.9375 115.243 86.125 111.43 86.125 106.743C86.125 102.055 89.9375 98.2429 94.625 98.2429C99.3125 98.2429 103.125 102.055 103.125 106.743C103.125 111.43 99.3125 115.243 94.625 115.243ZM94.625 99.4929C90.625 99.4929 87.375 102.743 87.375 106.743C87.375 110.743 90.625 113.993 94.625 113.993C98.625 113.993 101.875 110.743 101.875 106.743C101.875 102.743 98.625 99.4929 94.625 99.4929Z" fill="#060D1A"/>
<path d="M94.625 111.368C92.075 111.368 90 109.293 90 106.743C90 104.193 92.075 102.118 94.625 102.118C97.175 102.118 99.25 104.193 99.25 106.743C99.25 109.293 97.175 111.368 94.625 111.368ZM94.625 103.368C92.7625 103.368 91.25 104.88 91.25 106.743C91.25 108.605 92.7625 110.118 94.625 110.118C96.4875 110.118 98 108.605 98 106.743C98 104.88 96.4875 103.368 94.625 103.368ZM86.75 110.618H79.625C79.275 110.618 79 110.343 79 109.993V103.493C79 103.143 79.275 102.868 79.625 102.868H86.75C87.1 102.868 87.375 103.143 87.375 103.493V109.993C87.375 110.343 87.1 110.618 86.75 110.618ZM80.25 109.368H86.125V104.118H80.25V109.368Z" fill="#060D1A"/>
<path d="M82.5 103.493H81.25V97.368C81.25 97.218 81.3 97.0805 81.4 96.968C85.175 92.4555 90.7 89.868 96.5875 89.868H102.825L106.125 85.768C108.663 82.618 111.937 80.0305 115.6 78.2805C119.25 76.5305 123.325 75.6055 127.375 75.6055V76.8555C119.463 76.8555 112.075 80.393 107.1 86.543L103.612 90.868C103.5 91.018 103.312 91.1055 103.125 91.1055H96.5875C91.15 91.1055 86.025 93.468 82.5 97.5805V103.493Z" fill="#060D1A"/>
<path d="M113.125 91.1179H107.25C106.9 91.1179 106.625 90.8429 106.625 90.4929V88.8679C106.625 87.6304 107.638 86.6179 108.875 86.6179H113.125C114.363 86.6179 115.375 87.6304 115.375 88.8679C115.375 90.1054 114.363 91.1179 113.125 91.1179ZM107.875 89.8679H113.125C113.675 89.8679 114.125 89.4179 114.125 88.8679C114.125 88.3179 113.675 87.8679 113.125 87.8679H108.875C108.325 87.8679 107.875 88.3179 107.875 88.8679V89.8679ZM86.375 97.9929H81.875C81.6375 97.9929 81.4125 97.8554 81.3125 97.6304C81.2125 97.4054 81.2375 97.1554 81.4 96.9679C83.1125 94.9179 85.625 93.7429 88.3 93.7429H89.375C89.725 93.7429 90 94.0179 90 94.3679C90 96.3679 88.375 97.9929 86.375 97.9929ZM83.3875 96.7429H86.375C87.4625 96.7429 88.3875 96.0054 88.6625 94.9929H88.2875C86.4875 94.9929 84.7625 95.6179 83.3875 96.7429Z" fill="#060D1A"/>
<path d="M138 115.243C137.888 115.243 137.775 115.218 137.675 115.155C137.487 115.043 137.375 114.843 137.375 114.618V109.58L134.875 108.305L132.375 109.58V114.618C132.375 114.83 132.263 115.043 132.075 115.155C131.888 115.268 131.663 115.28 131.463 115.18L128.175 113.493L128.75 112.38L131.138 113.605V109.205C131.138 108.968 131.275 108.755 131.475 108.643L134.6 107.043C134.775 106.955 134.987 106.955 135.175 107.043L138.3 108.643C138.512 108.755 138.638 108.968 138.638 109.205V113.605L141.763 112.005V105.093L137.725 103.03C137.512 102.918 137.388 102.705 137.388 102.468V79.2679C137.388 79.0304 137.525 78.8179 137.725 78.7054L141.763 76.6429V69.7429L138.638 68.1429V72.5429C138.638 72.7804 138.5 72.9929 138.3 73.1054L135.175 74.7054C135 74.7929 134.787 74.7929 134.6 74.7054L131.475 73.1054C131.262 72.9929 131.138 72.7804 131.138 72.5429V68.1429L128 69.7429V76.6554L132.037 78.7179C132.25 78.8304 132.375 79.0429 132.375 79.2804V102.48C132.375 102.718 132.237 102.93 132.037 103.043L128 105.093V106.618C128 106.968 127.725 107.243 127.375 107.243H127.25C127.087 107.793 126.862 108.318 126.6 108.818L127.75 109.968C127.862 110.08 127.938 110.243 127.938 110.405C127.938 110.568 127.875 110.73 127.75 110.843L125.1 113.493C124.85 113.743 124.463 113.743 124.213 113.493L123.062 112.343C122.562 112.605 122.037 112.83 121.487 112.993V114.618C121.487 114.968 121.212 115.243 120.862 115.243H117.112C116.762 115.243 116.487 114.968 116.487 114.618V112.993C115.937 112.83 115.412 112.605 114.912 112.343L113.763 113.493C113.513 113.743 113.125 113.743 112.875 113.493L110.25 110.843C110 110.593 110 110.205 110.25 109.955L111.4 108.805C111.138 108.305 110.912 107.78 110.75 107.23H109.125C108.775 107.23 108.5 106.955 108.5 106.605V102.855C108.5 102.505 108.775 102.23 109.125 102.23H110.75C110.912 101.68 111.138 101.155 111.4 100.655L110.25 99.5054C110 99.2554 110 98.8679 110.25 98.6179L112.9 95.9679C113.15 95.7179 113.537 95.7179 113.787 95.9679L114.938 97.1179C115.438 96.8554 115.963 96.6304 116.513 96.4679V94.8429C116.513 94.4929 116.788 94.2179 117.138 94.2179H120.888C121.238 94.2179 121.513 94.4929 121.513 94.8429V96.4679C122.063 96.6304 122.588 96.8554 123.088 97.1179L124.237 95.9679C124.487 95.7179 124.875 95.7179 125.125 95.9679L127.775 98.6179C127.888 98.7304 127.963 98.8929 127.963 99.0554C127.963 99.2179 127.9 99.3804 127.775 99.4929L126.625 100.643C126.888 101.143 127.113 101.668 127.275 102.218H128.9C129.25 102.218 129.525 102.493 129.525 102.843V102.893L131.15 102.055V79.6554L127.112 77.5929C126.9 77.4804 126.775 77.2679 126.775 77.0304V69.3554C126.775 69.1179 126.912 68.9054 127.112 68.7929L131.487 66.5554C131.675 66.4554 131.912 66.4679 132.1 66.5804C132.287 66.6929 132.4 66.8929 132.4 67.1179V72.1554L134.9 73.4304L137.4 72.1554V67.1179C137.4 66.9054 137.513 66.6929 137.7 66.5804C137.888 66.4679 138.112 66.4554 138.312 66.5554L142.688 68.7929C142.9 68.9054 143.025 69.1179 143.025 69.3554V77.0304C143.025 77.2679 142.888 77.4804 142.688 77.5929L138.625 79.6554V102.093L142.662 104.155C142.875 104.268 143 104.48 143 104.718V112.393C143 112.63 142.862 112.843 142.662 112.955L138.287 115.193C138.2 115.218 138.1 115.243 138 115.243ZM117.75 113.993H120.25V112.518C120.25 112.23 120.45 111.98 120.725 111.905C121.475 111.73 122.188 111.43 122.838 111.03C123.088 110.88 123.4 110.918 123.6 111.118L124.638 112.155L126.4 110.393L125.362 109.355C125.162 109.155 125.125 108.83 125.275 108.593C125.675 107.943 125.975 107.23 126.15 106.48C126.213 106.205 126.45 106.018 126.725 106.005V104.718C126.725 104.48 126.862 104.268 127.062 104.155L128.225 103.568V103.493H126.75C126.462 103.493 126.213 103.293 126.138 103.018C125.963 102.268 125.663 101.555 125.263 100.905C125.113 100.655 125.15 100.343 125.35 100.143L126.388 99.1054L124.625 97.3429L123.588 98.3804C123.388 98.5804 123.063 98.6179 122.825 98.4679C122.175 98.0679 121.463 97.7679 120.713 97.5929C120.438 97.5304 120.237 97.2804 120.237 96.9804V95.4929H117.737V96.9679C117.737 97.2554 117.538 97.5054 117.263 97.5804C116.513 97.7554 115.8 98.0554 115.15 98.4554C114.9 98.6054 114.588 98.5679 114.388 98.3679L113.35 97.3304L111.588 99.0929L112.625 100.13C112.825 100.33 112.863 100.655 112.713 100.893C112.313 101.543 112.013 102.255 111.838 103.005C111.775 103.28 111.512 103.48 111.225 103.48H109.75V105.98H111.225C111.512 105.98 111.763 106.18 111.838 106.455C112.013 107.205 112.313 107.918 112.713 108.568C112.863 108.818 112.825 109.13 112.625 109.33L111.588 110.368L113.35 112.13L114.388 111.093C114.588 110.893 114.913 110.855 115.15 111.005C115.8 111.405 116.513 111.705 117.263 111.88C117.538 111.943 117.737 112.193 117.737 112.493V113.993H117.75ZM119 109.743C116.238 109.743 114 107.505 114 104.743C114 101.98 116.238 99.7429 119 99.7429C121.762 99.7429 124 101.98 124 104.743C124 107.505 121.762 109.743 119 109.743ZM119 100.993C116.938 100.993 115.25 102.68 115.25 104.743C115.25 106.805 116.938 108.493 119 108.493C121.062 108.493 122.75 106.805 122.75 104.743C122.75 102.68 121.062 100.993 119 100.993Z" fill="#060D1A"/>
<path d="M110.412 87.6429L109.45 86.8429L110.2 85.9429C113.975 81.3679 119.537 78.7429 125.475 78.7429H131.75V79.9929H125.475C119.912 79.9929 114.7 82.4554 111.162 86.7429L110.412 87.6429Z" fill="#060D1A"/>
<path d="M129.25 89.8679H107.25V91.1179H129.25V89.8679Z" fill="#060D1A"/>
<path d="M111.1 110.618H102.5C102.15 110.618 101.875 110.343 101.875 109.993V103.493C101.875 103.143 102.15 102.868 102.5 102.868H109.125V104.118H103.125V109.368H111.1V110.618Z" fill="#060D1A"/>
<path d="M123.2 102.868H114.812V104.118H123.2V102.868Z" fill="#060D1A"/>
</g>
<path d="M72.6252 160.868H71.3326L75.0712 150.686H76.3439L80.0826 160.868H78.79L75.7473 152.297H75.6678L72.6252 160.868ZM73.1025 156.891H78.3127V157.984H73.1025V156.891ZM86.8219 157.746V153.232H87.9952V160.868H86.8219V159.575H86.7424C86.5634 159.963 86.285 160.293 85.9071 160.565C85.5293 160.833 85.052 160.967 84.4753 160.967C83.998 160.967 83.5738 160.863 83.2026 160.654C82.8314 160.442 82.5397 160.124 82.3276 159.7C82.1155 159.272 82.0094 158.733 82.0094 158.084V153.232H83.1827V158.004C83.1827 158.561 83.3385 159.005 83.65 159.337C83.9649 159.668 84.3659 159.834 84.8532 159.834C85.1448 159.834 85.4415 159.759 85.7431 159.61C86.048 159.461 86.3032 159.232 86.5087 158.924C86.7175 158.616 86.8219 158.223 86.8219 157.746ZM93.9652 153.232V154.226H90.0078V153.232H93.9652ZM91.1612 151.402H92.3345V158.68C92.3345 159.012 92.3826 159.26 92.4787 159.426C92.5781 159.589 92.7041 159.698 92.8565 159.754C93.0123 159.807 93.1764 159.834 93.3487 159.834C93.478 159.834 93.584 159.827 93.6669 159.814C93.7498 159.797 93.8161 159.784 93.8658 159.774L94.1044 160.828C94.0249 160.858 93.9138 160.888 93.7713 160.918C93.6288 160.951 93.4482 160.967 93.2294 160.967C92.898 160.967 92.5732 160.896 92.255 160.754C91.9401 160.611 91.6783 160.394 91.4695 160.102C91.264 159.811 91.1612 159.443 91.1612 158.999V151.402ZM99.2504 161.027C98.561 161.027 97.9561 160.863 97.4357 160.535C96.9187 160.207 96.5143 159.748 96.2227 159.158C95.9343 158.568 95.7901 157.878 95.7901 157.09C95.7901 156.294 95.9343 155.6 96.2227 155.006C96.5143 154.413 96.9187 153.952 97.4357 153.624C97.9561 153.296 98.561 153.132 99.2504 153.132C99.9397 153.132 100.543 153.296 101.06 153.624C101.58 153.952 101.985 154.413 102.273 155.006C102.565 155.6 102.711 156.294 102.711 157.09C102.711 157.878 102.565 158.568 102.273 159.158C101.985 159.748 101.58 160.207 101.06 160.535C100.543 160.863 99.9397 161.027 99.2504 161.027ZM99.2504 159.973C99.774 159.973 100.205 159.839 100.543 159.57C100.881 159.302 101.131 158.949 101.294 158.511C101.456 158.074 101.537 157.6 101.537 157.09C101.537 156.579 101.456 156.103 101.294 155.663C101.131 155.222 100.881 154.866 100.543 154.594C100.205 154.322 99.774 154.186 99.2504 154.186C98.7267 154.186 98.2958 154.322 97.9577 154.594C97.6197 154.866 97.3694 155.222 97.207 155.663C97.0446 156.103 96.9634 156.579 96.9634 157.09C96.9634 157.6 97.0446 158.074 97.207 158.511C97.3694 158.949 97.6197 159.302 97.9577 159.57C98.2958 159.839 98.7267 159.973 99.2504 159.973ZM105.002 160.868V153.232H106.135V154.425H106.235C106.394 154.017 106.651 153.701 107.005 153.475C107.36 153.246 107.786 153.132 108.283 153.132C108.787 153.132 109.206 153.246 109.541 153.475C109.879 153.701 110.142 154.017 110.331 154.425H110.411C110.606 154.03 110.9 153.717 111.291 153.485C111.682 153.25 112.151 153.132 112.698 153.132C113.38 153.132 113.939 153.346 114.373 153.773C114.807 154.198 115.024 154.859 115.024 155.757V160.868H113.851V155.757C113.851 155.194 113.697 154.791 113.389 154.549C113.08 154.307 112.718 154.186 112.3 154.186C111.763 154.186 111.347 154.349 111.052 154.673C110.757 154.995 110.61 155.402 110.61 155.896V160.868H109.416V155.638C109.416 155.204 109.276 154.854 108.994 154.589C108.712 154.32 108.349 154.186 107.905 154.186C107.6 154.186 107.315 154.267 107.05 154.43C106.788 154.592 106.576 154.817 106.414 155.106C106.254 155.391 106.175 155.721 106.175 156.095V160.868H105.002ZM120.772 161.027C120.082 161.027 119.478 160.863 118.957 160.535C118.44 160.207 118.036 159.748 117.744 159.158C117.456 158.568 117.312 157.878 117.312 157.09C117.312 156.294 117.456 155.6 117.744 155.006C118.036 154.413 118.44 153.952 118.957 153.624C119.478 153.296 120.082 153.132 120.772 153.132C121.461 153.132 122.064 153.296 122.581 153.624C123.102 153.952 123.506 154.413 123.795 155.006C124.086 155.6 124.232 156.294 124.232 157.09C124.232 157.878 124.086 158.568 123.795 159.158C123.506 159.748 123.102 160.207 122.581 160.535C122.064 160.863 121.461 161.027 120.772 161.027ZM120.772 159.973C121.296 159.973 121.726 159.839 122.064 159.57C122.403 159.302 122.653 158.949 122.815 158.511C122.978 158.074 123.059 157.6 123.059 157.09C123.059 156.579 122.978 156.103 122.815 155.663C122.653 155.222 122.403 154.866 122.064 154.594C121.726 154.322 121.296 154.186 120.772 154.186C120.248 154.186 119.817 154.322 119.479 154.594C119.141 154.866 118.891 155.222 118.729 155.663C118.566 156.103 118.485 156.579 118.485 157.09C118.485 157.6 118.566 158.074 118.729 158.511C118.891 158.949 119.141 159.302 119.479 159.57C119.817 159.839 120.248 159.973 120.772 159.973ZM129.844 153.232V154.226H125.887V153.232H129.844ZM127.04 151.402H128.213V158.68C128.213 159.012 128.261 159.26 128.358 159.426C128.457 159.589 128.583 159.698 128.735 159.754C128.891 159.807 129.055 159.834 129.228 159.834C129.357 159.834 129.463 159.827 129.546 159.814C129.629 159.797 129.695 159.784 129.745 159.774L129.983 160.828C129.904 160.858 129.793 160.888 129.65 160.918C129.508 160.951 129.327 160.967 129.108 160.967C128.777 160.967 128.452 160.896 128.134 160.754C127.819 160.611 127.557 160.394 127.348 160.102C127.143 159.811 127.04 159.443 127.04 158.999V151.402ZM132.109 160.868V153.232H133.282V160.868H132.109ZM132.706 151.959C132.477 151.959 132.28 151.881 132.114 151.725C131.952 151.569 131.87 151.382 131.87 151.163C131.87 150.945 131.952 150.757 132.114 150.602C132.28 150.446 132.477 150.368 132.706 150.368C132.934 150.368 133.13 150.446 133.292 150.602C133.458 150.757 133.541 150.945 133.541 151.163C133.541 151.382 133.458 151.569 133.292 151.725C133.13 151.881 132.934 151.959 132.706 151.959ZM142.176 153.232L139.352 160.868H138.159L135.335 153.232H136.607L138.715 159.317H138.795L140.903 153.232H142.176ZM147.153 161.027C146.417 161.027 145.782 160.865 145.248 160.54C144.718 160.212 144.309 159.754 144.02 159.168C143.735 158.578 143.593 157.892 143.593 157.109C143.593 156.327 143.735 155.638 144.02 155.041C144.309 154.441 144.71 153.974 145.224 153.639C145.741 153.301 146.344 153.132 147.033 153.132C147.431 153.132 147.824 153.198 148.211 153.331C148.599 153.464 148.952 153.679 149.27 153.977C149.589 154.272 149.842 154.663 150.031 155.151C150.22 155.638 150.314 156.238 150.314 156.95V157.447H144.428V156.433H149.121C149.121 156.002 149.035 155.618 148.863 155.28C148.694 154.942 148.452 154.675 148.137 154.479C147.825 154.284 147.457 154.186 147.033 154.186C146.566 154.186 146.162 154.302 145.82 154.534C145.482 154.763 145.222 155.061 145.04 155.429C144.857 155.797 144.766 156.191 144.766 156.612V157.288C144.766 157.865 144.866 158.354 145.064 158.755C145.267 159.153 145.547 159.456 145.905 159.665C146.263 159.87 146.679 159.973 147.153 159.973C147.461 159.973 147.739 159.93 147.988 159.844C148.24 159.754 148.457 159.622 148.639 159.446C148.821 159.267 148.962 159.045 149.062 158.78L150.195 159.098C150.076 159.483 149.875 159.821 149.594 160.112C149.312 160.401 148.964 160.626 148.55 160.788C148.135 160.947 147.67 161.027 147.153 161.027Z" fill="black"/>
</g>
<defs>
<filter id="filter0_d_133_2715" x="0" y="0.36792" width="230" height="230" filterUnits="userSpaceOnUse" color-interpolation-filters="sRGB">
<feFlood flood-opacity="0" result="BackgroundImageFix"/>
<feColorMatrix in="SourceAlpha" type="matrix" values="0 0 0 0 0 0 0 0 0 0 0 0 0 0 0 0 0 0 127 0" result="hardAlpha"/>
<feOffset dx="4" dy="4"/>
<feGaussianBlur stdDeviation="7.5"/>
<feComposite in2="hardAlpha" operator="out"/>
<feColorMatrix type="matrix" values="0 0 0 0 0 0 0 0 0 0 0 0 0 0 0 0 0 0 0.25 0"/>
<feBlend mode="normal" in2="BackgroundImageFix" result="effect1_dropShadow_133_2715"/>
<feBlend mode="normal" in="SourceGraphic" in2="effect1_dropShadow_133_2715" result="shape"/>
</filter>
<clipPath id="clip0_133_2715">
<rect width="64" height="64" fill="white" transform="translate(79 58.8679)"/>
</clipPath>
</defs>
</svg>
