<svg width="230" height="231" viewBox="0 0 230 231" fill="none" xmlns="http://www.w3.org/2000/svg">
<g filter="url(#filter0_d_130_2009)">
<rect width="200" height="200" transform="translate(11 11.3679)" fill="white"/>
<path d="M125 90.8679H119V109.868H125V90.8679Z" fill="#64C37D"/>
<path d="M114 92.8679H108V98.8679H114V92.8679Z" fill="#FF5023"/>
<path d="M138 81.8679V85.8679H134V81.8679C134.002 81.338 134.213 80.8302 134.588 80.4555C134.962 80.0807 135.47 79.8695 136 79.8679C136.529 79.8718 137.036 80.0838 137.41 80.458C137.784 80.8323 137.996 81.3387 138 81.8679Z" fill="#D80027"/>
<path d="M140 69.8679V71.8679L111 77.8679L82 71.8679V69.8679L111 61.8679L140 69.8679Z" fill="#FFDA44"/>
<path d="M130 73.938V87.868C130 90.838 125 93.368 117.93 94.388C115.634 94.7125 113.318 94.8729 111 94.868C100.51 94.868 92 91.738 92 87.868V73.938L111 77.868L130 73.938Z" fill="#FF9811"/>
<path d="M94 90.998C95.92 92.408 99.1 93.548 103 94.218V115.868H94V90.998Z" fill="#9BFBFF"/>
<path d="M114 101.868V114.868L112 112.868L111 113.868L110 112.868L108 114.868V101.868H114Z" fill="#FF5023"/>
<path d="M114 98.8679H108V101.868H114V98.8679Z" fill="#E0E0E2"/>
<path d="M114 114.868V115.868L111 119.868L108 115.868V114.868L110 112.868L111 113.868L112 112.868L114 114.868Z" fill="#2D2D30"/>
<path d="M125 109.868L122 115.868L119 109.868H125Z" fill="#00665A"/>
<path d="M140.27 68.908L111.27 60.908C111.093 60.858 110.907 60.858 110.73 60.908L81.73 68.908C81.5204 68.9667 81.3357 69.0923 81.204 69.2655C81.0722 69.4388 81.0006 69.6503 81 69.868V71.868C81 72.0985 81.0796 72.322 81.2253 72.5006C81.3711 72.6791 81.5741 72.8019 81.8 72.848L91 74.748V87.868C91.0355 88.5867 91.234 89.2878 91.5805 89.9185C91.927 90.5491 92.4124 91.0926 93 91.508V115.868C93 116.133 93.1054 116.388 93.2929 116.575C93.4804 116.763 93.7348 116.868 94 116.868H103C103.265 116.868 103.52 116.763 103.707 116.575C103.895 116.388 104 116.133 104 115.868V95.378C104.98 95.518 105.99 95.628 107 95.708V115.868C106.999 116.085 107.069 116.295 107.2 116.468L110.2 120.468C110.293 120.592 110.414 120.693 110.553 120.762C110.692 120.832 110.845 120.868 111 120.868C111.155 120.868 111.308 120.832 111.447 120.762C111.586 120.693 111.707 120.592 111.8 120.468L114.8 116.468C114.931 116.295 115.001 116.085 115 115.868V95.708C116.01 95.628 117.02 95.518 118 95.378V109.868C118.001 110.025 118.039 110.179 118.11 110.318L121.11 116.318C121.194 116.482 121.321 116.619 121.478 116.715C121.635 116.811 121.816 116.862 122 116.862C122.184 116.862 122.365 116.811 122.522 116.715C122.679 116.619 122.806 116.482 122.89 116.318L125.89 110.318C125.961 110.179 125.999 110.025 126 109.868V93.278C129.03 91.958 131 90.138 131 87.868V74.748L135 73.928V79.048C134.417 79.2555 133.913 79.6376 133.555 80.1422C133.197 80.6468 133.003 81.2494 133 81.868V85.868C133 86.1332 133.105 86.3875 133.293 86.5751C133.48 86.7626 133.735 86.868 134 86.868H138C138.265 86.868 138.52 86.7626 138.707 86.5751C138.895 86.3875 139 86.1332 139 85.868V81.868C138.997 81.2494 138.803 80.6468 138.445 80.1422C138.087 79.6376 137.583 79.2555 137 79.048V73.508L140.2 72.848C140.426 72.8019 140.629 72.6791 140.775 72.5006C140.92 72.322 141 72.0985 141 71.868V69.868C140.999 69.6503 140.928 69.4388 140.796 69.2655C140.664 69.0923 140.48 68.9667 140.27 68.908ZM102 114.868H95V110.868H99V108.868H95V103.868H97V101.868H95V96.868H99V94.868H95V92.798C97.2176 93.8691 99.5736 94.6264 102 95.048V114.868ZM113 115.538L111 118.198L109 115.538V115.278L110 114.278L110.29 114.578C110.479 114.765 110.734 114.87 111 114.87C111.266 114.87 111.521 114.765 111.71 114.578L112 114.278L113 115.278V115.538ZM113 112.458L112.71 112.158C112.521 111.971 112.266 111.865 112 111.865C111.734 111.865 111.479 111.971 111.29 112.158L111 112.458L110.71 112.158C110.521 111.971 110.266 111.865 110 111.865C109.734 111.865 109.479 111.971 109.29 112.158L109 112.458V102.868H113V112.458ZM113 100.868H109V99.868H113V100.868ZM113 97.868H109V95.828C109.67 95.858 110.33 95.868 111 95.868C111.67 95.868 112.33 95.858 113 95.828V97.868ZM122 113.628L120.62 110.868H123.38L122 113.628ZM124 108.868H120V95.048C121.354 94.7969 122.691 94.4561 124 94.028V108.868ZM129 87.868C129 90.708 121.61 93.868 111 93.868C100.39 93.868 93 90.708 93 87.868V75.168L110.8 78.848C110.932 78.8746 111.068 78.8746 111.2 78.848L129 75.168V87.868ZM137 84.868H135V81.868C135 81.6028 135.105 81.3484 135.293 81.1609C135.48 80.9733 135.735 80.868 136 80.868C136.265 80.868 136.52 80.9733 136.707 81.1609C136.895 81.3484 137 81.6028 137 81.868V84.868ZM139 71.058L137 71.468V70.868H135V71.878L111 76.848L83 71.058V70.628L111 62.908L139 70.628V71.058Z" fill="black"/>
<path d="M123 95.8679H121V106.868H123V95.8679Z" fill="black"/>
<path d="M77.3042 160.868V150.686H83.4491V151.78H78.5372V155.22H83.1309V156.314H78.5372V159.774H83.5287V160.868H77.3042ZM88.8959 161.027C88.2595 161.027 87.6977 160.866 87.2105 160.545C86.7233 160.22 86.3421 159.763 86.067 159.173C85.7919 158.579 85.6544 157.878 85.6544 157.07C85.6544 156.268 85.7919 155.572 86.067 154.982C86.3421 154.392 86.7249 153.936 87.2155 153.614C87.706 153.293 88.2728 153.132 88.9157 153.132C89.4129 153.132 89.8057 153.215 90.094 153.381C90.3857 153.543 90.6077 153.729 90.7602 153.938C90.916 154.143 91.037 154.312 91.1231 154.445H91.2226V150.686H92.3959V160.868H91.2623V159.695H91.1231C91.037 159.834 90.9143 160.009 90.7552 160.222C90.5961 160.43 90.3691 160.618 90.0741 160.783C89.7791 160.946 89.3864 161.027 88.8959 161.027ZM89.055 159.973C89.5256 159.973 89.9233 159.85 90.2481 159.605C90.5729 159.357 90.8199 159.014 90.9889 158.576C91.1579 158.135 91.2425 157.626 91.2425 157.05C91.2425 156.48 91.1596 155.981 90.9939 155.553C90.8282 155.122 90.5829 154.788 90.2581 154.549C89.9333 154.307 89.5322 154.186 89.055 154.186C88.5578 154.186 88.1435 154.314 87.8121 154.569C87.4839 154.821 87.237 155.164 87.0713 155.598C86.9089 156.029 86.8277 156.513 86.8277 157.05C86.8277 157.593 86.9105 158.087 87.0763 158.531C87.2453 158.972 87.4939 159.323 87.822 159.585C88.1534 159.844 88.5644 159.973 89.055 159.973ZM100.02 157.746V153.232H101.193V160.868H100.02V159.575H99.9406C99.7616 159.963 99.4832 160.293 99.1054 160.565C98.7275 160.833 98.2503 160.967 97.6736 160.967C97.1963 160.967 96.772 160.863 96.4008 160.654C96.0296 160.442 95.738 160.124 95.5258 159.7C95.3137 159.272 95.2077 158.733 95.2077 158.084V153.232H96.3809V158.004C96.3809 158.561 96.5367 159.005 96.8483 159.337C97.1631 159.668 97.5642 159.834 98.0514 159.834C98.3431 159.834 98.6397 159.759 98.9413 159.61C99.2462 159.461 99.5015 159.232 99.7069 158.924C99.9157 158.616 100.02 158.223 100.02 157.746ZM106.945 161.027C106.229 161.027 105.612 160.858 105.095 160.52C104.578 160.182 104.18 159.716 103.902 159.123C103.624 158.53 103.484 157.852 103.484 157.09C103.484 156.314 103.627 155.63 103.912 155.036C104.2 154.44 104.601 153.974 105.115 153.639C105.632 153.301 106.235 153.132 106.925 153.132C107.462 153.132 107.946 153.232 108.377 153.43C108.807 153.629 109.16 153.908 109.435 154.266C109.711 154.624 109.881 155.041 109.948 155.518H108.774C108.685 155.17 108.486 154.862 108.178 154.594C107.873 154.322 107.462 154.186 106.945 154.186C106.487 154.186 106.086 154.305 105.742 154.544C105.4 154.779 105.133 155.112 104.941 155.543C104.752 155.971 104.658 156.473 104.658 157.05C104.658 157.64 104.751 158.153 104.936 158.591C105.125 159.028 105.39 159.368 105.732 159.61C106.076 159.852 106.481 159.973 106.945 159.973C107.25 159.973 107.526 159.92 107.775 159.814C108.024 159.708 108.234 159.555 108.406 159.357C108.579 159.158 108.701 158.919 108.774 158.641H109.948C109.881 159.091 109.717 159.497 109.455 159.859C109.197 160.217 108.854 160.502 108.426 160.714C108.002 160.923 107.508 161.027 106.945 161.027ZM114.41 161.047C113.926 161.047 113.487 160.956 113.092 160.773C112.698 160.588 112.385 160.321 112.153 159.973C111.921 159.622 111.805 159.197 111.805 158.7C111.805 158.263 111.891 157.908 112.063 157.636C112.236 157.361 112.466 157.146 112.754 156.99C113.043 156.834 113.361 156.718 113.709 156.642C114.06 156.563 114.413 156.5 114.768 156.453C115.232 156.393 115.608 156.349 115.896 156.319C116.188 156.286 116.4 156.231 116.533 156.155C116.669 156.079 116.737 155.946 116.737 155.757V155.717C116.737 155.227 116.602 154.846 116.334 154.574C116.069 154.302 115.666 154.166 115.126 154.166C114.566 154.166 114.127 154.289 113.808 154.534C113.49 154.779 113.266 155.041 113.137 155.32L112.024 154.922C112.222 154.458 112.488 154.097 112.819 153.838C113.154 153.576 113.518 153.394 113.913 153.291C114.31 153.185 114.702 153.132 115.086 153.132C115.331 153.132 115.613 153.162 115.931 153.222C116.253 153.278 116.563 153.396 116.861 153.575C117.162 153.754 117.413 154.024 117.612 154.385C117.81 154.746 117.91 155.23 117.91 155.837V160.868H116.737V159.834H116.677C116.597 160 116.465 160.177 116.279 160.366C116.094 160.555 115.847 160.715 115.538 160.848C115.23 160.981 114.854 161.047 114.41 161.047ZM114.589 159.993C115.053 159.993 115.444 159.902 115.762 159.719C116.084 159.537 116.326 159.302 116.488 159.014C116.654 158.725 116.737 158.422 116.737 158.104V157.03C116.687 157.09 116.578 157.144 116.408 157.194C116.243 157.24 116.051 157.282 115.832 157.318C115.616 157.351 115.406 157.381 115.2 157.408C114.998 157.431 114.834 157.451 114.708 157.467C114.403 157.507 114.118 157.572 113.853 157.661C113.591 157.747 113.379 157.878 113.217 158.054C113.058 158.226 112.978 158.462 112.978 158.76C112.978 159.168 113.129 159.476 113.43 159.685C113.735 159.89 114.122 159.993 114.589 159.993ZM123.872 153.232V154.226H119.915V153.232H123.872ZM121.068 151.402H122.242V158.68C122.242 159.012 122.29 159.26 122.386 159.426C122.485 159.589 122.611 159.698 122.764 159.754C122.92 159.807 123.084 159.834 123.256 159.834C123.385 159.834 123.491 159.827 123.574 159.814C123.657 159.797 123.723 159.784 123.773 159.774L124.012 160.828C123.932 160.858 123.821 160.888 123.679 160.918C123.536 160.951 123.355 160.967 123.137 160.967C122.805 160.967 122.48 160.896 122.162 160.754C121.847 160.611 121.585 160.394 121.377 160.102C121.171 159.811 121.068 159.443 121.068 158.999V151.402ZM126.137 160.868V153.232H127.311V160.868H126.137ZM126.734 151.959C126.505 151.959 126.308 151.881 126.142 151.725C125.98 151.569 125.899 151.382 125.899 151.163C125.899 150.945 125.98 150.757 126.142 150.602C126.308 150.446 126.505 150.368 126.734 150.368C126.963 150.368 127.158 150.446 127.321 150.602C127.486 150.757 127.569 150.945 127.569 151.163C127.569 151.382 127.486 151.569 127.321 151.725C127.158 151.881 126.963 151.959 126.734 151.959ZM133.062 161.027C132.372 161.027 131.768 160.863 131.247 160.535C130.73 160.207 130.326 159.748 130.034 159.158C129.746 158.568 129.602 157.878 129.602 157.09C129.602 156.294 129.746 155.6 130.034 155.006C130.326 154.413 130.73 153.952 131.247 153.624C131.768 153.296 132.372 153.132 133.062 153.132C133.751 153.132 134.354 153.296 134.872 153.624C135.392 153.952 135.796 154.413 136.085 155.006C136.376 155.6 136.522 156.294 136.522 157.09C136.522 157.878 136.376 158.568 136.085 159.158C135.796 159.748 135.392 160.207 134.872 160.535C134.354 160.863 133.751 161.027 133.062 161.027ZM133.062 159.973C133.586 159.973 134.016 159.839 134.354 159.57C134.693 159.302 134.943 158.949 135.105 158.511C135.268 158.074 135.349 157.6 135.349 157.09C135.349 156.579 135.268 156.103 135.105 155.663C134.943 155.222 134.693 154.866 134.354 154.594C134.016 154.322 133.586 154.186 133.062 154.186C132.538 154.186 132.107 154.322 131.769 154.594C131.431 154.866 131.181 155.222 131.019 155.663C130.856 156.103 130.775 156.579 130.775 157.09C130.775 157.6 130.856 158.074 131.019 158.511C131.181 158.949 131.431 159.302 131.769 159.57C132.107 159.839 132.538 159.973 133.062 159.973ZM139.986 156.274V160.868H138.813V153.232H139.947V154.425H140.046C140.225 154.037 140.497 153.725 140.861 153.49C141.226 153.251 141.697 153.132 142.273 153.132C142.79 153.132 143.243 153.238 143.631 153.45C144.018 153.659 144.32 153.977 144.535 154.405C144.751 154.829 144.859 155.366 144.859 156.016V160.868H143.685V156.095C143.685 155.495 143.53 155.028 143.218 154.693C142.906 154.355 142.479 154.186 141.935 154.186C141.561 154.186 141.226 154.267 140.931 154.43C140.639 154.592 140.409 154.829 140.24 155.141C140.071 155.452 139.986 155.83 139.986 156.274Z" fill="black"/>
</g>
<defs>
<filter id="filter0_d_130_2009" x="0" y="0.36792" width="230" height="230" filterUnits="userSpaceOnUse" color-interpolation-filters="sRGB">
<feFlood flood-opacity="0" result="BackgroundImageFix"/>
<feColorMatrix in="SourceAlpha" type="matrix" values="0 0 0 0 0 0 0 0 0 0 0 0 0 0 0 0 0 0 127 0" result="hardAlpha"/>
<feOffset dx="4" dy="4"/>
<feGaussianBlur stdDeviation="7.5"/>
<feComposite in2="hardAlpha" operator="out"/>
<feColorMatrix type="matrix" values="0 0 0 0 0 0 0 0 0 0 0 0 0 0 0 0 0 0 0.25 0"/>
<feBlend mode="normal" in2="BackgroundImageFix" result="effect1_dropShadow_130_2009"/>
<feBlend mode="normal" in="SourceGraphic" in2="effect1_dropShadow_130_2009" result="shape"/>
</filter>
</defs>
</svg>
