<svg width="230" height="231" viewBox="0 0 230 231" fill="none" xmlns="http://www.w3.org/2000/svg">
<g filter="url(#filter0_d_130_1831)">
<rect x="11" y="11.3679" width="200" height="200" fill="white" shape-rendering="crispEdges"/>
<g clip-path="url(#clip0_130_1831)">
<path d="M124.05 91.918H83.7125V99.268H124.05V91.918Z" fill="#1C2617"/>
<path d="M134.25 91.918H124.038V99.268H134.25V91.918Z" fill="#B5100B"/>
<path d="M129.675 62.8054L124.037 60.3679H119V91.9179H131.875L134.25 94.7929V99.2679H142.375V82.3679L137.175 70.3179C135.725 66.9554 133.037 64.2679 129.675 62.8054Z" fill="#DB3328"/>
<path d="M137.175 70.3304C135.725 66.9554 133.037 64.2679 129.662 62.8179L124.037 60.3679H124V72.1179H137.95L137.175 70.3304Z" fill="#C4C1AB"/>
<path d="M124.662 91.8929L124.625 60.6054L124.05 60.3679L123.375 60.3429L123.412 91.8679H124L124.662 91.8929Z" fill="#B5100B"/>
<path d="M91.4 104.368C94.2166 104.368 96.5 102.085 96.5 99.268C96.5 96.4513 94.2166 94.168 91.4 94.168C88.5833 94.168 86.3 96.4513 86.3 99.268C86.3 102.085 88.5833 104.368 91.4 104.368Z" fill="#323D2C"/>
<path d="M91.4 101.368C92.5598 101.368 93.5 100.428 93.5 99.268C93.5 98.1082 92.5598 97.168 91.4 97.168C90.2402 97.168 89.3 98.1082 89.3 99.268C89.3 100.428 90.2402 101.368 91.4 101.368Z" fill="#747E6C"/>
<path d="M129.15 104.368C131.967 104.368 134.25 102.085 134.25 99.268C134.25 96.4513 131.967 94.168 129.15 94.168C126.333 94.168 124.05 96.4513 124.05 99.268C124.05 102.085 126.333 104.368 129.15 104.368Z" fill="#323D2C"/>
<path d="M129.15 101.368C130.31 101.368 131.25 100.428 131.25 99.268C131.25 98.1082 130.31 97.168 129.15 97.168C127.99 97.168 127.05 98.1082 127.05 99.268C127.05 100.428 127.99 101.368 129.15 101.368Z" fill="#747E6C"/>
<path d="M139.875 91.1179V96.7429H134.25V99.2429H139.812H142.375V96.7054V91.1179H139.875Z" fill="#C4C1AB"/>
<path d="M135.713 74.1554H128.625V78.7429C128.625 80.0554 129.6 81.1429 130.9 81.3054L139.812 82.3679L135.713 74.1554Z" fill="#485143"/>
<path d="M131.875 87.9929H128.625V89.2429H131.875V87.9929Z" fill="#323D2C"/>
<path d="M114.2 60.3679H79V91.9179H114.2V60.3679Z" fill="#DB3328"/>
<path d="M114.2 60.3679H94.5375L114.2 76.7804V60.3679Z" fill="#E67368"/>
<path d="M111 63.2804H79V88.9929H111V63.2804Z" fill="#747E6C"/>
<path d="M109.712 64.4929H79V88.9929H109.712V64.4929Z" fill="#C4C1AB"/>
<path d="M119 94.1554H107.375V99.2554H119V94.1554Z" fill="#485143"/>
<path d="M119 94.1554H109.163C109.163 96.0429 110.688 97.5679 112.575 97.5679H119V94.1554Z" fill="#747E6C"/>
<path d="M112 94.1179H110.75V99.2429H112V94.1179Z" fill="#485143"/>
<path d="M115.625 94.1179H114.375V99.2429H115.625V94.1179Z" fill="#485143"/>
<path d="M128.375 68.6179H121.5V69.8679H128.375V68.6179Z" fill="#323D2C"/>
<path d="M91.8 94.1804C91.475 94.1554 91.15 94.1554 90.8375 94.1929C90.3125 94.2554 90.3375 95.0179 90.8625 95.0429C90.8875 95.0429 90.9125 95.0429 90.9375 95.0429C93.4125 95.2429 95.425 97.2429 95.6125 99.7179C95.6125 99.7429 95.6125 99.7679 95.6125 99.7929C95.65 100.318 96.4125 100.343 96.4625 99.8179C96.5 99.5054 96.5 99.1804 96.475 98.8554C96.2875 96.3804 94.2875 94.3679 91.8 94.1804Z" fill="#485143"/>
<path d="M93.2125 102.23C90.65 102.08 88.575 100.005 88.425 97.4429C88.425 97.4179 88.425 97.4054 88.425 97.3804C88.3875 96.4929 87.1875 96.2429 86.8 97.0429C86.4375 97.7804 86.25 98.6179 86.3 99.5054C86.4125 102.118 88.55 104.255 91.1625 104.368C92.05 104.405 92.8875 104.218 93.625 103.868C94.425 103.48 94.1625 102.293 93.2875 102.243C93.2625 102.23 93.2375 102.23 93.2125 102.23Z" fill="#1C2617"/>
<path d="M91.9375 100.468C91.05 100.33 90.3375 99.6179 90.1875 98.7179C90.1875 98.7054 90.1875 98.7054 90.1875 98.6929C90.125 98.2554 89.525 98.2054 89.3875 98.6179C89.3 98.8929 89.2625 99.2054 89.3 99.5304C89.4125 100.48 90.175 101.243 91.125 101.355C91.4375 101.393 91.75 101.355 92.0375 101.268C92.45 101.13 92.4 100.53 91.9625 100.468C91.95 100.468 91.95 100.468 91.9375 100.468ZM129.55 94.1804C129.225 94.1554 128.9 94.1554 128.588 94.1929C128.063 94.2554 128.088 95.0179 128.613 95.0429C128.638 95.0429 128.663 95.0429 128.688 95.0429C131.163 95.2429 133.175 97.2429 133.363 99.7179C133.363 99.7429 133.363 99.7679 133.363 99.7929C133.4 100.318 134.163 100.343 134.213 99.8179C134.25 99.5054 134.25 99.1804 134.225 98.8554C134.038 96.3804 132.038 94.3679 129.55 94.1804Z" fill="#485143"/>
<path d="M130.962 102.23C128.4 102.08 126.325 100.005 126.175 97.4429C126.175 97.4179 126.175 97.4054 126.175 97.3804C126.137 96.4929 124.937 96.2429 124.55 97.0429C124.187 97.7804 124 98.6179 124.05 99.5054C124.162 102.118 126.3 104.255 128.912 104.368C129.8 104.405 130.637 104.218 131.375 103.868C132.175 103.48 131.912 102.293 131.037 102.243C131.012 102.23 130.987 102.23 130.962 102.23Z" fill="#1C2617"/>
<path d="M129.688 100.468C128.8 100.33 128.088 99.6179 127.938 98.7179C127.938 98.7054 127.938 98.7054 127.938 98.6929C127.875 98.2554 127.275 98.2054 127.138 98.6179C127.05 98.8929 127.013 99.2054 127.05 99.5304C127.163 100.48 127.925 101.243 128.875 101.355C129.188 101.393 129.5 101.355 129.788 101.268C130.2 101.13 130.15 100.53 129.713 100.468C129.7 100.468 129.7 100.468 129.688 100.468Z" fill="#485143"/>
<path d="M124.663 82.6054L130.688 82.5929L139.813 83.7054H142.375V82.3679H139.813L130.688 81.2679H124.663V82.6054Z" fill="#E67368"/>
<path d="M137.125 74.1179L141 82.3679H142.375L138.825 74.1179H137.125Z" fill="#747E6C"/>
<path d="M136.562 81.9679L133.338 74.1179H129.75L132.8 81.5054L136.562 81.9679Z" fill="#747E6C"/>
<path d="M142.375 98.1179V91.1179H141.088V96.8304C141.088 97.5429 141.663 98.1179 142.375 98.1179ZM128.55 63.9304C131.912 65.3929 134.6 68.0804 136.062 71.4429L136.35 72.1054H137.963L137.188 70.3179C135.738 66.9429 133.05 64.2554 129.675 62.8054L124.037 60.3679H124V61.9679L128.55 63.9304Z" fill="#EBEADF"/>
<path d="M124.037 60.3679H119V61.9679H124.037V60.3679Z" fill="#E67368"/>
<path d="M91.4 104.993C88.2375 104.993 85.675 102.418 85.675 99.268C85.675 96.118 88.25 93.543 91.4 93.543C94.55 93.543 97.125 96.118 97.125 99.268C97.125 102.418 94.55 104.993 91.4 104.993ZM91.4 94.7805C88.925 94.7805 86.925 96.793 86.925 99.2555C86.925 101.718 88.925 103.743 91.4 103.743C93.875 103.743 95.875 101.73 95.875 99.268C95.875 96.8055 93.8625 94.7805 91.4 94.7805Z" fill="#10121B"/>
<path d="M91.4 101.993C89.9 101.993 88.675 100.768 88.675 99.268C88.675 97.768 89.9 96.543 91.4 96.543C92.9 96.543 94.125 97.768 94.125 99.268C94.125 100.768 92.9 101.993 91.4 101.993ZM91.4 97.7805C90.5875 97.7805 89.925 98.443 89.925 99.2555C89.925 100.068 90.575 100.743 91.4 100.743C92.225 100.743 92.875 100.08 92.875 99.268C92.875 98.4555 92.2125 97.7805 91.4 97.7805ZM129.15 101.993C127.65 101.993 126.425 100.768 126.425 99.268C126.425 97.768 127.65 96.543 129.15 96.543C130.65 96.543 131.875 97.768 131.875 99.268C131.875 100.768 130.65 101.993 129.15 101.993ZM129.15 97.7805C128.337 97.7805 127.675 98.443 127.675 99.2555C127.675 100.068 128.337 100.73 129.15 100.73C129.962 100.73 130.625 100.068 130.625 99.2555C130.625 98.443 129.962 97.7805 129.15 97.7805Z" fill="#10121B"/>
<path d="M129.15 104.993C125.987 104.993 123.425 102.418 123.425 99.268C123.425 96.118 126 93.543 129.15 93.543C132.312 93.543 134.875 96.118 134.875 99.268C134.875 102.418 132.3 104.993 129.15 104.993ZM129.15 94.7805C126.675 94.7805 124.675 96.793 124.675 99.2555C124.675 101.718 126.687 103.73 129.15 103.73C131.612 103.73 133.625 101.718 133.625 99.2555C133.625 96.793 131.612 94.7805 129.15 94.7805Z" fill="#10121B"/>
<path d="M142.375 99.8929H134.25C133.9 99.8929 133.625 99.6179 133.625 99.2679V96.7054C133.625 96.3554 133.9 96.0804 134.25 96.0804H142.375C142.725 96.0804 143 96.3554 143 96.7054V99.2679C143 99.6054 142.725 99.8929 142.375 99.8929ZM134.875 98.6429H141.75V97.3304H134.875V98.6429Z" fill="#10121B"/>
<path d="M142.375 99.8929H139.812C139.462 99.8929 139.187 99.6179 139.187 99.2679V91.1429C139.187 90.7929 139.462 90.5179 139.812 90.5179H142.375C142.725 90.5179 143 90.7929 143 91.1429V99.2679C143 99.6054 142.725 99.8929 142.375 99.8929ZM140.437 98.6429H141.75V91.7679H140.437V98.6429ZM124.037 99.8929H96.5V98.6429H123.412V92.5429H84.3375V98.6429H86.3V99.8929H83.7125C83.3625 99.8929 83.0875 99.6179 83.0875 99.2679V91.9179C83.0875 91.5679 83.3625 91.2929 83.7125 91.2929H124.05C124.4 91.2929 124.675 91.5679 124.675 91.9179V99.2679C124.662 99.6054 124.387 99.8929 124.037 99.8929ZM139.812 82.9929C139.787 82.9929 139.762 82.9929 139.737 82.9929L130.825 81.9304C129.212 81.7304 128 80.3679 128 78.7429V74.1429C128 73.7929 128.275 73.5179 128.625 73.5179H135.712C135.95 73.5179 136.162 73.6554 136.275 73.8679L140.375 82.0804C140.475 82.2804 140.462 82.5304 140.325 82.7179C140.212 82.8929 140.012 82.9929 139.812 82.9929ZM129.25 74.7804V78.7429C129.25 79.7304 129.987 80.5679 130.975 80.6804L138.737 81.6054L135.325 74.7679H129.25V74.7804Z" fill="#10121B"/>
<path d="M131.875 87.9929H128.625V89.2429H131.875V87.9929Z" fill="#10121B"/>
<path d="M138 71.4929H124V72.7429H138V71.4929Z" fill="#10121B"/>
<path d="M124.037 92.5429H119C118.65 92.5429 118.375 92.2679 118.375 91.9179V60.3679C118.375 60.0179 118.65 59.7429 119 59.7429H124.037C124.387 59.7429 124.662 60.0179 124.662 60.3679V82.3679H123.412V60.9929H119.625V91.2929H123.412V84.8679H124.662V91.9054C124.662 92.2554 124.387 92.5429 124.037 92.5429Z" fill="#10121B"/>
<path d="M142.375 99.8929H134.25C133.9 99.8929 133.625 99.6179 133.625 99.2679V95.0179L131.575 92.5429H119C118.65 92.5429 118.375 92.2679 118.375 91.9179V60.3679C118.375 60.0179 118.65 59.7429 119 59.7429H124.037C124.125 59.7429 124.212 59.7554 124.287 59.7929L129.925 62.2304C133.45 63.7554 136.238 66.5429 137.763 70.0804L142.963 82.1304C143 82.2054 143.012 82.2929 143.012 82.3804V99.2804C143 99.6054 142.725 99.8929 142.375 99.8929ZM134.875 98.6429H141.75V82.5054L136.6 70.5804C135.2 67.3429 132.65 64.7929 129.425 63.3929L123.912 60.9929H119.625V91.2929H131.875C132.062 91.2929 132.237 91.3804 132.362 91.5179L134.737 94.3929C134.825 94.5054 134.875 94.6429 134.875 94.7929V98.6429Z" fill="#10121B"/>
<path d="M128.375 68.6179H121.5V69.8679H128.375V68.6179Z" fill="#10121B"/>
<path d="M114.2 92.5429H79V91.2929H113.575V60.9929H79V59.7429H114.2C114.55 59.7429 114.825 60.0179 114.825 60.3679V91.9179C114.825 92.2554 114.55 92.5429 114.2 92.5429Z" fill="#10121B"/>
<path d="M111 89.6179H104.25V88.3679H110.375V63.9054H79V62.6554H111C111.35 62.6554 111.625 62.9304 111.625 63.2804V88.9929C111.625 89.3429 111.35 89.6179 111 89.6179Z" fill="#10121B"/>
<path d="M101.75 88.3679H79V89.6179H101.75V88.3679Z" fill="#10121B"/>
<path d="M119 99.893H107.375C107.025 99.893 106.75 99.618 106.75 99.268V94.168C106.75 93.818 107.025 93.543 107.375 93.543H119C119.35 93.543 119.625 93.818 119.625 94.168V99.268C119.625 99.6055 119.35 99.893 119 99.893ZM108 98.643H118.375V94.793H108V98.643Z" fill="#10121B"/>
<path d="M112 94.1179H110.75V99.2429H112V94.1179Z" fill="#10121B"/>
<path d="M115.625 94.1179H114.375V99.2429H115.625V94.1179Z" fill="#10121B"/>
</g>
<path d="M68.2789 152.368V142.186H69.5118V151.274H74.2448V152.368H68.2789ZM79.597 152.527C78.9076 152.527 78.3028 152.363 77.7824 152.035C77.2654 151.707 76.861 151.248 76.5693 150.658C76.281 150.068 76.1368 149.378 76.1368 148.59C76.1368 147.794 76.281 147.1 76.5693 146.506C76.861 145.913 77.2654 145.452 77.7824 145.124C78.3028 144.796 78.9076 144.632 79.597 144.632C80.2864 144.632 80.8896 144.796 81.4067 145.124C81.9271 145.452 82.3314 145.913 82.6198 146.506C82.9114 147.1 83.0573 147.794 83.0573 148.59C83.0573 149.378 82.9114 150.068 82.6198 150.658C82.3314 151.248 81.9271 151.707 81.4067 152.035C80.8896 152.363 80.2864 152.527 79.597 152.527ZM79.597 151.473C80.1207 151.473 80.5516 151.339 80.8896 151.07C81.2277 150.802 81.478 150.449 81.6404 150.011C81.8028 149.574 81.884 149.1 81.884 148.59C81.884 148.079 81.8028 147.603 81.6404 147.163C81.478 146.722 81.2277 146.366 80.8896 146.094C80.5516 145.822 80.1207 145.686 79.597 145.686C79.0734 145.686 78.6425 145.822 78.3044 146.094C77.9664 146.366 77.7161 146.722 77.5537 147.163C77.3913 147.603 77.3101 148.079 77.3101 148.59C77.3101 149.1 77.3913 149.574 77.5537 150.011C77.7161 150.449 77.9664 150.802 78.3044 151.07C78.6425 151.339 79.0734 151.473 79.597 151.473ZM88.4307 155.391C87.8639 155.391 87.3767 155.318 86.969 155.172C86.5613 155.029 86.2216 154.84 85.9498 154.605C85.6814 154.373 85.4676 154.125 85.3085 153.859L86.2432 153.203C86.3492 153.342 86.4835 153.501 86.6459 153.68C86.8083 153.863 87.0303 154.02 87.3121 154.153C87.5971 154.289 87.97 154.357 88.4307 154.357C89.0471 154.357 89.5559 154.207 89.9569 153.909C90.358 153.611 90.5585 153.143 90.5585 152.507V150.956H90.4591C90.3729 151.095 90.2503 151.268 90.0912 151.473C89.9354 151.675 89.71 151.856 89.415 152.015C89.1234 152.171 88.729 152.249 88.2318 152.249C87.6153 152.249 87.0618 152.103 86.5713 151.811C86.0841 151.519 85.6979 151.095 85.4129 150.538C85.1312 149.982 84.9903 149.305 84.9903 148.51C84.9903 147.728 85.1279 147.047 85.403 146.467C85.6781 145.883 86.0609 145.433 86.5514 145.114C87.0419 144.793 87.6087 144.632 88.2517 144.632C88.7488 144.632 89.1433 144.715 89.4349 144.881C89.7299 145.043 89.9553 145.229 90.1111 145.438C90.2702 145.643 90.3928 145.812 90.479 145.945H90.5983V144.732H91.7318V152.587C91.7318 153.243 91.5827 153.777 91.2844 154.188C90.9894 154.602 90.5916 154.905 90.0912 155.097C89.594 155.293 89.0405 155.391 88.4307 155.391ZM88.3909 151.195C88.8615 151.195 89.2593 151.087 89.5841 150.871C89.9089 150.656 90.1558 150.346 90.3248 149.942C90.4939 149.537 90.5784 149.054 90.5784 148.49C90.5784 147.94 90.4955 147.454 90.3298 147.033C90.1641 146.612 89.9188 146.283 89.594 146.044C89.2692 145.805 88.8682 145.686 88.3909 145.686C87.8937 145.686 87.4794 145.812 87.148 146.064C86.8199 146.316 86.5729 146.654 86.4072 147.078C86.2448 147.502 86.1636 147.973 86.1636 148.49C86.1636 149.02 86.2465 149.489 86.4122 149.897C86.5812 150.301 86.8298 150.62 87.1579 150.852C87.4894 151.08 87.9004 151.195 88.3909 151.195ZM94.3795 152.368V144.732H95.5528V152.368H94.3795ZM94.9761 143.459C94.7474 143.459 94.5502 143.381 94.3845 143.225C94.2221 143.069 94.1409 142.882 94.1409 142.663C94.1409 142.445 94.2221 142.257 94.3845 142.102C94.5502 141.946 94.7474 141.868 94.9761 141.868C95.2048 141.868 95.4004 141.946 95.5628 142.102C95.7285 142.257 95.8113 142.445 95.8113 142.663C95.8113 142.882 95.7285 143.069 95.5628 143.225C95.4004 143.381 95.2048 143.459 94.9761 143.459ZM103.611 146.442L102.557 146.74C102.491 146.564 102.393 146.394 102.264 146.228C102.138 146.059 101.965 145.92 101.747 145.81C101.528 145.701 101.248 145.646 100.906 145.646C100.439 145.646 100.05 145.754 99.738 145.969C99.4298 146.182 99.2757 146.452 99.2757 146.78C99.2757 147.072 99.3817 147.302 99.5938 147.471C99.806 147.64 100.137 147.781 100.588 147.893L101.722 148.172C102.404 148.338 102.913 148.591 103.248 148.933C103.583 149.271 103.75 149.706 103.75 150.24C103.75 150.678 103.624 151.069 103.372 151.413C103.124 151.758 102.776 152.03 102.328 152.229C101.881 152.428 101.36 152.527 100.767 152.527C99.9883 152.527 99.3436 152.358 98.8332 152.02C98.3228 151.682 97.9996 151.188 97.8637 150.538L98.9774 150.26C99.0834 150.671 99.2839 150.979 99.5789 151.185C99.8772 151.39 100.267 151.493 100.747 151.493C101.294 151.493 101.728 151.377 102.05 151.145C102.375 150.91 102.537 150.628 102.537 150.3C102.537 150.035 102.444 149.813 102.259 149.634C102.073 149.451 101.788 149.315 101.403 149.226L100.131 148.928C99.4314 148.762 98.9177 148.505 98.5896 148.157C98.2648 147.806 98.1024 147.366 98.1024 146.84C98.1024 146.409 98.2233 146.027 98.4653 145.696C98.7106 145.365 99.0436 145.104 99.4646 144.916C99.8888 144.727 100.369 144.632 100.906 144.632C101.662 144.632 102.255 144.798 102.686 145.129C103.12 145.461 103.429 145.898 103.611 146.442ZM109.337 144.732V145.726H105.38V144.732H109.337ZM106.533 142.902H107.707V150.18C107.707 150.512 107.755 150.76 107.851 150.926C107.95 151.089 108.076 151.198 108.229 151.254C108.384 151.307 108.548 151.334 108.721 151.334C108.85 151.334 108.956 151.327 109.039 151.314C109.122 151.297 109.188 151.284 109.238 151.274L109.476 152.328C109.397 152.358 109.286 152.388 109.143 152.418C109.001 152.451 108.82 152.467 108.601 152.467C108.27 152.467 107.945 152.396 107.627 152.254C107.312 152.111 107.05 151.894 106.842 151.602C106.636 151.311 106.533 150.943 106.533 150.499V142.902ZM111.602 152.368V144.732H112.775V152.368H111.602ZM112.199 143.459C111.97 143.459 111.773 143.381 111.607 143.225C111.445 143.069 111.364 142.882 111.364 142.663C111.364 142.445 111.445 142.257 111.607 142.102C111.773 141.946 111.97 141.868 112.199 141.868C112.427 141.868 112.623 141.946 112.785 142.102C112.951 142.257 113.034 142.445 113.034 142.663C113.034 142.882 112.951 143.069 112.785 143.225C112.623 143.381 112.427 143.459 112.199 143.459ZM118.527 152.527C117.811 152.527 117.194 152.358 116.677 152.02C116.16 151.682 115.763 151.216 115.484 150.623C115.206 150.03 115.066 149.352 115.066 148.59C115.066 147.814 115.209 147.13 115.494 146.536C115.782 145.94 116.183 145.474 116.697 145.139C117.214 144.801 117.817 144.632 118.507 144.632C119.044 144.632 119.528 144.732 119.959 144.93C120.389 145.129 120.742 145.408 121.017 145.766C121.293 146.124 121.463 146.541 121.53 147.018H120.356C120.267 146.67 120.068 146.362 119.76 146.094C119.455 145.822 119.044 145.686 118.527 145.686C118.069 145.686 117.668 145.805 117.324 146.044C116.982 146.279 116.715 146.612 116.523 147.043C116.334 147.471 116.24 147.973 116.24 148.55C116.24 149.14 116.333 149.653 116.518 150.091C116.707 150.528 116.972 150.868 117.314 151.11C117.658 151.352 118.063 151.473 118.527 151.473C118.832 151.473 119.108 151.42 119.357 151.314C119.606 151.208 119.816 151.055 119.988 150.857C120.161 150.658 120.283 150.419 120.356 150.141H121.53C121.463 150.591 121.299 150.997 121.037 151.359C120.779 151.717 120.436 152.002 120.008 152.214C119.584 152.423 119.09 152.527 118.527 152.527ZM128.759 152.368H127.466L131.205 142.186H132.478L136.216 152.368H134.924L131.881 143.797H131.802L128.759 152.368ZM129.236 148.391H134.446V149.484H129.236V148.391ZM139.316 147.774V152.368H138.143V144.732H139.277V145.925H139.376C139.555 145.537 139.827 145.225 140.191 144.99C140.556 144.751 141.027 144.632 141.603 144.632C142.12 144.632 142.573 144.738 142.961 144.95C143.348 145.159 143.65 145.477 143.866 145.905C144.081 146.329 144.189 146.866 144.189 147.516V152.368H143.015V147.595C143.015 146.995 142.86 146.528 142.548 146.193C142.236 145.855 141.809 145.686 141.265 145.686C140.891 145.686 140.556 145.767 140.261 145.93C139.969 146.092 139.739 146.329 139.57 146.641C139.401 146.952 139.316 147.33 139.316 147.774ZM149.716 152.527C149.08 152.527 148.518 152.366 148.031 152.045C147.544 151.72 147.162 151.263 146.887 150.673C146.612 150.079 146.475 149.378 146.475 148.57C146.475 147.768 146.612 147.072 146.887 146.482C147.162 145.892 147.545 145.436 148.036 145.114C148.526 144.793 149.093 144.632 149.736 144.632C150.233 144.632 150.626 144.715 150.914 144.881C151.206 145.043 151.428 145.229 151.581 145.438C151.736 145.643 151.857 145.812 151.943 145.945H152.043V142.186H153.216V152.368H152.083V151.195H151.943C151.857 151.334 151.735 151.509 151.576 151.722C151.416 151.93 151.189 152.118 150.894 152.283C150.599 152.446 150.207 152.527 149.716 152.527ZM149.875 151.473C150.346 151.473 150.744 151.35 151.068 151.105C151.393 150.857 151.64 150.514 151.809 150.076C151.978 149.635 152.063 149.126 152.063 148.55C152.063 147.98 151.98 147.481 151.814 147.053C151.648 146.622 151.403 146.288 151.078 146.049C150.754 145.807 150.353 145.686 149.875 145.686C149.378 145.686 148.964 145.814 148.632 146.069C148.304 146.321 148.057 146.664 147.892 147.098C147.729 147.529 147.648 148.013 147.648 148.55C147.648 149.093 147.731 149.587 147.897 150.031C148.066 150.472 148.314 150.823 148.642 151.085C148.974 151.344 149.385 151.473 149.875 151.473ZM86.7461 169.368H83.604V159.186H86.8853C87.873 159.186 88.7182 159.39 89.4208 159.798C90.1235 160.202 90.6621 160.784 91.0366 161.543C91.4111 162.298 91.5984 163.203 91.5984 164.257C91.5984 165.318 91.4094 166.231 91.0316 166.996C90.6538 167.759 90.1036 168.345 89.381 168.756C88.6585 169.164 87.7802 169.368 86.7461 169.368ZM84.837 168.274H86.6665C87.5084 168.274 88.2061 168.112 88.7596 167.787C89.3131 167.462 89.7257 167 89.9975 166.4C90.2693 165.8 90.4052 165.086 90.4052 164.257C90.4052 163.435 90.271 162.728 90.0025 162.134C89.734 161.538 89.333 161.08 88.7994 160.762C88.2657 160.441 87.6012 160.28 86.8058 160.28H84.837V168.274ZM97.2092 169.527C96.4734 169.527 95.8387 169.365 95.305 169.04C94.7747 168.712 94.3654 168.254 94.0771 167.668C93.792 167.078 93.6495 166.392 93.6495 165.609C93.6495 164.827 93.792 164.138 94.0771 163.541C94.3654 162.941 94.7665 162.474 95.2802 162.139C95.7972 161.801 96.4004 161.632 97.0898 161.632C97.4876 161.632 97.8803 161.698 98.2681 161.831C98.6559 161.964 99.0089 162.179 99.3271 162.477C99.6452 162.772 99.8988 163.163 100.088 163.651C100.277 164.138 100.371 164.738 100.371 165.45V165.947H94.4847V164.933H99.1779C99.1779 164.502 99.0917 164.118 98.9194 163.78C98.7504 163.442 98.5084 163.175 98.1935 162.979C97.882 162.784 97.5141 162.686 97.0898 162.686C96.6225 162.686 96.2182 162.802 95.8768 163.034C95.5387 163.263 95.2785 163.561 95.0962 163.929C94.9139 164.297 94.8228 164.691 94.8228 165.112V165.788C94.8228 166.365 94.9222 166.854 95.1211 167.255C95.3233 167.653 95.6033 167.956 95.9613 168.165C96.3192 168.37 96.7352 168.473 97.2092 168.473C97.5174 168.473 97.7958 168.43 98.0444 168.344C98.2963 168.254 98.5134 168.122 98.6957 167.946C98.878 167.767 99.0188 167.545 99.1183 167.28L100.252 167.598C100.132 167.983 99.9319 168.321 99.6502 168.612C99.3685 168.901 99.0205 169.126 98.6062 169.288C98.1919 169.447 97.7262 169.527 97.2092 169.527ZM103.829 159.186V169.368H102.656V159.186H103.829ZM106.478 169.368V161.732H107.651V169.368H106.478ZM107.075 160.459C106.846 160.459 106.649 160.381 106.483 160.225C106.321 160.069 106.24 159.882 106.24 159.663C106.24 159.445 106.321 159.257 106.483 159.102C106.649 158.946 106.846 158.868 107.075 158.868C107.303 158.868 107.499 158.946 107.661 159.102C107.827 159.257 107.91 159.445 107.91 159.663C107.91 159.882 107.827 160.069 107.661 160.225C107.499 160.381 107.303 160.459 107.075 160.459ZM116.545 161.732L113.721 169.368H112.528L109.704 161.732H110.977L113.085 167.817H113.164L115.272 161.732H116.545ZM121.522 169.527C120.786 169.527 120.151 169.365 119.618 169.04C119.087 168.712 118.678 168.254 118.39 167.668C118.105 167.078 117.962 166.392 117.962 165.609C117.962 164.827 118.105 164.138 118.39 163.541C118.678 162.941 119.079 162.474 119.593 162.139C120.11 161.801 120.713 161.632 121.402 161.632C121.8 161.632 122.193 161.698 122.581 161.831C122.968 161.964 123.321 162.179 123.64 162.477C123.958 162.772 124.211 163.163 124.4 163.651C124.589 164.138 124.684 164.738 124.684 165.45V165.947H118.797V164.933H123.49C123.49 164.502 123.404 164.118 123.232 163.78C123.063 163.442 122.821 163.175 122.506 162.979C122.194 162.784 121.827 162.686 121.402 162.686C120.935 162.686 120.531 162.802 120.189 163.034C119.851 163.263 119.591 163.561 119.409 163.929C119.226 164.297 119.135 164.691 119.135 165.112V165.788C119.135 166.365 119.235 166.854 119.434 167.255C119.636 167.653 119.916 167.956 120.274 168.165C120.632 168.37 121.048 168.473 121.522 168.473C121.83 168.473 122.108 168.43 122.357 168.344C122.609 168.254 122.826 168.122 123.008 167.946C123.19 167.767 123.331 167.545 123.431 167.28L124.564 167.598C124.445 167.983 124.244 168.321 123.963 168.612C123.681 168.901 123.333 169.126 122.919 169.288C122.504 169.447 122.039 169.527 121.522 169.527ZM126.968 169.368V161.732H128.102V162.885H128.181C128.321 162.507 128.573 162.201 128.937 161.965C129.302 161.73 129.713 161.612 130.17 161.612C130.256 161.612 130.364 161.614 130.493 161.617C130.623 161.621 130.72 161.625 130.787 161.632V162.825C130.747 162.815 130.656 162.8 130.513 162.781C130.374 162.757 130.226 162.746 130.071 162.746C129.699 162.746 129.368 162.824 129.076 162.979C128.788 163.132 128.559 163.344 128.39 163.616C128.225 163.884 128.142 164.191 128.142 164.536V169.368H126.968ZM133.665 172.232C133.467 172.232 133.289 172.215 133.134 172.182C132.978 172.152 132.87 172.122 132.81 172.092L133.109 171.058C133.394 171.131 133.646 171.158 133.864 171.138C134.083 171.118 134.277 171.02 134.446 170.844C134.618 170.672 134.776 170.392 134.918 170.004L135.137 169.408L132.313 161.732H133.586L135.694 167.817H135.773L137.881 161.732H139.154L135.913 170.482C135.767 170.876 135.586 171.202 135.371 171.461C135.155 171.723 134.905 171.917 134.62 172.043C134.338 172.169 134.02 172.232 133.665 172.232Z" fill="black"/>
</g>
<defs>
<filter id="filter0_d_130_1831" x="0" y="0.36792" width="230" height="230" filterUnits="userSpaceOnUse" color-interpolation-filters="sRGB">
<feFlood flood-opacity="0" result="BackgroundImageFix"/>
<feColorMatrix in="SourceAlpha" type="matrix" values="0 0 0 0 0 0 0 0 0 0 0 0 0 0 0 0 0 0 127 0" result="hardAlpha"/>
<feOffset dx="4" dy="4"/>
<feGaussianBlur stdDeviation="7.5"/>
<feComposite in2="hardAlpha" operator="out"/>
<feColorMatrix type="matrix" values="0 0 0 0 0 0 0 0 0 0 0 0 0 0 0 0 0 0 0.25 0"/>
<feBlend mode="normal" in2="BackgroundImageFix" result="effect1_dropShadow_130_1831"/>
<feBlend mode="normal" in="SourceGraphic" in2="effect1_dropShadow_130_1831" result="shape"/>
</filter>
<clipPath id="clip0_130_1831">
<rect width="64" height="64" fill="white" transform="translate(79 50.3679)"/>
</clipPath>
</defs>
</svg>
