<svg width="230" height="231" viewBox="0 0 230 231" fill="none" xmlns="http://www.w3.org/2000/svg">
<g filter="url(#filter0_d_130_1903)">
<rect width="200" height="200" transform="translate(11 11.3679)" fill="white"/>
<g clip-path="url(#clip0_130_1903)">
<path d="M138.4 55.8213V108.875H83.6V55.8346L138.4 55.8213Z" fill="#FFE6A2"/>
<path d="M133.04 83.528H120.08V108.875H133.04V83.528Z" fill="#FFB044"/>
<path d="M113.689 83.5332H90.368V97.8465H113.689V83.5332Z" fill="#FFB044"/>
<path d="M138.401 51.3679H83.5667V55.8159H138.401V51.3679Z" fill="#FFC261"/>
<path d="M142 108.876H80V113.369H142V108.876Z" fill="#FFC261"/>
<path d="M120.08 105.995H83.6V108.875H120.08V105.995Z" fill="#FFD486"/>
<path d="M138.4 105.995H133.04V108.875H138.4V105.995Z" fill="#FFD486"/>
<path d="M133.04 105.995H120.08V108.875H133.04V105.995Z" fill="#FFA844"/>
<path d="M138.4 58.3945V78.0345C137.801 78.3072 137.162 78.4785 136.507 78.5412C134.965 78.6963 133.422 78.257 132.192 77.3129C130.963 76.3688 130.141 74.9911 129.893 73.4612L129.813 73.0345H129.707C129.671 74.6423 129.014 76.1739 127.874 77.3077C126.733 78.4414 125.198 79.0893 123.59 79.1151C121.982 79.141 120.426 78.5429 119.25 77.4465C118.073 76.35 117.367 74.8404 117.28 73.2345V73.0345H117.227C117.193 74.6619 116.523 76.2112 115.36 77.3502C114.197 78.4892 112.634 79.1271 111.007 79.1271C109.379 79.1271 107.816 78.4892 106.653 77.3502C105.49 76.2112 104.82 74.6619 104.787 73.0345H104.733L104.72 73.2345C104.633 74.8404 103.927 76.35 102.75 77.4465C101.574 78.5429 100.018 79.141 98.4104 79.1151C96.8024 79.0893 95.267 78.4414 94.1264 77.3077C92.9858 76.1739 92.3288 74.6423 92.2933 73.0345H92.1867L92.1067 73.4612C91.859 74.9911 91.0366 76.3688 89.8076 77.3129C88.5785 78.257 87.0354 78.6963 85.4933 78.5412C84.8385 78.4785 84.1987 78.3072 83.6 78.0345V58.3945H138.4Z" fill="#FFD486"/>
<path d="M128.627 73.8213C127.892 74.8933 126.841 75.7085 125.619 76.1525C124.398 76.5965 123.069 76.6471 121.817 76.2971C120.566 75.9471 119.455 75.2141 118.642 74.201C117.828 73.1879 117.352 71.9454 117.28 70.648L116.48 55.8213H127.44L129.64 69.3146C129.902 70.8915 129.539 72.5085 128.627 73.8213ZM94.56 55.8213L92.1067 70.8746C91.8724 72.2992 91.1413 73.5949 90.0431 74.532C88.9449 75.4692 87.5504 75.9873 86.1067 75.9946C85.9019 75.9991 85.697 75.9901 85.4933 75.968C84.6119 75.8795 83.7603 75.6003 82.9977 75.1495C82.2351 74.6987 81.5798 74.0873 81.0773 73.3577C80.5749 72.6282 80.2373 71.7979 80.0881 70.9247C79.9389 70.0515 79.9816 69.1563 80.2133 68.3013L83.6 55.8213H94.56Z" fill="#EE6148"/>
<path d="M105.52 55.8213L104.72 70.648C104.627 72.2346 103.932 73.726 102.778 74.8184C101.623 75.9109 100.096 76.5222 98.5067 76.528C96.8593 76.5297 95.2786 75.8779 94.1112 74.7156C92.9439 73.5532 92.2853 71.9753 92.28 70.328C92.2801 69.9886 92.3069 69.6498 92.36 69.3146L94.56 55.8213H105.52ZM117.253 70.3013C117.247 71.1333 117.075 71.9556 116.746 72.7201C116.418 73.4846 115.941 74.1759 115.342 74.7534C114.743 75.331 114.034 75.7831 113.259 76.0833C112.483 76.3836 111.654 76.5259 110.823 76.5019C109.991 76.478 109.173 76.2882 108.415 75.9438C107.658 75.5994 106.977 75.1072 106.412 74.4961C105.848 73.8851 105.411 73.1675 105.127 72.3853C104.843 71.6032 104.718 70.7723 104.76 69.9413L105.52 55.8213H116.48L117.24 69.9413C117.24 70.0613 117.253 70.1813 117.253 70.3013ZM140.96 73.3013C140.46 74.0464 139.802 74.6719 139.032 75.1329C138.262 75.5939 137.4 75.8791 136.507 75.968C136.303 75.9901 136.098 75.9991 135.893 75.9946C134.448 75.9937 133.05 75.4779 131.95 74.5396C130.851 73.6013 130.122 72.302 129.893 70.8746L127.44 55.8213H138.4L141.787 68.3013C142.016 69.1452 142.06 70.0286 141.918 70.8913C141.775 71.754 141.448 72.576 140.96 73.3013Z" fill="#EE6148"/>
<path d="M128.627 73.8213C127.706 74.2124 126.704 74.3758 125.706 74.2977C124.708 74.2195 123.744 73.9021 122.895 73.3723C122.046 72.8425 121.337 72.1159 120.829 71.2541C120.32 70.3923 120.027 69.4206 119.973 68.4213L119.293 55.8213H127.44L129.64 69.3146C129.902 70.8915 129.539 72.5085 128.627 73.8213ZM94.56 55.8213L92.1067 70.8746C91.9687 71.7337 91.6457 72.5526 91.16 73.2746C90.4115 73.6013 89.6034 73.7693 88.7867 73.768C88.5819 73.7724 88.377 73.7635 88.1733 73.7413C87.2935 73.6531 86.4434 73.3744 85.6823 72.9243C84.9212 72.4743 84.2672 71.8639 83.7659 71.1354C83.2647 70.407 82.9281 69.5781 82.7798 68.7064C82.6314 67.8348 82.6747 66.9412 82.9067 66.088L85.6933 55.8213H94.56ZM105.52 55.8213L104.72 70.648C104.659 71.7808 104.285 72.8745 103.64 73.808C102.871 74.1467 102.04 74.3194 101.2 74.3146C99.5512 74.3136 97.9701 73.659 96.8029 72.4944C95.6358 71.3298 94.9779 69.7501 94.9733 68.1013C94.9735 67.7619 95.0002 67.4231 95.0533 67.088L96.8933 55.8213H105.52ZM117.253 70.3013C117.253 71.5521 116.877 72.7739 116.173 73.808C115.389 74.1405 114.546 74.3128 113.693 74.3146C112.843 74.314 112.001 74.1402 111.22 73.8039C110.438 73.4675 109.734 72.9756 109.149 72.3581C108.564 71.7406 108.11 71.0104 107.817 70.2121C107.523 69.4138 107.395 68.5641 107.44 67.7146L108.093 55.8213H116.48L117.24 69.9413C117.24 70.0613 117.253 70.1813 117.253 70.3013ZM140.96 73.3013C140.398 73.5319 139.805 73.6801 139.2 73.7413C138.996 73.7635 138.791 73.7724 138.587 73.768C137.14 73.7673 135.74 73.2518 134.638 72.3138C133.537 71.3757 132.805 70.0763 132.573 68.648L130.493 55.8213H138.4L141.787 68.3013C142.016 69.1452 142.06 70.0286 141.918 70.8913C141.775 71.754 141.448 72.576 140.96 73.3013Z" fill="#FF6E56"/>
<path d="M90.368 82.5333C90.1028 82.5333 89.8484 82.6386 89.6609 82.8261C89.4733 83.0137 89.368 83.268 89.368 83.5333V97.8453C89.368 98.1105 89.4733 98.3648 89.6609 98.5524C89.8484 98.7399 90.1028 98.8453 90.368 98.8453H113.689C113.955 98.8453 114.209 98.7399 114.396 98.5524C114.584 98.3648 114.689 98.1105 114.689 97.8453V83.5333C114.689 83.268 114.584 83.0137 114.396 82.8261C114.209 82.6386 113.955 82.5333 113.689 82.5333H90.368ZM112.689 96.8453H91.368V84.5333H112.689V96.8453ZM85.3907 76.9586C86.7076 77.0923 88.0356 76.8521 89.2222 76.2656C90.4089 75.6791 91.4063 74.77 92.1 73.6426C92.6932 74.7912 93.5852 75.7586 94.6819 76.4429C95.7787 77.1273 97.0397 77.5032 98.3321 77.5312C99.6246 77.5592 100.901 77.2381 102.026 76.6019C103.151 75.9657 104.084 75.0378 104.727 73.9159C105.01 74.4034 105.348 74.857 105.733 75.2679C106.411 75.9835 107.228 76.5535 108.133 76.943C109.039 77.3325 110.014 77.5334 111 77.5334C111.986 77.5334 112.961 77.3325 113.867 76.943C114.772 76.5535 115.589 75.9835 116.267 75.2679C116.652 74.857 116.99 74.4034 117.273 73.9159C117.918 75.0348 118.852 75.9596 119.977 76.5935C121.102 77.2274 122.377 77.547 123.668 77.519C124.959 77.4909 126.219 77.1161 127.315 76.4338C128.412 75.7516 129.304 74.7871 129.9 73.6413C130.797 75.0873 132.185 76.1618 133.81 76.6684C135.435 77.1749 137.187 77.0795 138.748 76.3996C140.308 75.7198 141.571 74.5009 142.306 72.9661C143.041 71.4312 143.199 69.683 142.751 68.0413L139.4 55.6813V51.3679C139.4 51.1027 139.295 50.8483 139.107 50.6608C138.92 50.4733 138.665 50.3679 138.4 50.3679H83.5667C83.3014 50.3679 83.0471 50.4733 82.8596 50.6608C82.672 50.8483 82.5667 51.1027 82.5667 51.3679V55.7973L79.2493 68.0453C78.9797 69.0395 78.9299 70.0806 79.1034 71.0961C79.2769 72.1115 79.6696 73.077 80.2541 73.9253C80.8386 74.7737 81.6009 75.4845 82.4879 76.0083C83.375 76.5321 84.3656 76.8564 85.3907 76.9586ZM98.504 75.5333C97.7476 75.5334 97.0003 75.3692 96.3137 75.0519C95.6271 74.7346 95.0176 74.2718 94.5276 73.6957C94.0375 73.1195 93.6786 72.4437 93.4756 71.7151C93.2726 70.9865 93.2304 70.2225 93.352 69.4759L95.4093 56.8159H104.467L103.759 69.8826L103.72 70.5906C103.648 71.9255 103.068 73.1821 102.097 74.1016C101.127 75.0211 99.8408 75.5335 98.504 75.5333ZM114.815 73.8933C114.075 74.6761 113.113 75.2128 112.059 75.4309C111.004 75.6489 109.908 75.5378 108.919 75.1124C107.93 74.687 107.095 73.968 106.528 73.0526C105.961 72.1373 105.688 71.0698 105.748 69.9946L105.789 69.2253L106.456 56.8159H115.523L116.189 69.2253L116.231 69.9946C116.274 70.7068 116.171 71.4203 115.928 72.091C115.684 72.7617 115.305 73.3751 114.815 73.8933ZM127.472 73.6959C126.795 74.491 125.895 75.0648 124.889 75.3434C123.883 75.6219 122.816 75.5923 121.827 75.2584C120.837 74.9245 119.971 74.3017 119.339 73.4703C118.707 72.6389 118.339 71.6372 118.283 70.5946L118.244 69.8866L117.536 56.8199H126.591L128.648 69.4799C128.77 70.2267 128.728 70.9912 128.525 71.7202C128.322 72.4492 127.963 73.1252 127.472 73.7013V73.6959ZM140.097 72.7906C139.521 73.6275 138.707 74.2728 137.76 74.6433C136.814 75.0138 135.778 75.0927 134.786 74.8697C133.794 74.6467 132.892 74.1321 132.195 73.3921C131.498 72.6521 131.039 71.7205 130.876 70.7173L128.616 56.8159H137.637L140.82 68.5679C141.014 69.282 141.05 70.0298 140.925 70.7591C140.8 71.4884 140.518 72.1817 140.097 72.7906ZM84.5667 52.3679H137.4V54.8159H84.5667V52.3679ZM81.18 68.5679L84.3627 56.8159H93.384L91.9907 65.3866L91.3773 69.1546L91.124 70.7159C91.0128 71.3977 90.7642 72.0498 90.3931 72.6324C90.022 73.2151 89.5363 73.7162 88.9655 74.1052C88.3947 74.4942 87.7507 74.7631 87.0727 74.8954C86.3947 75.0277 85.6968 75.0208 85.0216 74.8749C84.3464 74.7291 83.7079 74.4474 83.145 74.047C82.582 73.6466 82.1064 73.1359 81.7471 72.546C81.3877 71.956 81.1522 71.2991 81.0547 70.6152C80.9572 69.9314 80.9998 69.2348 81.18 68.5679Z" fill="black"/>
<path d="M142 107.875H139.4V79.1799C139.4 78.9147 139.295 78.6604 139.107 78.4728C138.92 78.2853 138.665 78.1799 138.4 78.1799C138.135 78.1799 137.88 78.2853 137.693 78.4728C137.505 78.6604 137.4 78.9147 137.4 79.1799V107.875H134.047V83.5333C134.047 83.268 133.941 83.0137 133.754 82.8262C133.566 82.6386 133.312 82.5333 133.047 82.5333H120.085C119.82 82.5333 119.566 82.6386 119.378 82.8262C119.191 83.0137 119.085 83.268 119.085 83.5333V107.875H84.6V79.1906C84.6 78.9254 84.4946 78.671 84.3071 78.4835C84.1196 78.296 83.8652 78.1906 83.6 78.1906C83.3348 78.1906 83.0804 78.296 82.8929 78.4835C82.7054 78.671 82.6 78.9254 82.6 79.1906V107.875H80C79.7348 107.875 79.4804 107.98 79.2929 108.167C79.1054 108.355 79 108.609 79 108.875V113.368C79 113.633 79.1054 113.888 79.2929 114.075C79.4804 114.263 79.7348 114.368 80 114.368H142C142.265 114.368 142.52 114.263 142.707 114.075C142.895 113.888 143 113.633 143 113.368V108.875C143 108.609 142.895 108.355 142.707 108.167C142.52 107.98 142.265 107.875 142 107.875ZM121.085 84.5333H132.047V107.875H121.085V84.5333ZM141 112.368H81V109.875H141V112.368Z" fill="black"/>
</g>
<path d="M70.3951 152.368V142.186H73.8354C74.6309 142.186 75.2838 142.322 75.7942 142.594C76.3046 142.862 76.6825 143.232 76.9277 143.702C77.173 144.173 77.2956 144.708 77.2956 145.308C77.2956 145.908 77.173 146.44 76.9277 146.904C76.6825 147.368 76.3063 147.733 75.7992 147.998C75.2921 148.26 74.6441 148.391 73.8553 148.391H71.0712V147.277H73.8155C74.3591 147.277 74.7966 147.197 75.128 147.038C75.4628 146.879 75.7047 146.654 75.8539 146.362C76.0063 146.067 76.0826 145.716 76.0826 145.308C76.0826 144.901 76.0063 144.544 75.8539 144.239C75.7014 143.934 75.4578 143.699 75.123 143.533C74.7883 143.364 74.3458 143.28 73.7956 143.28H71.628V152.368H70.3951ZM75.1877 147.794L77.6934 152.368H76.2615L73.7956 147.794H75.1877ZM82.8107 152.527C82.0749 152.527 81.4402 152.365 80.9066 152.04C80.3763 151.712 79.967 151.254 79.6786 150.668C79.3936 150.078 79.2511 149.392 79.2511 148.609C79.2511 147.827 79.3936 147.138 79.6786 146.541C79.967 145.941 80.368 145.474 80.8817 145.139C81.3988 144.801 82.002 144.632 82.6914 144.632C83.0891 144.632 83.4819 144.698 83.8697 144.831C84.2575 144.964 84.6104 145.179 84.9286 145.477C85.2468 145.772 85.5004 146.163 85.6893 146.651C85.8782 147.138 85.9727 147.738 85.9727 148.45V148.947H80.0863V147.933H84.7795C84.7795 147.502 84.6933 147.118 84.521 146.78C84.3519 146.442 84.11 146.175 83.7951 145.979C83.4835 145.784 83.1156 145.686 82.6914 145.686C82.2241 145.686 81.8197 145.802 81.4783 146.034C81.1403 146.263 80.8801 146.561 80.6978 146.929C80.5155 147.297 80.4244 147.691 80.4244 148.112V148.788C80.4244 149.365 80.5238 149.854 80.7227 150.255C80.9248 150.653 81.2049 150.956 81.5629 151.165C81.9208 151.37 82.3368 151.473 82.8107 151.473C83.119 151.473 83.3974 151.43 83.646 151.344C83.8978 151.254 84.1149 151.122 84.2972 150.946C84.4795 150.767 84.6204 150.545 84.7198 150.28L85.8533 150.598C85.734 150.983 85.5335 151.321 85.2518 151.612C84.9701 151.901 84.622 152.126 84.2077 152.288C83.7934 152.447 83.3278 152.527 82.8107 152.527ZM91.5785 144.732V145.726H87.6211V144.732H91.5785ZM88.7745 142.902H89.9478V150.18C89.9478 150.512 89.9959 150.76 90.092 150.926C90.1914 151.089 90.3174 151.198 90.4698 151.254C90.6256 151.307 90.7897 151.334 90.962 151.334C91.0913 151.334 91.1973 151.327 91.2802 151.314C91.363 151.297 91.4293 151.284 91.479 151.274L91.7177 152.328C91.6381 152.358 91.5271 152.388 91.3846 152.418C91.2421 152.451 91.0614 152.467 90.8427 152.467C90.5112 152.467 90.1864 152.396 89.8683 152.254C89.5534 152.111 89.2915 151.894 89.0827 151.602C88.8772 151.311 88.7745 150.943 88.7745 150.499V142.902ZM96.0906 152.547C95.6067 152.547 95.1675 152.456 94.7731 152.273C94.3787 152.088 94.0655 151.821 93.8335 151.473C93.6014 151.122 93.4854 150.697 93.4854 150.2C93.4854 149.763 93.5716 149.408 93.744 149.136C93.9163 148.861 94.1467 148.646 94.435 148.49C94.7234 148.334 95.0415 148.218 95.3896 148.142C95.7409 148.063 96.0939 148 96.4485 147.953C96.9125 147.893 97.2887 147.849 97.5771 147.819C97.8687 147.786 98.0808 147.731 98.2134 147.655C98.3493 147.579 98.4173 147.446 98.4173 147.257V147.217C98.4173 146.727 98.283 146.346 98.0146 146.074C97.7494 145.802 97.3467 145.666 96.8065 145.666C96.2463 145.666 95.8072 145.789 95.489 146.034C95.1708 146.279 94.9471 146.541 94.8178 146.82L93.7042 146.422C93.9031 145.958 94.1682 145.597 94.4996 145.338C94.8344 145.076 95.199 144.894 95.5934 144.791C95.9911 144.685 96.3822 144.632 96.7667 144.632C97.012 144.632 97.2937 144.662 97.6119 144.722C97.9334 144.778 98.2433 144.896 98.5415 145.075C98.8432 145.254 99.0934 145.524 99.2923 145.885C99.4911 146.246 99.5906 146.73 99.5906 147.337V152.368H98.4173V151.334H98.3576C98.2781 151.5 98.1455 151.677 97.9599 151.866C97.7743 152.055 97.5273 152.215 97.2191 152.348C96.9109 152.481 96.5347 152.547 96.0906 152.547ZM96.2695 151.493C96.7335 151.493 97.1246 151.402 97.4428 151.219C97.7643 151.037 98.0063 150.802 98.1687 150.514C98.3344 150.225 98.4173 149.922 98.4173 149.604V148.53C98.3675 148.59 98.2582 148.644 98.0891 148.694C97.9234 148.74 97.7312 148.782 97.5124 148.818C97.297 148.851 97.0865 148.881 96.881 148.908C96.6789 148.931 96.5148 148.951 96.3888 148.967C96.0839 149.007 95.7989 149.072 95.5337 149.161C95.2719 149.247 95.0598 149.378 94.8974 149.554C94.7383 149.726 94.6587 149.962 94.6587 150.26C94.6587 150.668 94.8095 150.976 95.1112 151.185C95.4161 151.39 95.8022 151.493 96.2695 151.493ZM102.232 152.368V144.732H103.405V152.368H102.232ZM102.829 143.459C102.6 143.459 102.403 143.381 102.237 143.225C102.075 143.069 101.993 142.882 101.993 142.663C101.993 142.445 102.075 142.257 102.237 142.102C102.403 141.946 102.6 141.868 102.829 141.868C103.057 141.868 103.253 141.946 103.415 142.102C103.581 142.257 103.664 142.445 103.664 142.663C103.664 142.882 103.581 143.069 103.415 143.225C103.253 143.381 103.057 143.459 102.829 143.459ZM107.228 142.186V152.368H106.054V142.186H107.228ZM115.286 146.442L114.232 146.74C114.165 146.564 114.068 146.394 113.938 146.228C113.812 146.059 113.64 145.92 113.421 145.81C113.203 145.701 112.923 145.646 112.581 145.646C112.114 145.646 111.724 145.754 111.413 145.969C111.105 146.182 110.95 146.452 110.95 146.78C110.95 147.072 111.057 147.302 111.269 147.471C111.481 147.64 111.812 147.781 112.263 147.893L113.396 148.172C114.079 148.338 114.588 148.591 114.923 148.933C115.258 149.271 115.425 149.706 115.425 150.24C115.425 150.678 115.299 151.069 115.047 151.413C114.798 151.758 114.45 152.03 114.003 152.229C113.556 152.428 113.035 152.527 112.442 152.527C111.663 152.527 111.018 152.358 110.508 152.02C109.998 151.682 109.674 151.188 109.539 150.538L110.652 150.26C110.758 150.671 110.959 150.979 111.254 151.185C111.552 151.39 111.941 151.493 112.422 151.493C112.969 151.493 113.403 151.377 113.725 151.145C114.049 150.91 114.212 150.628 114.212 150.3C114.212 150.035 114.119 149.813 113.933 149.634C113.748 149.451 113.463 149.315 113.078 149.226L111.806 148.928C111.106 148.762 110.593 148.505 110.264 148.157C109.94 147.806 109.777 147.366 109.777 146.84C109.777 146.409 109.898 146.027 110.14 145.696C110.385 145.365 110.718 145.104 111.139 144.916C111.564 144.727 112.044 144.632 112.581 144.632C113.337 144.632 113.93 144.798 114.361 145.129C114.795 145.461 115.103 145.898 115.286 146.442ZM122.705 152.368H121.413L125.151 142.186H126.424L130.163 152.368H128.87L125.827 143.797H125.748L122.705 152.368ZM123.183 148.391H128.393V149.484H123.183V148.391ZM133.263 147.774V152.368H132.089V144.732H133.223V145.925H133.322C133.501 145.537 133.773 145.225 134.138 144.99C134.502 144.751 134.973 144.632 135.55 144.632C136.067 144.632 136.519 144.738 136.907 144.95C137.295 145.159 137.596 145.477 137.812 145.905C138.027 146.329 138.135 146.866 138.135 147.516V152.368H136.962V147.595C136.962 146.995 136.806 146.528 136.494 146.193C136.183 145.855 135.755 145.686 135.212 145.686C134.837 145.686 134.502 145.767 134.207 145.93C133.916 146.092 133.685 146.329 133.516 146.641C133.347 146.952 133.263 147.33 133.263 147.774ZM143.662 152.527C143.026 152.527 142.464 152.366 141.977 152.045C141.49 151.72 141.109 151.263 140.834 150.673C140.559 150.079 140.421 149.378 140.421 148.57C140.421 147.768 140.559 147.072 140.834 146.482C141.109 145.892 141.492 145.436 141.982 145.114C142.473 144.793 143.039 144.632 143.682 144.632C144.18 144.632 144.572 144.715 144.861 144.881C145.152 145.043 145.374 145.229 145.527 145.438C145.683 145.643 145.804 145.812 145.89 145.945H145.989V142.186H147.162V152.368H146.029V151.195H145.89C145.804 151.334 145.681 151.509 145.522 151.722C145.363 151.93 145.136 152.118 144.841 152.283C144.546 152.446 144.153 152.527 143.662 152.527ZM143.822 151.473C144.292 151.473 144.69 151.35 145.015 151.105C145.34 150.857 145.586 150.514 145.756 150.076C145.925 149.635 146.009 149.126 146.009 148.55C146.009 147.98 145.926 147.481 145.76 147.053C145.595 146.622 145.349 146.288 145.025 146.049C144.7 145.807 144.299 145.686 143.822 145.686C143.324 145.686 142.91 145.814 142.579 146.069C142.251 146.321 142.004 146.664 141.838 147.098C141.675 147.529 141.594 148.013 141.594 148.55C141.594 149.093 141.677 149.587 141.843 150.031C142.012 150.472 142.26 150.823 142.589 151.085C142.92 151.344 143.331 151.473 143.822 151.473ZM66.5953 169.368V159.186H72.7401V160.28H67.8282V163.72H72.422V164.814H67.8282V168.274H72.8197V169.368H66.5953ZM79.6784 163.73V164.824H75.2238V163.73H79.6784ZM90.5951 162.368H89.3621C89.2892 162.013 89.1616 161.702 88.9793 161.433C88.8003 161.165 88.5816 160.939 88.3231 160.757C88.0679 160.572 87.7845 160.432 87.4729 160.34C87.1614 160.247 86.8366 160.2 86.4985 160.2C85.882 160.2 85.3235 160.356 84.8231 160.668C84.3259 160.979 83.9298 161.438 83.6349 162.045C83.3432 162.651 83.1974 163.395 83.1974 164.277C83.1974 165.159 83.3432 165.903 83.6349 166.509C83.9298 167.116 84.3259 167.575 84.8231 167.886C85.3235 168.198 85.882 168.354 86.4985 168.354C86.8366 168.354 87.1614 168.307 87.4729 168.215C87.7845 168.122 88.0679 167.984 88.3231 167.802C88.5816 167.616 88.8003 167.389 88.9793 167.121C89.1616 166.849 89.2892 166.537 89.3621 166.186H90.5951C90.5023 166.706 90.3332 167.172 90.088 167.583C89.8427 167.994 89.5378 168.344 89.1732 168.632C88.8086 168.917 88.3993 169.134 87.9452 169.283C87.4945 169.433 87.0122 169.507 86.4985 169.507C85.6301 169.507 84.8579 169.295 84.1817 168.871C83.5056 168.447 82.9736 167.843 82.5858 167.061C82.1981 166.279 82.0042 165.351 82.0042 164.277C82.0042 163.203 82.1981 162.275 82.5858 161.493C82.9736 160.711 83.5056 160.108 84.1817 159.683C84.8579 159.259 85.6301 159.047 86.4985 159.047C87.0122 159.047 87.4945 159.121 87.9452 159.271C88.3993 159.42 88.8086 159.639 89.1732 159.927C89.5378 160.212 89.8427 160.56 90.088 160.971C90.3332 161.379 90.5023 161.844 90.5951 162.368ZM96.0306 169.527C95.3412 169.527 94.7364 169.363 94.216 169.035C93.699 168.707 93.2946 168.248 93.0029 167.658C92.7146 167.068 92.5704 166.378 92.5704 165.59C92.5704 164.794 92.7146 164.1 93.0029 163.506C93.2946 162.913 93.699 162.452 94.216 162.124C94.7364 161.796 95.3412 161.632 96.0306 161.632C96.72 161.632 97.3232 161.796 97.8403 162.124C98.3606 162.452 98.765 162.913 99.0534 163.506C99.345 164.1 99.4909 164.794 99.4909 165.59C99.4909 166.378 99.345 167.068 99.0534 167.658C98.765 168.248 98.3606 168.707 97.8403 169.035C97.3232 169.363 96.72 169.527 96.0306 169.527ZM96.0306 168.473C96.5543 168.473 96.9852 168.339 97.3232 168.07C97.6613 167.802 97.9115 167.449 98.074 167.011C98.2364 166.574 98.3176 166.1 98.3176 165.59C98.3176 165.079 98.2364 164.603 98.074 164.163C97.9115 163.722 97.6613 163.366 97.3232 163.094C96.9852 162.822 96.5543 162.686 96.0306 162.686C95.507 162.686 95.0761 162.822 94.738 163.094C94.3999 163.366 94.1497 163.722 93.9873 164.163C93.8249 164.603 93.7437 165.079 93.7437 165.59C93.7437 166.1 93.8249 166.574 93.9873 167.011C94.1497 167.449 94.3999 167.802 94.738 168.07C95.0761 168.339 95.507 168.473 96.0306 168.473ZM101.782 169.368V161.732H102.915V162.925H103.015C103.174 162.517 103.431 162.201 103.785 161.975C104.14 161.746 104.566 161.632 105.063 161.632C105.567 161.632 105.986 161.746 106.321 161.975C106.659 162.201 106.922 162.517 107.111 162.925H107.191C107.387 162.53 107.68 162.217 108.071 161.985C108.462 161.75 108.931 161.632 109.478 161.632C110.161 161.632 110.719 161.846 111.153 162.273C111.588 162.698 111.805 163.359 111.805 164.257V169.368H110.631V164.257C110.631 163.694 110.477 163.291 110.169 163.049C109.861 162.807 109.498 162.686 109.08 162.686C108.543 162.686 108.127 162.849 107.832 163.173C107.537 163.495 107.39 163.902 107.39 164.396V169.368H106.197V164.138C106.197 163.704 106.056 163.354 105.774 163.089C105.492 162.82 105.129 162.686 104.685 162.686C104.38 162.686 104.095 162.767 103.83 162.93C103.568 163.092 103.356 163.317 103.194 163.606C103.035 163.891 102.955 164.221 102.955 164.595V169.368H101.782ZM114.45 169.368V161.732H115.583V162.925H115.683C115.842 162.517 116.099 162.201 116.453 161.975C116.808 161.746 117.234 161.632 117.731 161.632C118.235 161.632 118.654 161.746 118.989 161.975C119.327 162.201 119.59 162.517 119.779 162.925H119.859C120.054 162.53 120.348 162.217 120.739 161.985C121.13 161.75 121.599 161.632 122.146 161.632C122.829 161.632 123.387 161.846 123.821 162.273C124.255 162.698 124.473 163.359 124.473 164.257V169.368H123.299V164.257C123.299 163.694 123.145 163.291 122.837 163.049C122.529 162.807 122.166 162.686 121.748 162.686C121.211 162.686 120.795 162.849 120.5 163.173C120.205 163.495 120.058 163.902 120.058 164.396V169.368H118.865V164.138C118.865 163.704 118.724 163.354 118.442 163.089C118.16 162.82 117.797 162.686 117.353 162.686C117.048 162.686 116.763 162.767 116.498 162.93C116.236 163.092 116.024 163.317 115.862 163.606C115.703 163.891 115.623 164.221 115.623 164.595V169.368H114.45ZM130.32 169.527C129.584 169.527 128.949 169.365 128.415 169.04C127.885 168.712 127.476 168.254 127.187 167.668C126.902 167.078 126.76 166.392 126.76 165.609C126.76 164.827 126.902 164.138 127.187 163.541C127.476 162.941 127.877 162.474 128.391 162.139C128.908 161.801 129.511 161.632 130.2 161.632C130.598 161.632 130.991 161.698 131.378 161.831C131.766 161.964 132.119 162.179 132.437 162.477C132.756 162.772 133.009 163.163 133.198 163.651C133.387 164.138 133.481 164.738 133.481 165.45V165.947H127.595V164.933H132.288C132.288 164.502 132.202 164.118 132.03 163.78C131.861 163.442 131.619 163.175 131.304 162.979C130.992 162.784 130.624 162.686 130.2 162.686C129.733 162.686 129.329 162.802 128.987 163.034C128.649 163.263 128.389 163.561 128.207 163.929C128.024 164.297 127.933 164.691 127.933 165.112V165.788C127.933 166.365 128.033 166.854 128.231 167.255C128.434 167.653 128.714 167.956 129.072 168.165C129.43 168.37 129.846 168.473 130.32 168.473C130.628 168.473 130.906 168.43 131.155 168.344C131.407 168.254 131.624 168.122 131.806 167.946C131.988 167.767 132.129 167.545 132.229 167.28L133.362 167.598C133.243 167.983 133.042 168.321 132.761 168.612C132.479 168.901 132.131 169.126 131.717 169.288C131.302 169.447 130.837 169.527 130.32 169.527ZM135.766 169.368V161.732H136.9V162.885H136.979C137.119 162.507 137.37 162.201 137.735 161.965C138.1 161.73 138.511 161.612 138.968 161.612C139.054 161.612 139.162 161.614 139.291 161.617C139.42 161.621 139.518 161.625 139.584 161.632V162.825C139.545 162.815 139.454 162.8 139.311 162.781C139.172 162.757 139.024 162.746 138.869 162.746C138.497 162.746 138.166 162.824 137.874 162.979C137.586 163.132 137.357 163.344 137.188 163.616C137.022 163.884 136.94 164.191 136.94 164.536V169.368H135.766ZM144.345 169.527C143.629 169.527 143.013 169.358 142.496 169.02C141.979 168.682 141.581 168.216 141.302 167.623C141.024 167.03 140.885 166.352 140.885 165.59C140.885 164.814 141.027 164.13 141.312 163.536C141.601 162.94 142.002 162.474 142.516 162.139C143.033 161.801 143.636 161.632 144.325 161.632C144.862 161.632 145.346 161.732 145.777 161.93C146.208 162.129 146.561 162.408 146.836 162.766C147.111 163.124 147.282 163.541 147.348 164.018H146.175C146.085 163.67 145.886 163.362 145.578 163.094C145.273 162.822 144.862 162.686 144.345 162.686C143.888 162.686 143.487 162.805 143.142 163.044C142.801 163.279 142.534 163.612 142.342 164.043C142.153 164.471 142.058 164.973 142.058 165.55C142.058 166.14 142.151 166.653 142.337 167.091C142.525 167.528 142.791 167.868 143.132 168.11C143.477 168.352 143.881 168.473 144.345 168.473C144.65 168.473 144.927 168.42 145.175 168.314C145.424 168.208 145.634 168.055 145.807 167.857C145.979 167.658 146.102 167.419 146.175 167.141H147.348C147.282 167.591 147.118 167.997 146.856 168.359C146.597 168.717 146.254 169.002 145.827 169.214C145.402 169.423 144.909 169.527 144.345 169.527ZM152.765 169.527C152.029 169.527 151.394 169.365 150.861 169.04C150.33 168.712 149.921 168.254 149.633 167.668C149.348 167.078 149.205 166.392 149.205 165.609C149.205 164.827 149.348 164.138 149.633 163.541C149.921 162.941 150.322 162.474 150.836 162.139C151.353 161.801 151.956 161.632 152.646 161.632C153.043 161.632 153.436 161.698 153.824 161.831C154.212 161.964 154.565 162.179 154.883 162.477C155.201 162.772 155.454 163.163 155.643 163.651C155.832 164.138 155.927 164.738 155.927 165.45V165.947H150.04V164.933H154.734C154.734 164.502 154.647 164.118 154.475 163.78C154.306 163.442 154.064 163.175 153.749 162.979C153.438 162.784 153.07 162.686 152.646 162.686C152.178 162.686 151.774 162.802 151.432 163.034C151.094 163.263 150.834 163.561 150.652 163.929C150.47 164.297 150.378 164.691 150.378 165.112V165.788C150.378 166.365 150.478 166.854 150.677 167.255C150.879 167.653 151.159 167.956 151.517 168.165C151.875 168.37 152.291 168.473 152.765 168.473C153.073 168.473 153.351 168.43 153.6 168.344C153.852 168.254 154.069 168.122 154.251 167.946C154.434 167.767 154.574 167.545 154.674 167.28L155.807 167.598C155.688 167.983 155.488 168.321 155.206 168.612C154.924 168.901 154.576 169.126 154.162 169.288C153.748 169.447 153.282 169.527 152.765 169.527Z" fill="black"/>
</g>
<defs>
<filter id="filter0_d_130_1903" x="0" y="0.36792" width="230" height="230" filterUnits="userSpaceOnUse" color-interpolation-filters="sRGB">
<feFlood flood-opacity="0" result="BackgroundImageFix"/>
<feColorMatrix in="SourceAlpha" type="matrix" values="0 0 0 0 0 0 0 0 0 0 0 0 0 0 0 0 0 0 127 0" result="hardAlpha"/>
<feOffset dx="4" dy="4"/>
<feGaussianBlur stdDeviation="7.5"/>
<feComposite in2="hardAlpha" operator="out"/>
<feColorMatrix type="matrix" values="0 0 0 0 0 0 0 0 0 0 0 0 0 0 0 0 0 0 0.25 0"/>
<feBlend mode="normal" in2="BackgroundImageFix" result="effect1_dropShadow_130_1903"/>
<feBlend mode="normal" in="SourceGraphic" in2="effect1_dropShadow_130_1903" result="shape"/>
</filter>
<clipPath id="clip0_130_1903">
<rect width="64" height="64" fill="white" transform="translate(79 50.3679)"/>
</clipPath>
</defs>
</svg>
