<svg width="230" height="231" viewBox="0 0 230 231" fill="none" xmlns="http://www.w3.org/2000/svg">
<g filter="url(#filter0_d_133_2699)">
<rect width="200" height="200" transform="translate(11 11.3679)" fill="white"/>
<g clip-path="url(#clip0_133_2699)">
<path d="M81.1 120.358L83.97 96.3679L90.69 95.3979L90.89 97.4279C90.88 97.4779 90.86 97.5179 90.86 97.5679C90.86 97.7179 90.89 97.8479 90.95 97.9779L92.93 117.818L81.1 120.358ZM142.27 97.5579C141.938 97.0189 141.503 96.5506 140.99 96.18C140.477 95.8093 139.896 95.5435 139.28 95.3979C138.66 95.2524 138.018 95.2304 137.39 95.3334C136.762 95.4364 136.161 95.6622 135.62 95.9979L122.5 103.878C121.78 102.318 120.16 101.238 118.29 101.238H112.92C110.84 101.238 108.82 100.628 107.07 99.4679C104.92 98.0379 102.8 97.1379 100.78 96.7879C99.87 96.6279 98.9 96.5779 97.73 96.6279C96.92 96.6579 95.09 96.6579 92.76 96.6279L92.52 94.1979C92.5069 94.0668 92.4674 93.9397 92.4039 93.8243C92.3404 93.7088 92.2542 93.6074 92.1506 93.5262C92.0469 93.4449 91.9278 93.3854 91.8005 93.3514C91.6733 93.3173 91.5404 93.3093 91.41 93.3279L82.95 94.5479C82.52 94.6079 82.18 94.9579 82.13 95.3979L79.01 121.478C78.97 121.788 79.09 122.098 79.32 122.308C79.5 122.478 79.73 122.558 79.97 122.558C80.04 122.558 80.11 122.558 80.17 122.538L94.18 119.528C94.66 119.428 94.99 118.978 94.94 118.488L94.74 116.488C97.24 117.548 100.02 119.138 100.37 119.348C100.402 119.375 100.44 119.396 100.48 119.408C103.45 120.958 106.27 121.478 108.72 121.478C113.81 121.478 117.3 119.218 117.35 119.188L140.71 104.208C141.435 103.766 142.029 103.14 142.431 102.393C142.833 101.646 143.03 100.806 143 99.9579C142.98 99.1179 142.73 98.2879 142.27 97.5579ZM139.68 102.568L116.29 117.568C114.44 118.788 108.19 121.188 101.44 117.728C101.04 117.448 100.28 117.048 98.86 116.308C97.67 115.688 96.02 114.868 94.53 114.298L94.37 112.678L93.11 100.088L92.96 98.5679C94.52 98.5879 96.74 98.6079 97.81 98.5679C98.84 98.5179 99.68 98.5579 100.44 98.6979C102.2 99.0079 104.07 99.8079 106 101.088C108.06 102.448 110.45 103.178 112.92 103.178H118.29C119.61 103.178 120.72 104.078 120.92 105.278C120.94 105.348 120.95 105.428 120.95 105.508C120.96 105.568 120.96 105.628 120.96 105.678C120.96 105.788 120.96 105.888 120.95 105.948L120.93 106.128C120.83 106.638 120.58 107.108 120.23 107.458C119.76 107.938 119.12 108.198 118.45 108.198H105.88C105.35 108.198 104.91 108.638 104.91 109.168C104.91 109.708 105.35 110.138 105.88 110.138H118.45C119.64 110.138 120.76 109.678 121.6 108.828C121.79 108.638 121.96 108.438 122.11 108.218C122.12 108.208 122.12 108.208 122.12 108.198C122.47 107.698 122.71 107.108 122.83 106.468C122.84 106.468 122.85 106.378 122.85 106.368L122.88 106.198C122.89 106.088 122.89 105.998 122.89 105.898L136.63 97.6479C137.29 97.2379 138.08 97.1079 138.83 97.2879C139.58 97.4679 140.22 97.9279 140.63 98.5879C140.9 99.0179 141.05 99.5079 141.06 100.018C141.09 101.058 140.58 102.008 139.68 102.568Z" fill="#2B2E63"/>
<path d="M92.93 117.818L81.1 120.358L83.97 96.368L90.69 95.3979L90.89 97.428C90.88 97.478 90.86 97.518 90.86 97.568C90.86 97.718 90.89 97.848 90.95 97.978L92.93 117.818Z" fill="#4EBDE5"/>
<path d="M139.56 100.048C139.58 100.568 139.33 101.018 138.89 101.298L115.48 116.308C114.57 116.908 112.02 118.018 108.77 118.018C106.5 118.018 104.29 117.488 102.21 116.438C101.72 116.108 100.97 115.718 99.55 114.978C98.34 114.348 95.67 113.228 94.37 112.678L93.11 100.088H95.97C96.72 100.088 97.4 100.088 97.87 100.068C98.14 100.058 98.38 100.048 98.61 100.048C99.2 100.048 99.71 100.088 100.17 100.168C101.74 100.448 103.42 101.178 105.17 102.338C107.49 103.868 110.17 104.678 112.92 104.678H118.29C118.76 104.678 120.26 104.928 120.92 105.278C120.94 105.348 120.95 105.428 120.95 105.508C120.96 105.568 120.96 105.628 120.96 105.678C120.96 105.788 120.96 105.888 120.95 105.948L120.93 106.128C120.83 106.638 120.58 107.108 120.23 107.458C119.76 107.938 119.12 108.198 118.45 108.198H105.88C105.35 108.198 104.91 108.638 104.91 109.168C104.91 109.708 105.35 110.138 105.88 110.138H118.45C119.64 110.138 120.76 109.678 121.6 108.828C121.79 108.638 121.96 108.438 122.11 108.218C122.12 108.208 122.12 108.208 122.12 108.198L122.46 107.998C122.74 107.838 123.03 107.648 123.3 107.488L124.23 106.918C124.26 106.898 124.27 106.898 124.27 106.898L137.4 98.9378C137.557 98.8338 137.734 98.7632 137.92 98.7305C138.106 98.6978 138.297 98.7037 138.48 98.7478C138.85 98.8378 139.16 99.0578 139.36 99.3778C139.49 99.5878 139.56 99.8178 139.56 100.048Z" fill="#FFE5AB"/>
<path d="M141.06 100.018C141.09 101.058 140.58 102.008 139.68 102.568L116.29 117.568C114.44 118.788 108.19 121.188 101.44 117.728C101.04 117.448 100.28 117.048 98.86 116.308C97.67 115.688 96.02 114.868 94.53 114.298L94.37 112.678C95.67 113.228 98.34 114.348 99.55 114.978C100.97 115.718 101.72 116.108 102.21 116.438C104.29 117.488 106.5 118.018 108.77 118.018C112.02 118.018 114.57 116.908 115.48 116.308L138.89 101.298C139.33 101.018 139.58 100.568 139.56 100.048C139.56 99.8179 139.49 99.5879 139.36 99.3779C139.16 99.0579 138.85 98.8379 138.48 98.7479C138.297 98.7038 138.106 98.6979 137.92 98.7306C137.734 98.7632 137.557 98.8338 137.4 98.9379L124.27 106.898C124.27 106.898 124.26 106.898 124.23 106.918L123.3 107.488C123.03 107.648 122.74 107.838 122.46 107.998L122.12 108.198C122.47 107.698 122.71 107.108 122.83 106.468C122.84 106.468 122.85 106.378 122.85 106.368L122.88 106.198C122.89 106.088 122.89 105.998 122.89 105.898L136.63 97.6479C137.29 97.2379 138.08 97.1079 138.83 97.2879C139.58 97.4679 140.22 97.9279 140.63 98.5879C140.9 99.0179 141.05 99.5079 141.06 100.018Z" fill="#F0D39A"/>
<path d="M120.92 105.278C120.26 104.928 118.76 104.678 118.29 104.678H112.92C110.17 104.678 107.49 103.868 105.17 102.338C103.42 101.178 101.74 100.448 100.17 100.168C99.71 100.088 99.2 100.048 98.61 100.048C98.38 100.048 98.14 100.058 97.87 100.068C97.4 100.088 96.72 100.088 95.97 100.088H93.11L92.96 98.568C94.52 98.588 96.74 98.608 97.81 98.568C98.84 98.518 99.68 98.558 100.44 98.698C102.2 99.008 104.07 99.808 106 101.088C108.06 102.448 110.45 103.178 112.92 103.178H118.29C119.61 103.178 120.72 104.078 120.92 105.278Z" fill="#F0D39A"/>
<path d="M122.11 108.218L122.12 108.198L122.46 107.998C122.34 108.078 122.24 108.218 122.11 108.218C122.35 108.078 122.05 108.218 122.11 108.218Z" fill="#FFE5AB"/>
<path d="M92.93 117.818L81.1 120.358L83.97 96.368L90.69 95.3979L90.84 96.888L85.32 97.688L82.84 118.448L92.78 116.318L92.93 117.818Z" fill="#36A9DB"/>
<g clip-path="url(#clip1_133_2699)">
<path d="M127.038 69.1808C125.491 67.8232 123.502 67.1021 121.461 67.1586C119.419 67.2151 117.472 68.0451 116 69.4862C114.527 68.046 112.58 67.2166 110.539 67.1601C108.498 67.1037 106.509 67.8241 104.962 69.1808C104.147 69.9207 103.491 70.8234 103.033 71.8326C102.575 72.8419 102.326 73.9362 102.301 75.0477C102.272 76.1574 102.465 77.2616 102.867 78.2933C103.27 79.325 103.874 80.2628 104.643 81.0498L112.593 89.1226C113.497 90.0408 114.723 90.5565 116 90.5565C117.277 90.5565 118.503 90.0408 119.407 89.1226L127.357 81.0498C128.127 80.2654 128.734 79.3299 129.139 78.3001C129.544 77.2704 129.74 76.1676 129.714 75.0586C129.689 73.9442 129.438 72.847 128.978 71.8357C128.517 70.8244 127.857 69.9206 127.038 69.1808Z" fill="#FF4090"/>
</g>
</g>
<path d="M83.4601 150.686V160.868H82.267L76.7187 152.874H76.6192V160.868H75.3863V150.686H76.5795L82.1476 158.7H82.2471V150.686H83.4601ZM89.3705 161.027C88.6811 161.027 88.0762 160.863 87.5558 160.535C87.0388 160.207 86.6344 159.748 86.3428 159.158C86.0544 158.568 85.9102 157.878 85.9102 157.09C85.9102 156.294 86.0544 155.6 86.3428 155.006C86.6344 154.413 87.0388 153.952 87.5558 153.624C88.0762 153.296 88.6811 153.132 89.3705 153.132C90.0599 153.132 90.6631 153.296 91.1801 153.624C91.7005 153.952 92.1048 154.413 92.3932 155.006C92.6849 155.6 92.8307 156.294 92.8307 157.09C92.8307 157.878 92.6849 158.568 92.3932 159.158C92.1048 159.748 91.7005 160.207 91.1801 160.535C90.6631 160.863 90.0599 161.027 89.3705 161.027ZM89.3705 159.973C89.8941 159.973 90.325 159.839 90.6631 159.57C91.0012 159.302 91.2514 158.949 91.4138 158.511C91.5762 158.074 91.6574 157.6 91.6574 157.09C91.6574 156.579 91.5762 156.103 91.4138 155.663C91.2514 155.222 91.0012 154.866 90.6631 154.594C90.325 154.322 89.8941 154.186 89.3705 154.186C88.8468 154.186 88.4159 154.322 88.0779 154.594C87.7398 154.866 87.4896 155.222 87.3271 155.663C87.1647 156.103 87.0835 156.579 87.0835 157.09C87.0835 157.6 87.1647 158.074 87.3271 158.511C87.4896 158.949 87.7398 159.302 88.0779 159.57C88.4159 159.839 88.8468 159.973 89.3705 159.973ZM96.295 156.274V160.868H95.1217V153.232H96.2552V154.425H96.3547C96.5336 154.037 96.8054 153.725 97.17 153.49C97.5346 153.251 98.0052 153.132 98.5819 153.132C99.099 153.132 99.5514 153.238 99.9392 153.45C100.327 153.659 100.629 153.977 100.844 154.405C101.059 154.829 101.167 155.366 101.167 156.016V160.868H99.9939V156.095C99.9939 155.495 99.8381 155.028 99.5265 154.693C99.215 154.355 98.7874 154.186 98.2439 154.186C97.8693 154.186 97.5346 154.267 97.2396 154.43C96.9479 154.592 96.7176 154.829 96.5486 155.141C96.3795 155.452 96.295 155.83 96.295 156.274ZM108.186 155.956V157.05H103.732V155.956H108.186ZM110.91 160.868V150.686H114.35C115.149 150.686 115.802 150.83 116.309 151.119C116.819 151.404 117.197 151.79 117.442 152.277C117.688 152.764 117.81 153.308 117.81 153.908C117.81 154.508 117.688 155.053 117.442 155.543C117.2 156.034 116.826 156.425 116.319 156.717C115.812 157.005 115.162 157.149 114.37 157.149H111.904V156.055H114.33C114.877 156.055 115.316 155.961 115.648 155.772C115.979 155.583 116.219 155.328 116.369 155.006C116.521 154.682 116.597 154.315 116.597 153.908C116.597 153.5 116.521 153.135 116.369 152.814C116.219 152.492 115.977 152.241 115.643 152.058C115.308 151.873 114.864 151.78 114.31 151.78H112.143V160.868H110.91ZM120.137 160.868V153.232H121.271V154.385H121.35C121.49 154.007 121.742 153.701 122.106 153.465C122.471 153.23 122.882 153.112 123.339 153.112C123.425 153.112 123.533 153.114 123.662 153.117C123.791 153.121 123.889 153.125 123.956 153.132V154.325C123.916 154.315 123.825 154.3 123.682 154.281C123.543 154.257 123.395 154.246 123.24 154.246C122.868 154.246 122.537 154.324 122.245 154.479C121.957 154.632 121.728 154.844 121.559 155.116C121.393 155.384 121.311 155.691 121.311 156.036V160.868H120.137ZM128.716 161.027C128.027 161.027 127.422 160.863 126.902 160.535C126.384 160.207 125.98 159.748 125.688 159.158C125.4 158.568 125.256 157.878 125.256 157.09C125.256 156.294 125.4 155.6 125.688 155.006C125.98 154.413 126.384 153.952 126.902 153.624C127.422 153.296 128.027 153.132 128.716 153.132C129.406 153.132 130.009 153.296 130.526 153.624C131.046 153.952 131.451 154.413 131.739 155.006C132.031 155.6 132.176 156.294 132.176 157.09C132.176 157.878 132.031 158.568 131.739 159.158C131.451 159.748 131.046 160.207 130.526 160.535C130.009 160.863 129.406 161.027 128.716 161.027ZM128.716 159.973C129.24 159.973 129.671 159.839 130.009 159.57C130.347 159.302 130.597 158.949 130.759 158.511C130.922 158.074 131.003 157.6 131.003 157.09C131.003 156.579 130.922 156.103 130.759 155.663C130.597 155.222 130.347 154.866 130.009 154.594C129.671 154.322 129.24 154.186 128.716 154.186C128.193 154.186 127.762 154.322 127.424 154.594C127.085 154.866 126.835 155.222 126.673 155.663C126.51 156.103 126.429 156.579 126.429 157.09C126.429 157.6 126.51 158.074 126.673 158.511C126.835 158.949 127.085 159.302 127.424 159.57C127.762 159.839 128.193 159.973 128.716 159.973ZM137.868 153.232V154.226H133.752V153.232H137.868ZM134.984 160.868V152.178C134.984 151.74 135.087 151.375 135.293 151.084C135.498 150.792 135.765 150.573 136.093 150.428C136.421 150.282 136.768 150.209 137.132 150.209C137.421 150.209 137.656 150.232 137.838 150.278C138.02 150.325 138.156 150.368 138.246 150.408L137.908 151.422C137.848 151.402 137.765 151.377 137.659 151.347C137.556 151.317 137.421 151.303 137.252 151.303C136.864 151.303 136.584 151.4 136.411 151.596C136.242 151.791 136.158 152.078 136.158 152.456V160.868H134.984ZM140.012 160.868V153.232H141.186V160.868H140.012ZM140.609 151.959C140.38 151.959 140.183 151.881 140.017 151.725C139.855 151.569 139.774 151.382 139.774 151.163C139.774 150.945 139.855 150.757 140.017 150.602C140.183 150.446 140.38 150.368 140.609 150.368C140.838 150.368 141.033 150.446 141.196 150.602C141.361 150.757 141.444 150.945 141.444 151.163C141.444 151.382 141.361 151.569 141.196 151.725C141.033 151.881 140.838 151.959 140.609 151.959ZM147.156 153.232V154.226H143.198V153.232H147.156ZM144.352 151.402H145.525V158.68C145.525 159.012 145.573 159.26 145.669 159.426C145.769 159.589 145.895 159.698 146.047 159.754C146.203 159.807 146.367 159.834 146.539 159.834C146.668 159.834 146.774 159.827 146.857 159.814C146.94 159.797 147.006 159.784 147.056 159.774L147.295 160.828C147.215 160.858 147.104 160.888 146.962 160.918C146.819 160.951 146.639 160.967 146.42 160.967C146.088 160.967 145.764 160.896 145.445 160.754C145.131 160.611 144.869 160.394 144.66 160.102C144.454 159.811 144.352 159.443 144.352 158.999V151.402Z" fill="black"/>
</g>
<defs>
<filter id="filter0_d_133_2699" x="0" y="0.36792" width="230" height="230" filterUnits="userSpaceOnUse" color-interpolation-filters="sRGB">
<feFlood flood-opacity="0" result="BackgroundImageFix"/>
<feColorMatrix in="SourceAlpha" type="matrix" values="0 0 0 0 0 0 0 0 0 0 0 0 0 0 0 0 0 0 127 0" result="hardAlpha"/>
<feOffset dx="4" dy="4"/>
<feGaussianBlur stdDeviation="7.5"/>
<feComposite in2="hardAlpha" operator="out"/>
<feColorMatrix type="matrix" values="0 0 0 0 0 0 0 0 0 0 0 0 0 0 0 0 0 0 0.25 0"/>
<feBlend mode="normal" in2="BackgroundImageFix" result="effect1_dropShadow_133_2699"/>
<feBlend mode="normal" in="SourceGraphic" in2="effect1_dropShadow_133_2699" result="shape"/>
</filter>
<clipPath id="clip0_133_2699">
<rect width="64" height="64" fill="white" transform="translate(79 58.8679)"/>
</clipPath>
<clipPath id="clip1_133_2699">
<rect width="30" height="24" fill="white" transform="translate(101 66.8679)"/>
</clipPath>
</defs>
</svg>
