<svg width="230" height="231" viewBox="0 0 230 231" fill="none" xmlns="http://www.w3.org/2000/svg">
<g filter="url(#filter0_d_130_1890)">
<rect width="200" height="200" transform="translate(11 11.3679)" fill="white"/>
<path d="M138 63.368H128L108 83.368H119L138.82 63.548C138.564 63.4273 138.283 63.3658 138 63.368ZM90 63.368H84C83.4701 63.3696 82.9623 63.5808 82.5875 63.9555C82.2128 64.3302 82.0016 64.838 82 65.368V75.368L94 63.368H90ZM132 83.368H138C138.53 83.3664 139.038 83.1552 139.412 82.7804C139.787 82.4057 139.998 81.8979 140 81.368V74.368L131 83.368H132Z" fill="#FF6243"/>
<path d="M106 63.3679L86 83.3679H90H96L116 63.3679H106Z" fill="#FF6243"/>
<path d="M96 63.3679V58.3679C96 58.1027 95.8946 57.8483 95.7071 57.6608C95.5196 57.4733 95.2652 57.3679 95 57.3679H91C90.7348 57.3679 90.4804 57.4733 90.2929 57.6608C90.1054 57.8483 90 58.1027 90 58.3679V63.3679H96Z" fill="#898890"/>
<path d="M96 83.3679H90V105.368H96V83.3679Z" fill="#898890"/>
<path d="M87 105.368C86.7348 105.368 86.4804 105.473 86.2929 105.661C86.1054 105.848 86 106.103 86 106.368V110.368C86 110.633 86.1054 110.887 86.2929 111.075C86.4804 111.263 86.7348 111.368 87 111.368H99C99.2652 111.368 99.5196 111.263 99.7071 111.075C99.8946 110.887 100 110.633 100 110.368V106.368C100 106.103 99.8946 105.848 99.7071 105.661C99.5196 105.473 99.2652 105.368 99 105.368H87Z" fill="#787680"/>
<path d="M132 63.3679V58.3679C132 58.1027 131.895 57.8483 131.707 57.6608C131.52 57.4733 131.265 57.3679 131 57.3679H127C126.735 57.3679 126.48 57.4733 126.293 57.6608C126.105 57.8483 126 58.1027 126 58.3679V63.3679H132Z" fill="#898890"/>
<path d="M126 83.3679V105.368H132V83.3679H131H126Z" fill="#898890"/>
<path d="M123 105.368C122.735 105.368 122.48 105.473 122.293 105.661C122.105 105.848 122 106.103 122 106.368V110.368C122 110.633 122.105 110.887 122.293 111.075C122.48 111.263 122.735 111.368 123 111.368H135C135.265 111.368 135.52 111.263 135.707 111.075C135.895 110.887 136 110.633 136 110.368V106.368C136 106.103 135.895 105.848 135.707 105.661C135.52 105.473 135.265 105.368 135 105.368H123Z" fill="#787680"/>
<path d="M126 63.3679H116L96 83.3679H108L128 63.3679H126Z" fill="#D8D7DA"/>
<path d="M96 63.3679H94L82 75.3679V81.3679C82.0016 81.8979 82.2128 82.4057 82.5875 82.7804C82.9623 83.1551 83.4701 83.3663 84 83.3679H86L106 63.3679H96ZM138.82 63.5479L119 83.3679H131L140 74.3679V65.3679C139.999 64.9832 139.887 64.6069 139.678 64.2841C139.469 63.9613 139.171 63.7057 138.82 63.5479Z" fill="#D8D7DA"/>
<path d="M139.253 62.6459H139.246L139.23 62.6379C139.216 62.6309 139.201 62.6309 139.186 62.6249C138.814 62.4557 138.409 62.3681 138 62.3679H133V58.3679C133 57.8375 132.789 57.3288 132.414 56.9537C132.039 56.5786 131.53 56.3679 131 56.3679H127C126.47 56.3679 125.961 56.5786 125.586 56.9537C125.211 57.3288 125 57.8375 125 58.3679V62.3679H97V58.3679C97 57.8375 96.7893 57.3288 96.4142 56.9537C96.0391 56.5786 95.5304 56.3679 95 56.3679H91C90.4696 56.3679 89.9609 56.5786 89.5858 56.9537C89.2107 57.3288 89 57.8375 89 58.3679V62.3679H84C83.2044 62.3679 82.4413 62.684 81.8787 63.2466C81.3161 63.8092 81 64.5723 81 65.3679V81.3679C81 82.1636 81.3161 82.9266 81.8787 83.4892C82.4413 84.0518 83.2044 84.3679 84 84.3679H89V104.368H87C86.4696 104.368 85.9609 104.579 85.5858 104.954C85.2107 105.329 85 105.837 85 106.368V110.368C85 110.898 85.2107 111.407 85.5858 111.782C85.9609 112.157 86.4696 112.368 87 112.368H99C99.5304 112.368 100.039 112.157 100.414 111.782C100.789 111.407 101 110.898 101 110.368V106.368C101 105.837 100.789 105.329 100.414 104.954C100.039 104.579 99.5304 104.368 99 104.368H97V84.3679H125V104.368H123C122.47 104.368 121.961 104.579 121.586 104.954C121.211 105.329 121 105.837 121 106.368V110.368C121 110.898 121.211 111.407 121.586 111.782C121.961 112.157 122.47 112.368 123 112.368H135C135.53 112.368 136.039 112.157 136.414 111.782C136.789 111.407 137 110.898 137 110.368V106.368C137 105.837 136.789 105.329 136.414 104.954C136.039 104.579 135.53 104.368 135 104.368H133V84.3679H138C138.796 84.3679 139.559 84.0518 140.121 83.4892C140.684 82.9266 141 82.1636 141 81.3679V65.3679C140.999 64.7947 140.834 64.2337 140.525 63.7513C140.215 63.2689 139.774 62.8853 139.253 62.6459ZM110.414 82.3679L128.414 64.3679H136.586L118.586 82.3679H110.414ZM127 58.3679H131V62.3679H127V58.3679ZM95.586 82.3679H88.414L106.414 64.3679H113.586L95.586 82.3679ZM91 58.3679H95V62.3679H91V58.3679ZM84 64.3679H91.586L83 72.9539V65.3679C83 65.1027 83.1054 64.8483 83.2929 64.6608C83.4804 64.4733 83.7348 64.3679 84 64.3679ZM84 82.3679C83.7348 82.3679 83.4804 82.2626 83.2929 82.075C83.1054 81.8875 83 81.6331 83 81.3679V75.7819L94.414 64.3679H103.586L85.586 82.3679H84ZM99 110.368H87V106.368H99V110.368ZM91 104.368V84.3679H95V104.368H91ZM98.414 82.3679L116.414 64.3679H125.586L107.586 82.3679H98.414ZM138.876 64.9059C138.896 64.9434 138.914 64.9822 138.929 65.0219C138.941 65.0483 138.952 65.0754 138.961 65.1029C138.986 65.189 138.999 65.2782 139 65.3679V73.9539L130.586 82.3679H121.414L138.876 64.9059ZM135 110.368H123V106.368H135V110.368ZM131 104.368H127V84.3679H131V104.368ZM138 82.3679H133.414L139 76.7819V81.3679C139 81.6331 138.895 81.8875 138.707 82.075C138.52 82.2626 138.265 82.3679 138 82.3679Z" fill="#3E3D42"/>
<path d="M74.8041 145.368H73.5711C73.4982 145.013 73.3706 144.702 73.1883 144.433C73.0093 144.165 72.7906 143.939 72.532 143.757C72.2768 143.572 71.9935 143.432 71.6819 143.34C71.3704 143.247 71.0455 143.2 70.7075 143.2C70.091 143.2 69.5325 143.356 69.032 143.668C68.5349 143.979 68.1388 144.438 67.8438 145.045C67.5522 145.651 67.4063 146.395 67.4063 147.277C67.4063 148.159 67.5522 148.903 67.8438 149.509C68.1388 150.116 68.5349 150.575 69.032 150.886C69.5325 151.198 70.091 151.354 70.7075 151.354C71.0455 151.354 71.3704 151.307 71.6819 151.215C71.9935 151.122 72.2768 150.984 72.532 150.802C72.7906 150.616 73.0093 150.389 73.1883 150.121C73.3706 149.849 73.4982 149.537 73.5711 149.186H74.8041C74.7113 149.706 74.5422 150.172 74.297 150.583C74.0517 150.994 73.7468 151.344 73.3822 151.632C73.0176 151.917 72.6083 152.134 72.1542 152.283C71.7035 152.433 71.2212 152.507 70.7075 152.507C69.8391 152.507 69.0669 152.295 68.3907 151.871C67.7146 151.447 67.1826 150.843 66.7948 150.061C66.407 149.279 66.2132 148.351 66.2132 147.277C66.2132 146.203 66.407 145.275 66.7948 144.493C67.1826 143.711 67.7146 143.108 68.3907 142.683C69.0669 142.259 69.8391 142.047 70.7075 142.047C71.2212 142.047 71.7035 142.121 72.1542 142.271C72.6083 142.42 73.0176 142.639 73.3822 142.927C73.7468 143.212 74.0517 143.56 74.297 143.971C74.5422 144.379 74.7113 144.844 74.8041 145.368ZM80.2396 152.527C79.5502 152.527 78.9453 152.363 78.425 152.035C77.9079 151.707 77.5036 151.248 77.2119 150.658C76.9236 150.068 76.7794 149.378 76.7794 148.59C76.7794 147.794 76.9236 147.1 77.2119 146.506C77.5036 145.913 77.9079 145.452 78.425 145.124C78.9453 144.796 79.5502 144.632 80.2396 144.632C80.929 144.632 81.5322 144.796 82.0493 145.124C82.5696 145.452 82.974 145.913 83.2623 146.506C83.554 147.1 83.6998 147.794 83.6998 148.59C83.6998 149.378 83.554 150.068 83.2623 150.658C82.974 151.248 82.5696 151.707 82.0493 152.035C81.5322 152.363 80.929 152.527 80.2396 152.527ZM80.2396 151.473C80.7633 151.473 81.1942 151.339 81.5322 151.07C81.8703 150.802 82.1205 150.449 82.2829 150.011C82.4453 149.574 82.5265 149.1 82.5265 148.59C82.5265 148.079 82.4453 147.603 82.2829 147.163C82.1205 146.722 81.8703 146.366 81.5322 146.094C81.1942 145.822 80.7633 145.686 80.2396 145.686C79.7159 145.686 79.2851 145.822 78.947 146.094C78.6089 146.366 78.3587 146.722 78.1963 147.163C78.0339 147.603 77.9527 148.079 77.9527 148.59C77.9527 149.1 78.0339 149.574 78.1963 150.011C78.3587 150.449 78.6089 150.802 78.947 151.07C79.2851 151.339 79.7159 151.473 80.2396 151.473ZM87.1642 147.774V152.368H85.9909V144.732H87.1244V145.925H87.2238C87.4028 145.537 87.6746 145.225 88.0392 144.99C88.4037 144.751 88.8744 144.632 89.4511 144.632C89.9681 144.632 90.4205 144.738 90.8083 144.95C91.1961 145.159 91.4977 145.477 91.7132 145.905C91.9286 146.329 92.0363 146.866 92.0363 147.516V152.368H90.863V147.595C90.863 146.995 90.7072 146.528 90.3957 146.193C90.0841 145.855 89.6566 145.686 89.113 145.686C88.7385 145.686 88.4037 145.767 88.1088 145.93C87.8171 146.092 87.5867 146.329 87.4177 146.641C87.2487 146.952 87.1642 147.33 87.1642 147.774ZM100.089 146.442L99.0354 146.74C98.9691 146.564 98.8714 146.394 98.7421 146.228C98.6162 146.059 98.4438 145.92 98.2251 145.81C98.0063 145.701 97.7262 145.646 97.3849 145.646C96.9175 145.646 96.5281 145.754 96.2165 145.969C95.9083 146.182 95.7542 146.452 95.7542 146.78C95.7542 147.072 95.8602 147.302 96.0724 147.471C96.2845 147.64 96.6159 147.781 97.0667 147.893L98.2002 148.172C98.883 148.338 99.3917 148.591 99.7265 148.933C100.061 149.271 100.229 149.706 100.229 150.24C100.229 150.678 100.103 151.069 99.8508 151.413C99.6022 151.758 99.2542 152.03 98.8067 152.229C98.3593 152.428 97.8389 152.527 97.2456 152.527C96.4668 152.527 95.8221 152.358 95.3117 152.02C94.8013 151.682 94.4781 151.188 94.3422 150.538L95.4559 150.26C95.5619 150.671 95.7625 150.979 96.0574 151.185C96.3557 151.39 96.7452 151.493 97.2258 151.493C97.7726 151.493 98.2068 151.377 98.5283 151.145C98.8531 150.91 99.0155 150.628 99.0155 150.3C99.0155 150.035 98.9227 149.813 98.7371 149.634C98.5515 149.451 98.2665 149.315 97.882 149.226L96.6093 148.928C95.9099 148.762 95.3962 148.505 95.0681 148.157C94.7433 147.806 94.5809 147.366 94.5809 146.84C94.5809 146.409 94.7019 146.027 94.9438 145.696C95.1891 145.365 95.5222 145.104 95.9431 144.916C96.3673 144.727 96.8479 144.632 97.3849 144.632C98.1405 144.632 98.7338 144.798 99.1647 145.129C99.5989 145.461 99.9071 145.898 100.089 146.442ZM105.816 144.732V145.726H101.858V144.732H105.816ZM103.012 142.902H104.185V150.18C104.185 150.512 104.233 150.76 104.329 150.926C104.429 151.089 104.555 151.198 104.707 151.254C104.863 151.307 105.027 151.334 105.199 151.334C105.329 151.334 105.435 151.327 105.517 151.314C105.6 151.297 105.667 151.284 105.716 151.274L105.955 152.328C105.875 152.358 105.764 152.388 105.622 152.418C105.479 152.451 105.299 152.467 105.08 152.467C104.749 152.467 104.424 152.396 104.106 152.254C103.791 152.111 103.529 151.894 103.32 151.602C103.115 151.311 103.012 150.943 103.012 150.499V142.902ZM108.081 152.368V144.732H109.214V145.885H109.294C109.433 145.507 109.685 145.201 110.049 144.965C110.414 144.73 110.825 144.612 111.282 144.612C111.369 144.612 111.476 144.614 111.606 144.617C111.735 144.621 111.833 144.625 111.899 144.632V145.825C111.859 145.815 111.768 145.8 111.625 145.781C111.486 145.757 111.339 145.746 111.183 145.746C110.812 145.746 110.48 145.824 110.189 145.979C109.9 146.132 109.672 146.344 109.503 146.616C109.337 146.884 109.254 147.191 109.254 147.536V152.368H108.081ZM118.602 149.246V144.732H119.775V152.368H118.602V151.075H118.523C118.344 151.463 118.065 151.793 117.687 152.065C117.31 152.333 116.832 152.467 116.256 152.467C115.778 152.467 115.354 152.363 114.983 152.154C114.612 151.942 114.32 151.624 114.108 151.2C113.896 150.772 113.79 150.233 113.79 149.584V144.732H114.963V149.504C114.963 150.061 115.119 150.505 115.43 150.837C115.745 151.168 116.146 151.334 116.633 151.334C116.925 151.334 117.222 151.259 117.523 151.11C117.828 150.961 118.083 150.732 118.289 150.424C118.498 150.116 118.602 149.723 118.602 149.246ZM125.527 152.527C124.811 152.527 124.194 152.358 123.677 152.02C123.16 151.682 122.763 151.216 122.484 150.623C122.206 150.03 122.066 149.352 122.066 148.59C122.066 147.814 122.209 147.13 122.494 146.536C122.782 145.94 123.183 145.474 123.697 145.139C124.214 144.801 124.817 144.632 125.507 144.632C126.044 144.632 126.528 144.732 126.959 144.93C127.389 145.129 127.742 145.408 128.017 145.766C128.293 146.124 128.463 146.541 128.53 147.018H127.356C127.267 146.67 127.068 146.362 126.76 146.094C126.455 145.822 126.044 145.686 125.527 145.686C125.069 145.686 124.668 145.805 124.324 146.044C123.982 146.279 123.715 146.612 123.523 147.043C123.334 147.471 123.24 147.973 123.24 148.55C123.24 149.14 123.333 149.653 123.518 150.091C123.707 150.528 123.972 150.868 124.314 151.11C124.658 151.352 125.063 151.473 125.527 151.473C125.832 151.473 126.108 151.42 126.357 151.314C126.606 151.208 126.816 151.055 126.988 150.857C127.161 150.658 127.283 150.419 127.356 150.141H128.53C128.463 150.591 128.299 150.997 128.037 151.359C127.779 151.717 127.436 152.002 127.008 152.214C126.584 152.423 126.09 152.527 125.527 152.527ZM134.066 144.732V145.726H130.108V144.732H134.066ZM131.262 142.902H132.435V150.18C132.435 150.512 132.483 150.76 132.579 150.926C132.679 151.089 132.805 151.198 132.957 151.254C133.113 151.307 133.277 151.334 133.449 151.334C133.579 151.334 133.685 151.327 133.767 151.314C133.85 151.297 133.917 151.284 133.966 151.274L134.205 152.328C134.125 152.358 134.014 152.388 133.872 152.418C133.729 152.451 133.549 152.467 133.33 152.467C132.999 152.467 132.674 152.396 132.356 152.254C132.041 152.111 131.779 151.894 131.57 151.602C131.365 151.311 131.262 150.943 131.262 150.499V142.902ZM136.331 152.368V144.732H137.504V152.368H136.331ZM136.927 143.459C136.699 143.459 136.501 143.381 136.336 143.225C136.173 143.069 136.092 142.882 136.092 142.663C136.092 142.445 136.173 142.257 136.336 142.102C136.501 141.946 136.699 141.868 136.927 141.868C137.156 141.868 137.352 141.946 137.514 142.102C137.68 142.257 137.763 142.445 137.763 142.663C137.763 142.882 137.68 143.069 137.514 143.225C137.352 143.381 137.156 143.459 136.927 143.459ZM143.255 152.527C142.566 152.527 141.961 152.363 141.441 152.035C140.924 151.707 140.519 151.248 140.228 150.658C139.939 150.068 139.795 149.378 139.795 148.59C139.795 147.794 139.939 147.1 140.228 146.506C140.519 145.913 140.924 145.452 141.441 145.124C141.961 144.796 142.566 144.632 143.255 144.632C143.945 144.632 144.548 144.796 145.065 145.124C145.585 145.452 145.99 145.913 146.278 146.506C146.57 147.1 146.715 147.794 146.715 148.59C146.715 149.378 146.57 150.068 146.278 150.658C145.99 151.248 145.585 151.707 145.065 152.035C144.548 152.363 143.945 152.527 143.255 152.527ZM143.255 151.473C143.779 151.473 144.21 151.339 144.548 151.07C144.886 150.802 145.136 150.449 145.299 150.011C145.461 149.574 145.542 149.1 145.542 148.59C145.542 148.079 145.461 147.603 145.299 147.163C145.136 146.722 144.886 146.366 144.548 146.094C144.21 145.822 143.779 145.686 143.255 145.686C142.732 145.686 142.301 145.822 141.963 146.094C141.625 146.366 141.374 146.722 141.212 147.163C141.05 147.603 140.968 148.079 140.968 148.59C140.968 149.1 141.05 149.574 141.212 150.011C141.374 150.449 141.625 150.802 141.963 151.07C142.301 151.339 142.732 151.473 143.255 151.473ZM150.18 147.774V152.368H149.006V144.732H150.14V145.925H150.239C150.418 145.537 150.69 145.225 151.055 144.99C151.419 144.751 151.89 144.632 152.467 144.632C152.984 144.632 153.436 144.738 153.824 144.95C154.212 145.159 154.513 145.477 154.729 145.905C154.944 146.329 155.052 146.866 155.052 147.516V152.368H153.879V147.595C153.879 146.995 153.723 146.528 153.411 146.193C153.1 145.855 152.672 145.686 152.129 145.686C151.754 145.686 151.419 145.767 151.124 145.93C150.833 146.092 150.602 146.329 150.433 146.641C150.264 146.952 150.18 147.33 150.18 147.774ZM54.9347 169.368H53.6421L57.3808 159.186H58.6535L62.3921 169.368H61.0995L58.0569 160.797H57.9774L54.9347 169.368ZM55.412 165.391H60.6222V166.484H55.412V165.391ZM65.4923 164.774V169.368H64.319V161.732H65.4525V162.925H65.5519C65.7309 162.537 66.0027 162.225 66.3673 161.99C66.7319 161.751 67.2025 161.632 67.7792 161.632C68.2963 161.632 68.7487 161.738 69.1365 161.95C69.5242 162.159 69.8258 162.477 70.0413 162.905C70.2567 163.329 70.3644 163.866 70.3644 164.516V169.368H69.1911V164.595C69.1911 163.995 69.0354 163.528 68.7238 163.193C68.4123 162.855 67.9847 162.686 67.4411 162.686C67.0666 162.686 66.7319 162.767 66.4369 162.93C66.1452 163.092 65.9149 163.329 65.7458 163.641C65.5768 163.952 65.4923 164.33 65.4923 164.774ZM75.892 169.527C75.2556 169.527 74.6938 169.366 74.2066 169.045C73.7194 168.72 73.3382 168.263 73.0631 167.673C72.788 167.079 72.6505 166.378 72.6505 165.57C72.6505 164.768 72.788 164.072 73.0631 163.482C73.3382 162.892 73.721 162.436 74.2116 162.114C74.7021 161.793 75.2689 161.632 75.9118 161.632C76.409 161.632 76.8018 161.715 77.0901 161.881C77.3818 162.043 77.6038 162.229 77.7563 162.438C77.9121 162.643 78.0331 162.812 78.1192 162.945H78.2187V159.186H79.392V169.368H78.2584V168.195H78.1192C78.0331 168.334 77.9104 168.509 77.7513 168.722C77.5922 168.93 77.3652 169.118 77.0702 169.283C76.7752 169.446 76.3825 169.527 75.892 169.527ZM76.051 168.473C76.5217 168.473 76.9194 168.35 77.2442 168.105C77.569 167.857 77.816 167.514 77.985 167.076C78.154 166.635 78.2385 166.126 78.2385 165.55C78.2385 164.98 78.1557 164.481 77.99 164.053C77.8242 163.622 77.579 163.288 77.2542 163.049C76.9294 162.807 76.5283 162.686 76.051 162.686C75.5539 162.686 75.1396 162.814 74.8081 163.069C74.48 163.321 74.2331 163.664 74.0674 164.098C73.905 164.529 73.8238 165.013 73.8238 165.55C73.8238 166.093 73.9066 166.587 74.0724 167.031C74.2414 167.472 74.49 167.823 74.8181 168.085C75.1495 168.344 75.5605 168.473 76.051 168.473ZM86.8003 169.368V159.186H92.9452V160.28H88.0333V163.72H92.627V164.814H88.0333V168.274H93.0248V169.368H86.8003ZM96.6817 164.774V169.368H95.5084V161.732H96.642V162.925H96.7414C96.9204 162.537 97.1921 162.225 97.5567 161.99C97.9213 161.751 98.392 161.632 98.9687 161.632C99.4857 161.632 99.9381 161.738 100.326 161.95C100.714 162.159 101.015 162.477 101.231 162.905C101.446 163.329 101.554 163.866 101.554 164.516V169.368H100.381V164.595C100.381 163.995 100.225 163.528 99.9133 163.193C99.6017 162.855 99.1742 162.686 98.6306 162.686C98.2561 162.686 97.9213 162.767 97.6263 162.93C97.3347 163.092 97.1043 163.329 96.9353 163.641C96.7662 163.952 96.6817 164.33 96.6817 164.774ZM107.28 172.391C106.714 172.391 106.226 172.318 105.819 172.172C105.411 172.029 105.071 171.84 104.799 171.605C104.531 171.373 104.317 171.125 104.158 170.859L105.093 170.203C105.199 170.342 105.333 170.501 105.495 170.68C105.658 170.863 105.88 171.02 106.162 171.153C106.447 171.289 106.82 171.357 107.28 171.357C107.897 171.357 108.406 171.207 108.807 170.909C109.208 170.611 109.408 170.143 109.408 169.507V167.956H109.309C109.223 168.095 109.1 168.268 108.941 168.473C108.785 168.675 108.56 168.856 108.265 169.015C107.973 169.171 107.579 169.249 107.081 169.249C106.465 169.249 105.911 169.103 105.421 168.811C104.934 168.519 104.548 168.095 104.263 167.538C103.981 166.982 103.84 166.305 103.84 165.51C103.84 164.728 103.977 164.047 104.253 163.467C104.528 162.883 104.91 162.433 105.401 162.114C105.892 161.793 106.458 161.632 107.101 161.632C107.598 161.632 107.993 161.715 108.285 161.881C108.58 162.043 108.805 162.229 108.961 162.438C109.12 162.643 109.242 162.812 109.329 162.945H109.448V161.732H110.581V169.587C110.581 170.243 110.432 170.777 110.134 171.188C109.839 171.602 109.441 171.905 108.941 172.097C108.444 172.293 107.89 172.391 107.28 172.391ZM107.241 168.195C107.711 168.195 108.109 168.087 108.434 167.871C108.758 167.656 109.005 167.346 109.174 166.942C109.343 166.537 109.428 166.054 109.428 165.49C109.428 164.94 109.345 164.454 109.179 164.033C109.014 163.612 108.768 163.283 108.444 163.044C108.119 162.805 107.718 162.686 107.241 162.686C106.743 162.686 106.329 162.812 105.998 163.064C105.669 163.316 105.423 163.654 105.257 164.078C105.094 164.502 105.013 164.973 105.013 165.49C105.013 166.02 105.096 166.489 105.262 166.897C105.431 167.301 105.679 167.62 106.008 167.852C106.339 168.08 106.75 168.195 107.241 168.195ZM113.229 169.368V161.732H114.402V169.368H113.229ZM113.826 160.459C113.597 160.459 113.4 160.381 113.234 160.225C113.072 160.069 112.991 159.882 112.991 159.663C112.991 159.445 113.072 159.257 113.234 159.102C113.4 158.946 113.597 158.868 113.826 158.868C114.054 158.868 114.25 158.946 114.412 159.102C114.578 159.257 114.661 159.445 114.661 159.663C114.661 159.882 114.578 160.069 114.412 160.225C114.25 160.381 114.054 160.459 113.826 160.459ZM118.225 164.774V169.368H117.051V161.732H118.185V162.925H118.284C118.463 162.537 118.735 162.225 119.1 161.99C119.464 161.751 119.935 161.632 120.512 161.632C121.029 161.632 121.481 161.738 121.869 161.95C122.257 162.159 122.558 162.477 122.774 162.905C122.989 163.329 123.097 163.866 123.097 164.516V169.368H121.924V164.595C121.924 163.995 121.768 163.528 121.456 163.193C121.145 162.855 120.717 162.686 120.174 162.686C119.799 162.686 119.464 162.767 119.169 162.93C118.878 163.092 118.647 163.329 118.478 163.641C118.309 163.952 118.225 164.33 118.225 164.774ZM128.943 169.527C128.207 169.527 127.572 169.365 127.038 169.04C126.508 168.712 126.099 168.254 125.81 167.668C125.525 167.078 125.383 166.392 125.383 165.609C125.383 164.827 125.525 164.138 125.81 163.541C126.099 162.941 126.5 162.474 127.014 162.139C127.531 161.801 128.134 161.632 128.823 161.632C129.221 161.632 129.614 161.698 130.002 161.831C130.389 161.964 130.742 162.179 131.06 162.477C131.379 162.772 131.632 163.163 131.821 163.651C132.01 164.138 132.104 164.738 132.104 165.45V165.947H126.218V164.933H130.911C130.911 164.502 130.825 164.118 130.653 163.78C130.484 163.442 130.242 163.175 129.927 162.979C129.615 162.784 129.247 162.686 128.823 162.686C128.356 162.686 127.952 162.802 127.61 163.034C127.272 163.263 127.012 163.561 126.83 163.929C126.647 164.297 126.556 164.691 126.556 165.112V165.788C126.556 166.365 126.656 166.854 126.854 167.255C127.057 167.653 127.337 167.956 127.695 168.165C128.053 168.37 128.469 168.473 128.943 168.473C129.251 168.473 129.529 168.43 129.778 168.344C130.03 168.254 130.247 168.122 130.429 167.946C130.611 167.767 130.752 167.545 130.852 167.28L131.985 167.598C131.866 167.983 131.665 168.321 131.384 168.612C131.102 168.901 130.754 169.126 130.34 169.288C129.925 169.447 129.46 169.527 128.943 169.527ZM137.591 169.527C136.855 169.527 136.22 169.365 135.687 169.04C135.157 168.712 134.747 168.254 134.459 167.668C134.174 167.078 134.031 166.392 134.031 165.609C134.031 164.827 134.174 164.138 134.459 163.541C134.747 162.941 135.148 162.474 135.662 162.139C136.179 161.801 136.782 161.632 137.472 161.632C137.869 161.632 138.262 161.698 138.65 161.831C139.038 161.964 139.391 162.179 139.709 162.477C140.027 162.772 140.281 163.163 140.47 163.651C140.658 164.138 140.753 164.738 140.753 165.45V165.947H134.867V164.933H139.56C139.56 164.502 139.474 164.118 139.301 163.78C139.132 163.442 138.89 163.175 138.575 162.979C138.264 162.784 137.896 162.686 137.472 162.686C137.004 162.686 136.6 162.802 136.259 163.034C135.921 163.263 135.66 163.561 135.478 163.929C135.296 164.297 135.205 164.691 135.205 165.112V165.788C135.205 166.365 135.304 166.854 135.503 167.255C135.705 167.653 135.985 167.956 136.343 168.165C136.701 168.37 137.117 168.473 137.591 168.473C137.899 168.473 138.178 168.43 138.426 168.344C138.678 168.254 138.895 168.122 139.078 167.946C139.26 167.767 139.401 167.545 139.5 167.28L140.634 167.598C140.514 167.983 140.314 168.321 140.032 168.612C139.75 168.901 139.402 169.126 138.988 169.288C138.574 169.447 138.108 169.527 137.591 169.527ZM143.038 169.368V161.732H144.171V162.885H144.251C144.39 162.507 144.642 162.201 145.006 161.965C145.371 161.73 145.782 161.612 146.239 161.612C146.326 161.612 146.433 161.614 146.563 161.617C146.692 161.621 146.79 161.625 146.856 161.632V162.825C146.816 162.815 146.725 162.8 146.582 162.781C146.443 162.757 146.296 162.746 146.14 162.746C145.769 162.746 145.437 162.824 145.146 162.979C144.857 163.132 144.629 163.344 144.46 163.616C144.294 163.884 144.211 164.191 144.211 164.536V169.368H143.038ZM148.747 169.368V161.732H149.92V169.368H148.747ZM149.343 160.459C149.115 160.459 148.917 160.381 148.752 160.225C148.589 160.069 148.508 159.882 148.508 159.663C148.508 159.445 148.589 159.257 148.752 159.102C148.917 158.946 149.115 158.868 149.343 158.868C149.572 158.868 149.768 158.946 149.93 159.102C150.096 159.257 150.179 159.445 150.179 159.663C150.179 159.882 150.096 160.069 149.93 160.225C149.768 160.381 149.572 160.459 149.343 160.459ZM153.742 164.774V169.368H152.569V161.732H153.703V162.925H153.802C153.981 162.537 154.253 162.225 154.617 161.99C154.982 161.751 155.453 161.632 156.029 161.632C156.546 161.632 156.999 161.738 157.386 161.95C157.774 162.159 158.076 162.477 158.291 162.905C158.507 163.329 158.614 163.866 158.614 164.516V169.368H157.441V164.595C157.441 163.995 157.285 163.528 156.974 163.193C156.662 162.855 156.235 162.686 155.691 162.686C155.317 162.686 154.982 162.767 154.687 162.93C154.395 163.092 154.165 163.329 153.996 163.641C153.827 163.952 153.742 164.33 153.742 164.774ZM164.341 172.391C163.774 172.391 163.287 172.318 162.879 172.172C162.472 172.029 162.132 171.84 161.86 171.605C161.592 171.373 161.378 171.125 161.219 170.859L162.153 170.203C162.259 170.342 162.394 170.501 162.556 170.68C162.718 170.863 162.94 171.02 163.222 171.153C163.507 171.289 163.88 171.357 164.341 171.357C164.957 171.357 165.466 171.207 165.867 170.909C166.268 170.611 166.469 170.143 166.469 169.507V167.956H166.369C166.283 168.095 166.16 168.268 166.001 168.473C165.846 168.675 165.62 168.856 165.325 169.015C165.034 169.171 164.639 169.249 164.142 169.249C163.525 169.249 162.972 169.103 162.481 168.811C161.994 168.519 161.608 168.095 161.323 167.538C161.041 166.982 160.9 166.305 160.9 165.51C160.9 164.728 161.038 164.047 161.313 163.467C161.588 162.883 161.971 162.433 162.462 162.114C162.952 161.793 163.519 161.632 164.162 161.632C164.659 161.632 165.053 161.715 165.345 161.881C165.64 162.043 165.865 162.229 166.021 162.438C166.18 162.643 166.303 162.812 166.389 162.945H166.508V161.732H167.642V169.587C167.642 170.243 167.493 170.777 167.195 171.188C166.9 171.602 166.502 171.905 166.001 172.097C165.504 172.293 164.951 172.391 164.341 172.391ZM164.301 168.195C164.772 168.195 165.169 168.087 165.494 167.871C165.819 167.656 166.066 167.346 166.235 166.942C166.404 166.537 166.489 166.054 166.489 165.49C166.489 164.94 166.406 164.454 166.24 164.033C166.074 163.612 165.829 163.283 165.504 163.044C165.179 162.805 164.778 162.686 164.301 162.686C163.804 162.686 163.39 162.812 163.058 163.064C162.73 163.316 162.483 163.654 162.317 164.078C162.155 164.502 162.074 164.973 162.074 165.49C162.074 166.02 162.157 166.489 162.322 166.897C162.491 167.301 162.74 167.62 163.068 167.852C163.4 168.08 163.811 168.195 164.301 168.195Z" fill="black"/>
</g>
<defs>
<filter id="filter0_d_130_1890" x="0" y="0.36792" width="230" height="230" filterUnits="userSpaceOnUse" color-interpolation-filters="sRGB">
<feFlood flood-opacity="0" result="BackgroundImageFix"/>
<feColorMatrix in="SourceAlpha" type="matrix" values="0 0 0 0 0 0 0 0 0 0 0 0 0 0 0 0 0 0 127 0" result="hardAlpha"/>
<feOffset dx="4" dy="4"/>
<feGaussianBlur stdDeviation="7.5"/>
<feComposite in2="hardAlpha" operator="out"/>
<feColorMatrix type="matrix" values="0 0 0 0 0 0 0 0 0 0 0 0 0 0 0 0 0 0 0.25 0"/>
<feBlend mode="normal" in2="BackgroundImageFix" result="effect1_dropShadow_130_1890"/>
<feBlend mode="normal" in="SourceGraphic" in2="effect1_dropShadow_130_1890" result="shape"/>
</filter>
</defs>
</svg>
