<svg width="230" height="231" viewBox="0 0 230 231" fill="none" xmlns="http://www.w3.org/2000/svg">
<g filter="url(#filter0_d_130_1845)">
<rect width="200" height="200" transform="translate(11 11.3679)" fill="white"/>
<path d="M102.066 95.7992C102.066 99.4836 99.0562 102.493 95.3719 102.493C91.6616 102.493 88.6605 99.4836 88.6605 95.7992C88.6605 94.0193 89.3676 92.3122 90.6262 91.0536C91.8849 89.795 93.5919 89.0879 95.3719 89.0879C99.0562 89.0879 102.066 92.0976 102.066 95.7992Z" fill="#343434"/>
<path opacity="0.2" d="M102.066 95.7992C102.066 99.4836 99.0562 102.493 95.3719 102.493C91.6616 102.493 88.6605 99.4836 88.6605 95.7992C88.6605 94.0193 89.3676 92.3122 90.6262 91.0536C91.8849 89.795 93.5919 89.0879 95.3719 89.0879C99.0562 89.0879 102.066 92.0976 102.066 95.7992Z" fill="#343434"/>
<path d="M95.3632 101.205C92.3795 101.205 89.9492 98.7831 89.9492 95.808C89.9492 92.8242 92.3795 90.3853 95.3632 90.3853C98.3384 90.3853 100.76 92.8155 100.76 95.808C100.769 98.7744 98.347 101.205 95.3632 101.205Z" fill="#343434"/>
<path d="M95.3632 101.205C92.3795 101.205 89.9492 98.7831 89.9492 95.808C89.9492 92.8242 92.3795 90.3853 95.3632 90.3853C98.3384 90.3853 100.76 92.8155 100.76 95.808C100.769 98.7744 98.347 101.205 95.3632 101.205Z" fill="#343434"/>
<path d="M99.2465 95.5571C99.2465 97.6933 97.4995 99.4403 95.3632 99.4403C93.2184 99.4403 91.4713 97.6933 91.4713 95.5571C91.4713 93.4122 93.2184 91.6652 95.3632 91.6652C97.4995 91.6652 99.2465 93.4035 99.2465 95.5571Z" fill="#E6E6E6"/>
<path d="M95.3632 102.934C91.4195 102.934 88.2195 99.7344 88.2195 95.808C88.2195 91.8642 91.4281 88.6555 95.3632 88.6555C99.2984 88.6555 102.49 91.8642 102.49 95.808C102.498 99.7344 99.2984 102.934 95.3632 102.934ZM95.3632 89.5204C91.8951 89.5204 89.0843 92.3398 89.0843 95.808C89.0843 99.2588 91.9038 102.07 95.3632 102.07C98.814 102.07 101.625 99.2588 101.625 95.808C101.634 92.3398 98.8227 89.5204 95.3632 89.5204Z" fill="black"/>
<path d="M95.3632 99.8641C94.2179 99.8641 93.1193 99.4097 92.3085 98.6006C91.4978 97.7915 91.0412 96.6938 91.0389 95.5484C91.0389 93.1614 92.9762 91.2241 95.3632 91.2241C96.5086 91.2264 97.6063 91.683 98.4154 92.4937C99.2245 93.3045 99.6789 94.4031 99.6789 95.5484C99.6789 97.9355 97.7416 99.8641 95.3632 99.8641ZM95.3632 92.0976C93.4519 92.0976 91.9038 93.6457 91.9038 95.5571C91.9046 96.2401 92.1079 96.9075 92.4879 97.475C92.8679 98.0426 93.4075 98.4847 94.0387 98.7457C94.6699 99.0067 95.3642 99.0748 96.034 98.9413C96.7039 98.8078 97.3191 98.4789 97.8021 97.9959C98.285 97.513 98.614 96.8977 98.7475 96.2279C98.8809 95.5581 98.8129 94.8637 98.5519 94.2325C98.2909 93.6014 97.8487 93.0617 97.2812 92.6817C96.7137 92.3017 96.0462 92.0985 95.3632 92.0976Z" fill="black"/>
<path d="M136.946 95.7992C136.946 99.4836 133.936 102.493 130.252 102.493C126.542 102.493 123.541 99.4836 123.541 95.7992C123.541 94.0193 124.248 92.3122 125.506 91.0536C126.765 89.795 128.472 89.0879 130.252 89.0879C133.936 89.0879 136.946 92.0976 136.946 95.7992Z" fill="#343434"/>
<path opacity="0.2" d="M136.946 95.7992C136.946 99.4836 133.936 102.493 130.252 102.493C126.542 102.493 123.541 99.4836 123.541 95.7992C123.541 94.0193 124.248 92.3122 125.506 91.0536C126.765 89.795 128.472 89.0879 130.252 89.0879C133.936 89.0879 136.946 92.0976 136.946 95.7992Z" fill="#343434"/>
<path d="M130.252 101.205C127.268 101.205 124.829 98.7831 124.829 95.808C124.829 92.8242 127.259 90.3853 130.252 90.3853C133.227 90.3853 135.649 92.8155 135.649 95.808C135.649 98.7744 133.227 101.205 130.252 101.205Z" fill="#343434"/>
<path d="M134.126 95.5571C134.126 97.6933 132.379 99.4403 130.243 99.4403C128.098 99.4403 126.351 97.6933 126.351 95.5571C126.351 93.4122 128.098 91.6652 130.243 91.6652C132.379 91.6652 134.126 93.4035 134.126 95.5571Z" fill="#E6E6E6"/>
<path d="M130.252 102.934C126.308 102.934 123.099 99.7344 123.099 95.808C123.099 91.8642 126.308 88.6555 130.252 88.6555C134.187 88.6555 137.378 91.8642 137.378 95.808C137.378 99.7344 134.178 102.934 130.252 102.934ZM130.252 89.5204C126.784 89.5204 123.964 92.3398 123.964 95.808C123.964 99.2588 126.784 102.07 130.252 102.07C133.703 102.07 136.514 99.2588 136.514 95.808C136.514 92.3398 133.703 89.5204 130.252 89.5204Z" fill="black"/>
<path d="M130.243 99.8641C129.098 99.8641 127.999 99.4097 127.189 98.6006C126.378 97.7915 125.921 96.6938 125.919 95.5484C125.919 93.1614 127.856 91.2241 130.243 91.2241C131.389 91.2264 132.486 91.683 133.295 92.4937C134.105 93.3045 134.559 94.4031 134.559 95.5484C134.559 97.9355 132.622 99.8641 130.243 99.8641ZM130.243 92.0976C128.341 92.0976 126.784 93.6457 126.784 95.5571C126.785 96.2401 126.988 96.9075 127.368 97.475C127.748 98.0426 128.288 98.4847 128.919 98.7457C129.55 99.0067 130.244 99.0748 130.914 98.9413C131.584 98.8078 132.199 98.4789 132.682 97.9959C133.165 97.513 133.494 96.8977 133.627 96.2279C133.761 95.5581 133.693 94.8637 133.432 94.2325C133.171 93.6014 132.729 93.0617 132.161 92.6817C131.594 92.3017 130.926 92.0985 130.243 92.0976Z" fill="black"/>
<path d="M130.235 87.9723H123.558V76.5128H125.253C126.222 76.5128 127.078 77.1528 127.355 78.0869L130.235 87.9723Z" fill="#E00000"/>
<path d="M130.235 88.4046H123.566C123.324 88.4046 123.134 88.2144 123.134 87.9722V76.5128C123.134 76.2706 123.324 76.0803 123.566 76.0803H125.262C126.421 76.0803 127.45 76.8587 127.778 77.9657L130.658 87.8511C130.693 87.9809 130.667 88.1192 130.589 88.2317C130.503 88.3355 130.373 88.4046 130.235 88.4046ZM123.999 87.5398H129.664L126.939 78.2079C126.832 77.8438 126.61 77.5242 126.306 77.2967C126.002 77.0691 125.633 76.9459 125.253 76.9452H123.99V87.5398H123.999Z" fill="black"/>
<path d="M85.9103 82.835H93.3049V87.5139H85.9103V82.835Z" fill="#E00000"/>
<path d="M93.3049 87.9462H85.9103C85.6681 87.9462 85.4778 87.756 85.4778 87.5138V82.8349C85.4778 82.5927 85.6681 82.4025 85.9103 82.4025H93.3049C93.547 82.4025 93.7373 82.5927 93.7373 82.8349V87.5138C93.7373 87.756 93.5384 87.9462 93.3049 87.9462ZM86.3427 87.0814H92.8724V83.2673H86.3427V87.0814Z" fill="black"/>
<path d="M84.3276 83.4058H85.9103V86.9517H84.3276V83.4058Z" fill="#FFE200"/>
<path d="M85.9103 87.3842H84.3276C84.0854 87.3842 83.8951 87.1939 83.8951 86.9518V83.4058C83.8951 83.1637 84.0854 82.9734 84.3276 82.9734H85.9103C86.1524 82.9734 86.3427 83.1637 86.3427 83.4058V86.9518C86.3427 87.1939 86.1524 87.3842 85.9103 87.3842ZM84.76 86.5193H85.4778V83.8383H84.76V86.5193Z" fill="black"/>
<path d="M121.794 94.2166C121.794 89.555 125.582 85.7668 130.243 85.7668C134.896 85.7668 138.676 89.555 138.676 94.2166H121.794Z" fill="#E00000"/>
<path opacity="0.2" d="M121.794 94.2166C121.794 89.555 125.582 85.7668 130.243 85.7668C134.896 85.7668 138.676 89.555 138.676 94.2166H121.794Z" fill="#343434"/>
<path d="M123.212 92.9192C123.826 89.5981 126.741 87.0641 130.243 87.0641C133.737 87.0641 136.652 89.5895 137.266 92.9192H123.212Z" fill="#E00000"/>
<path d="M138.676 94.6489H121.794C121.551 94.6489 121.361 94.4587 121.361 94.2165C121.361 89.3214 125.339 85.3344 130.243 85.3344C135.13 85.3344 139.108 89.3214 139.108 94.2165C139.108 94.4587 138.918 94.6489 138.676 94.6489ZM122.243 93.7841H138.235C138.01 89.5635 134.507 86.1992 130.243 86.1992C125.971 86.2079 122.468 89.5635 122.243 93.7841Z" fill="black"/>
<path d="M124.907 74.8608H121.266L122.537 86.6144C122.831 89.3127 120.712 91.6738 117.997 91.6738H110.922C107.809 91.6738 105.612 88.6295 106.589 85.6716L108.276 80.5689H88.0551V91.6738H91.48C91.48 93.9484 93.3222 95.7906 95.5968 95.7906H122.598C124.872 95.7906 126.715 93.9484 126.715 91.6738L124.907 74.8608Z" fill="#FF0000"/>
<path opacity="0.2" d="M124.907 74.8608H121.266L122.537 86.6144C122.831 89.3127 120.712 91.6738 117.997 91.6738H110.922C107.809 91.6738 105.612 88.6295 106.589 85.6716L108.276 80.5689H88.0551V91.6738H91.48C91.48 93.9484 93.3222 95.7906 95.5968 95.7906H122.598C124.872 95.7906 126.715 93.9484 126.715 91.6738L124.907 74.8608Z" fill="#343434"/>
<path d="M95.5968 94.4933C94.849 94.4933 94.1318 94.1963 93.6031 93.6675C93.0743 93.1388 92.7773 92.4216 92.7773 91.6739V90.3766H89.3524V81.8663H106.477L105.352 85.2652C104.756 87.0728 105.05 89.0014 106.165 90.5409C107.281 92.0804 109.011 92.9712 110.922 92.9712H117.997C119.657 92.9712 121.249 92.262 122.364 91.0252C122.913 90.4117 123.327 89.6896 123.579 88.9059C123.83 88.1223 123.915 87.2944 123.826 86.476L122.71 76.1582H123.748L125.435 91.7344C125.417 92.4712 125.113 93.1721 124.586 93.6876C124.059 94.203 123.352 94.4922 122.615 94.4933H95.5968Z" fill="#FF0000"/>
<path d="M122.606 96.223H95.5967C93.2357 96.223 91.2811 94.4068 91.0649 92.1063H88.0551C87.813 92.1063 87.6227 91.916 87.6227 91.6739V80.569C87.6227 80.3268 87.813 80.1366 88.0551 80.1366H108.267C108.405 80.1366 108.535 80.2058 108.622 80.3182C108.699 80.4306 108.725 80.5776 108.682 80.7074L106.996 85.8101C106.572 87.0814 106.779 88.4393 107.566 89.529C107.947 90.0626 108.451 90.4967 109.035 90.7948C109.619 91.0928 110.266 91.246 110.922 91.2414H117.997C119.173 91.2414 120.289 90.7398 121.076 89.8663C121.464 89.4345 121.757 88.9253 121.934 88.3722C122.111 87.8192 122.17 87.2348 122.105 86.6576L120.834 74.9041C120.816 74.783 120.859 74.662 120.946 74.5668C121.032 74.4717 121.145 74.4198 121.266 74.4198H124.907C125.015 74.4193 125.119 74.4588 125.198 74.5308C125.278 74.6028 125.329 74.702 125.339 74.809L127.164 91.622C127.156 94.182 125.115 96.223 122.606 96.223ZM88.4876 91.2414H91.48C91.7222 91.2414 91.9124 91.4317 91.9124 91.6739C91.9124 93.7063 93.5643 95.3582 95.5967 95.3582H122.606C124.639 95.3582 126.291 93.7063 126.291 91.6739L124.509 75.2933H121.733L122.952 86.5712C123.108 87.9809 122.65 89.3906 121.707 90.4458C121.238 90.9676 120.665 91.3851 120.024 91.6712C119.383 91.9572 118.69 92.1055 117.988 92.1063H110.914C110.12 92.1115 109.338 91.9255 108.632 91.5642C107.926 91.2029 107.317 90.6769 106.857 90.0306C106.39 89.3912 106.084 88.6489 105.963 87.8663C105.843 87.0837 105.912 86.2836 106.165 85.5333L107.662 81.0014H88.4876V91.2414Z" fill="black"/>
<path d="M83.3243 95.7906C83.3243 89.1485 88.7211 83.7517 95.3632 83.7517C101.988 83.7517 107.385 89.1485 107.385 95.7906H83.3243Z" fill="#FF0000"/>
<path opacity="0.2" d="M83.3243 95.7906C83.3243 89.1485 88.7211 83.7517 95.3632 83.7517C101.988 83.7517 107.385 89.1485 107.385 95.7906H83.3243Z" fill="#343434"/>
<path d="M84.6995 94.4933C85.3395 89.1744 89.88 85.049 95.3632 85.049C100.838 85.049 105.37 89.183 106.01 94.4933H84.6995Z" fill="#FF0000"/>
<path d="M107.394 96.223H83.3243C83.0822 96.223 82.8919 96.0327 82.8919 95.7906C82.8919 88.9149 88.4876 83.3192 95.3632 83.3192C102.23 83.3192 107.817 88.9149 107.817 95.7906C107.826 96.0327 107.627 96.223 107.394 96.223ZM83.7654 95.3581H106.952C106.728 89.1571 101.616 84.1841 95.3719 84.1841C89.1103 84.1841 83.9903 89.1571 83.7654 95.3581Z" fill="black"/>
<path d="M100.475 88.8717H90.2432C90.0011 88.8717 89.8108 88.6814 89.8108 88.4393C89.8108 88.1971 90.0011 88.0068 90.2432 88.0068H100.475C100.717 88.0068 100.907 88.1971 100.907 88.4393C100.907 88.6814 100.708 88.8717 100.475 88.8717ZM100.475 91.1549H90.2432C90.0011 91.1549 89.8108 90.9647 89.8108 90.7225C89.8108 90.4803 90.0011 90.2901 90.2432 90.2901H100.475C100.717 90.2901 100.907 90.4803 100.907 90.7225C100.907 90.9647 100.708 91.1549 100.475 91.1549ZM100.475 93.4382H90.2432C90.0011 93.4382 89.8108 93.2479 89.8108 93.0058C89.8108 92.7636 90.0011 92.5733 90.2432 92.5733H100.475C100.717 92.5733 100.907 92.7636 100.907 93.0058C100.907 93.2479 100.708 93.4382 100.475 93.4382Z" fill="black"/>
<path d="M110.057 79.9722L110.637 78.2252C110.87 77.516 110.343 76.7809 109.59 76.7809H87.8389C87.2335 76.7809 86.7405 77.2739 86.7405 77.8793V79.6263C86.7405 80.2317 87.2335 80.7247 87.8389 80.7247H109.011C109.486 80.7247 109.902 80.422 110.057 79.9722Z" fill="#343434"/>
<path d="M109.011 81.1572H87.8389C86.9913 81.1572 86.3081 80.4653 86.3081 79.6263V77.8707C86.3081 77.0231 87 76.3399 87.8389 76.3399H109.582C109.825 76.3387 110.065 76.3955 110.282 76.5056C110.499 76.6156 110.686 76.7757 110.829 76.9726C110.972 77.1695 111.066 77.3976 111.103 77.6379C111.14 77.8783 111.12 78.1241 111.043 78.355L110.464 80.102C110.256 80.7334 109.668 81.1572 109.011 81.1572ZM87.8389 77.2047C87.6623 77.2047 87.4929 77.2749 87.368 77.3998C87.2431 77.5247 87.173 77.694 87.173 77.8707V79.6177C87.173 79.9896 87.4757 80.2836 87.8389 80.2836H109.011C109.296 80.2836 109.556 80.102 109.642 79.8253L110.222 78.0782C110.291 77.8707 110.256 77.6545 110.126 77.4728C110.064 77.3874 109.982 77.3178 109.887 77.2698C109.792 77.2217 109.688 77.1965 109.582 77.1961H87.8389V77.2047Z" fill="black"/>
<path d="M102.057 63.1593V75.8555C102.057 76.3658 101.642 76.7723 101.141 76.7723H86.6281C86.1178 76.7723 85.7113 76.3572 85.7113 75.8555V63.1593C85.7113 62.6491 86.1265 62.2426 86.6281 62.2426H101.141C101.651 62.2339 102.057 62.6491 102.057 63.1593Z" fill="#FF9F3F"/>
<path opacity="0.2" d="M102.057 63.1593V75.8555C102.057 76.3658 101.642 76.7723 101.141 76.7723H86.6281C86.1178 76.7723 85.7113 76.3572 85.7113 75.8555V63.1593C85.7113 62.6491 86.1265 62.2426 86.6281 62.2426H101.141C101.651 62.2339 102.057 62.6491 102.057 63.1593Z" fill="#343434"/>
<path d="M87.0087 63.5398H100.76V75.4749H87.0087V63.5398Z" fill="#FF9F3F"/>
<path d="M95.8995 62.2339V66.7485L93.8843 65.9009L91.8692 66.7485V62.2339H95.8995Z" fill="#E6E6E6"/>
<path d="M101.141 77.2047H86.6281C85.8843 77.2047 85.2789 76.5992 85.2789 75.8555V63.1592C85.2789 62.4155 85.8843 61.8101 86.6281 61.8101H101.141C101.884 61.8101 102.49 62.4155 102.49 63.1592V75.8555C102.49 76.5992 101.884 77.2047 101.141 77.2047ZM86.6281 62.6663C86.4997 62.6663 86.3765 62.7173 86.2856 62.8081C86.1948 62.899 86.1438 63.0221 86.1438 63.1506V75.8468C86.1438 76.1149 86.36 76.3311 86.6281 76.3311H101.141C101.409 76.3311 101.625 76.1149 101.625 75.8468V63.1592C101.625 63.0308 101.574 62.9076 101.483 62.8168C101.392 62.726 101.269 62.6749 101.141 62.6749H86.6281V62.6663Z" fill="black"/>
<path d="M95.8995 67.1809C95.8389 67.1809 95.787 67.1722 95.7351 67.1463L93.8843 66.3679L92.0335 67.1463C91.8951 67.1981 91.7481 67.1895 91.627 67.1117C91.5674 67.0719 91.5188 67.0178 91.4856 66.9543C91.4523 66.8908 91.4355 66.8201 91.4368 66.7484V62.2338C91.4368 61.9917 91.627 61.8014 91.8692 61.8014H95.9081C96.1503 61.8014 96.3405 61.9917 96.3405 62.2338V66.7484C96.3405 66.8954 96.2713 67.0252 96.1503 67.1117C96.0755 67.1594 95.9881 67.1835 95.8995 67.1809ZM93.8843 65.4684C93.9449 65.4684 93.9968 65.4771 94.0486 65.503L95.467 66.0998V62.6663H92.293V66.0998L93.7113 65.503C93.7719 65.4771 93.8324 65.4684 93.8843 65.4684Z" fill="black"/>
<path d="M125.037 69.3517C126.818 69.3517 128.271 70.7614 128.271 72.4911C128.271 74.2209 126.827 75.6306 125.037 75.6306V69.3517Z" fill="#E6E6E6"/>
<path d="M125.037 76.0631C124.795 76.0631 124.604 75.8728 124.604 75.6307V69.3517C124.604 69.1096 124.795 68.9193 125.037 68.9193C127.052 68.9193 128.695 70.5193 128.695 72.4912C128.704 74.4631 127.061 76.0631 125.037 76.0631ZM125.469 69.8188V75.1723C126.81 74.9734 127.83 73.849 127.83 72.4999C127.839 71.142 126.81 70.0177 125.469 69.8188Z" fill="black"/>
<path d="M125.919 76.2706C122.373 76.2706 119.484 74.5755 119.484 72.4911C119.484 70.4068 122.364 68.7117 125.919 68.7117V76.2706Z" fill="#FF0000"/>
<path opacity="0.2" d="M125.919 76.2706C122.373 76.2706 119.484 74.5755 119.484 72.4911C119.484 70.4068 122.364 68.7117 125.919 68.7117V76.2706Z" fill="#343434"/>
<path d="M125.919 75.2933C123.29 75.2933 121.162 74.0393 121.162 72.4911C121.162 70.9517 123.298 69.6976 125.919 69.6976V75.2933Z" fill="#FF0000"/>
<path d="M125.919 76.7031C122.07 76.7031 119.052 74.8523 119.052 72.4912C119.052 70.1301 122.07 68.2793 125.919 68.2793C126.161 68.2793 126.351 68.4696 126.351 68.7117V76.2706C126.351 76.5128 126.161 76.7031 125.919 76.7031ZM125.486 69.1528C122.425 69.2825 119.917 70.7528 119.917 72.4912C119.917 74.2296 122.425 75.6998 125.486 75.8296V69.1528Z" fill="black"/>
<path d="M121.499 73.8663C121.499 74.5409 120.946 75.0858 120.28 75.0858C119.614 75.0858 119.061 74.5323 119.061 73.8663C119.061 73.1917 119.614 72.6469 120.28 72.6469C120.946 72.6469 121.499 73.2004 121.499 73.8663Z" fill="#343434"/>
<path d="M120.271 75.5269C119.833 75.5269 119.413 75.3528 119.103 75.043C118.793 74.7332 118.619 74.3131 118.619 73.875C118.619 73.4369 118.793 73.0167 119.103 72.7069C119.413 72.3971 119.833 72.2231 120.271 72.2231C120.709 72.2231 121.13 72.3971 121.439 72.7069C121.749 73.0167 121.923 73.4369 121.923 73.875C121.923 74.3131 121.749 74.7332 121.439 75.043C121.13 75.3528 120.709 75.5269 120.271 75.5269ZM120.271 73.0793C119.839 73.0793 119.484 73.4339 119.484 73.8663C119.484 74.2988 119.839 74.6534 120.271 74.6534C120.704 74.6534 121.058 74.2988 121.058 73.8663C121.058 73.4339 120.712 73.0793 120.271 73.0793ZM123.307 73.1571C123.125 73.1571 122.952 73.0361 122.892 72.8544L121.534 68.5561C121.514 68.4939 121.474 68.4396 121.422 68.4008C121.369 68.3621 121.305 68.3407 121.24 68.3398H120.28C120.038 68.3398 119.848 68.1496 119.848 67.9074C119.848 67.6652 120.038 67.475 120.28 67.475H121.24C121.759 67.475 122.209 67.8036 122.364 68.2966L123.722 72.595C123.791 72.8198 123.67 73.062 123.437 73.1398C123.394 73.1571 123.35 73.1571 123.307 73.1571Z" fill="black"/>
<path d="M119.052 65.6847C120.159 65.6847 121.058 66.5582 121.058 67.6393C121.058 68.7117 120.159 69.5852 119.052 69.5852V65.6847Z" fill="#343434"/>
<path d="M119.052 70.0176C118.81 70.0176 118.619 69.8273 118.619 69.5852V65.6846C118.619 65.4425 118.81 65.2522 119.052 65.2522C120.401 65.2522 121.491 66.3246 121.491 67.6392C121.491 68.9538 120.392 70.0176 119.052 70.0176ZM119.484 66.1776V69.1008C120.142 68.9192 120.626 68.3311 120.626 67.6392C120.626 66.9473 120.142 66.3592 119.484 66.1776Z" fill="black"/>
<path d="M57.7193 152.368V142.186H63.8244V143.28H58.9522V146.72H63.367V147.814H58.9522V152.368H57.7193ZM66.277 152.368V144.732H67.4503V152.368H66.277ZM66.8736 143.459C66.6449 143.459 66.4477 143.381 66.282 143.225C66.1196 143.069 66.0384 142.882 66.0384 142.663C66.0384 142.445 66.1196 142.257 66.282 142.102C66.4477 141.946 66.6449 141.868 66.8736 141.868C67.1023 141.868 67.2978 141.946 67.4602 142.102C67.6259 142.257 67.7088 142.445 67.7088 142.663C67.7088 142.882 67.6259 143.069 67.4602 143.225C67.2978 143.381 67.1023 143.459 66.8736 143.459ZM73.301 152.527C72.5652 152.527 71.9305 152.365 71.3968 152.04C70.8665 151.712 70.4572 151.254 70.1689 150.668C69.8838 150.078 69.7413 149.392 69.7413 148.609C69.7413 147.827 69.8838 147.138 70.1689 146.541C70.4572 145.941 70.8583 145.474 71.372 145.139C71.889 144.801 72.4922 144.632 73.1816 144.632C73.5794 144.632 73.9721 144.698 74.3599 144.831C74.7477 144.964 75.1007 145.179 75.4189 145.477C75.737 145.772 75.9906 146.163 76.1795 146.651C76.3684 147.138 76.4629 147.738 76.4629 148.45V148.947H70.5765V147.933H75.2697C75.2697 147.502 75.1835 147.118 75.0112 146.78C74.8422 146.442 74.6002 146.175 74.2853 145.979C73.9738 145.784 73.6059 145.686 73.1816 145.686C72.7143 145.686 72.31 145.802 71.9686 146.034C71.6305 146.263 71.3703 146.561 71.188 146.929C71.0057 147.297 70.9146 147.691 70.9146 148.112V148.788C70.9146 149.365 71.014 149.854 71.2129 150.255C71.4151 150.653 71.6951 150.956 72.0531 151.165C72.411 151.37 72.827 151.473 73.301 151.473C73.6092 151.473 73.8876 151.43 74.1362 151.344C74.3881 151.254 74.6052 151.122 74.7875 150.946C74.9698 150.767 75.1106 150.545 75.21 150.28L76.3436 150.598C76.2243 150.983 76.0237 151.321 75.742 151.612C75.4603 151.901 75.1123 152.126 74.698 152.288C74.2837 152.447 73.818 152.527 73.301 152.527ZM79.921 142.186V152.368H78.7477V142.186H79.921ZM85.4535 152.527C84.8171 152.527 84.2553 152.366 83.7681 152.045C83.2809 151.72 82.8997 151.263 82.6246 150.673C82.3496 150.079 82.212 149.378 82.212 148.57C82.212 147.768 82.3496 147.072 82.6246 146.482C82.8997 145.892 83.2826 145.436 83.7731 145.114C84.2636 144.793 84.8304 144.632 85.4734 144.632C85.9705 144.632 86.3633 144.715 86.6516 144.881C86.9433 145.043 87.1654 145.229 87.3178 145.438C87.4736 145.643 87.5946 145.812 87.6808 145.945H87.7802V142.186H88.9535V152.368H87.82V151.195H87.6808C87.5946 151.334 87.4719 151.509 87.3129 151.722C87.1538 151.93 86.9267 152.118 86.6317 152.283C86.3368 152.446 85.944 152.527 85.4535 152.527ZM85.6126 151.473C86.0832 151.473 86.4809 151.35 86.8058 151.105C87.1306 150.857 87.3775 150.514 87.5465 150.076C87.7156 149.635 87.8001 149.126 87.8001 148.55C87.8001 147.98 87.7172 147.481 87.5515 147.053C87.3858 146.622 87.1405 146.288 86.8157 146.049C86.4909 145.807 86.0898 145.686 85.6126 145.686C85.1154 145.686 84.7011 145.814 84.3697 146.069C84.0415 146.321 83.7946 146.664 83.6289 147.098C83.4665 147.529 83.3853 148.013 83.3853 148.55C83.3853 149.093 83.4682 149.587 83.6339 150.031C83.8029 150.472 84.0515 150.823 84.3796 151.085C84.7111 151.344 85.122 151.473 85.6126 151.473ZM101.93 144.732C101.87 144.228 101.628 143.837 101.204 143.558C100.78 143.28 100.26 143.141 99.6431 143.141C99.1924 143.141 98.7979 143.214 98.4599 143.359C98.1251 143.505 97.8633 143.706 97.6744 143.961C97.4888 144.216 97.396 144.506 97.396 144.831C97.396 145.103 97.4606 145.336 97.5898 145.532C97.7224 145.724 97.8915 145.885 98.0969 146.014C98.3024 146.14 98.5179 146.245 98.7433 146.327C98.9686 146.407 99.1758 146.472 99.3647 146.521L100.399 146.8C100.664 146.869 100.959 146.965 101.284 147.088C101.612 147.211 101.925 147.378 102.223 147.59C102.525 147.799 102.774 148.067 102.969 148.396C103.165 148.724 103.262 149.126 103.262 149.604C103.262 150.154 103.118 150.651 102.83 151.095C102.545 151.539 102.127 151.892 101.577 152.154C101.03 152.416 100.366 152.547 99.5835 152.547C98.8543 152.547 98.2229 152.429 97.6893 152.194C97.159 151.959 96.7414 151.63 96.4364 151.21C96.1348 150.789 95.9641 150.3 95.9244 149.743H97.1971C97.2302 150.127 97.3595 150.446 97.5849 150.697C97.8136 150.946 98.1019 151.132 98.4499 151.254C98.8013 151.374 99.1791 151.433 99.5835 151.433C100.054 151.433 100.477 151.357 100.851 151.205C101.226 151.049 101.522 150.833 101.741 150.558C101.96 150.28 102.069 149.955 102.069 149.584C102.069 149.246 101.975 148.971 101.786 148.759C101.597 148.546 101.348 148.374 101.04 148.241C100.732 148.109 100.399 147.993 100.041 147.893L98.788 147.536C97.9925 147.307 97.3628 146.98 96.8988 146.556C96.4348 146.132 96.2028 145.577 96.2028 144.891C96.2028 144.321 96.3569 143.823 96.6651 143.399C96.9767 142.972 97.3943 142.64 97.918 142.405C98.445 142.166 99.0333 142.047 99.6829 142.047C100.339 142.047 100.922 142.165 101.433 142.4C101.943 142.632 102.348 142.95 102.646 143.354C102.948 143.759 103.107 144.218 103.123 144.732H101.93ZM107.878 152.547C107.394 152.547 106.955 152.456 106.56 152.273C106.166 152.088 105.853 151.821 105.621 151.473C105.389 151.122 105.273 150.697 105.273 150.2C105.273 149.763 105.359 149.408 105.531 149.136C105.703 148.861 105.934 148.646 106.222 148.49C106.51 148.334 106.829 148.218 107.177 148.142C107.528 148.063 107.881 148 108.236 147.953C108.7 147.893 109.076 147.849 109.364 147.819C109.656 147.786 109.868 147.731 110.001 147.655C110.136 147.579 110.204 147.446 110.204 147.257V147.217C110.204 146.727 110.07 146.346 109.802 146.074C109.537 145.802 109.134 145.666 108.594 145.666C108.033 145.666 107.594 145.789 107.276 146.034C106.958 146.279 106.734 146.541 106.605 146.82L105.491 146.422C105.69 145.958 105.955 145.597 106.287 145.338C106.622 145.076 106.986 144.894 107.381 144.791C107.778 144.685 108.169 144.632 108.554 144.632C108.799 144.632 109.081 144.662 109.399 144.722C109.72 144.778 110.03 144.896 110.329 145.075C110.63 145.254 110.881 145.524 111.079 145.885C111.278 146.246 111.378 146.73 111.378 147.337V152.368H110.204V151.334H110.145C110.065 151.5 109.933 151.677 109.747 151.866C109.561 152.055 109.314 152.215 109.006 152.348C108.698 152.481 108.322 152.547 107.878 152.547ZM108.057 151.493C108.521 151.493 108.912 151.402 109.23 151.219C109.551 151.037 109.793 150.802 109.956 150.514C110.122 150.225 110.204 149.922 110.204 149.604V148.53C110.155 148.59 110.045 148.644 109.876 148.694C109.711 148.74 109.518 148.782 109.3 148.818C109.084 148.851 108.874 148.881 108.668 148.908C108.466 148.931 108.302 148.951 108.176 148.967C107.871 149.007 107.586 149.072 107.321 149.161C107.059 149.247 106.847 149.378 106.684 149.554C106.525 149.726 106.446 149.962 106.446 150.26C106.446 150.668 106.597 150.976 106.898 151.185C107.203 151.39 107.589 151.493 108.057 151.493ZM115.192 142.186V152.368H114.019V142.186H115.192ZM121.043 152.527C120.307 152.527 119.673 152.365 119.139 152.04C118.609 151.712 118.199 151.254 117.911 150.668C117.626 150.078 117.483 149.392 117.483 148.609C117.483 147.827 117.626 147.138 117.911 146.541C118.199 145.941 118.6 145.474 119.114 145.139C119.631 144.801 120.234 144.632 120.924 144.632C121.322 144.632 121.714 144.698 122.102 144.831C122.49 144.964 122.843 145.179 123.161 145.477C123.479 145.772 123.733 146.163 123.922 146.651C124.111 147.138 124.205 147.738 124.205 148.45V148.947H118.319V147.933H123.012C123.012 147.502 122.926 147.118 122.753 146.78C122.584 146.442 122.342 146.175 122.028 145.979C121.716 145.784 121.348 145.686 120.924 145.686C120.456 145.686 120.052 145.802 119.711 146.034C119.373 146.263 119.113 146.561 118.93 146.929C118.748 147.297 118.657 147.691 118.657 148.112V148.788C118.657 149.365 118.756 149.854 118.955 150.255C119.157 150.653 119.437 150.956 119.795 151.165C120.153 151.37 120.569 151.473 121.043 151.473C121.351 151.473 121.63 151.43 121.878 151.344C122.13 151.254 122.347 151.122 122.53 150.946C122.712 150.767 122.853 150.545 122.952 150.28L124.086 150.598C123.966 150.983 123.766 151.321 123.484 151.612C123.202 151.901 122.854 152.126 122.44 152.288C122.026 152.447 121.56 152.527 121.043 152.527ZM131.899 146.442L130.845 146.74C130.779 146.564 130.681 146.394 130.552 146.228C130.426 146.059 130.253 145.92 130.035 145.81C129.816 145.701 129.536 145.646 129.194 145.646C128.727 145.646 128.338 145.754 128.026 145.969C127.718 146.182 127.564 146.452 127.564 146.78C127.564 147.072 127.67 147.302 127.882 147.471C128.094 147.64 128.425 147.781 128.876 147.893L130.01 148.172C130.693 148.338 131.201 148.591 131.536 148.933C131.871 149.271 132.038 149.706 132.038 150.24C132.038 150.678 131.912 151.069 131.66 151.413C131.412 151.758 131.064 152.03 130.616 152.229C130.169 152.428 129.648 152.527 129.055 152.527C128.276 152.527 127.632 152.358 127.121 152.02C126.611 151.682 126.288 151.188 126.152 150.538L127.265 150.26C127.372 150.671 127.572 150.979 127.867 151.185C128.165 151.39 128.555 151.493 129.035 151.493C129.582 151.493 130.016 151.377 130.338 151.145C130.663 150.91 130.825 150.628 130.825 150.3C130.825 150.035 130.732 149.813 130.547 149.634C130.361 149.451 130.076 149.315 129.692 149.226L128.419 148.928C127.72 148.762 127.206 148.505 126.878 148.157C126.553 147.806 126.39 147.366 126.39 146.84C126.39 146.409 126.511 146.027 126.753 145.696C126.999 145.365 127.332 145.104 127.753 144.916C128.177 144.727 128.657 144.632 129.194 144.632C129.95 144.632 130.543 144.798 130.974 145.129C131.408 145.461 131.717 145.898 131.899 146.442ZM139.319 152.368H138.026L141.765 142.186H143.037L146.776 152.368H145.483L142.441 143.797H142.361L139.319 152.368ZM139.796 148.391H145.006V149.484H139.796V148.391ZM149.876 147.774V152.368H148.703V144.732H149.836V145.925H149.936C150.115 145.537 150.386 145.225 150.751 144.99C151.116 144.751 151.586 144.632 152.163 144.632C152.68 144.632 153.132 144.738 153.52 144.95C153.908 145.159 154.21 145.477 154.425 145.905C154.641 146.329 154.748 146.866 154.748 147.516V152.368H153.575V147.595C153.575 146.995 153.419 146.528 153.108 146.193C152.796 145.855 152.368 145.686 151.825 145.686C151.45 145.686 151.116 145.767 150.821 145.93C150.529 146.092 150.299 146.329 150.13 146.641C149.961 146.952 149.876 147.33 149.876 147.774ZM160.276 152.527C159.639 152.527 159.078 152.366 158.59 152.045C158.103 151.72 157.722 151.263 157.447 150.673C157.172 150.079 157.034 149.378 157.034 148.57C157.034 147.768 157.172 147.072 157.447 146.482C157.722 145.892 158.105 145.436 158.595 145.114C159.086 144.793 159.653 144.632 160.296 144.632C160.793 144.632 161.186 144.715 161.474 144.881C161.766 145.043 161.988 145.229 162.14 145.438C162.296 145.643 162.417 145.812 162.503 145.945H162.602V142.186H163.776V152.368H162.642V151.195H162.503C162.417 151.334 162.294 151.509 162.135 151.722C161.976 151.93 161.749 152.118 161.454 152.283C161.159 152.446 160.766 152.527 160.276 152.527ZM160.435 151.473C160.905 151.473 161.303 151.35 161.628 151.105C161.953 150.857 162.2 150.514 162.369 150.076C162.538 149.635 162.622 149.126 162.622 148.55C162.622 147.98 162.539 147.481 162.374 147.053C162.208 146.622 161.963 146.288 161.638 146.049C161.313 145.807 160.912 145.686 160.435 145.686C159.938 145.686 159.523 145.814 159.192 146.069C158.864 146.321 158.617 146.664 158.451 147.098C158.289 147.529 158.208 148.013 158.208 148.55C158.208 149.093 158.29 149.587 158.456 150.031C158.625 150.472 158.874 150.823 159.202 151.085C159.533 151.344 159.944 151.473 160.435 151.473ZM77.1675 159.186H78.6391L82.0993 167.638H82.2187L85.6789 159.186H87.1505V169.368H85.9971V161.632H85.8976L82.7158 169.368H81.6022L78.4204 161.632H78.3209V169.368H77.1675V159.186ZM92.2107 169.547C91.7268 169.547 91.2876 169.456 90.8932 169.273C90.4988 169.088 90.1856 168.821 89.9536 168.473C89.7216 168.122 89.6056 167.697 89.6056 167.2C89.6056 166.763 89.6917 166.408 89.8641 166.136C90.0364 165.861 90.2668 165.646 90.5551 165.49C90.8435 165.334 91.1617 165.218 91.5097 165.142C91.861 165.063 92.214 165 92.5686 164.953C93.0326 164.893 93.4088 164.849 93.6972 164.819C93.9888 164.786 94.201 164.731 94.3335 164.655C94.4694 164.579 94.5374 164.446 94.5374 164.257V164.217C94.5374 163.727 94.4031 163.346 94.1347 163.074C93.8695 162.802 93.4668 162.666 92.9266 162.666C92.3664 162.666 91.9273 162.789 91.6091 163.034C91.2909 163.279 91.0672 163.541 90.9379 163.82L89.8243 163.422C90.0232 162.958 90.2883 162.597 90.6198 162.338C90.9545 162.076 91.3191 161.894 91.7135 161.791C92.1112 161.685 92.5023 161.632 92.8868 161.632C93.1321 161.632 93.4138 161.662 93.732 161.722C94.0535 161.778 94.3634 161.896 94.6617 162.075C94.9633 162.254 95.2135 162.524 95.4124 162.885C95.6112 163.246 95.7107 163.73 95.7107 164.337V169.368H94.5374V168.334H94.4777C94.3982 168.5 94.2656 168.677 94.08 168.866C93.8944 169.055 93.6475 169.215 93.3392 169.348C93.031 169.481 92.6548 169.547 92.2107 169.547ZM92.3896 168.493C92.8537 168.493 93.2448 168.402 93.5629 168.219C93.8844 168.037 94.1264 167.802 94.2888 167.514C94.4545 167.225 94.5374 166.922 94.5374 166.604V165.53C94.4877 165.59 94.3783 165.644 94.2093 165.694C94.0435 165.74 93.8513 165.782 93.6325 165.818C93.4171 165.851 93.2066 165.881 93.0012 165.908C92.799 165.931 92.6349 165.951 92.509 165.967C92.204 166.007 91.919 166.072 91.6539 166.161C91.392 166.247 91.1799 166.378 91.0175 166.554C90.8584 166.726 90.7789 166.962 90.7789 167.26C90.7789 167.668 90.9297 167.976 91.2313 168.185C91.5362 168.39 91.9223 168.493 92.3896 168.493ZM98.3522 169.368V161.732H99.4857V162.885H99.5653C99.7045 162.507 99.9564 162.201 100.321 161.965C100.686 161.73 101.097 161.612 101.554 161.612C101.64 161.612 101.748 161.614 101.877 161.617C102.006 161.621 102.104 161.625 102.17 161.632V162.825C102.131 162.815 102.039 162.8 101.897 162.781C101.758 162.757 101.61 162.746 101.454 162.746C101.083 162.746 100.752 162.824 100.46 162.979C100.172 163.132 99.9431 163.344 99.7741 163.616C99.6083 163.884 99.5255 164.191 99.5255 164.536V169.368H98.3522ZM105.155 166.584L105.135 165.132H105.374L108.715 161.732H110.166L106.607 165.331H106.507L105.155 166.584ZM104.061 169.368V159.186H105.234V169.368H104.061ZM108.913 169.368L105.93 165.59L106.766 164.774L110.405 169.368H108.913ZM115.064 169.527C114.328 169.527 113.693 169.365 113.16 169.04C112.629 168.712 112.22 168.254 111.932 167.668C111.647 167.078 111.504 166.392 111.504 165.609C111.504 164.827 111.647 164.138 111.932 163.541C112.22 162.941 112.621 162.474 113.135 162.139C113.652 161.801 114.255 161.632 114.944 161.632C115.342 161.632 115.735 161.698 116.123 161.831C116.51 161.964 116.863 162.179 117.182 162.477C117.5 162.772 117.753 163.163 117.942 163.651C118.131 164.138 118.226 164.738 118.226 165.45V165.947H112.339V164.933H117.032C117.032 164.502 116.946 164.118 116.774 163.78C116.605 163.442 116.363 163.175 116.048 162.979C115.736 162.784 115.369 162.686 114.944 162.686C114.477 162.686 114.073 162.802 113.731 163.034C113.393 163.263 113.133 163.561 112.951 163.929C112.768 164.297 112.677 164.691 112.677 165.112V165.788C112.677 166.365 112.777 166.854 112.976 167.255C113.178 167.653 113.458 167.956 113.816 168.165C114.174 168.37 114.59 168.473 115.064 168.473C115.372 168.473 115.65 168.43 115.899 168.344C116.151 168.254 116.368 168.122 116.55 167.946C116.732 167.767 116.873 167.545 116.973 167.28L118.106 167.598C117.987 167.983 117.786 168.321 117.505 168.612C117.223 168.901 116.875 169.126 116.461 169.288C116.046 169.447 115.581 169.527 115.064 169.527ZM123.831 161.732V162.726H119.874V161.732H123.831ZM121.027 159.902H122.201V167.18C122.201 167.512 122.249 167.76 122.345 167.926C122.444 168.089 122.57 168.198 122.723 168.254C122.879 168.307 123.043 168.334 123.215 168.334C123.344 168.334 123.45 168.327 123.533 168.314C123.616 168.297 123.682 168.284 123.732 168.274L123.971 169.328C123.891 169.358 123.78 169.388 123.638 169.418C123.495 169.451 123.314 169.467 123.096 169.467C122.764 169.467 122.439 169.396 122.121 169.254C121.806 169.111 121.544 168.894 121.336 168.602C121.13 168.311 121.027 167.943 121.027 167.499V159.902ZM126.096 169.368V161.732H127.27V169.368H126.096ZM126.693 160.459C126.464 160.459 126.267 160.381 126.101 160.225C125.939 160.069 125.858 159.882 125.858 159.663C125.858 159.445 125.939 159.257 126.101 159.102C126.267 158.946 126.464 158.868 126.693 158.868C126.922 158.868 127.117 158.946 127.28 159.102C127.445 159.257 127.528 159.445 127.528 159.663C127.528 159.882 127.445 160.069 127.28 160.225C127.117 160.381 126.922 160.459 126.693 160.459ZM131.092 164.774V169.368H129.919V161.732H131.052V162.925H131.152C131.331 162.537 131.602 162.225 131.967 161.99C132.331 161.751 132.802 161.632 133.379 161.632C133.896 161.632 134.348 161.738 134.736 161.95C135.124 162.159 135.425 162.477 135.641 162.905C135.856 163.329 135.964 163.866 135.964 164.516V169.368H134.791V164.595C134.791 163.995 134.635 163.528 134.323 163.193C134.012 162.855 133.584 162.686 133.041 162.686C132.666 162.686 132.331 162.767 132.036 162.93C131.745 163.092 131.514 163.329 131.345 163.641C131.176 163.952 131.092 164.33 131.092 164.774ZM141.69 172.391C141.124 172.391 140.636 172.318 140.229 172.172C139.821 172.029 139.481 171.84 139.21 171.605C138.941 171.373 138.727 171.125 138.568 170.859L139.503 170.203C139.609 170.342 139.743 170.501 139.906 170.68C140.068 170.863 140.29 171.02 140.572 171.153C140.857 171.289 141.23 171.357 141.69 171.357C142.307 171.357 142.816 171.207 143.217 170.909C143.618 170.611 143.818 170.143 143.818 169.507V167.956H143.719C143.633 168.095 143.51 168.268 143.351 168.473C143.195 168.675 142.97 168.856 142.675 169.015C142.383 169.171 141.989 169.249 141.492 169.249C140.875 169.249 140.322 169.103 139.831 168.811C139.344 168.519 138.958 168.095 138.673 167.538C138.391 166.982 138.25 166.305 138.25 165.51C138.25 164.728 138.388 164.047 138.663 163.467C138.938 162.883 139.321 162.433 139.811 162.114C140.302 161.793 140.868 161.632 141.511 161.632C142.009 161.632 142.403 161.715 142.695 161.881C142.99 162.043 143.215 162.229 143.371 162.438C143.53 162.643 143.653 162.812 143.739 162.945H143.858V161.732H144.992V169.587C144.992 170.243 144.842 170.777 144.544 171.188C144.249 171.602 143.851 171.905 143.351 172.097C142.854 172.293 142.3 172.391 141.69 172.391ZM141.651 168.195C142.121 168.195 142.519 168.087 142.844 167.871C143.169 167.656 143.416 167.346 143.585 166.942C143.754 166.537 143.838 166.054 143.838 165.49C143.838 164.94 143.755 164.454 143.59 164.033C143.424 163.612 143.179 163.283 142.854 163.044C142.529 162.805 142.128 162.686 141.651 162.686C141.153 162.686 140.739 162.812 140.408 163.064C140.08 163.316 139.833 163.654 139.667 164.078C139.505 164.502 139.423 164.973 139.423 165.49C139.423 166.02 139.506 166.489 139.672 166.897C139.841 167.301 140.09 167.62 140.418 167.852C140.749 168.08 141.16 168.195 141.651 168.195Z" fill="black"/>
</g>
<defs>
<filter id="filter0_d_130_1845" x="0" y="0.36792" width="230" height="230" filterUnits="userSpaceOnUse" color-interpolation-filters="sRGB">
<feFlood flood-opacity="0" result="BackgroundImageFix"/>
<feColorMatrix in="SourceAlpha" type="matrix" values="0 0 0 0 0 0 0 0 0 0 0 0 0 0 0 0 0 0 127 0" result="hardAlpha"/>
<feOffset dx="4" dy="4"/>
<feGaussianBlur stdDeviation="7.5"/>
<feComposite in2="hardAlpha" operator="out"/>
<feColorMatrix type="matrix" values="0 0 0 0 0 0 0 0 0 0 0 0 0 0 0 0 0 0 0.25 0"/>
<feBlend mode="normal" in2="BackgroundImageFix" result="effect1_dropShadow_130_1845"/>
<feBlend mode="normal" in="SourceGraphic" in2="effect1_dropShadow_130_1845" result="shape"/>
</filter>
</defs>
</svg>
