<svg width="230" height="231" viewBox="0 0 230 231" fill="none" xmlns="http://www.w3.org/2000/svg">
<g filter="url(#filter0_d_130_1966)">
<rect width="200" height="200" transform="translate(11 11.3679)" fill="white"/>
<g clip-path="url(#clip0_130_1966)">
<path d="M111 74.3679C112.105 74.3679 113 73.4725 113 72.3679C113 71.2634 112.105 70.3679 111 70.3679C109.895 70.3679 109 71.2634 109 72.3679C109 73.4725 109.895 74.3679 111 74.3679Z" fill="#39D5FE"/>
<path fill-rule="evenodd" clip-rule="evenodd" d="M106.758 68.1248C109.1 65.7828 112.901 65.7828 115.243 68.1248C116.024 68.9054 117.291 68.9054 118.072 68.1248C118.852 67.3441 118.852 66.077 118.072 65.2964C114.169 61.3931 107.833 61.3931 103.93 65.2964C103.149 66.077 103.149 67.3441 103.93 68.1248C104.71 68.9054 105.977 68.9054 106.758 68.1248Z" fill="#19B5FF"/>
<path fill-rule="evenodd" clip-rule="evenodd" d="M101.102 62.4687C106.567 57.0041 115.437 57.0041 120.901 62.4687C121.682 63.2493 122.949 63.2493 123.73 62.4687C124.51 61.688 124.51 60.4209 123.73 59.6402C116.704 52.6144 105.3 52.6144 98.2739 59.6402C97.4933 60.4209 97.4933 61.688 98.2739 62.4687C99.0546 63.2493 100.322 63.2493 101.102 62.4687Z" fill="#1397E1"/>
<path fill-rule="evenodd" clip-rule="evenodd" d="M135 91.3679C135 92.4729 134.105 93.3679 133 93.3679C128.183 93.3679 116.333 93.3679 116.333 93.3679C116.333 93.3679 117.782 89.0209 118.544 86.7359C118.816 85.9189 119.581 85.3679 120.442 85.3679C124.375 85.3679 135 85.3679 135 85.3679V91.3679Z" fill="#C0C0C0"/>
<path fill-rule="evenodd" clip-rule="evenodd" d="M137 77.3679H89C88.47 77.3679 87.961 77.5789 87.586 77.9539C87.211 78.3289 87 78.8379 87 79.3679C87 83.1999 87 91.5359 87 95.3679C87 95.8979 87.211 96.4069 87.586 96.7819C87.961 97.1569 88.47 97.3679 89 97.3679H113.558C114.419 97.3679 115.184 96.8169 115.456 95.9999C116.226 93.6909 117.774 89.0449 118.544 86.7359C118.816 85.9189 119.581 85.3679 120.442 85.3679C124.375 85.3679 135 85.3679 135 85.3679C135.758 85.3679 136.45 84.9399 136.789 84.2619L138.789 80.2619C139.099 79.6419 139.066 78.9059 138.701 78.3169C138.337 77.7269 137.693 77.3679 137 77.3679Z" fill="#505050"/>
<path d="M93 85.3679C94.1046 85.3679 95 84.4725 95 83.3679C95 82.2634 94.1046 81.3679 93 81.3679C91.8954 81.3679 91 82.2634 91 83.3679C91 84.4725 91.8954 85.3679 93 85.3679Z" fill="#2DCC70"/>
<path d="M101 85.3679C102.105 85.3679 103 84.4725 103 83.3679C103 82.2634 102.105 81.3679 101 81.3679C99.8954 81.3679 99 82.2634 99 83.3679C99 84.4725 99.8954 85.3679 101 85.3679Z" fill="#2DCC70"/>
<path fill-rule="evenodd" clip-rule="evenodd" d="M111 97.3679H91V99.3679C91 99.8979 91.211 100.407 91.586 100.782C91.961 101.157 92.47 101.368 93 101.368C96.832 101.368 105.168 101.368 109 101.368C109.53 101.368 110.039 101.157 110.414 100.782C110.789 100.407 111 99.8979 111 99.3679C111 98.3679 111 97.3679 111 97.3679Z" fill="#C0C0C0"/>
<path fill-rule="evenodd" clip-rule="evenodd" d="M103.236 101.368H98.764L96.764 105.368H85C83.896 105.368 83 106.264 83 107.368C83 108.472 83.896 109.368 85 109.368H98C98.758 109.368 99.45 108.94 99.789 108.262L103.236 101.368Z" fill="#909090"/>
<path fill-rule="evenodd" clip-rule="evenodd" d="M87 81.3679H85C83.895 81.3679 83 82.2629 83 83.3679C83 85.5879 83 89.1479 83 91.3679C83 92.4729 83.895 93.3679 85 93.3679C86 93.3679 87 93.3679 87 93.3679V81.3679Z" fill="#C0C0C0"/>
<path fill-rule="evenodd" clip-rule="evenodd" d="M97.146 102.368L96.146 104.368H85C83.344 104.368 82 105.712 82 107.368C82 109.024 83.344 110.368 85 110.368H98C99.136 110.368 100.175 109.726 100.683 108.71L103.854 102.368H109C109.796 102.368 110.559 102.052 111.121 101.489C111.684 100.927 112 100.164 112 99.3679V98.3679H113.558C114.85 98.3679 115.996 97.5419 116.405 96.3169L117.054 94.3679H133C134.657 94.3679 136 93.0249 136 91.3679V89.3679C136 88.8159 135.552 88.3679 135 88.3679C134.448 88.3679 134 88.8159 134 89.3679V91.3679C134 91.9199 133.552 92.3679 133 92.3679H117.721L119.493 87.0519C119.629 86.6429 120.011 86.3679 120.442 86.3679H135C136.136 86.3679 137.175 85.7259 137.683 84.7099L139.683 80.7099C140.148 79.7799 140.099 78.6749 139.552 77.7909C139.005 76.9059 138.04 76.3679 137 76.3679H103C102.448 76.3679 102 76.8159 102 77.3679C102 77.9199 102.448 78.3679 103 78.3679H137C137.347 78.3679 137.668 78.5469 137.851 78.8419C138.033 79.1369 138.049 79.5049 137.894 79.8149L135.894 83.8149C135.725 84.1539 135.379 84.3679 135 84.3679C135 84.3679 124.375 84.3679 120.442 84.3679C119.15 84.3679 118.004 85.1939 117.595 86.4189L114.507 95.6839C114.371 96.0929 113.989 96.3679 113.558 96.3679H89C88.735 96.3679 88.48 96.2629 88.293 96.0749C88.105 95.8879 88 95.6329 88 95.3679V79.3679C88 79.1029 88.105 78.8479 88.293 78.6609C88.48 78.4729 88.735 78.3679 89 78.3679H99C99.552 78.3679 100 77.9199 100 77.3679C100 76.8159 99.552 76.3679 99 76.3679H89C88.204 76.3679 87.441 76.6839 86.879 77.2469C86.316 77.8089 86 78.5719 86 79.3679V80.3679H85C83.343 80.3679 82 81.7109 82 83.3679V91.3679C82 93.0249 83.343 94.3679 85 94.3679H86V95.3679C86 96.1639 86.316 96.9269 86.879 97.4889C87.441 98.0519 88.204 98.3679 89 98.3679H90V99.3679C90 100.164 90.316 100.927 90.879 101.489C91.441 102.052 92.204 102.368 93 102.368H97.146ZM85 106.368H96.764L96.835 106.366C97.185 106.341 97.5 106.133 97.658 105.815L99.382 102.368H101.618L98.894 107.815C98.725 108.154 98.379 108.368 98 108.368H85C84.448 108.368 84 107.92 84 107.368C84 106.816 84.448 106.368 85 106.368ZM109 100.368H93C92.735 100.368 92.48 100.263 92.293 100.075C92.105 99.8879 92 99.6329 92 99.3679V98.3679H110V99.3679C110 99.6329 109.895 99.8879 109.707 100.075C109.52 100.263 109.265 100.368 109 100.368ZM86 82.3679V92.3679H85C84.448 92.3679 84 91.9199 84 91.3679V83.3679C84 82.8159 84.448 82.3679 85 82.3679H86Z" fill="black"/>
</g>
<path d="M75.0528 142.186V152.368H73.8199V142.186H75.0528ZM79.0392 147.774V152.368H77.8659V144.732H78.9994V145.925H79.0988C79.2778 145.537 79.5496 145.225 79.9142 144.99C80.2787 144.751 80.7494 144.632 81.3261 144.632C81.8431 144.632 82.2955 144.738 82.6833 144.95C83.0711 145.159 83.3727 145.477 83.5882 145.905C83.8036 146.329 83.9113 146.866 83.9113 147.516V152.368H82.738V147.595C82.738 146.995 82.5822 146.528 82.2707 146.193C81.9591 145.855 81.5316 145.686 80.988 145.686C80.6135 145.686 80.2787 145.767 79.9838 145.93C79.6921 146.092 79.4617 146.329 79.2927 146.641C79.1237 146.952 79.0392 147.33 79.0392 147.774ZM89.8763 144.732V145.726H85.9189V144.732H89.8763ZM87.0724 142.902H88.2456V150.18C88.2456 150.512 88.2937 150.76 88.3898 150.926C88.4893 151.089 88.6152 151.198 88.7677 151.254C88.9234 151.307 89.0875 151.334 89.2599 151.334C89.3891 151.334 89.4952 151.327 89.578 151.314C89.6609 151.297 89.7272 151.284 89.7769 151.274L90.0155 152.328C89.936 152.358 89.825 152.388 89.6824 152.418C89.5399 152.451 89.3593 152.467 89.1405 152.467C88.8091 152.467 88.4843 152.396 88.1661 152.254C87.8512 152.111 87.5894 151.894 87.3806 151.602C87.1751 151.311 87.0724 150.943 87.0724 150.499V142.902ZM95.2609 152.527C94.5251 152.527 93.8904 152.365 93.3568 152.04C92.8265 151.712 92.4172 151.254 92.1288 150.668C91.8438 150.078 91.7013 149.392 91.7013 148.609C91.7013 147.827 91.8438 147.138 92.1288 146.541C92.4172 145.941 92.8182 145.474 93.3319 145.139C93.849 144.801 94.4522 144.632 95.1416 144.632C95.5393 144.632 95.9321 144.698 96.3199 144.831C96.7077 144.964 97.0606 145.179 97.3788 145.477C97.697 145.772 97.9506 146.163 98.1395 146.651C98.3284 147.138 98.4229 147.738 98.4229 148.45V148.947H92.5365V147.933H97.2297C97.2297 147.502 97.1435 147.118 96.9711 146.78C96.8021 146.442 96.5602 146.175 96.2453 145.979C95.9337 145.784 95.5658 145.686 95.1416 145.686C94.6743 145.686 94.2699 145.802 93.9285 146.034C93.5905 146.263 93.3303 146.561 93.148 146.929C92.9657 147.297 92.8746 147.691 92.8746 148.112V148.788C92.8746 149.365 92.974 149.854 93.1729 150.255C93.375 150.653 93.6551 150.956 94.0131 151.165C94.371 151.37 94.787 151.473 95.2609 151.473C95.5692 151.473 95.8476 151.43 96.0961 151.344C96.348 151.254 96.5651 151.122 96.7474 150.946C96.9297 150.767 97.0706 150.545 97.17 150.28L98.3035 150.598C98.1842 150.983 97.9837 151.321 97.702 151.612C97.4202 151.901 97.0722 152.126 96.6579 152.288C96.2436 152.447 95.778 152.527 95.2609 152.527ZM100.708 152.368V144.732H101.841V145.885H101.921C102.06 145.507 102.312 145.201 102.676 144.965C103.041 144.73 103.452 144.612 103.909 144.612C103.996 144.612 104.103 144.614 104.233 144.617C104.362 144.621 104.46 144.625 104.526 144.632V145.825C104.486 145.815 104.395 145.8 104.252 145.781C104.113 145.757 103.966 145.746 103.81 145.746C103.439 145.746 103.107 145.824 102.816 145.979C102.527 146.132 102.299 146.344 102.13 146.616C101.964 146.884 101.881 147.191 101.881 147.536V152.368H100.708ZM107.59 147.774V152.368H106.417V144.732H107.55V145.925H107.65C107.829 145.537 108.1 145.225 108.465 144.99C108.83 144.751 109.3 144.632 109.877 144.632C110.394 144.632 110.846 144.738 111.234 144.95C111.622 145.159 111.924 145.477 112.139 145.905C112.354 146.329 112.462 146.866 112.462 147.516V152.368H111.289V147.595C111.289 146.995 111.133 146.528 110.821 146.193C110.51 145.855 110.082 145.686 109.539 145.686C109.164 145.686 108.83 145.767 108.535 145.93C108.243 146.092 108.013 146.329 107.843 146.641C107.674 146.952 107.59 147.33 107.59 147.774ZM118.308 152.527C117.572 152.527 116.937 152.365 116.404 152.04C115.873 151.712 115.464 151.254 115.176 150.668C114.891 150.078 114.748 149.392 114.748 148.609C114.748 147.827 114.891 147.138 115.176 146.541C115.464 145.941 115.865 145.474 116.379 145.139C116.896 144.801 117.499 144.632 118.188 144.632C118.586 144.632 118.979 144.698 119.367 144.831C119.755 144.964 120.108 145.179 120.426 145.477C120.744 145.772 120.997 146.163 121.186 146.651C121.375 147.138 121.47 147.738 121.47 148.45V148.947H115.583V147.933H120.277C120.277 147.502 120.19 147.118 120.018 146.78C119.849 146.442 119.607 146.175 119.292 145.979C118.981 145.784 118.613 145.686 118.188 145.686C117.721 145.686 117.317 145.802 116.975 146.034C116.637 146.263 116.377 146.561 116.195 146.929C116.013 147.297 115.921 147.691 115.921 148.112V148.788C115.921 149.365 116.021 149.854 116.22 150.255C116.422 150.653 116.702 150.956 117.06 151.165C117.418 151.37 117.834 151.473 118.308 151.473C118.616 151.473 118.894 151.43 119.143 151.344C119.395 151.254 119.612 151.122 119.794 150.946C119.977 150.767 120.117 150.545 120.217 150.28L121.35 150.598C121.231 150.983 121.031 151.321 120.749 151.612C120.467 151.901 120.119 152.126 119.705 152.288C119.291 152.447 118.825 152.527 118.308 152.527ZM127.076 144.732V145.726H123.118V144.732H127.076ZM124.272 142.902H125.445V150.18C125.445 150.512 125.493 150.76 125.589 150.926C125.688 151.089 125.814 151.198 125.967 151.254C126.123 151.307 126.287 151.334 126.459 151.334C126.588 151.334 126.694 151.327 126.777 151.314C126.86 151.297 126.926 151.284 126.976 151.274L127.215 152.328C127.135 152.358 127.024 152.388 126.882 152.418C126.739 152.451 126.559 152.467 126.34 152.467C126.008 152.467 125.684 152.396 125.365 152.254C125.05 152.111 124.789 151.894 124.58 151.602C124.374 151.311 124.272 150.943 124.272 150.499V142.902ZM142.528 147.277C142.528 148.351 142.334 149.279 141.946 150.061C141.559 150.843 141.027 151.447 140.35 151.871C139.674 152.295 138.902 152.507 138.034 152.507C137.165 152.507 136.393 152.295 135.717 151.871C135.041 151.447 134.509 150.843 134.121 150.061C133.733 149.279 133.539 148.351 133.539 147.277C133.539 146.203 133.733 145.275 134.121 144.493C134.509 143.711 135.041 143.108 135.717 142.683C136.393 142.259 137.165 142.047 138.034 142.047C138.902 142.047 139.674 142.259 140.35 142.683C141.027 143.108 141.559 143.711 141.946 144.493C142.334 145.275 142.528 146.203 142.528 147.277ZM141.335 147.277C141.335 146.395 141.187 145.651 140.892 145.045C140.601 144.438 140.205 143.979 139.704 143.668C139.207 143.356 138.65 143.2 138.034 143.2C137.417 143.2 136.859 143.356 136.358 143.668C135.861 143.979 135.465 144.438 135.17 145.045C134.878 145.651 134.733 146.395 134.733 147.277C134.733 148.159 134.878 148.903 135.17 149.509C135.465 150.116 135.861 150.575 136.358 150.886C136.859 151.198 137.417 151.354 138.034 151.354C138.65 151.354 139.207 151.198 139.704 150.886C140.205 150.575 140.601 150.116 140.892 149.509C141.187 148.903 141.335 148.159 141.335 147.277ZM148.343 144.732V145.726H144.226V144.732H148.343ZM145.459 152.368V143.678C145.459 143.24 145.562 142.875 145.767 142.584C145.973 142.292 146.24 142.073 146.568 141.928C146.896 141.782 147.242 141.709 147.607 141.709C147.895 141.709 148.13 141.732 148.313 141.778C148.495 141.825 148.631 141.868 148.72 141.908L148.382 142.922C148.323 142.902 148.24 142.877 148.134 142.847C148.031 142.817 147.895 142.803 147.726 142.803C147.338 142.803 147.058 142.9 146.886 143.096C146.717 143.291 146.632 143.578 146.632 143.956V152.368H145.459ZM88.1205 160.28V159.186H95.7568V160.28H92.5551V169.368H91.3222V160.28H88.1205ZM99.1739 164.774V169.368H98.0006V159.186H99.1739V162.925H99.2733C99.4523 162.53 99.7208 162.217 100.079 161.985C100.44 161.75 100.921 161.632 101.521 161.632C102.041 161.632 102.497 161.737 102.888 161.945C103.279 162.151 103.582 162.467 103.797 162.895C104.016 163.319 104.126 163.859 104.126 164.516V169.368H102.952V164.595C102.952 163.989 102.795 163.52 102.48 163.188C102.168 162.853 101.736 162.686 101.182 162.686C100.798 162.686 100.453 162.767 100.148 162.93C99.8467 163.092 99.6081 163.329 99.4324 163.641C99.2601 163.952 99.1739 164.33 99.1739 164.774ZM106.772 169.368V161.732H107.945V169.368H106.772ZM107.369 160.459C107.14 160.459 106.943 160.381 106.777 160.225C106.615 160.069 106.533 159.882 106.533 159.663C106.533 159.445 106.615 159.257 106.777 159.102C106.943 158.946 107.14 158.868 107.369 158.868C107.597 158.868 107.793 158.946 107.955 159.102C108.121 159.257 108.204 159.445 108.204 159.663C108.204 159.882 108.121 160.069 107.955 160.225C107.793 160.381 107.597 160.459 107.369 160.459ZM111.768 164.774V169.368H110.594V161.732H111.728V162.925H111.827C112.006 162.537 112.278 162.225 112.643 161.99C113.007 161.751 113.478 161.632 114.055 161.632C114.572 161.632 115.024 161.738 115.412 161.95C115.8 162.159 116.101 162.477 116.317 162.905C116.532 163.329 116.64 163.866 116.64 164.516V169.368H115.467V164.595C115.467 163.995 115.311 163.528 114.999 163.193C114.688 162.855 114.26 162.686 113.717 162.686C113.342 162.686 113.007 162.767 112.712 162.93C112.421 163.092 112.19 163.329 112.021 163.641C111.852 163.952 111.768 164.33 111.768 164.774ZM122.366 172.391C121.799 172.391 121.312 172.318 120.905 172.172C120.497 172.029 120.157 171.84 119.885 171.605C119.617 171.373 119.403 171.125 119.244 170.859L120.179 170.203C120.285 170.342 120.419 170.501 120.581 170.68C120.744 170.863 120.966 171.02 121.248 171.153C121.533 171.289 121.906 171.357 122.366 171.357C122.983 171.357 123.491 171.207 123.892 170.909C124.294 170.611 124.494 170.143 124.494 169.507V167.956H124.395C124.308 168.095 124.186 168.268 124.027 168.473C123.871 168.675 123.646 168.856 123.351 169.015C123.059 169.171 122.665 169.249 122.167 169.249C121.551 169.249 120.997 169.103 120.507 168.811C120.02 168.519 119.633 168.095 119.348 167.538C119.067 166.982 118.926 166.305 118.926 165.51C118.926 164.728 119.063 164.047 119.339 163.467C119.614 162.883 119.996 162.433 120.487 162.114C120.977 161.793 121.544 161.632 122.187 161.632C122.684 161.632 123.079 161.715 123.37 161.881C123.665 162.043 123.891 162.229 124.047 162.438C124.206 162.643 124.328 162.812 124.415 162.945H124.534V161.732H125.667V169.587C125.667 170.243 125.518 170.777 125.22 171.188C124.925 171.602 124.527 171.905 124.027 172.097C123.53 172.293 122.976 172.391 122.366 172.391ZM122.326 168.195C122.797 168.195 123.195 168.087 123.52 167.871C123.844 167.656 124.091 167.346 124.26 166.942C124.429 166.537 124.514 166.054 124.514 165.49C124.514 164.94 124.431 164.454 124.265 164.033C124.1 163.612 123.854 163.283 123.53 163.044C123.205 162.805 122.804 162.686 122.326 162.686C121.829 162.686 121.415 162.812 121.084 163.064C120.755 163.316 120.508 163.654 120.343 164.078C120.18 164.502 120.099 164.973 120.099 165.49C120.099 166.02 120.182 166.489 120.348 166.897C120.517 167.301 120.765 167.62 121.093 167.852C121.425 168.08 121.836 168.195 122.326 168.195ZM133.724 163.442L132.67 163.74C132.604 163.564 132.506 163.394 132.377 163.228C132.251 163.059 132.079 162.92 131.86 162.81C131.641 162.701 131.361 162.646 131.02 162.646C130.552 162.646 130.163 162.754 129.851 162.969C129.543 163.182 129.389 163.452 129.389 163.78C129.389 164.072 129.495 164.302 129.707 164.471C129.919 164.64 130.251 164.781 130.701 164.893L131.835 165.172C132.518 165.338 133.026 165.591 133.361 165.933C133.696 166.271 133.863 166.706 133.863 167.24C133.863 167.678 133.737 168.069 133.486 168.413C133.237 168.758 132.889 169.03 132.441 169.229C131.994 169.428 131.474 169.527 130.88 169.527C130.102 169.527 129.457 169.358 128.946 169.02C128.436 168.682 128.113 168.188 127.977 167.538L129.091 167.26C129.197 167.671 129.397 167.979 129.692 168.185C129.991 168.39 130.38 168.493 130.861 168.493C131.407 168.493 131.842 168.377 132.163 168.145C132.488 167.91 132.65 167.628 132.65 167.3C132.65 167.035 132.557 166.813 132.372 166.634C132.186 166.451 131.901 166.315 131.517 166.226L130.244 165.928C129.545 165.762 129.031 165.505 128.703 165.157C128.378 164.806 128.216 164.366 128.216 163.84C128.216 163.409 128.337 163.027 128.579 162.696C128.824 162.365 129.157 162.104 129.578 161.916C130.002 161.727 130.483 161.632 131.02 161.632C131.775 161.632 132.369 161.798 132.799 162.129C133.234 162.461 133.542 162.898 133.724 163.442Z" fill="black"/>
</g>
<defs>
<filter id="filter0_d_130_1966" x="0" y="0.36792" width="230" height="230" filterUnits="userSpaceOnUse" color-interpolation-filters="sRGB">
<feFlood flood-opacity="0" result="BackgroundImageFix"/>
<feColorMatrix in="SourceAlpha" type="matrix" values="0 0 0 0 0 0 0 0 0 0 0 0 0 0 0 0 0 0 127 0" result="hardAlpha"/>
<feOffset dx="4" dy="4"/>
<feGaussianBlur stdDeviation="7.5"/>
<feComposite in2="hardAlpha" operator="out"/>
<feColorMatrix type="matrix" values="0 0 0 0 0 0 0 0 0 0 0 0 0 0 0 0 0 0 0.25 0"/>
<feBlend mode="normal" in2="BackgroundImageFix" result="effect1_dropShadow_130_1966"/>
<feBlend mode="normal" in="SourceGraphic" in2="effect1_dropShadow_130_1966" result="shape"/>
</filter>
<clipPath id="clip0_130_1966">
<rect width="64" height="64" fill="white" transform="translate(79 50.3679)"/>
</clipPath>
</defs>
</svg>
