<svg width="230" height="231" viewBox="0 0 230 231" fill="none" xmlns="http://www.w3.org/2000/svg">
<g filter="url(#filter0_d_133_2731)">
<rect width="200" height="200" transform="translate(11 11.3679)" fill="white"/>
<g clip-path="url(#clip0_133_2731)">
<path d="M134.637 82.2039H87.3712V116.91H134.637V82.2039Z" fill="#FEDD8E"/>
<path d="M142.5 119.64H79.5V122.368H142.5V119.64Z" fill="#A8B2B4"/>
<path d="M82.7446 119.638H79.4996V122.368H82.7446V119.638Z" fill="#D3D9D9"/>
<path d="M142.5 119.638H139.255V122.368H142.5V119.638Z" fill="#7C8B8E"/>
<path d="M140.408 116.912H81.5918V119.64H140.408V116.912Z" fill="#D3D9D9"/>
<path d="M84.8047 116.913H81.5896V119.638H84.8047V116.913Z" fill="#EDEDED"/>
<path d="M140.41 116.913H137.195V119.638H140.41V116.913Z" fill="#A8B2B4"/>
<path d="M142.5 82.2H79.5L111 59.3679L142.5 82.2Z" fill="#D3D9D9"/>
<path d="M111.406 59.6625L82.6146 82.1984H79.4996L111 59.3684L111.406 59.6625Z" fill="#EDEDED"/>
<path d="M142.5 82.1984H139.385L110.576 59.6763L111 59.3684L142.5 82.1984Z" fill="#A8B2B4"/>
<path d="M88.7509 79.2L111 63.073L133.249 79.2H88.7509Z" fill="white"/>
<path d="M89.9215 84.9402H84.8037V114.175H89.9215V84.9402Z" fill="#D3D9D9"/>
<path d="M91.4191 82.2039H83.306V84.9401H91.4191V82.2039Z" fill="#A8B2B4"/>
<path d="M91.4191 114.176H83.306V116.912H91.4191V114.176Z" fill="#A8B2B4"/>
<path d="M86.2995 84.9382H84.8046V114.173H86.2995V84.9382Z" fill="#EDEDED"/>
<path d="M85.2496 82.2034H83.3046V84.9384H85.2496V82.2034Z" fill="#D3D9D9"/>
<path d="M85.2496 114.173H83.3046V116.913H85.2496V114.173Z" fill="#D3D9D9"/>
<path d="M89.9215 84.9382H88.4215V114.173H89.9215V84.9382Z" fill="#A8B2B4"/>
<path d="M91.4191 82.2034H89.4792V84.9384H91.4191V82.2034Z" fill="#7C8B8E"/>
<path d="M91.4191 114.173H89.4792V116.913H91.4191V114.173Z" fill="#7C8B8E"/>
<path d="M137.197 84.9402H132.079V114.175H137.197V84.9402Z" fill="#D3D9D9"/>
<path d="M138.694 82.2041H130.581V84.9404H138.694V82.2041Z" fill="#A8B2B4"/>
<path d="M138.694 114.176H130.581V116.912H138.694V114.176Z" fill="#A8B2B4"/>
<path d="M133.575 84.9385H132.08V114.173H133.575V84.9385Z" fill="#EDEDED"/>
<path d="M132.525 82.2034H130.58V84.9384H132.525V82.2034Z" fill="#D3D9D9"/>
<path d="M132.525 114.173H130.58V116.913H132.525V114.173Z" fill="#D3D9D9"/>
<path d="M137.197 84.9385H135.697V114.173H137.197V84.9385Z" fill="#A8B2B4"/>
<path d="M138.695 82.2034H136.755V84.9384H138.695V82.2034Z" fill="#7C8B8E"/>
<path d="M138.695 114.173H136.755V116.913H138.695V114.173Z" fill="#7C8B8E"/>
<path d="M105.68 84.9402H100.562V114.175H105.68V84.9402Z" fill="#D3D9D9"/>
<path d="M107.178 82.2041H99.0645V84.9404H107.178V82.2041Z" fill="#A8B2B4"/>
<path d="M107.178 114.176H99.0645V116.912H107.178V114.176Z" fill="#A8B2B4"/>
<path d="M102.058 84.9385H100.563V114.173H102.058V84.9385Z" fill="#EDEDED"/>
<path d="M101.008 82.2034H99.0632V84.9384H101.008V82.2034Z" fill="#D3D9D9"/>
<path d="M101.008 114.173H99.0632V116.913H101.008V114.173Z" fill="#D3D9D9"/>
<path d="M105.68 84.9385H104.18V114.173H105.68V84.9385Z" fill="#A8B2B4"/>
<path d="M107.178 82.2034H105.238V84.9384H107.178V82.2034Z" fill="#7C8B8E"/>
<path d="M107.178 114.173H105.238V116.913H107.178V114.173Z" fill="#7C8B8E"/>
<path d="M121.438 84.9402H116.321V114.175H121.438V84.9402Z" fill="#D3D9D9"/>
<path d="M122.936 82.2041H114.823V84.9404H122.936V82.2041Z" fill="#A8B2B4"/>
<path d="M122.936 114.176H114.823V116.912H122.936V114.176Z" fill="#A8B2B4"/>
<path d="M117.817 84.9385H116.322V114.173H117.817V84.9385Z" fill="#EDEDED"/>
<path d="M116.767 82.2034H114.822V84.9384H116.767V82.2034Z" fill="#D3D9D9"/>
<path d="M116.767 114.173H114.822V116.913H116.767V114.173Z" fill="#D3D9D9"/>
<path d="M121.438 84.9385H119.938V114.173H121.438V84.9385Z" fill="#A8B2B4"/>
<path d="M122.936 82.2034H120.996V84.9384H122.936V82.2034Z" fill="#7C8B8E"/>
<path d="M122.936 114.173H120.996V116.913H122.936V114.173Z" fill="#7C8B8E"/>
<path d="M114.296 72.6179C114.296 74.438 112.82 75.9139 111 75.9139C109.18 75.9139 107.704 74.4381 107.704 72.6179C107.704 70.7977 109.18 69.3179 111 69.3179C112.82 69.3177 114.296 70.7977 114.296 72.6179Z" fill="#FEDD8E"/>
<path d="M114.295 72.6182C114.295 74.4382 112.819 75.9132 111 75.9132C109.71 75.9132 108.595 75.1732 108.06 74.0932C108.495 74.3132 108.985 74.4332 109.505 74.4332C111.325 74.4332 112.8 72.9582 112.8 71.1382C112.8 70.6032 112.675 70.1032 112.445 69.6582C113.539 70.1883 114.295 71.3183 114.295 72.6182Z" fill="#FDD367"/>
<path d="M142.5 119.14H140.908V116.912C140.908 116.636 140.684 116.412 140.408 116.412H139.195V114.176C139.195 113.899 138.971 113.676 138.695 113.676H137.697V85.4402H138.695C138.971 85.4402 139.195 85.2165 139.195 84.9402V82.6999H142.5C142.717 82.6999 142.909 82.5603 142.975 82.3542C143.042 82.148 142.969 81.922 142.793 81.795L111.293 58.9632C111.119 58.8362 110.881 58.8362 110.706 58.9632L79.2063 81.7952C79.031 81.9222 78.9573 82.1482 79.0242 82.3543C79.091 82.5604 79.2829 82.7 79.4998 82.7H82.8059V84.9403C82.8059 85.2167 83.0295 85.4403 83.3059 85.4403H84.3034V113.676H83.3059C83.0295 113.676 82.8059 113.899 82.8059 114.176V116.412H81.5915C81.3152 116.412 81.0915 116.636 81.0915 116.912V119.14H79.4998C79.2234 119.14 78.9998 119.364 78.9998 119.64V122.368C78.9998 122.644 79.2234 122.868 79.4998 122.868H142.5C142.776 122.868 143 122.644 143 122.368V119.64C143 119.364 142.776 119.14 142.5 119.14ZM138.195 116.412H131.081V114.676H132.079H137.197H138.195L138.195 116.412ZM136.697 113.676H132.579V85.4402H136.697V113.676ZM138.195 84.4402H131.081V82.7038H138.195V84.4402ZM130.581 85.4402H131.579V113.676H130.581C130.305 113.676 130.081 113.899 130.081 114.176V116.412H123.436V114.176C123.436 113.899 123.212 113.676 122.936 113.676H121.938V85.4402H122.936C123.212 85.4402 123.436 85.2165 123.436 84.9402V82.6999H130.081V84.9402C130.081 85.2165 130.305 85.4402 130.581 85.4402ZM107.678 116.412V114.176C107.678 113.899 107.454 113.676 107.178 113.676H106.18V85.4402H107.178C107.454 85.4402 107.678 85.2165 107.678 84.9402V82.6999H114.323V84.9402C114.323 85.2165 114.546 85.4402 114.823 85.4402H115.821V113.676H114.823C114.546 113.676 114.323 113.899 114.323 114.176V116.412H107.678ZM99.5643 82.7039H106.678V84.4403H99.5643V82.7039ZM101.062 85.4402H105.18V113.676H101.062V85.4402ZM100.562 114.676H105.68H106.677V116.412H99.5642V114.676H100.562ZM120.938 113.676H116.821V85.4402H120.938V113.676ZM115.323 84.4402V82.7038H122.436V84.4402H115.323ZM115.323 114.676H116.321H121.438H122.436V116.412H115.322L115.323 114.676ZM111 59.9855L140.958 81.6999H81.0418L111 59.9855ZM98.5643 82.6999V84.9402C98.5643 85.2165 98.7879 85.4402 99.0643 85.4402H100.062V113.676H99.0643C98.7879 113.676 98.5643 113.899 98.5643 114.176V116.412H91.9193V114.176C91.9193 113.899 91.6957 113.676 91.4193 113.676H90.4213V85.4402H91.4193C91.6957 85.4402 91.9193 85.2165 91.9193 84.9402V82.6999H98.5643ZM83.8059 82.7039H90.9192V84.4403H83.8059V82.7039ZM85.3034 85.4402H89.421V113.676H85.3034V85.4402ZM83.8059 114.676H84.8034H89.921H90.919V116.412H83.8059V114.676ZM82.0915 117.412H139.908V119.14H82.0915V117.412ZM142 121.868H79.9998V120.14H142V121.868Z" fill="#333333"/>
<path d="M133.542 78.7952L111.293 62.6682C111.119 62.5412 110.881 62.5412 110.707 62.6682L88.4575 78.7952C88.2823 78.9222 88.2085 79.1482 88.2754 79.3544C88.3422 79.5605 88.5341 79.7001 88.751 79.7001H133.249C133.466 79.7001 133.658 79.5605 133.725 79.3544C133.792 79.1482 133.718 78.9222 133.542 78.7952ZM90.293 78.7001L111 63.6907L131.707 78.7L90.293 78.7001Z" fill="#333333"/>
<path d="M107.204 72.6181C107.204 74.7114 108.906 76.414 110.999 76.414C113.093 76.414 114.795 74.7114 114.795 72.6181C114.795 70.5224 113.093 68.8179 110.999 68.8179C108.906 68.8179 107.204 70.5224 107.204 72.6181ZM113.795 72.6181C113.795 74.1596 112.541 75.414 110.999 75.414C109.458 75.414 108.204 74.1596 108.204 72.6181C108.204 71.0741 109.458 69.8179 110.999 69.8179C112.541 69.8177 113.795 71.0741 113.795 72.6181Z" fill="#333333"/>
</g>
<path d="M76.3719 153.868C76.2625 153.533 76.1183 153.233 75.9394 152.968C75.7637 152.7 75.5532 152.471 75.308 152.282C75.066 152.093 74.7909 151.949 74.4827 151.849C74.1744 151.75 73.8364 151.7 73.4685 151.7C72.8653 151.7 72.3167 151.856 71.8229 152.168C71.329 152.479 70.9363 152.938 70.6446 153.545C70.353 154.151 70.2071 154.895 70.2071 155.777C70.2071 156.659 70.3546 157.403 70.6496 158.009C70.9446 158.616 71.344 159.075 71.8477 159.386C72.3515 159.698 72.9183 159.854 73.548 159.854C74.1314 159.854 74.6451 159.729 75.0892 159.481C75.5367 159.229 75.8847 158.874 76.1333 158.417C76.3852 157.956 76.5111 157.414 76.5111 156.791L76.8889 156.871H73.8264V155.777H77.7043V156.871C77.7043 157.709 77.5253 158.438 77.1673 159.058C76.8127 159.678 76.3222 160.159 75.6958 160.5C75.0727 160.838 74.3567 161.007 73.548 161.007C72.6465 161.007 71.8544 160.795 71.1716 160.371C70.4922 159.947 69.9619 159.343 69.5807 158.561C69.2029 157.779 69.0139 156.851 69.0139 155.777C69.0139 154.972 69.1217 154.247 69.3371 153.604C69.5558 152.958 69.8641 152.408 70.2618 151.954C70.6595 151.5 71.1302 151.152 71.6737 150.91C72.2173 150.668 72.8155 150.547 73.4685 150.547C74.0054 150.547 74.5059 150.628 74.9699 150.791C75.4372 150.95 75.8532 151.177 76.2178 151.472C76.5857 151.763 76.8923 152.113 77.1375 152.521C77.3828 152.925 77.5518 153.374 77.6446 153.868H76.3719ZM83.2591 161.027C82.5698 161.027 81.9649 160.863 81.4445 160.535C80.9275 160.207 80.5231 159.748 80.2314 159.158C79.9431 158.568 79.7989 157.878 79.7989 157.09C79.7989 156.294 79.9431 155.6 80.2314 155.006C80.5231 154.413 80.9275 153.952 81.4445 153.624C81.9649 153.296 82.5698 153.132 83.2591 153.132C83.9485 153.132 84.5518 153.296 85.0688 153.624C85.5892 153.952 85.9935 154.413 86.2819 155.006C86.5735 155.6 86.7194 156.294 86.7194 157.09C86.7194 157.878 86.5735 158.568 86.2819 159.158C85.9935 159.748 85.5892 160.207 85.0688 160.535C84.5518 160.863 83.9485 161.027 83.2591 161.027ZM83.2591 159.973C83.7828 159.973 84.2137 159.839 84.5518 159.57C84.8898 159.302 85.1401 158.949 85.3025 158.511C85.4649 158.074 85.5461 157.6 85.5461 157.09C85.5461 156.579 85.4649 156.103 85.3025 155.663C85.1401 155.222 84.8898 154.866 84.5518 154.594C84.2137 154.322 83.7828 154.186 83.2591 154.186C82.7355 154.186 82.3046 154.322 81.9665 154.594C81.6285 154.866 81.3782 155.222 81.2158 155.663C81.0534 156.103 80.9722 156.579 80.9722 157.09C80.9722 157.6 81.0534 158.074 81.2158 158.511C81.3782 158.949 81.6285 159.302 81.9665 159.57C82.3046 159.839 82.7355 159.973 83.2591 159.973ZM94.9813 153.232L92.1574 160.868H90.9642L88.1404 153.232H89.4131L91.521 159.317H91.6006L93.7085 153.232H94.9813ZM99.9582 161.027C99.2224 161.027 98.5877 160.865 98.0541 160.54C97.5238 160.212 97.1144 159.754 96.8261 159.168C96.541 158.578 96.3985 157.892 96.3985 157.109C96.3985 156.327 96.541 155.638 96.8261 155.041C97.1144 154.441 97.5155 153.974 98.0292 153.639C98.5463 153.301 99.1495 153.132 99.8389 153.132C100.237 153.132 100.629 153.198 101.017 153.331C101.405 153.464 101.758 153.679 102.076 153.977C102.394 154.272 102.648 154.663 102.837 155.151C103.026 155.638 103.12 156.238 103.12 156.95V157.447H97.2338V156.433H101.927C101.927 156.002 101.841 155.618 101.668 155.28C101.499 154.942 101.257 154.675 100.943 154.479C100.631 154.284 100.263 154.186 99.8389 154.186C99.3715 154.186 98.9672 154.302 98.6258 154.534C98.2877 154.763 98.0276 155.061 97.8453 155.429C97.663 155.797 97.5718 156.191 97.5718 156.612V157.288C97.5718 157.865 97.6713 158.354 97.8701 158.755C98.0723 159.153 98.3524 159.456 98.7103 159.665C99.0683 159.87 99.4842 159.973 99.9582 159.973C100.266 159.973 100.545 159.93 100.793 159.844C101.045 159.754 101.262 159.622 101.445 159.446C101.627 159.267 101.768 159.045 101.867 158.78L103.001 159.098C102.881 159.483 102.681 159.821 102.399 160.112C102.118 160.401 101.77 160.626 101.355 160.788C100.941 160.947 100.475 161.027 99.9582 161.027ZM105.405 160.868V153.232H106.538V154.385H106.618C106.757 154.007 107.009 153.701 107.374 153.465C107.738 153.23 108.149 153.112 108.607 153.112C108.693 153.112 108.801 153.114 108.93 153.117C109.059 153.121 109.157 153.125 109.223 153.132V154.325C109.183 154.315 109.092 154.3 108.95 154.281C108.81 154.257 108.663 154.246 108.507 154.246C108.136 154.246 107.805 154.324 107.513 154.479C107.225 154.632 106.996 154.844 106.827 155.116C106.661 155.384 106.578 155.691 106.578 156.036V160.868H105.405ZM112.287 156.274V160.868H111.114V153.232H112.247V154.425H112.347C112.526 154.037 112.798 153.725 113.162 153.49C113.527 153.251 113.997 153.132 114.574 153.132C115.091 153.132 115.544 153.238 115.931 153.45C116.319 153.659 116.621 153.977 116.836 154.405C117.052 154.829 117.159 155.366 117.159 156.016V160.868H115.986V156.095C115.986 155.495 115.83 155.028 115.519 154.693C115.207 154.355 114.78 154.186 114.236 154.186C113.862 154.186 113.527 154.267 113.232 154.43C112.94 154.592 112.71 154.829 112.541 155.141C112.372 155.452 112.287 155.83 112.287 156.274ZM119.803 160.868V153.232H120.937V154.425H121.036C121.195 154.017 121.452 153.701 121.807 153.475C122.162 153.246 122.587 153.132 123.085 153.132C123.588 153.132 124.008 153.246 124.342 153.475C124.68 153.701 124.944 154.017 125.133 154.425H125.212C125.408 154.03 125.701 153.717 126.092 153.485C126.484 153.25 126.953 153.132 127.499 153.132C128.182 153.132 128.741 153.346 129.175 153.773C129.609 154.198 129.826 154.859 129.826 155.757V160.868H128.653V155.757C128.653 155.194 128.499 154.791 128.19 154.549C127.882 154.307 127.519 154.186 127.102 154.186C126.565 154.186 126.149 154.349 125.854 154.673C125.559 154.995 125.411 155.402 125.411 155.896V160.868H124.218V155.638C124.218 155.204 124.077 154.854 123.796 154.589C123.514 154.32 123.151 154.186 122.707 154.186C122.402 154.186 122.117 154.267 121.852 154.43C121.59 154.592 121.378 154.817 121.215 155.106C121.056 155.391 120.977 155.721 120.977 156.095V160.868H119.803ZM135.673 161.027C134.937 161.027 134.303 160.865 133.769 160.54C133.239 160.212 132.829 159.754 132.541 159.168C132.256 158.578 132.113 157.892 132.113 157.109C132.113 156.327 132.256 155.638 132.541 155.041C132.829 154.441 133.23 153.974 133.744 153.639C134.261 153.301 134.864 153.132 135.554 153.132C135.951 153.132 136.344 153.198 136.732 153.331C137.12 153.464 137.473 153.679 137.791 153.977C138.109 154.272 138.363 154.663 138.552 155.151C138.741 155.638 138.835 156.238 138.835 156.95V157.447H132.949V156.433H137.642C137.642 156.002 137.556 155.618 137.383 155.28C137.214 154.942 136.972 154.675 136.657 154.479C136.346 154.284 135.978 154.186 135.554 154.186C135.086 154.186 134.682 154.302 134.341 154.534C134.003 154.763 133.742 155.061 133.56 155.429C133.378 155.797 133.287 156.191 133.287 156.612V157.288C133.287 157.865 133.386 158.354 133.585 158.755C133.787 159.153 134.067 159.456 134.425 159.665C134.783 159.87 135.199 159.973 135.673 159.973C135.981 159.973 136.26 159.93 136.508 159.844C136.76 159.754 136.977 159.622 137.16 159.446C137.342 159.267 137.483 159.045 137.582 158.78L138.716 159.098C138.596 159.483 138.396 159.821 138.114 160.112C137.832 160.401 137.484 160.626 137.07 160.788C136.656 160.947 136.19 161.027 135.673 161.027ZM142.293 156.274V160.868H141.12V153.232H142.253V154.425H142.353C142.532 154.037 142.803 153.725 143.168 153.49C143.533 153.251 144.003 153.132 144.58 153.132C145.097 153.132 145.549 153.238 145.937 153.45C146.325 153.659 146.627 153.977 146.842 154.405C147.057 154.829 147.165 155.366 147.165 156.016V160.868H145.992V156.095C145.992 155.495 145.836 155.028 145.525 154.693C145.213 154.355 144.785 154.186 144.242 154.186C143.867 154.186 143.533 154.267 143.238 154.43C142.946 154.592 142.716 154.829 142.547 155.141C142.378 155.452 142.293 155.83 142.293 156.274ZM153.13 153.232V154.226H149.173V153.232H153.13ZM150.326 151.402H151.5V158.68C151.5 159.012 151.548 159.26 151.644 159.426C151.743 159.589 151.869 159.698 152.022 159.754C152.177 159.807 152.341 159.834 152.514 159.834C152.643 159.834 152.749 159.827 152.832 159.814C152.915 159.797 152.981 159.784 153.031 159.774L153.269 160.828C153.19 160.858 153.079 160.888 152.936 160.918C152.794 160.951 152.613 160.967 152.394 160.967C152.063 160.967 151.738 160.896 151.42 160.754C151.105 160.611 150.843 160.394 150.634 160.102C150.429 159.811 150.326 159.443 150.326 158.999V151.402Z" fill="black"/>
</g>
<defs>
<filter id="filter0_d_133_2731" x="0" y="0.36792" width="230" height="230" filterUnits="userSpaceOnUse" color-interpolation-filters="sRGB">
<feFlood flood-opacity="0" result="BackgroundImageFix"/>
<feColorMatrix in="SourceAlpha" type="matrix" values="0 0 0 0 0 0 0 0 0 0 0 0 0 0 0 0 0 0 127 0" result="hardAlpha"/>
<feOffset dx="4" dy="4"/>
<feGaussianBlur stdDeviation="7.5"/>
<feComposite in2="hardAlpha" operator="out"/>
<feColorMatrix type="matrix" values="0 0 0 0 0 0 0 0 0 0 0 0 0 0 0 0 0 0 0.25 0"/>
<feBlend mode="normal" in2="BackgroundImageFix" result="effect1_dropShadow_133_2731"/>
<feBlend mode="normal" in="SourceGraphic" in2="effect1_dropShadow_133_2731" result="shape"/>
</filter>
<clipPath id="clip0_133_2731">
<rect width="64" height="64" fill="white" transform="translate(79 58.8679)"/>
</clipPath>
</defs>
</svg>
