<svg width="120" height="37" viewBox="0 0 120 37" fill="none" xmlns="http://www.w3.org/2000/svg">
<path d="M115.556 36.0385H4.44444C2.00111 36.0385 0 34.0643 0 31.6539V5.34618C0 2.93573 2.00111 0.961562 4.44444 0.961562H115.556C117.999 0.961562 120 2.93573 120 5.34618V31.6539C120 34.0643 117.999 36.0385 115.556 36.0385Z" fill="black"/>
<path d="M115.556 1.6642C117.613 1.6642 119.288 3.3161 119.288 5.34618V31.6539C119.288 33.6839 117.613 35.3358 115.556 35.3358H4.44444C2.38667 35.3358 0.712222 33.6839 0.712222 31.6539V5.34618C0.712222 3.3161 2.38667 1.6642 4.44444 1.6642H115.556ZM115.556 0.961562H4.44444C2.00111 0.961562 0 2.93573 0 5.34618V31.6539C0 34.0643 2.00111 36.0385 4.44444 36.0385H115.556C117.999 36.0385 120 34.0643 120 31.6539V5.34618C120 2.93573 117.999 0.961562 115.556 0.961562Z" fill="#A6A6A6"/>
<path d="M9.27556 7.57246C9.01445 7.84211 8.86334 8.26194 8.86334 8.80563V28.1988C8.86334 28.7425 9.01445 29.1623 9.27556 29.432L9.34001 29.4911L20.3556 18.6283V18.3718L9.34001 7.50888L9.27556 7.57246Z" fill="url(#paint0_linear_90_3408)"/>
<path d="M24.0233 22.251L20.3555 18.6283V18.3717L24.0278 14.749L24.11 14.7961L28.4589 17.2372C29.7 17.93 29.7 19.07 28.4589 19.7672L24.11 22.2039L24.0233 22.251Z" fill="url(#paint1_linear_90_3408)"/>
<path d="M24.11 22.2039L20.3555 18.5L9.27554 29.432C9.68777 29.8595 10.36 29.911 11.1244 29.4835L24.11 22.2039Z" fill="url(#paint2_linear_90_3408)"/>
<path d="M24.11 14.7961L11.1244 7.51657C10.36 7.09346 9.68777 7.14497 9.27554 7.57247L20.3555 18.5L24.11 14.7961Z" fill="url(#paint3_linear_90_3408)"/>
<path d="M42.1489 9.94456C42.1489 10.6768 41.9267 11.2632 41.4889 11.7006C40.9856 12.2191 40.33 12.48 39.5267 12.48C38.7589 12.48 38.1033 12.2147 37.5656 11.6918C37.0267 11.1613 36.7578 10.5102 36.7578 9.73081C36.7578 8.95145 37.0267 8.30033 37.5656 7.77418C38.1033 7.24693 38.7589 6.98166 39.5267 6.98166C39.9089 6.98166 40.2733 7.05949 40.6211 7.20418C40.9678 7.34997 41.25 7.54727 41.4544 7.79062L40.99 8.2532C40.6333 7.83776 40.1478 7.63277 39.5267 7.63277C38.9667 7.63277 38.4811 7.8257 38.0689 8.21483C37.6611 8.60506 37.4567 9.11039 37.4567 9.73081C37.4567 10.3512 37.6611 10.8609 38.0689 11.2512C38.4811 11.6359 38.9667 11.8332 39.5267 11.8332C40.1211 11.8332 40.6211 11.6359 41.0156 11.2468C41.2756 10.9892 41.4233 10.634 41.4622 10.1802H39.5267V9.54666H42.1089C42.14 9.68368 42.1489 9.81631 42.1489 9.94456Z" fill="white" stroke="white" stroke-width="0.16" stroke-miterlimit="10"/>
<path d="M46.2456 7.74784H43.82V9.41399H46.0067V10.0476H43.82V11.7137H46.2456V12.3594H43.1333V7.1022H46.2456V7.74784Z" fill="white" stroke="white" stroke-width="0.16" stroke-miterlimit="10"/>
<path d="M49.1367 12.3594H48.45V7.74784H46.9622V7.1022H50.6255V7.74784H49.1367V12.3594Z" fill="white" stroke="white" stroke-width="0.16" stroke-miterlimit="10"/>
<path d="M53.2767 12.3594V7.1022H53.9622V12.3594H53.2767Z" fill="white" stroke="white" stroke-width="0.16" stroke-miterlimit="10"/>
<path d="M57.0011 12.3594H56.32V7.74784H54.8267V7.1022H58.4944V7.74784H57.0011V12.3594Z" fill="white" stroke="white" stroke-width="0.16" stroke-miterlimit="10"/>
<path d="M65.43 11.6831C64.9045 12.2147 64.2533 12.48 63.4767 12.48C62.6956 12.48 62.0444 12.2147 61.5189 11.6831C60.9944 11.1525 60.7333 10.5014 60.7333 9.73081C60.7333 8.96022 60.9944 8.3091 61.5189 7.77856C62.0444 7.24693 62.6956 6.98166 63.4767 6.98166C64.2489 6.98166 64.9 7.24693 65.4256 7.78295C65.9545 8.31787 66.2156 8.9646 66.2156 9.73081C66.2156 10.5014 65.9545 11.1525 65.43 11.6831ZM62.0267 11.2424C62.4222 11.6359 62.9033 11.8332 63.4767 11.8332C64.0456 11.8332 64.5311 11.6359 64.9222 11.2424C65.3167 10.8489 65.5167 10.3436 65.5167 9.73081C65.5167 9.11806 65.3167 8.61274 64.9222 8.21922C64.5311 7.8257 64.0456 7.62839 63.4767 7.62839C62.9033 7.62839 62.4222 7.8257 62.0267 8.21922C61.6322 8.61274 61.4322 9.11806 61.4322 9.73081C61.4322 10.3436 61.6322 10.8489 62.0267 11.2424Z" fill="white" stroke="white" stroke-width="0.16" stroke-miterlimit="10"/>
<path d="M67.1789 12.3594V7.1022H68.0122L70.6033 11.1909H70.6333L70.6033 10.1802V7.1022H71.2889V12.3594H70.5733L67.86 8.06901H67.83L67.86 9.08405V12.3594H67.1789Z" fill="white" stroke="white" stroke-width="0.16" stroke-miterlimit="10"/>
<path d="M60.5644 20.0368C58.4767 20.0368 56.7711 21.6043 56.7711 23.767C56.7711 25.9122 58.4767 27.4962 60.5644 27.4962C62.6567 27.4962 64.3622 25.9122 64.3622 23.767C64.3622 21.6043 62.6567 20.0368 60.5644 20.0368ZM60.5644 26.0273C59.4189 26.0273 58.4333 25.0945 58.4333 23.767C58.4333 22.4221 59.4189 21.5057 60.5644 21.5057C61.71 21.5057 62.7 22.4221 62.7 23.767C62.7 25.0945 61.71 26.0273 60.5644 26.0273ZM52.2878 20.0368C50.1956 20.0368 48.4945 21.6043 48.4945 23.767C48.4945 25.9122 50.1956 27.4962 52.2878 27.4962C54.3789 27.4962 56.0811 25.9122 56.0811 23.767C56.0811 21.6043 54.3789 20.0368 52.2878 20.0368ZM52.2878 26.0273C51.1411 26.0273 50.1522 25.0945 50.1522 23.767C50.1522 22.4221 51.1411 21.5057 52.2878 21.5057C53.4333 21.5057 54.4189 22.4221 54.4189 23.767C54.4189 25.0945 53.4333 26.0273 52.2878 26.0273ZM42.4389 21.1801V22.7652H46.2756C46.1633 23.6509 45.8633 24.302 45.4033 24.7558C44.8433 25.3039 43.9711 25.9122 42.4389 25.9122C40.0778 25.9122 38.2289 24.0323 38.2289 21.703C38.2289 19.3737 40.0778 17.4938 42.4389 17.4938C43.7156 17.4938 44.6445 17.9859 45.33 18.6239L46.4622 17.5069C45.5033 16.6037 44.2278 15.9098 42.4389 15.9098C39.2011 15.9098 36.48 18.5088 36.48 21.703C36.48 24.8972 39.2011 27.4962 42.4389 27.4962C44.1889 27.4962 45.5033 26.9305 46.5367 25.8695C47.5956 24.8248 47.9256 23.356 47.9256 22.1699C47.9256 21.8016 47.8945 21.4629 47.8389 21.1801H42.4389ZM82.7122 22.4089C82.4 21.5747 81.4367 20.0368 79.4744 20.0368C77.53 20.0368 75.9111 21.5484 75.9111 23.767C75.9111 25.8563 77.5133 27.4962 79.6611 27.4962C81.3978 27.4962 82.4 26.4515 82.8122 25.8432L81.5233 24.9958C81.0933 25.6163 80.5078 26.0273 79.6611 26.0273C78.82 26.0273 78.2167 25.6469 77.83 24.8972L82.8867 22.8331L82.7122 22.4089ZM77.5567 23.6509C77.5133 22.2127 78.6889 21.4761 79.5311 21.4761C80.1911 21.4761 80.7511 21.8016 80.9378 22.2675L77.5567 23.6509ZM73.4467 27.2693H75.1089V16.3077H73.4467V27.2693ZM70.7244 20.8677H70.6689C70.2956 20.4315 69.5833 20.0368 68.6811 20.0368C66.7878 20.0368 65.0567 21.6767 65.0567 23.7791C65.0567 25.8695 66.7878 27.4962 68.6811 27.4962C69.5833 27.4962 70.2956 27.0983 70.6689 26.6488H70.7244V27.1838C70.7244 28.6099 69.9522 29.3761 68.7067 29.3761C67.6911 29.3761 67.0611 28.6526 66.8011 28.0442L65.3556 28.6394C65.7722 29.6282 66.8756 30.8449 68.7067 30.8449C70.6556 30.8449 72.3 29.7137 72.3 26.9612V20.2637H70.7244V20.8677ZM68.8233 26.0273C67.6778 26.0273 66.7189 25.0813 66.7189 23.7791C66.7189 22.4648 67.6778 21.5057 68.8233 21.5057C69.9522 21.5057 70.8422 22.4648 70.8422 23.7791C70.8422 25.0813 69.9522 26.0273 68.8233 26.0273ZM90.4944 16.3077H86.5189V27.2693H88.1767V23.1159H90.4944C92.3355 23.1159 94.1411 21.8016 94.1411 19.7113C94.1411 17.622 92.3311 16.3077 90.4944 16.3077ZM90.5378 21.5912H88.1767V17.8325H90.5378C91.7755 17.8325 92.4822 18.8464 92.4822 19.7113C92.4822 20.5597 91.7755 21.5912 90.5378 21.5912ZM100.786 20.016C99.5878 20.016 98.3422 20.5378 97.83 21.6942L99.3011 22.3026C99.6178 21.6942 100.2 21.4969 100.816 21.4969C101.676 21.4969 102.548 22.0066 102.561 22.9066V23.0217C102.261 22.8507 101.619 22.5975 100.829 22.5975C99.2444 22.5975 97.63 23.4579 97.63 25.0638C97.63 26.5326 98.9278 27.4786 100.387 27.4786C101.502 27.4786 102.118 26.9821 102.504 26.4044H102.561V27.2517H104.162V23.0469C104.162 21.1034 102.691 20.016 100.786 20.016ZM100.586 26.0229C100.043 26.0229 99.2878 25.7577 99.2878 25.0945C99.2878 24.2461 100.23 23.9205 101.046 23.9205C101.776 23.9205 102.118 24.0794 102.561 24.2888C102.431 25.3039 101.546 26.0229 100.586 26.0229ZM109.996 20.2561L108.09 25.0079H108.033L106.063 20.2561H104.276L107.236 26.8966L105.547 30.5917H107.279L111.84 20.2561H109.996ZM95.0522 27.2693H96.7144V16.3077H95.0522V27.2693Z" fill="white"/>
<defs>
<linearGradient id="paint0_linear_90_3408" x1="19.3775" y1="28.4007" x2="4.66199" y2="13.4844" gradientUnits="userSpaceOnUse">
<stop stop-color="#00A0FF"/>
<stop offset="0.0066" stop-color="#00A1FF"/>
<stop offset="0.2601" stop-color="#00BEFF"/>
<stop offset="0.5122" stop-color="#00D2FF"/>
<stop offset="0.7604" stop-color="#00DFFF"/>
<stop offset="1" stop-color="#00E3FF"/>
</linearGradient>
<linearGradient id="paint1_linear_90_3408" x1="30.075" y1="18.4988" x2="8.56664" y2="18.4988" gradientUnits="userSpaceOnUse">
<stop stop-color="#FFE000"/>
<stop offset="0.4087" stop-color="#FFBD00"/>
<stop offset="0.7754" stop-color="#FFA500"/>
<stop offset="1" stop-color="#FF9C00"/>
</linearGradient>
<linearGradient id="paint2_linear_90_3408" x1="22.0684" y1="16.4865" x2="2.11299" y2="-3.74122" gradientUnits="userSpaceOnUse">
<stop stop-color="#FF3A44"/>
<stop offset="1" stop-color="#C31162"/>
</linearGradient>
<linearGradient id="paint3_linear_90_3408" x1="6.48648" y1="35.884" x2="15.3975" y2="26.8515" gradientUnits="userSpaceOnUse">
<stop stop-color="#32A071"/>
<stop offset="0.0685" stop-color="#2DA771"/>
<stop offset="0.4762" stop-color="#15CF74"/>
<stop offset="0.8009" stop-color="#06E775"/>
<stop offset="1" stop-color="#00F076"/>
</linearGradient>
</defs>
</svg>
