<svg width="24" height="25" viewBox="0 0 24 25" fill="none" xmlns="http://www.w3.org/2000/svg">
<g clip-path="url(#clip0_130_1593)">
<path d="M19.9272 24.1534H4.20899C2.13359 24.1534 0.44519 22.4254 0.44519 20.3011V4.22047C0.44519 2.09616 2.13359 0.368164 4.20899 0.368164H19.9272C22.002 0.368164 23.6904 2.09616 23.6904 4.22047V20.3017C23.6904 22.426 22.002 24.1534 19.9272 24.1534ZM8.24519 5.29124H16.0452C16.8408 5.29124 17.6039 5.61542 18.1665 6.19245C18.7291 6.76949 19.0452 7.55211 19.0452 8.36816V16.3682C19.0452 17.1842 18.7291 17.9668 18.1665 18.5439C17.6039 19.1209 16.8408 19.4451 16.0452 19.4451H8.24519C7.44954 19.4451 6.68648 19.1209 6.12387 18.5439C5.56126 17.9668 5.24519 17.1842 5.24519 16.3682V8.36816C5.24519 7.55211 5.56126 6.76949 6.12387 6.19245C6.68648 5.61542 7.44954 5.29124 8.24519 5.29124ZM8.24519 3.44509C6.97215 3.44509 5.75125 3.96377 4.85108 4.88702C3.9509 5.81028 3.44519 7.06248 3.44519 8.36816V16.3682C3.44519 17.6738 3.9509 18.926 4.85108 19.8493C5.75125 20.7726 6.97215 21.2912 8.24519 21.2912H16.0452C16.6755 21.2912 17.2997 21.1639 17.8821 20.9165C18.4644 20.6691 18.9936 20.3065 19.4393 19.8493C19.885 19.3922 20.2386 18.8494 20.4798 18.2521C20.721 17.6548 20.8452 17.0147 20.8452 16.3682V8.36816C20.8452 7.06248 20.3395 5.81028 19.4393 4.88702C18.5391 3.96377 17.3182 3.44509 16.0452 3.44509H8.24519ZM12.1452 16.6759C13.2591 16.6759 14.3274 16.222 15.115 15.4142C15.9027 14.6063 16.3452 13.5106 16.3452 12.3682C16.3452 11.2257 15.9027 10.13 15.115 9.32217C14.3274 8.51432 13.2591 8.06047 12.1452 8.06047C11.0313 8.06047 9.963 8.51432 9.17534 9.32217C8.38769 10.13 7.94519 11.2257 7.94519 12.3682C7.94519 13.5106 8.38769 14.6063 9.17534 15.4142C9.963 16.222 11.0313 16.6759 12.1452 16.6759ZM12.1452 14.8297C11.5087 14.8297 10.8982 14.5704 10.4481 14.1087C9.99805 13.6471 9.74519 13.021 9.74519 12.3682C9.74519 11.7153 9.99805 11.0892 10.4481 10.6276C10.8982 10.166 11.5087 9.90662 12.1452 9.90662C12.7817 9.90662 13.3922 10.166 13.8422 10.6276C14.2923 11.0892 14.5452 11.7153 14.5452 12.3682C14.5452 13.021 14.2923 13.6471 13.8422 14.1087C13.3922 14.5704 12.7817 14.8297 12.1452 14.8297ZM16.6452 8.98355C16.9635 8.98355 17.2687 8.85388 17.4937 8.62306C17.7188 8.39225 17.8452 8.0792 17.8452 7.75278C17.8452 7.42636 17.7188 7.11331 17.4937 6.88249C17.2687 6.65168 16.9635 6.52201 16.6452 6.52201C16.3269 6.52201 16.0217 6.65168 15.7967 6.88249C15.5716 7.11331 15.4452 7.42636 15.4452 7.75278C15.4452 8.0792 15.5716 8.39225 15.7967 8.62306C16.0217 8.85388 16.3269 8.98355 16.6452 8.98355Z" fill="white"/>
</g>
<defs>
<clipPath id="clip0_130_1593">
<rect width="24" height="24" fill="white" transform="translate(0 0.368164)"/>
</clipPath>
</defs>
</svg>
