<svg width="160" height="49" viewBox="0 0 160 49" fill="none" xmlns="http://www.w3.org/2000/svg">
<path d="M34.0201 0.5H40.653L14.9774 21.468L2.1396 5.90414H7.48867L15.8332 15.4154L34.0201 0.5Z" fill="#002D72"/>
<path d="M48.5291 34.0262L48.6057 40.7269L27.5563 15.0308L42.8124 1.88205L42.8741 7.28583L33.5567 15.8255L48.5291 34.0262Z" fill="#002D72"/>
<path d="M0.0756051 14.36L0 7.65933L21.0457 33.3524L5.78771 46.5034L5.72674 41.0996L15.0454 32.5586L0.0756051 14.36Z" fill="#002D72"/>
<path d="M14.7503 47.4171L8.12122 47.1918L34.48 27.1077L46.7926 43.0989L41.4466 42.9172L33.4233 33.1279L14.7503 47.4171Z" fill="#002D72"/>
<path d="M65.4581 19.617V30.8458H63.3962V19.617H65.4581ZM70.3376 24.5296V26.0643H64.9324V24.5296H70.3376ZM71.0194 19.617V21.1594H64.9324V19.617H71.0194Z" fill="#002D72"/>
<path d="M74.5845 22.5013V30.8458H72.5966V22.5013H74.5845ZM72.4652 20.3111C72.4652 20.0283 72.5637 19.7943 72.7609 19.6093C72.9635 19.419 73.2428 19.3239 73.5988 19.3239C73.9493 19.3239 74.2258 19.419 74.4285 19.6093C74.6311 19.7943 74.7324 20.0283 74.7324 20.3111C74.7324 20.5887 74.6311 20.8201 74.4285 21.0051C74.2258 21.1902 73.9493 21.2828 73.5988 21.2828C73.2428 21.2828 72.9635 21.1902 72.7609 21.0051C72.5637 20.8201 72.4652 20.5887 72.4652 20.3111Z" fill="#002D72"/>
<path d="M80.6716 31C80.0144 31 79.4202 30.8997 78.889 30.6992C78.3633 30.4936 77.9142 30.2082 77.5418 29.8432C77.1749 29.4781 76.8928 29.0488 76.6957 28.5553C76.4985 28.0617 76.4 27.5296 76.4 26.9589V26.6504C76.4 25.9974 76.5013 25.4062 76.7039 24.8766C76.9065 24.347 77.1886 23.8946 77.55 23.5193C77.9115 23.1388 78.3386 22.8483 78.8315 22.6478C79.3244 22.4473 79.8583 22.347 80.4333 22.347C81.0686 22.347 81.6245 22.4473 82.1009 22.6478C82.5773 22.8483 82.9716 23.1311 83.2838 23.4961C83.6014 23.856 83.8369 24.2853 83.9903 24.7841C84.1491 25.2828 84.2285 25.8329 84.2285 26.4344V27.2288H77.3611V25.8946H82.2734V25.7481C82.2625 25.4139 82.1913 25.1003 82.0598 24.8072C81.9339 24.5141 81.7395 24.2776 81.4766 24.0977C81.2137 23.9177 80.8632 23.8278 80.4251 23.8278C80.0965 23.8278 79.8035 23.8946 79.5462 24.0283C79.2942 24.1568 79.0834 24.3445 78.9136 24.5913C78.7439 24.838 78.6124 25.1362 78.5193 25.4859C78.4317 25.8303 78.3879 26.2185 78.3879 26.6504V26.9589C78.3879 27.3239 78.4399 27.6632 78.544 27.9769C78.6535 28.2853 78.8123 28.5553 79.0204 28.7866C79.2285 29.018 79.4804 29.2005 79.7762 29.3342C80.0719 29.4627 80.4087 29.527 80.7866 29.527C81.263 29.527 81.6874 29.437 82.0598 29.2571C82.4322 29.0771 82.7553 28.8226 83.0292 28.4936L84.0724 29.4422C83.8807 29.7044 83.6316 29.9563 83.3249 30.1979C83.0182 30.4344 82.6431 30.6272 82.1995 30.7764C81.7614 30.9254 81.2521 31 80.6716 31Z" fill="#002D72"/>
<path d="M87.8922 19V30.8458H85.9043V19H87.8922Z" fill="#002D72"/>
<path d="M95.4825 29.1183V19H97.4704V30.8458H95.6714L95.4825 29.1183ZM89.6994 26.7661V26.6041C89.6994 25.9717 89.7788 25.3959 89.9376 24.8766C90.0965 24.3522 90.3265 23.9023 90.6277 23.527C90.9289 23.1465 91.2958 22.856 91.7284 22.6555C92.1611 22.4499 92.6485 22.347 93.1906 22.347C93.7273 22.347 94.1983 22.4447 94.6035 22.6401C95.0088 22.8355 95.3538 23.1157 95.6386 23.4807C95.9233 23.8406 96.1506 24.2725 96.3204 24.7763C96.4902 25.2751 96.6106 25.8303 96.6818 26.4422V26.9589C96.6106 27.5553 96.4902 28.1003 96.3204 28.5938C96.1506 29.0874 95.9233 29.5141 95.6386 29.874C95.3538 30.2339 95.006 30.5116 94.5953 30.7069C94.1901 30.9023 93.7164 31 93.1742 31C92.6375 31 92.1528 30.8946 91.7202 30.6838C91.293 30.473 90.9289 30.1774 90.6277 29.7969C90.3265 29.4165 90.0965 28.9692 89.9376 28.455C89.7788 27.9357 89.6994 27.3728 89.6994 26.7661ZM91.6791 26.6041V26.7661C91.6791 27.1465 91.7147 27.5013 91.7859 27.8303C91.8626 28.1594 91.9803 28.4499 92.1391 28.7018C92.298 28.9486 92.5033 29.144 92.7552 29.2879C93.0126 29.4267 93.3193 29.4961 93.6753 29.4961C94.1243 29.4961 94.494 29.4036 94.7843 29.2185C95.0745 29.0334 95.3018 28.7841 95.4661 28.4704C95.6358 28.1517 95.7508 27.7969 95.8111 27.4062V26.0103C95.7782 25.7069 95.7098 25.4242 95.6057 25.162C95.5071 24.8997 95.373 24.671 95.2032 24.4756C95.0334 24.2751 94.8226 24.1208 94.5707 24.0129C94.3242 23.8997 94.0312 23.8432 93.6917 23.8432C93.3303 23.8432 93.0236 23.9152 92.7717 24.0591C92.5198 24.2031 92.3117 24.401 92.1474 24.653C91.9885 24.9049 91.8708 25.1979 91.7941 25.5321C91.7175 25.8663 91.6791 26.2237 91.6791 26.6041Z" fill="#002D72"/>
<path d="M101.8 19.617V30.8458H99.7377V19.617H101.8ZM106.679 24.5296V26.0643H101.274V24.5296H106.679ZM107.361 19.617V21.1594H101.274V19.617H107.361Z" fill="#002D72"/>
<path d="M108.248 26.7661V26.5887C108.248 25.9871 108.341 25.4293 108.527 24.9152C108.713 24.3959 108.982 23.946 109.332 23.5656C109.688 23.1799 110.121 22.8817 110.63 22.671C111.145 22.455 111.726 22.347 112.372 22.347C113.023 22.347 113.604 22.455 114.113 22.671C114.628 22.8817 115.063 23.1799 115.419 23.5656C115.775 23.946 116.046 24.3959 116.233 24.9152C116.419 25.4293 116.512 25.9871 116.512 26.5887V26.7661C116.512 27.3676 116.419 27.9254 116.233 28.4396C116.046 28.9537 115.775 29.4036 115.419 29.7892C115.063 30.1697 114.631 30.4679 114.121 30.6838C113.612 30.8946 113.034 31 112.388 31C111.736 31 111.153 30.8946 110.638 30.6838C110.129 30.4679 109.697 30.1697 109.341 29.7892C108.985 29.4036 108.713 28.9537 108.527 28.4396C108.341 27.9254 108.248 27.3676 108.248 26.7661ZM110.228 26.5887V26.7661C110.228 27.1414 110.269 27.4961 110.351 27.8303C110.433 28.1645 110.562 28.4576 110.737 28.7095C110.912 28.9614 111.137 29.1594 111.411 29.3033C111.684 29.4473 112.01 29.5193 112.388 29.5193C112.755 29.5193 113.073 29.4473 113.341 29.3033C113.615 29.1594 113.839 28.9614 114.015 28.7095C114.19 28.4576 114.319 28.1645 114.401 27.8303C114.488 27.4961 114.532 27.1414 114.532 26.7661V26.5887C114.532 26.2185 114.488 25.8689 114.401 25.5398C114.319 25.2057 114.187 24.91 114.006 24.653C113.831 24.3959 113.607 24.1954 113.333 24.0514C113.064 23.9023 112.744 23.8278 112.372 23.8278C111.999 23.8278 111.676 23.9023 111.402 24.0514C111.134 24.1954 110.912 24.3959 110.737 24.653C110.562 24.91 110.433 25.2057 110.351 25.5398C110.269 25.8689 110.228 26.2185 110.228 26.5887Z" fill="#002D72"/>
<path d="M120.159 24.09V30.8458H118.179V22.5013H120.069L120.159 24.09ZM122.878 22.4473L122.862 24.1748C122.741 24.1542 122.61 24.1388 122.467 24.1285C122.331 24.1183 122.194 24.1131 122.057 24.1131C121.717 24.1131 121.419 24.1594 121.161 24.2519C120.904 24.3393 120.688 24.4679 120.512 24.6375C120.343 24.8021 120.211 25.0026 120.118 25.2391C120.025 25.4756 119.97 25.7404 119.954 26.0334L119.502 26.0643C119.502 25.5398 119.557 25.054 119.666 24.6067C119.776 24.1594 119.94 23.7661 120.159 23.4267C120.384 23.0874 120.663 22.8226 120.997 22.6324C121.337 22.4422 121.728 22.347 122.172 22.347C122.292 22.347 122.421 22.3573 122.558 22.3779C122.7 22.3985 122.807 22.4216 122.878 22.4473Z" fill="#002D72"/>
<path d="M127.585 29.5193C127.908 29.5193 128.199 29.4602 128.456 29.3419C128.719 29.2185 128.93 29.0488 129.088 28.8329C129.253 28.617 129.343 28.3676 129.36 28.0848H131.224C131.213 28.6247 131.044 29.1157 130.715 29.5578C130.386 30 129.951 30.3522 129.409 30.6144C128.867 30.8715 128.267 31 127.61 31C126.931 31 126.339 30.892 125.835 30.6761C125.332 30.455 124.913 30.1517 124.579 29.7661C124.245 29.3805 123.993 28.9357 123.823 28.4319C123.659 27.928 123.576 27.3882 123.576 26.8123V26.5424C123.576 25.9666 123.659 25.4267 123.823 24.9229C123.993 24.4139 124.245 23.9666 124.579 23.581C124.913 23.1954 125.332 22.8946 125.835 22.6787C126.339 22.4576 126.928 22.347 127.602 22.347C128.314 22.347 128.938 22.4807 129.475 22.7481C130.011 23.0103 130.433 23.3779 130.74 23.8509C131.052 24.3188 131.213 24.8638 131.224 25.4859H129.36C129.343 25.1774 129.261 24.8997 129.113 24.653C128.971 24.401 128.768 24.2005 128.505 24.0514C128.248 23.9023 127.938 23.8278 127.577 23.8278C127.177 23.8278 126.846 23.9049 126.583 24.0591C126.32 24.2082 126.115 24.4139 125.967 24.6761C125.819 24.9332 125.712 25.2237 125.647 25.5476C125.586 25.8663 125.556 26.1979 125.556 26.5424V26.8123C125.556 27.1568 125.586 27.491 125.647 27.8149C125.707 28.1388 125.811 28.4293 125.959 28.6864C126.112 28.9383 126.32 29.1414 126.583 29.2956C126.846 29.4447 127.18 29.5193 127.585 29.5193Z" fill="#002D72"/>
<path d="M136.662 31C136.005 31 135.411 30.8997 134.88 30.6992C134.354 30.4936 133.905 30.2082 133.533 29.8432C133.166 29.4781 132.884 29.0488 132.686 28.5553C132.489 28.0617 132.391 27.5296 132.391 26.9589V26.6504C132.391 25.9974 132.492 25.4062 132.695 24.8766C132.897 24.347 133.179 23.8946 133.541 23.5193C133.902 23.1388 134.329 22.8483 134.822 22.6478C135.315 22.4473 135.849 22.347 136.424 22.347C137.059 22.347 137.615 22.4473 138.092 22.6478C138.568 22.8483 138.962 23.1311 139.275 23.4961C139.592 23.856 139.828 24.2853 139.981 24.7841C140.14 25.2828 140.219 25.8329 140.219 26.4344V27.2288H133.352V25.8946H138.264V25.7481C138.253 25.4139 138.182 25.1003 138.051 24.8072C137.925 24.5141 137.73 24.2776 137.467 24.0977C137.204 23.9177 136.854 23.8278 136.416 23.8278C136.087 23.8278 135.794 23.8946 135.537 24.0283C135.285 24.1568 135.074 24.3445 134.904 24.5913C134.735 24.838 134.603 25.1362 134.51 25.4859C134.422 25.8303 134.379 26.2185 134.379 26.6504V26.9589C134.379 27.3239 134.431 27.6632 134.535 27.9769C134.644 28.2853 134.803 28.5553 135.011 28.7866C135.219 29.018 135.471 29.2005 135.767 29.3342C136.063 29.4627 136.399 29.527 136.777 29.527C137.254 29.527 137.678 29.437 138.051 29.2571C138.423 29.0771 138.746 28.8226 139.02 28.4936L140.063 29.4422C139.871 29.7044 139.622 29.9563 139.316 30.1979C139.009 30.4344 138.634 30.6272 138.19 30.7764C137.752 30.9254 137.243 31 136.662 31Z" fill="#002D72"/>
<path d="M141.846 29.9203C141.846 29.6324 141.95 29.3907 142.158 29.1954C142.366 28.9949 142.648 28.8946 143.004 28.8946C143.365 28.8946 143.647 28.9949 143.85 29.1954C144.058 29.3907 144.162 29.6324 144.162 29.9203C144.162 30.2082 144.058 30.4499 143.85 30.6452C143.647 30.8406 143.365 30.9383 143.004 30.9383C142.648 30.9383 142.366 30.8406 142.158 30.6452C141.95 30.4499 141.846 30.2082 141.846 29.9203Z" fill="#002D72"/>
<path d="M151.301 21.1131L147.727 30.8458H145.567L150.069 19.617H151.449L151.301 21.1131ZM154.291 30.8458L150.709 21.1131L150.553 19.617H151.941L156.46 30.8458H154.291ZM154.118 26.6812V28.2159H147.612V26.6812H154.118Z" fill="#002D72"/>
<path d="M160 19.617V30.8458H157.938V19.617H160Z" fill="#002D72"/>
</svg>
