<svg width="24" height="25" viewBox="0 0 24 25" fill="none" xmlns="http://www.w3.org/2000/svg">
<g clip-path="url(#clip0_130_1591)">
<path fill-rule="evenodd" clip-rule="evenodd" d="M20.9239 0.368164H3.07595C1.3859 0.368164 0 1.75411 0 3.44421V21.2921C0 22.9823 1.3859 24.3682 3.07595 24.3682H20.9239C22.614 24.3682 24 22.9823 24 21.2921V3.44421C24 1.75411 22.614 0.368164 20.9239 0.368164ZM18.3705 9.15181C18.3761 9.29149 18.3789 9.43127 18.3789 9.57106C18.3789 10.2136 18.303 10.8705 18.1558 11.5228C17.3229 15.2157 14.1658 18.7743 9.02855 18.7743C7.17385 18.7743 5.4461 18.2392 3.9902 17.3208C4.25086 17.3514 4.5131 17.3667 4.77555 17.3665C6.315 17.3665 7.73155 16.8501 8.8566 15.981C7.4185 15.9557 6.2058 15.0202 5.78705 13.7352C5.98815 13.7729 6.19365 13.7944 6.40475 13.7944C6.70635 13.7944 6.99515 13.7539 7.2721 13.6803C6.165 13.4596 5.2687 12.6938 4.8677 11.679C4.7235 11.3159 4.64995 10.9213 4.64995 10.5068V10.4661C5.09995 10.7088 5.5934 10.8544 6.1312 10.8714C5.25025 10.291 4.66575 9.30041 4.66575 8.17901C4.66575 7.58631 4.82675 7.03046 5.1086 6.55226C6.729 8.50941 9.14935 9.79781 11.8805 9.93316C11.8245 9.69138 11.7962 9.44403 11.7961 9.19586C11.7961 7.40941 13.2668 5.96091 15.0819 5.96091C16.0275 5.96091 16.8812 6.35296 17.4791 6.98196C18.2146 6.84018 18.9207 6.57436 19.5671 6.19586C19.3206 6.95236 18.801 7.58631 18.1219 7.98641C18.7872 7.90826 19.4197 7.73486 20.0088 7.47811C19.5696 8.12631 19.0114 8.69616 18.3705 9.15181Z" fill="white"/>
</g>
<defs>
<clipPath id="clip0_130_1591">
<rect width="24" height="24" fill="white" transform="translate(0 0.368164)"/>
</clipPath>
</defs>
</svg>
