<svg width="64" height="65" viewBox="0 0 64 65" fill="none" xmlns="http://www.w3.org/2000/svg">
<g clip-path="url(#clip0_133_2774)">
<path d="M27.6125 28.1679L24.125 32.4929H17.5875C11.9125 32.4929 6.525 35.0054 2.875 39.3679V48.6179H55.875V18.2429H48.375C40.3125 18.2429 32.6875 21.8929 27.6125 28.1679Z" fill="#68A1D6"/>
<path d="M17.5875 32.4929C15 32.4929 12.4875 32.9929 10.15 33.9929H55.875V32.4929H24.125H17.5875Z" fill="#9AD2FC"/>
<path d="M15.625 56.6179C19.9742 56.6179 23.5 53.0922 23.5 48.7429C23.5 44.3937 19.9742 40.8679 15.625 40.8679C11.2758 40.8679 7.75 44.3937 7.75 48.7429C7.75 53.0922 11.2758 56.6179 15.625 56.6179Z" fill="#323D2C"/>
<path d="M14.85 40.9055C11.125 41.268 8.15001 44.243 7.78751 47.968C8.67501 48.7555 9.83751 49.243 11.125 49.243C13.8875 49.243 16.125 47.0055 16.125 44.243C16.125 42.9555 15.6375 41.793 14.85 40.9055Z" fill="#485143"/>
<path d="M15.625 52.7429C17.8341 52.7429 19.625 50.9521 19.625 48.7429C19.625 46.5338 17.8341 44.7429 15.625 44.7429C13.4159 44.7429 11.625 46.5338 11.625 48.7429C11.625 50.9521 13.4159 52.7429 15.625 52.7429Z" fill="#1C2617"/>
<path d="M7.75 45.4929H0.625V51.9929H7.75V45.4929Z" fill="#9AD2FC"/>
<path d="M7.75 47.6179H0.625V51.9929H7.75V47.6179Z" fill="#3179AF"/>
<path d="M48.375 45.4929H23.5V51.9929H48.375V45.4929Z" fill="#9AD2FC"/>
<path d="M48.375 47.6179H23.5V51.9929H48.375V47.6179Z" fill="#3179AF"/>
<path d="M52.75 21.3679H46.475C40.75 21.3679 35.325 23.9304 31.6875 28.3429L28.25 32.4929H52.75V21.3679Z" fill="#323D2C"/>
<path d="M50.9375 21.3679H44.8125L32.5625 32.4929H38.6875L50.9375 21.3679Z" fill="#485143"/>
<path d="M34.125 29.2429H29.875C28.975 29.2429 28.25 29.9679 28.25 30.8679V32.4929H34.125C35.025 32.4929 35.75 31.7679 35.75 30.8679C35.75 29.9679 35.025 29.2429 34.125 29.2429Z" fill="#3179AF"/>
<path d="M34.125 29.2429H31.4375C30.9875 29.2429 30.625 29.6054 30.625 30.0554C30.625 30.5054 30.9875 30.8679 31.4375 30.8679H35.75C35.75 29.9679 35.025 29.2429 34.125 29.2429Z" fill="#68A1D6"/>
<path d="M10.375 36.3679H9.3C6.825 36.3679 4.475 37.4679 2.875 39.3679H7.375C9.0375 39.3679 10.375 38.0304 10.375 36.3679Z" fill="#F8D707"/>
<path d="M49.875 48.6179V44.8679H47.775C47.575 43.9929 47.25 43.2679 46.825 42.5679L48.3125 41.0804L45.6625 38.4304L44.175 39.9179C43.475 39.4929 42.7 39.1679 41.875 38.9679V36.8679H38.125V38.9679C37.3 39.1679 36.525 39.4929 35.825 39.9179L34.3375 38.4304L31.6875 41.0804L33.175 42.5679C32.75 43.2679 32.425 43.9929 32.225 44.8679H30.125V48.6179H32.225C32.425 49.4929 32.75 50.2179 33.175 50.9179L31.6875 52.4054L34.3375 55.0554L35.825 53.5679C36.525 53.9929 37.3 54.3179 38.125 54.5179V56.6179H41.875V54.5179C42.7 54.3179 43.475 53.9929 44.175 53.5679L45.6625 55.0554L48.3125 52.4054L46.825 50.9179C47.25 50.2179 47.575 49.4929 47.775 48.6179H49.875ZM40 51.1179C37.5875 51.1179 35.625 49.1554 35.625 46.7429C35.625 44.3304 37.5875 42.3679 40 42.3679C42.4125 42.3679 44.375 44.3304 44.375 46.7429C44.375 49.1554 42.4125 51.1179 40 51.1179Z" fill="#C4C1AB"/>
<path d="M63.375 19.0304V11.3554L59 9.11792V14.5429L55.875 16.1429L52.75 14.5429V9.11792L48.375 11.3554V19.0304L52.75 21.2679V44.4679L48.375 46.7054V54.3804L52.75 56.6179V51.1929L55.875 49.5929L59 51.1929V56.6179L63.375 54.3804V46.7054L59 44.4679V21.2679L63.375 19.0304Z" fill="#F8D707"/>
<path d="M53.75 49.6179L50.625 51.1929V55.5304L52.75 56.6179V51.1929L55.875 49.6179H53.75Z" fill="#FFFA5A"/>
<path d="M50.625 10.2054V14.5429L53.75 16.1179H55.875L52.75 14.5429V9.11792L50.625 10.2054Z" fill="#FFFA5A"/>
<path d="M63.375 19.0303V11.3553L61.25 10.2678V19.0303L56.875 21.2678V44.4678L61.25 46.7053V55.4678L63.375 54.3803V46.7053L59 44.4678V21.2678L63.375 19.0303Z" fill="#FFFA5A"/>
<path d="M39.725 42.3803C39.825 41.9553 39.875 41.5178 39.875 41.0553C39.875 39.4428 39.2 37.9928 38.125 36.9553V38.9678C37.3 39.1678 36.525 39.4928 35.825 39.9178L34.3375 38.4303L31.6875 41.0803L33.175 42.5678C32.75 43.2678 32.425 43.9928 32.225 44.8678H30.125V45.0303C31.1625 46.0803 32.6 46.7428 34.1875 46.7428C34.6875 46.7428 35.175 46.6803 35.625 46.5553C35.725 44.3178 37.5 42.5178 39.725 42.3803Z" fill="#EBEADF"/>
<path d="M15.625 57.2429C10.9375 57.2429 7.125 53.4304 7.125 48.7429C7.125 44.0554 10.9375 40.2429 15.625 40.2429C20.3125 40.2429 24.125 44.0554 24.125 48.7429C24.125 53.4304 20.3125 57.2429 15.625 57.2429ZM15.625 41.4929C11.625 41.4929 8.375 44.7429 8.375 48.7429C8.375 52.7429 11.625 55.9929 15.625 55.9929C19.625 55.9929 22.875 52.7429 22.875 48.7429C22.875 44.7429 19.625 41.4929 15.625 41.4929Z" fill="#060D1A"/>
<path d="M15.625 53.3679C13.075 53.3679 11 51.2929 11 48.7429C11 46.1929 13.075 44.1179 15.625 44.1179C18.175 44.1179 20.25 46.1929 20.25 48.7429C20.25 51.2929 18.175 53.3679 15.625 53.3679ZM15.625 45.3679C13.7625 45.3679 12.25 46.8804 12.25 48.7429C12.25 50.6054 13.7625 52.1179 15.625 52.1179C17.4875 52.1179 19 50.6054 19 48.7429C19 46.8804 17.4875 45.3679 15.625 45.3679ZM7.75 52.6179H0.625C0.275 52.6179 0 52.3429 0 51.9929V45.4929C0 45.1429 0.275 44.8679 0.625 44.8679H7.75C8.1 44.8679 8.375 45.1429 8.375 45.4929V51.9929C8.375 52.3429 8.1 52.6179 7.75 52.6179ZM1.25 51.3679H7.125V46.1179H1.25V51.3679Z" fill="#060D1A"/>
<path d="M3.5 45.493H2.25V39.368C2.25 39.218 2.3 39.0805 2.4 38.968C6.175 34.4555 11.7 31.868 17.5875 31.868H23.825L27.125 27.768C29.6625 24.618 32.9375 22.0305 36.6 20.2805C40.25 18.5305 44.325 17.6055 48.375 17.6055V18.8555C40.4625 18.8555 33.075 22.393 28.1 28.543L24.6125 32.868C24.5 33.018 24.3125 33.1055 24.125 33.1055H17.5875C12.15 33.1055 7.025 35.468 3.5 39.5805V45.493Z" fill="#060D1A"/>
<path d="M34.125 33.1179H28.25C27.9 33.1179 27.625 32.8429 27.625 32.4929V30.8679C27.625 29.6304 28.6375 28.6179 29.875 28.6179H34.125C35.3625 28.6179 36.375 29.6304 36.375 30.8679C36.375 32.1054 35.3625 33.1179 34.125 33.1179ZM28.875 31.8679H34.125C34.675 31.8679 35.125 31.4179 35.125 30.8679C35.125 30.3179 34.675 29.8679 34.125 29.8679H29.875C29.325 29.8679 28.875 30.3179 28.875 30.8679V31.8679ZM7.375 39.9929H2.875C2.6375 39.9929 2.4125 39.8554 2.3125 39.6304C2.2125 39.4054 2.2375 39.1554 2.4 38.9679C4.1125 36.9179 6.625 35.7429 9.3 35.7429H10.375C10.725 35.7429 11 36.0179 11 36.3679C11 38.3679 9.375 39.9929 7.375 39.9929ZM4.3875 38.7429H7.375C8.4625 38.7429 9.3875 38.0054 9.6625 36.9929H9.2875C7.4875 36.9929 5.7625 37.6179 4.3875 38.7429Z" fill="#060D1A"/>
<path d="M59 57.2429C58.8875 57.2429 58.775 57.2179 58.675 57.1554C58.4875 57.0429 58.375 56.8429 58.375 56.6179V51.5804L55.875 50.3054L53.375 51.5804V56.6179C53.375 56.8304 53.2625 57.0429 53.075 57.1554C52.8875 57.2679 52.6625 57.2804 52.4625 57.1804L49.175 55.4929L49.75 54.3804L52.1375 55.6054V51.2054C52.1375 50.9679 52.275 50.7554 52.475 50.6429L55.6 49.0429C55.775 48.9554 55.9875 48.9554 56.175 49.0429L59.3 50.6429C59.5125 50.7554 59.6375 50.9679 59.6375 51.2054V55.6054L62.7625 54.0054V47.0929L58.725 45.0304C58.5125 44.9179 58.3875 44.7054 58.3875 44.4679V21.2679C58.3875 21.0304 58.525 20.8179 58.725 20.7054L62.7625 18.6429V11.7429L59.6375 10.1429V14.5429C59.6375 14.7804 59.5 14.9929 59.3 15.1054L56.175 16.7054C56 16.7929 55.7875 16.7929 55.6 16.7054L52.475 15.1054C52.2625 14.9929 52.1375 14.7804 52.1375 14.5429V10.1429L49 11.7429V18.6554L53.0375 20.7179C53.25 20.8304 53.375 21.0429 53.375 21.2804V44.4804C53.375 44.7179 53.2375 44.9304 53.0375 45.0429L49 47.0929V48.6179C49 48.9679 48.725 49.2429 48.375 49.2429H48.25C48.0875 49.7929 47.8625 50.3179 47.6 50.8179L48.75 51.9679C48.8625 52.0804 48.9375 52.2429 48.9375 52.4054C48.9375 52.5679 48.875 52.7304 48.75 52.8429L46.1 55.4929C45.85 55.7429 45.4625 55.7429 45.2125 55.4929L44.0625 54.3429C43.5625 54.6054 43.0375 54.8304 42.4875 54.9929V56.6179C42.4875 56.9679 42.2125 57.2429 41.8625 57.2429H38.1125C37.7625 57.2429 37.4875 56.9679 37.4875 56.6179V54.9929C36.9375 54.8304 36.4125 54.6054 35.9125 54.3429L34.7625 55.4929C34.5125 55.7429 34.125 55.7429 33.875 55.4929L31.25 52.8429C31 52.5929 31 52.2054 31.25 51.9554L32.4 50.8054C32.1375 50.3054 31.9125 49.7804 31.75 49.2304H30.125C29.775 49.2304 29.5 48.9554 29.5 48.6054V44.8554C29.5 44.5054 29.775 44.2304 30.125 44.2304H31.75C31.9125 43.6804 32.1375 43.1554 32.4 42.6554L31.25 41.5054C31 41.2554 31 40.8679 31.25 40.6179L33.9 37.9679C34.15 37.7179 34.5375 37.7179 34.7875 37.9679L35.9375 39.1179C36.4375 38.8554 36.9625 38.6304 37.5125 38.4679V36.8429C37.5125 36.4929 37.7875 36.2179 38.1375 36.2179H41.8875C42.2375 36.2179 42.5125 36.4929 42.5125 36.8429V38.4679C43.0625 38.6304 43.5875 38.8554 44.0875 39.1179L45.2375 37.9679C45.4875 37.7179 45.875 37.7179 46.125 37.9679L48.775 40.6179C48.8875 40.7304 48.9625 40.8929 48.9625 41.0554C48.9625 41.2179 48.9 41.3804 48.775 41.4929L47.625 42.6429C47.8875 43.1429 48.1125 43.6679 48.275 44.2179H49.9C50.25 44.2179 50.525 44.4929 50.525 44.8429V44.8929L52.15 44.0554V21.6554L48.1125 19.5929C47.9 19.4804 47.775 19.2679 47.775 19.0304V11.3554C47.775 11.1179 47.9125 10.9054 48.1125 10.7929L52.4875 8.55536C52.675 8.45536 52.9125 8.46786 53.1 8.58036C53.2875 8.69286 53.4 8.89286 53.4 9.11786V14.1554L55.9 15.4304L58.4 14.1554V9.11786C58.4 8.90536 58.5125 8.69286 58.7 8.58036C58.8875 8.46786 59.1125 8.45536 59.3125 8.55536L63.6875 10.7929C63.9 10.9054 64.025 11.1179 64.025 11.3554V19.0304C64.025 19.2679 63.8875 19.4804 63.6875 19.5929L59.625 21.6554V44.0929L63.6625 46.1554C63.875 46.2679 64 46.4804 64 46.7179V54.3929C64 54.6304 63.8625 54.8429 63.6625 54.9554L59.2875 57.1929C59.2 57.2179 59.1 57.2429 59 57.2429ZM38.75 55.9929H41.25V54.5179C41.25 54.2304 41.45 53.9804 41.725 53.9054C42.475 53.7304 43.1875 53.4304 43.8375 53.0304C44.0875 52.8804 44.4 52.9179 44.6 53.1179L45.6375 54.1554L47.4 52.3929L46.3625 51.3554C46.1625 51.1554 46.125 50.8304 46.275 50.5929C46.675 49.9429 46.975 49.2304 47.15 48.4804C47.2125 48.2054 47.45 48.0179 47.725 48.0054V46.7179C47.725 46.4804 47.8625 46.2679 48.0625 46.1554L49.225 45.5679V45.4929H47.75C47.4625 45.4929 47.2125 45.2929 47.1375 45.0179C46.9625 44.2679 46.6625 43.5554 46.2625 42.9054C46.1125 42.6554 46.15 42.3429 46.35 42.1429L47.3875 41.1054L45.625 39.3429L44.5875 40.3804C44.3875 40.5804 44.0625 40.6179 43.825 40.4679C43.175 40.0679 42.4625 39.7679 41.7125 39.5929C41.4375 39.5304 41.2375 39.2804 41.2375 38.9804V37.4929H38.7375V38.9679C38.7375 39.2554 38.5375 39.5054 38.2625 39.5804C37.5125 39.7554 36.8 40.0554 36.15 40.4554C35.9 40.6054 35.5875 40.5679 35.3875 40.3679L34.35 39.3304L32.5875 41.0929L33.625 42.1304C33.825 42.3304 33.8625 42.6554 33.7125 42.8929C33.3125 43.5429 33.0125 44.2554 32.8375 45.0054C32.775 45.2804 32.5125 45.4804 32.225 45.4804H30.75V47.9804H32.225C32.5125 47.9804 32.7625 48.1804 32.8375 48.4554C33.0125 49.2054 33.3125 49.9179 33.7125 50.5679C33.8625 50.8179 33.825 51.1304 33.625 51.3304L32.5875 52.3679L34.35 54.1304L35.3875 53.0929C35.5875 52.8929 35.9125 52.8554 36.15 53.0054C36.8 53.4054 37.5125 53.7054 38.2625 53.8804C38.5375 53.9429 38.7375 54.1929 38.7375 54.4929V55.9929H38.75ZM40 51.7429C37.2375 51.7429 35 49.5054 35 46.7429C35 43.9804 37.2375 41.7429 40 41.7429C42.7625 41.7429 45 43.9804 45 46.7429C45 49.5054 42.7625 51.7429 40 51.7429ZM40 42.9929C37.9375 42.9929 36.25 44.6804 36.25 46.7429C36.25 48.8054 37.9375 50.4929 40 50.4929C42.0625 50.4929 43.75 48.8054 43.75 46.7429C43.75 44.6804 42.0625 42.9929 40 42.9929Z" fill="#060D1A"/>
<path d="M31.4125 29.6429L30.45 28.8429L31.2 27.9429C34.975 23.3679 40.5375 20.7429 46.475 20.7429H52.75V21.9929H46.475C40.9125 21.9929 35.7 24.4554 32.1625 28.7429L31.4125 29.6429Z" fill="#060D1A"/>
<path d="M50.25 31.8679H28.25V33.1179H50.25V31.8679Z" fill="#060D1A"/>
<path d="M32.1 52.6179H23.5C23.15 52.6179 22.875 52.3429 22.875 51.9929V45.4929C22.875 45.1429 23.15 44.8679 23.5 44.8679H30.125V46.1179H24.125V51.3679H32.1V52.6179Z" fill="#060D1A"/>
<path d="M44.2 44.8679H35.8125V46.1179H44.2V44.8679Z" fill="#060D1A"/>
</g>
<defs>
<clipPath id="clip0_133_2774">
<rect width="64" height="64" fill="white" transform="translate(0 0.86792)"/>
</clipPath>
</defs>
</svg>
