<svg width="64" height="65" viewBox="0 0 64 65" fill="none" xmlns="http://www.w3.org/2000/svg">
<g clip-path="url(#clip0_133_2805)">
<path d="M55.6374 24.2039H8.37125V58.9101H55.6374V24.2039Z" fill="#FEDD8E"/>
<path d="M63.4999 61.6399H0.5V64.368H63.4999V61.6399Z" fill="#A8B2B4"/>
<path d="M3.74463 61.6382H0.499626V64.3682H3.74463V61.6382Z" fill="#D3D9D9"/>
<path d="M63.4996 61.6382H60.2546V64.3682H63.4996V61.6382Z" fill="#7C8B8E"/>
<path d="M61.4081 58.9116H2.59175V61.6397H61.4081V58.9116Z" fill="#D3D9D9"/>
<path d="M5.80475 58.9133H2.58962V61.6383H5.80475V58.9133Z" fill="#EDEDED"/>
<path d="M61.4098 58.9133H58.1946V61.6383H61.4098V58.9133Z" fill="#A8B2B4"/>
<path d="M63.5 24.2H0.5L32 1.36792L63.5 24.2Z" fill="#D3D9D9"/>
<path d="M32.4058 1.66253L3.61463 24.1984H0.499626L31.9996 1.36841L32.4058 1.66253Z" fill="#EDEDED"/>
<path d="M63.5 24.1984H60.385L31.5762 1.67628L32 1.36841L63.5 24.1984Z" fill="#A8B2B4"/>
<path d="M9.75088 21.2L31.9999 5.073L54.249 21.2H9.75088Z" fill="white"/>
<path d="M10.9215 26.9402H5.80375V56.1753H10.9215V26.9402Z" fill="#D3D9D9"/>
<path d="M12.4191 24.2039H4.306V26.9401H12.4191V24.2039Z" fill="#A8B2B4"/>
<path d="M12.4191 56.1755H4.306V58.9118H12.4191V56.1755Z" fill="#A8B2B4"/>
<path d="M7.2995 26.9382H5.80463V56.1732H7.2995V26.9382Z" fill="#EDEDED"/>
<path d="M6.24963 24.2034H4.30463V26.9384H6.24963V24.2034Z" fill="#D3D9D9"/>
<path d="M6.24963 56.1733H4.30463V58.9133H6.24963V56.1733Z" fill="#D3D9D9"/>
<path d="M10.9215 26.9382H9.4215V56.1732H10.9215V26.9382Z" fill="#A8B2B4"/>
<path d="M12.4191 24.2034H10.4792V26.9384H12.4191V24.2034Z" fill="#7C8B8E"/>
<path d="M12.4191 56.1733H10.4792V58.9133H12.4191V56.1733Z" fill="#7C8B8E"/>
<path d="M58.1969 26.9402H53.0791V56.1753H58.1969V26.9402Z" fill="#D3D9D9"/>
<path d="M59.6945 24.2041H51.5814V26.9404H59.6945V24.2041Z" fill="#A8B2B4"/>
<path d="M59.6945 56.1755H51.5814V58.9118H59.6945V56.1755Z" fill="#A8B2B4"/>
<path d="M54.575 26.9385H53.0801V56.1735H54.575V26.9385Z" fill="#EDEDED"/>
<path d="M53.525 24.2034H51.58V26.9384H53.525V24.2034Z" fill="#D3D9D9"/>
<path d="M53.525 56.1733H51.58V58.9133H53.525V56.1733Z" fill="#D3D9D9"/>
<path d="M58.197 26.9385H56.697V56.1735H58.197V26.9385Z" fill="#A8B2B4"/>
<path d="M59.6946 24.2034H57.7547V26.9384H59.6946V24.2034Z" fill="#7C8B8E"/>
<path d="M59.6946 56.1733H57.7547V58.9133H59.6946V56.1733Z" fill="#7C8B8E"/>
<path d="M26.68 26.9402H21.5622V56.1753H26.68V26.9402Z" fill="#D3D9D9"/>
<path d="M28.1776 24.2041H20.0645V26.9404H28.1776V24.2041Z" fill="#A8B2B4"/>
<path d="M28.1776 56.1755H20.0645V58.9118H28.1776V56.1755Z" fill="#A8B2B4"/>
<path d="M23.058 26.9385H21.5631V56.1735H23.058V26.9385Z" fill="#EDEDED"/>
<path d="M22.0082 24.2034H20.0632V26.9384H22.0082V24.2034Z" fill="#D3D9D9"/>
<path d="M22.0082 56.1733H20.0632V58.9133H22.0082V56.1733Z" fill="#D3D9D9"/>
<path d="M26.68 26.9385H25.18V56.1735H26.68V26.9385Z" fill="#A8B2B4"/>
<path d="M28.1776 24.2034H26.2377V26.9384H28.1776V24.2034Z" fill="#7C8B8E"/>
<path d="M28.1776 56.1733H26.2377V58.9133H28.1776V56.1733Z" fill="#7C8B8E"/>
<path d="M42.4384 26.9402H37.3206V56.1753H42.4384V26.9402Z" fill="#D3D9D9"/>
<path d="M43.9361 24.2041H35.823V26.9404H43.9361V24.2041Z" fill="#A8B2B4"/>
<path d="M43.9361 56.1755H35.823V58.9118H43.9361V56.1755Z" fill="#A8B2B4"/>
<path d="M38.8165 26.9385H37.3216V56.1735H38.8165V26.9385Z" fill="#EDEDED"/>
<path d="M37.7666 24.2034H35.8216V26.9384H37.7666V24.2034Z" fill="#D3D9D9"/>
<path d="M37.7666 56.1733H35.8216V58.9133H37.7666V56.1733Z" fill="#D3D9D9"/>
<path d="M42.4385 26.9385H40.9385V56.1735H42.4385V26.9385Z" fill="#A8B2B4"/>
<path d="M43.9361 24.2034H41.9962V26.9384H43.9361V24.2034Z" fill="#7C8B8E"/>
<path d="M43.9361 56.1733H41.9962V58.9133H43.9361V56.1733Z" fill="#7C8B8E"/>
<path d="M35.2956 14.6179C35.2956 16.438 33.8198 17.9139 31.9996 17.9139C30.1795 17.9139 28.7036 16.4381 28.7036 14.6179C28.7036 12.7977 30.1795 11.3179 31.9996 11.3179C33.8198 11.3177 35.2956 12.7977 35.2956 14.6179Z" fill="#FEDD8E"/>
<path d="M35.2946 14.6182C35.2946 16.4382 33.8195 17.9132 31.9996 17.9132C30.7096 17.9132 29.5946 17.1732 29.0596 16.0932C29.4946 16.3132 29.9846 16.4332 30.5047 16.4332C32.3247 16.4332 33.7996 14.9582 33.7996 13.1382C33.7996 12.6032 33.6746 12.1032 33.4446 11.6582C34.5395 12.1883 35.2946 13.3183 35.2946 14.6182Z" fill="#FDD367"/>
<path d="M63.4998 61.1399H61.908V58.9119C61.908 58.6355 61.6844 58.4119 61.408 58.4119H60.1947V56.1755C60.1947 55.8992 59.971 55.6755 59.6947 55.6755H58.6967V27.4402H59.6947C59.971 27.4402 60.1947 27.2165 60.1947 26.9402V24.6999H63.4998C63.7165 24.6999 63.9085 24.5603 63.9754 24.3542C64.0423 24.148 63.9685 23.922 63.7933 23.795L32.2933 0.96317C32.1185 0.83617 31.8812 0.83617 31.7064 0.96317L0.206279 23.7952C0.0310293 23.9222 -0.0427207 24.1482 0.0241543 24.3543C0.0910293 24.5604 0.282904 24.7 0.499779 24.7H3.8059V26.9403C3.8059 27.2167 4.02953 27.4403 4.3059 27.4403H5.3034V55.6755H4.3059C4.02953 55.6755 3.8059 55.8992 3.8059 56.1755V58.4119H2.59153C2.31515 58.4119 2.09153 58.6355 2.09153 58.9119V61.1399H0.499779C0.223404 61.1399 -0.000220736 61.3635 -0.000220736 61.6399V64.3679C-0.000220736 64.6443 0.223404 64.8679 0.499779 64.8679H63.4998C63.7762 64.8679 63.9998 64.6443 63.9998 64.3679V61.6399C63.9998 61.3635 63.7762 61.1399 63.4998 61.1399ZM59.1947 58.4119H52.0814V56.6755H53.0789H58.1965H59.1945L59.1947 58.4119ZM57.6965 55.6755H53.5789V27.4402H57.6965V55.6755ZM59.1947 26.4402H52.0814V24.7038H59.1947V26.4402ZM51.5813 27.4402H52.5788V55.6755H51.5813C51.3049 55.6755 51.0813 55.8992 51.0813 56.1755V58.4119H44.4358V56.1755C44.4358 55.8992 44.2122 55.6755 43.9358 55.6755H42.9383V27.4402H43.9358C44.2122 27.4402 44.4358 27.2165 44.4358 26.9402V24.6999H51.0813V26.9402C51.0813 27.2165 51.3049 27.4402 51.5813 27.4402ZM28.6775 58.4119V56.1755C28.6775 55.8992 28.4539 55.6755 28.1775 55.6755H27.18V27.4402H28.1775C28.4539 27.4402 28.6775 27.2165 28.6775 26.9402V24.6999H35.3225V26.9402C35.3225 27.2165 35.5462 27.4402 35.8225 27.4402H36.8205V55.6755H35.8225C35.5462 55.6755 35.3225 55.8992 35.3225 56.1755V58.4119H28.6775ZM20.5643 24.7039H27.6775V26.4403H20.5643V24.7039ZM22.0618 27.4402H26.1799V55.6755H22.0618V27.4402ZM21.5618 56.6755H26.6799H27.6774V58.4119H20.5642V56.6755H21.5618ZM41.9383 55.6755H37.8207V27.4402H41.9383V55.6755ZM36.3225 26.4402V24.7038H43.4358V26.4402H36.3225ZM36.3225 56.6755H37.3205H42.4382H43.4357V58.4119H36.3224L36.3225 56.6755ZM31.9998 1.98554L61.9578 23.6999H2.04178L31.9998 1.98554ZM19.5643 24.6999V26.9402C19.5643 27.2165 19.7879 27.4402 20.0643 27.4402H21.0618V55.6755H20.0643C19.7879 55.6755 19.5643 55.8992 19.5643 56.1755V58.4119H12.9193V56.1755C12.9193 55.8992 12.6957 55.6755 12.4193 55.6755H11.4213V27.4402H12.4193C12.6957 27.4402 12.9193 27.2165 12.9193 26.9402V24.6999H19.5643ZM4.8059 24.7039H11.9192V26.4403H4.8059V24.7039ZM6.3034 27.4402H10.421V55.6755H6.3034V27.4402ZM4.8059 56.6755H5.8034H10.921H11.919V58.4119H4.8059V56.6755ZM3.09153 59.4119H60.9078V61.1399H3.09153V59.4119ZM62.9998 63.8679H0.999779V62.1399H62.9998V63.8679Z" fill="#333333"/>
<path d="M54.5425 20.7952L32.2935 4.66825C32.1187 4.54125 31.8814 4.54125 31.7066 4.66825L9.4575 20.7952C9.28225 20.9222 9.2085 21.1482 9.27537 21.3544C9.34225 21.5605 9.53412 21.7001 9.751 21.7001H54.249C54.4658 21.7001 54.6577 21.5605 54.7246 21.3544C54.7915 21.1482 54.7178 20.9222 54.5425 20.7952ZM11.293 20.7001L32 5.69075L52.707 20.7L11.293 20.7001Z" fill="#333333"/>
<path d="M28.2036 14.6181C28.2036 16.7114 29.9062 18.414 31.9995 18.414C34.0927 18.414 35.7954 16.7114 35.7954 14.6181C35.7954 12.5224 34.0927 10.8179 31.9995 10.8179C29.9062 10.8179 28.2036 12.5224 28.2036 14.6181ZM34.7954 14.6181C34.7954 16.1596 33.541 17.414 31.9995 17.414C30.458 17.414 29.2036 16.1596 29.2036 14.6181C29.2036 13.0741 30.458 11.8179 31.9995 11.8179C33.541 11.8177 34.7954 13.0741 34.7954 14.6181Z" fill="#333333"/>
</g>
<defs>
<clipPath id="clip0_133_2805">
<rect width="64" height="64" fill="white" transform="translate(0 0.86792)"/>
</clipPath>
</defs>
</svg>
