<svg width="64" height="65" viewBox="0 0 64 65" fill="none" xmlns="http://www.w3.org/2000/svg">
<path d="M59 13.368H49L29 33.368H40L59.82 13.548C59.5636 13.4273 59.2834 13.3658 59 13.368ZM11 13.368H5C4.47005 13.3696 3.96227 13.5808 3.58753 13.9555C3.2128 14.3302 3.00158 14.838 3 15.368V25.368L15 13.368H11ZM53 33.368H59C59.5299 33.3664 60.0377 33.1552 60.4125 32.7804C60.7872 32.4057 60.9984 31.8979 61 31.368V24.368L52 33.368H53Z" fill="#FF6243"/>
<path d="M27 13.3679L7 33.3679H11H17L37 13.3679H27Z" fill="#FF6243"/>
<path d="M17 13.3679V8.36792C17 8.1027 16.8946 7.84835 16.7071 7.66081C16.5196 7.47328 16.2652 7.36792 16 7.36792H12C11.7348 7.36792 11.4804 7.47328 11.2929 7.66081C11.1054 7.84835 11 8.1027 11 8.36792V13.3679H17Z" fill="#898890"/>
<path d="M17 33.3679H11V55.3679H17V33.3679Z" fill="#898890"/>
<path d="M8 55.3679C7.73478 55.3679 7.48043 55.4733 7.29289 55.6608C7.10536 55.8483 7 56.1027 7 56.3679V60.3679C7 60.6331 7.10536 60.8875 7.29289 61.075C7.48043 61.2626 7.73478 61.3679 8 61.3679H20C20.2652 61.3679 20.5196 61.2626 20.7071 61.075C20.8946 60.8875 21 60.6331 21 60.3679V56.3679C21 56.1027 20.8946 55.8483 20.7071 55.6608C20.5196 55.4733 20.2652 55.3679 20 55.3679H8Z" fill="#787680"/>
<path d="M53 13.3679V8.36792C53 8.1027 52.8946 7.84835 52.7071 7.66081C52.5196 7.47328 52.2652 7.36792 52 7.36792H48C47.7348 7.36792 47.4804 7.47328 47.2929 7.66081C47.1054 7.84835 47 8.1027 47 8.36792V13.3679H53Z" fill="#898890"/>
<path d="M47 33.3679V55.3679H53V33.3679H52H47Z" fill="#898890"/>
<path d="M44 55.3679C43.7348 55.3679 43.4804 55.4733 43.2929 55.6608C43.1054 55.8483 43 56.1027 43 56.3679V60.3679C43 60.6331 43.1054 60.8875 43.2929 61.075C43.4804 61.2626 43.7348 61.3679 44 61.3679H56C56.2652 61.3679 56.5196 61.2626 56.7071 61.075C56.8946 60.8875 57 60.6331 57 60.3679V56.3679C57 56.1027 56.8946 55.8483 56.7071 55.6608C56.5196 55.4733 56.2652 55.3679 56 55.3679H44Z" fill="#787680"/>
<path d="M47 13.3679H37L17 33.3679H29L49 13.3679H47Z" fill="#D8D7DA"/>
<path d="M17 13.3679H15L3 25.3679V31.3679C3.00158 31.8979 3.2128 32.4057 3.58753 32.7804C3.96227 33.1551 4.47005 33.3663 5 33.3679H7L27 13.3679H17ZM59.82 13.5479L40 33.3679H52L61 24.3679V15.3679C60.9992 14.9832 60.8874 14.6069 60.6782 14.2841C60.4689 13.9613 60.1709 13.7057 59.82 13.5479Z" fill="#D8D7DA"/>
<path d="M60.253 12.6459H60.246L60.23 12.6379C60.216 12.6309 60.201 12.6309 60.186 12.6249C59.8135 12.4557 59.4091 12.3681 59 12.3679H54V8.36792C54 7.83749 53.7893 7.32878 53.4142 6.95371C53.0391 6.57863 52.5304 6.36792 52 6.36792H48C47.4696 6.36792 46.9609 6.57863 46.5858 6.95371C46.2107 7.32878 46 7.83749 46 8.36792V12.3679H18V8.36792C18 7.83749 17.7893 7.32878 17.4142 6.95371C17.0391 6.57863 16.5304 6.36792 16 6.36792H12C11.4696 6.36792 10.9609 6.57863 10.5858 6.95371C10.2107 7.32878 10 7.83749 10 8.36792V12.3679H5C4.20435 12.3679 3.44129 12.684 2.87868 13.2466C2.31607 13.8092 2 14.5723 2 15.3679V31.3679C2 32.1636 2.31607 32.9266 2.87868 33.4892C3.44129 34.0518 4.20435 34.3679 5 34.3679H10V54.3679H8C7.46957 54.3679 6.96086 54.5786 6.58579 54.9537C6.21071 55.3288 6 55.8375 6 56.3679V60.3679C6 60.8984 6.21071 61.4071 6.58579 61.7821C6.96086 62.1572 7.46957 62.3679 8 62.3679H20C20.5304 62.3679 21.0391 62.1572 21.4142 61.7821C21.7893 61.4071 22 60.8984 22 60.3679V56.3679C22 55.8375 21.7893 55.3288 21.4142 54.9537C21.0391 54.5786 20.5304 54.3679 20 54.3679H18V34.3679H46V54.3679H44C43.4696 54.3679 42.9609 54.5786 42.5858 54.9537C42.2107 55.3288 42 55.8375 42 56.3679V60.3679C42 60.8984 42.2107 61.4071 42.5858 61.7821C42.9609 62.1572 43.4696 62.3679 44 62.3679H56C56.5304 62.3679 57.0391 62.1572 57.4142 61.7821C57.7893 61.4071 58 60.8984 58 60.3679V56.3679C58 55.8375 57.7893 55.3288 57.4142 54.9537C57.0391 54.5786 56.5304 54.3679 56 54.3679H54V34.3679H59C59.7957 34.3679 60.5587 34.0518 61.1213 33.4892C61.6839 32.9266 62 32.1636 62 31.3679V15.3679C61.9993 14.7947 61.8343 14.2337 61.5247 13.7513C61.2151 13.2689 60.7738 12.8853 60.253 12.6459ZM31.414 32.3679L49.414 14.3679H57.586L39.586 32.3679H31.414ZM48 8.36792H52V12.3679H48V8.36792ZM16.586 32.3679H9.414L27.414 14.3679H34.586L16.586 32.3679ZM12 8.36792H16V12.3679H12V8.36792ZM5 14.3679H12.586L4 22.9539V15.3679C4 15.1027 4.10536 14.8483 4.29289 14.6608C4.48043 14.4733 4.73478 14.3679 5 14.3679ZM5 32.3679C4.73478 32.3679 4.48043 32.2626 4.29289 32.075C4.10536 31.8875 4 31.6331 4 31.3679V25.7819L15.414 14.3679H24.586L6.586 32.3679H5ZM20 60.3679H8V56.3679H20V60.3679ZM12 54.3679V34.3679H16V54.3679H12ZM19.414 32.3679L37.414 14.3679H46.586L28.586 32.3679H19.414ZM59.876 14.9059C59.8961 14.9434 59.9138 14.9822 59.929 15.0219C59.9411 15.0483 59.9518 15.0754 59.961 15.1029C59.9861 15.189 59.9992 15.2782 60 15.3679V23.9539L51.586 32.3679H42.414L59.876 14.9059ZM56 60.3679H44V56.3679H56V60.3679ZM52 54.3679H48V34.3679H52V54.3679ZM59 32.3679H54.414L60 26.7819V31.3679C60 31.6331 59.8946 31.8875 59.7071 32.075C59.5196 32.2626 59.2652 32.3679 59 32.3679Z" fill="#3E3D42"/>
</svg>
