<svg width="64" height="65" viewBox="0 0 64 65" fill="none" xmlns="http://www.w3.org/2000/svg">
<g clip-path="url(#clip0_133_2763)">
<path d="M2.10001 62.3579L4.97001 38.3679L11.69 37.3979L11.89 39.4279C11.88 39.4779 11.86 39.5179 11.86 39.5679C11.86 39.7179 11.89 39.8479 11.95 39.9779L13.93 59.8179L2.10001 62.3579ZM63.27 39.5579C62.9382 39.0189 62.5033 38.5506 61.9902 38.18C61.4772 37.8093 60.896 37.5435 60.28 37.3979C59.6605 37.2524 59.0183 37.2304 58.3903 37.3334C57.7622 37.4364 57.1607 37.6622 56.62 37.9979L43.5 45.8779C42.78 44.3179 41.16 43.2379 39.29 43.2379H33.92C31.84 43.2379 29.82 42.6279 28.07 41.4679C25.92 40.0379 23.8 39.1379 21.78 38.7879C20.87 38.6279 19.9 38.5779 18.73 38.6279C17.92 38.6579 16.09 38.6579 13.76 38.6279L13.52 36.1979C13.5069 36.0668 13.4674 35.9397 13.4039 35.8243C13.3404 35.7088 13.2542 35.6074 13.1506 35.5262C13.0469 35.4449 12.9278 35.3854 12.8005 35.3514C12.6733 35.3173 12.5404 35.3093 12.41 35.3279L3.95001 36.5479C3.52001 36.6079 3.18001 36.9579 3.13001 37.3979L0.0100115 63.4779C-0.0299885 63.7879 0.0900115 64.0979 0.320012 64.3079C0.500012 64.4779 0.730012 64.5579 0.970012 64.5579C1.04001 64.5579 1.11001 64.5579 1.17001 64.5379L15.18 61.5279C15.66 61.4279 15.99 60.9779 15.94 60.4879L15.74 58.4879C18.24 59.5479 21.02 61.1379 21.37 61.3479C21.402 61.3754 21.4395 61.3959 21.48 61.4079C24.45 62.9579 27.27 63.4779 29.72 63.4779C34.81 63.4779 38.3 61.2179 38.35 61.1879L61.71 46.2079C62.4345 45.7665 63.0285 45.1401 63.431 44.3932C63.8334 43.6463 64.0298 42.8058 64 41.9579C63.98 41.1179 63.73 40.2879 63.27 39.5579ZM60.68 44.5679L37.29 59.5679C35.44 60.7879 29.19 63.1879 22.44 59.7279C22.04 59.4479 21.28 59.0479 19.86 58.3079C18.67 57.6879 17.02 56.8679 15.53 56.2979L15.37 54.6779L14.11 42.0879L13.96 40.5679C15.52 40.5879 17.74 40.6079 18.81 40.5679C19.84 40.5179 20.68 40.5579 21.44 40.6979C23.2 41.0079 25.07 41.8079 27 43.0879C29.06 44.4479 31.45 45.1779 33.92 45.1779H39.29C40.61 45.1779 41.72 46.0779 41.92 47.2779C41.94 47.3479 41.95 47.4279 41.95 47.5079C41.96 47.5679 41.96 47.6279 41.96 47.6779C41.96 47.7879 41.96 47.8879 41.95 47.9479L41.93 48.1279C41.83 48.6379 41.58 49.1079 41.23 49.4579C40.76 49.9379 40.12 50.1979 39.45 50.1979H26.88C26.35 50.1979 25.91 50.6379 25.91 51.1679C25.91 51.7079 26.35 52.1379 26.88 52.1379H39.45C40.64 52.1379 41.76 51.6779 42.6 50.8279C42.79 50.6379 42.96 50.4379 43.11 50.2179C43.12 50.2079 43.12 50.2079 43.12 50.1979C43.47 49.6979 43.71 49.1079 43.83 48.4679C43.84 48.4679 43.85 48.3779 43.85 48.3679L43.88 48.1979C43.89 48.0879 43.89 47.9979 43.89 47.8979L57.63 39.6479C58.29 39.2379 59.08 39.1079 59.83 39.2879C60.58 39.4679 61.22 39.9279 61.63 40.5879C61.9 41.0179 62.05 41.5079 62.06 42.0179C62.09 43.0579 61.58 44.0079 60.68 44.5679Z" fill="#2B2E63"/>
<path d="M13.93 59.818L2.10001 62.358L4.97001 38.368L11.69 37.3979L11.89 39.428C11.88 39.478 11.86 39.518 11.86 39.568C11.86 39.718 11.89 39.848 11.95 39.978L13.93 59.818Z" fill="#4EBDE5"/>
<path d="M60.56 42.0478C60.58 42.5678 60.33 43.0178 59.89 43.2978L36.48 58.3078C35.57 58.9078 33.02 60.0178 29.77 60.0178C27.5 60.0178 25.29 59.4878 23.21 58.4378C22.72 58.1078 21.97 57.7178 20.55 56.9778C19.34 56.3478 16.67 55.2278 15.37 54.6778L14.11 42.0878H16.97C17.72 42.0878 18.4 42.0878 18.87 42.0678C19.14 42.0578 19.38 42.0478 19.61 42.0478C20.2 42.0478 20.71 42.0878 21.17 42.1678C22.74 42.4478 24.42 43.1778 26.17 44.3378C28.49 45.8678 31.17 46.6778 33.92 46.6778H39.29C39.76 46.6778 41.26 46.9278 41.92 47.2778C41.94 47.3478 41.95 47.4278 41.95 47.5078C41.96 47.5678 41.96 47.6278 41.96 47.6778C41.96 47.7878 41.96 47.8878 41.95 47.9478L41.93 48.1278C41.83 48.6378 41.58 49.1078 41.23 49.4578C40.76 49.9378 40.12 50.1978 39.45 50.1978H26.88C26.35 50.1978 25.91 50.6378 25.91 51.1678C25.91 51.7078 26.35 52.1378 26.88 52.1378H39.45C40.64 52.1378 41.76 51.6778 42.6 50.8278C42.79 50.6378 42.96 50.4378 43.11 50.2178C43.12 50.2078 43.12 50.2078 43.12 50.1978L43.46 49.9978C43.74 49.8378 44.03 49.6478 44.3 49.4878L45.23 48.9178C45.26 48.8978 45.27 48.8978 45.27 48.8978L58.4 40.9378C58.5573 40.8338 58.7344 40.7632 58.9202 40.7305C59.106 40.6978 59.2966 40.7037 59.48 40.7478C59.85 40.8378 60.16 41.0578 60.36 41.3778C60.49 41.5878 60.56 41.8178 60.56 42.0478Z" fill="#FFE5AB"/>
<path d="M62.06 42.0179C62.09 43.0579 61.58 44.0079 60.68 44.5679L37.29 59.5679C35.44 60.7879 29.19 63.1879 22.44 59.7279C22.04 59.4479 21.28 59.0479 19.86 58.3079C18.67 57.6879 17.02 56.8679 15.53 56.2979L15.37 54.6779C16.67 55.2279 19.34 56.3479 20.55 56.9779C21.97 57.7179 22.72 58.1079 23.21 58.4379C25.29 59.4879 27.5 60.0179 29.77 60.0179C33.02 60.0179 35.57 58.9079 36.48 58.3079L59.89 43.2979C60.33 43.0179 60.58 42.5679 60.56 42.0479C60.56 41.8179 60.49 41.5879 60.36 41.3779C60.16 41.0579 59.85 40.8379 59.48 40.7479C59.2966 40.7038 59.106 40.6979 58.9202 40.7306C58.7344 40.7632 58.5574 40.8338 58.4 40.9379L45.27 48.8979C45.27 48.8979 45.26 48.8979 45.23 48.9179L44.3 49.4879C44.03 49.6479 43.74 49.8379 43.46 49.9979L43.12 50.1979C43.47 49.6979 43.71 49.1079 43.83 48.4679C43.84 48.4679 43.85 48.3779 43.85 48.3679L43.88 48.1979C43.89 48.0879 43.89 47.9979 43.89 47.8979L57.63 39.6479C58.29 39.2379 59.08 39.1079 59.83 39.2879C60.58 39.4679 61.22 39.9279 61.63 40.5879C61.9 41.0179 62.05 41.5079 62.06 42.0179Z" fill="#F0D39A"/>
<path d="M41.92 47.278C41.26 46.928 39.76 46.678 39.29 46.678H33.92C31.17 46.678 28.49 45.868 26.17 44.338C24.42 43.178 22.74 42.448 21.17 42.168C20.71 42.088 20.2 42.048 19.61 42.048C19.38 42.048 19.14 42.058 18.87 42.068C18.4 42.088 17.72 42.088 16.97 42.088H14.11L13.96 40.568C15.52 40.588 17.74 40.608 18.81 40.568C19.84 40.518 20.68 40.558 21.44 40.698C23.2 41.008 25.07 41.808 27 43.088C29.06 44.448 31.45 45.178 33.92 45.178H39.29C40.61 45.178 41.72 46.078 41.92 47.278Z" fill="#F0D39A"/>
<path d="M43.11 50.2178L43.12 50.1978L43.46 49.9978C43.34 50.0778 43.24 50.2178 43.11 50.2178C43.35 50.0778 43.05 50.2178 43.11 50.2178Z" fill="#FFE5AB"/>
<path d="M13.93 59.818L2.10001 62.358L4.97001 38.368L11.69 37.3979L11.84 38.888L6.32001 39.688L3.84001 60.448L13.78 58.318L13.93 59.818Z" fill="#36A9DB"/>
<g clip-path="url(#clip1_133_2763)">
<path d="M48.0379 11.1808C46.491 9.82319 44.5023 9.10211 42.4609 9.1586C40.4194 9.2151 38.4722 10.0451 37 11.4862C35.5274 10.046 33.5803 9.21663 31.5391 9.16014C29.4979 9.10365 27.5094 9.82412 25.9621 11.1808C25.1473 11.9207 24.4905 12.8234 24.0327 13.8326C23.5748 14.8419 23.3257 15.9362 23.3007 17.0477C23.2719 18.1574 23.4647 19.2616 23.8673 20.2933C24.2698 21.325 24.8739 22.2628 25.6429 23.0498L33.5929 31.1226C34.4974 32.0408 35.7227 32.5565 37 32.5565C38.2773 32.5565 39.5026 32.0408 40.4072 31.1226L48.3571 23.0498C49.1275 22.2654 49.7336 21.3299 50.1387 20.3001C50.5438 19.2704 50.7397 18.1676 50.7143 17.0586C50.6889 15.9442 50.4381 14.847 49.9776 13.8357C49.5171 12.8244 48.8568 11.9206 48.0379 11.1808Z" fill="#FF4090"/>
</g>
</g>
<defs>
<clipPath id="clip0_133_2763">
<rect width="64" height="64" fill="white" transform="translate(0 0.86792)"/>
</clipPath>
<clipPath id="clip1_133_2763">
<rect width="30" height="24" fill="white" transform="translate(22 8.86792)"/>
</clipPath>
</defs>
</svg>
