<svg width="64" height="65" viewBox="0 0 64 65" fill="none" xmlns="http://www.w3.org/2000/svg">
<g clip-path="url(#clip0_132_2276)">
<path d="M45.05 41.918H4.71249V49.268H45.05V41.918Z" fill="#1C2617"/>
<path d="M55.25 41.918H45.0375V49.268H55.25V41.918Z" fill="#B5100B"/>
<path d="M50.675 12.8054L45.0375 10.3679H40V41.9179H52.875L55.25 44.7929V49.2679H63.375V32.3679L58.175 20.3179C56.725 16.9554 54.0375 14.2679 50.675 12.8054Z" fill="#DB3328"/>
<path d="M58.175 20.3304C56.725 16.9554 54.0375 14.2679 50.6625 12.8179L45.0375 10.3679H45V22.1179H58.95L58.175 20.3304Z" fill="#C4C1AB"/>
<path d="M45.6625 41.8929L45.625 10.6054L45.05 10.3679L44.375 10.3429L44.4125 41.8679H45L45.6625 41.8929Z" fill="#B5100B"/>
<path d="M12.4 54.368C15.2166 54.368 17.5 52.0846 17.5 49.268C17.5 46.4513 15.2166 44.168 12.4 44.168C9.58333 44.168 7.29999 46.4513 7.29999 49.268C7.29999 52.0846 9.58333 54.368 12.4 54.368Z" fill="#323D2C"/>
<path d="M12.4 51.368C13.5598 51.368 14.5 50.4278 14.5 49.268C14.5 48.1082 13.5598 47.168 12.4 47.168C11.2402 47.168 10.3 48.1082 10.3 49.268C10.3 50.4278 11.2402 51.368 12.4 51.368Z" fill="#747E6C"/>
<path d="M50.15 54.368C52.9666 54.368 55.25 52.0846 55.25 49.268C55.25 46.4513 52.9666 44.168 50.15 44.168C47.3333 44.168 45.05 46.4513 45.05 49.268C45.05 52.0846 47.3333 54.368 50.15 54.368Z" fill="#323D2C"/>
<path d="M50.15 51.368C51.3098 51.368 52.25 50.4278 52.25 49.268C52.25 48.1082 51.3098 47.168 50.15 47.168C48.9902 47.168 48.05 48.1082 48.05 49.268C48.05 50.4278 48.9902 51.368 50.15 51.368Z" fill="#747E6C"/>
<path d="M60.875 41.1179V46.7429H55.25V49.2429H60.8125H63.375V46.7054V41.1179H60.875Z" fill="#C4C1AB"/>
<path d="M56.7125 24.1554H49.625V28.7429C49.625 30.0554 50.6 31.1429 51.9 31.3054L60.8125 32.3679L56.7125 24.1554Z" fill="#485143"/>
<path d="M52.875 37.9929H49.625V39.2429H52.875V37.9929Z" fill="#323D2C"/>
<path d="M35.2 10.3679H0V41.9179H35.2V10.3679Z" fill="#DB3328"/>
<path d="M35.2 10.3679H15.5375L35.2 26.7804V10.3679Z" fill="#E67368"/>
<path d="M32 13.2804H0V38.9929H32V13.2804Z" fill="#747E6C"/>
<path d="M30.7125 14.4929H0V38.9929H30.7125V14.4929Z" fill="#C4C1AB"/>
<path d="M40 44.1554H28.375V49.2554H40V44.1554Z" fill="#485143"/>
<path d="M40 44.1554H30.1625C30.1625 46.0429 31.6875 47.5679 33.575 47.5679H40V44.1554Z" fill="#747E6C"/>
<path d="M33 44.1179H31.75V49.2429H33V44.1179Z" fill="#485143"/>
<path d="M36.625 44.1179H35.375V49.2429H36.625V44.1179Z" fill="#485143"/>
<path d="M49.375 18.6179H42.5V19.8679H49.375V18.6179Z" fill="#323D2C"/>
<path d="M12.8 44.1804C12.475 44.1554 12.15 44.1554 11.8375 44.1929C11.3125 44.2554 11.3375 45.0179 11.8625 45.0429C11.8875 45.0429 11.9125 45.0429 11.9375 45.0429C14.4125 45.2429 16.425 47.2429 16.6125 49.7179C16.6125 49.7429 16.6125 49.7679 16.6125 49.7929C16.65 50.3179 17.4125 50.3429 17.4625 49.8179C17.5 49.5054 17.5 49.1804 17.475 48.8554C17.2875 46.3804 15.2875 44.3679 12.8 44.1804Z" fill="#485143"/>
<path d="M14.2125 52.2304C11.65 52.0804 9.57499 50.0054 9.42499 47.4429C9.42499 47.4179 9.42499 47.4054 9.42499 47.3804C9.38749 46.4929 8.18749 46.2429 7.79999 47.0429C7.43749 47.7804 7.24999 48.6179 7.29999 49.5054C7.41249 52.1179 9.54999 54.2554 12.1625 54.3679C13.05 54.4054 13.8875 54.2179 14.625 53.8679C15.425 53.4804 15.1625 52.2929 14.2875 52.2429C14.2625 52.2304 14.2375 52.2304 14.2125 52.2304Z" fill="#1C2617"/>
<path d="M12.9375 50.4679C12.05 50.3304 11.3375 49.6179 11.1875 48.7179C11.1875 48.7054 11.1875 48.7054 11.1875 48.6929C11.125 48.2554 10.525 48.2054 10.3875 48.6179C10.3 48.8929 10.2625 49.2054 10.3 49.5304C10.4125 50.4804 11.175 51.2429 12.125 51.3554C12.4375 51.3929 12.75 51.3554 13.0375 51.2679C13.45 51.1304 13.4 50.5304 12.9625 50.4679C12.95 50.4679 12.95 50.4679 12.9375 50.4679ZM50.55 44.1804C50.225 44.1554 49.9 44.1554 49.5875 44.1929C49.0625 44.2554 49.0875 45.0179 49.6125 45.0429C49.6375 45.0429 49.6625 45.0429 49.6875 45.0429C52.1625 45.2429 54.175 47.2429 54.3625 49.7179C54.3625 49.7429 54.3625 49.7679 54.3625 49.7929C54.4 50.3179 55.1625 50.3429 55.2125 49.8179C55.25 49.5054 55.25 49.1804 55.225 48.8554C55.0375 46.3804 53.0375 44.3679 50.55 44.1804Z" fill="#485143"/>
<path d="M51.9625 52.2304C49.4 52.0804 47.325 50.0054 47.175 47.4429C47.175 47.4179 47.175 47.4054 47.175 47.3804C47.1375 46.4929 45.9375 46.2429 45.55 47.0429C45.1875 47.7804 45 48.6179 45.05 49.5054C45.1625 52.1179 47.3 54.2554 49.9125 54.3679C50.8 54.4054 51.6375 54.2179 52.375 53.8679C53.175 53.4804 52.9125 52.2929 52.0375 52.2429C52.0125 52.2304 51.9875 52.2304 51.9625 52.2304Z" fill="#1C2617"/>
<path d="M50.6875 50.4679C49.8 50.3304 49.0875 49.6179 48.9375 48.7179C48.9375 48.7054 48.9375 48.7054 48.9375 48.6929C48.875 48.2554 48.275 48.2054 48.1375 48.6179C48.05 48.8929 48.0125 49.2054 48.05 49.5304C48.1625 50.4804 48.925 51.2429 49.875 51.3554C50.1875 51.3929 50.5 51.3554 50.7875 51.2679C51.2 51.1304 51.15 50.5304 50.7125 50.4679C50.7 50.4679 50.7 50.4679 50.6875 50.4679Z" fill="#485143"/>
<path d="M45.6625 32.6054L51.6875 32.5929L60.8125 33.7054H63.375V32.3679H60.8125L51.6875 31.2679H45.6625V32.6054Z" fill="#E67368"/>
<path d="M58.125 24.1179L62 32.3679H63.375L59.825 24.1179H58.125Z" fill="#747E6C"/>
<path d="M57.5625 31.9679L54.3375 24.1179H50.75L53.8 31.5054L57.5625 31.9679Z" fill="#747E6C"/>
<path d="M63.375 48.1179V41.1179H62.0875V46.8304C62.0875 47.5429 62.6625 48.1179 63.375 48.1179ZM49.55 13.9304C52.9125 15.3929 55.6 18.0804 57.0625 21.4429L57.35 22.1054H58.9625L58.1875 20.3179C56.7375 16.9429 54.05 14.2554 50.675 12.8054L45.0375 10.3679H45V11.9679L49.55 13.9304Z" fill="#EBEADF"/>
<path d="M45.0375 10.3679H40V11.9679H45.0375V10.3679Z" fill="#E67368"/>
<path d="M12.4 54.993C9.23749 54.993 6.67499 52.418 6.67499 49.268C6.67499 46.118 9.24999 43.543 12.4 43.543C15.55 43.543 18.125 46.118 18.125 49.268C18.125 52.418 15.55 54.993 12.4 54.993ZM12.4 44.7805C9.92499 44.7805 7.92499 46.793 7.92499 49.2555C7.92499 51.718 9.92499 53.743 12.4 53.743C14.875 53.743 16.875 51.7305 16.875 49.268C16.875 46.8055 14.8625 44.7805 12.4 44.7805Z" fill="#10121B"/>
<path d="M12.4 51.993C10.9 51.993 9.67499 50.768 9.67499 49.268C9.67499 47.768 10.9 46.543 12.4 46.543C13.9 46.543 15.125 47.768 15.125 49.268C15.125 50.768 13.9 51.993 12.4 51.993ZM12.4 47.7805C11.5875 47.7805 10.925 48.443 10.925 49.2555C10.925 50.068 11.575 50.743 12.4 50.743C13.225 50.743 13.875 50.0805 13.875 49.268C13.875 48.4555 13.2125 47.7805 12.4 47.7805ZM50.15 51.993C48.65 51.993 47.425 50.768 47.425 49.268C47.425 47.768 48.65 46.543 50.15 46.543C51.65 46.543 52.875 47.768 52.875 49.268C52.875 50.768 51.65 51.993 50.15 51.993ZM50.15 47.7805C49.3375 47.7805 48.675 48.443 48.675 49.2555C48.675 50.068 49.3375 50.7305 50.15 50.7305C50.9625 50.7305 51.625 50.068 51.625 49.2555C51.625 48.443 50.9625 47.7805 50.15 47.7805Z" fill="#10121B"/>
<path d="M50.15 54.993C46.9875 54.993 44.425 52.418 44.425 49.268C44.425 46.118 47 43.543 50.15 43.543C53.3125 43.543 55.875 46.118 55.875 49.268C55.875 52.418 53.3 54.993 50.15 54.993ZM50.15 44.7805C47.675 44.7805 45.675 46.793 45.675 49.2555C45.675 51.718 47.6875 53.7305 50.15 53.7305C52.6125 53.7305 54.625 51.718 54.625 49.2555C54.625 46.793 52.6125 44.7805 50.15 44.7805Z" fill="#10121B"/>
<path d="M63.375 49.8929H55.25C54.9 49.8929 54.625 49.6179 54.625 49.2679V46.7054C54.625 46.3554 54.9 46.0804 55.25 46.0804H63.375C63.725 46.0804 64 46.3554 64 46.7054V49.2679C64 49.6054 63.725 49.8929 63.375 49.8929ZM55.875 48.6429H62.75V47.3304H55.875V48.6429Z" fill="#10121B"/>
<path d="M63.375 49.8929H60.8125C60.4625 49.8929 60.1875 49.6179 60.1875 49.2679V41.1429C60.1875 40.7929 60.4625 40.5179 60.8125 40.5179H63.375C63.725 40.5179 64 40.7929 64 41.1429V49.2679C64 49.6054 63.725 49.8929 63.375 49.8929ZM61.4375 48.6429H62.75V41.7679H61.4375V48.6429ZM45.0375 49.8929H17.5V48.6429H44.4125V42.5429H5.33749V48.6429H7.29999V49.8929H4.71249C4.36249 49.8929 4.08749 49.6179 4.08749 49.2679V41.9179C4.08749 41.5679 4.36249 41.2929 4.71249 41.2929H45.05C45.4 41.2929 45.675 41.5679 45.675 41.9179V49.2679C45.6625 49.6054 45.3875 49.8929 45.0375 49.8929ZM60.8125 32.9929C60.7875 32.9929 60.7625 32.9929 60.7375 32.9929L51.825 31.9304C50.2125 31.7304 49 30.3679 49 28.7429V24.1429C49 23.7929 49.275 23.5179 49.625 23.5179H56.7125C56.95 23.5179 57.1625 23.6554 57.275 23.8679L61.375 32.0804C61.475 32.2804 61.4625 32.5304 61.325 32.7179C61.2125 32.8929 61.0125 32.9929 60.8125 32.9929ZM50.25 24.7804V28.7429C50.25 29.7304 50.9875 30.5679 51.975 30.6804L59.7375 31.6054L56.325 24.7679H50.25V24.7804Z" fill="#10121B"/>
<path d="M52.875 37.9929H49.625V39.2429H52.875V37.9929Z" fill="#10121B"/>
<path d="M59 21.4929H45V22.7429H59V21.4929Z" fill="#10121B"/>
<path d="M45.0375 42.5429H40C39.65 42.5429 39.375 42.2679 39.375 41.9179V10.3679C39.375 10.0179 39.65 9.74292 40 9.74292H45.0375C45.3875 9.74292 45.6625 10.0179 45.6625 10.3679V32.3679H44.4125V10.9929H40.625V41.2929H44.4125V34.8679H45.6625V41.9054C45.6625 42.2554 45.3875 42.5429 45.0375 42.5429Z" fill="#10121B"/>
<path d="M63.375 49.8929H55.25C54.9 49.8929 54.625 49.6179 54.625 49.2679V45.0179L52.575 42.5429H40C39.65 42.5429 39.375 42.2679 39.375 41.9179V10.3679C39.375 10.0179 39.65 9.74292 40 9.74292H45.0375C45.125 9.74292 45.2125 9.75542 45.2875 9.79292L50.925 12.2304C54.45 13.7554 57.2375 16.5429 58.7625 20.0804L63.9625 32.1304C64 32.2054 64.0125 32.2929 64.0125 32.3804V49.2804C64 49.6054 63.725 49.8929 63.375 49.8929ZM55.875 48.6429H62.75V32.5054L57.6 20.5804C56.2 17.3429 53.65 14.7929 50.425 13.3929L44.9125 10.9929H40.625V41.2929H52.875C53.0625 41.2929 53.2375 41.3804 53.3625 41.5179L55.7375 44.3929C55.825 44.5054 55.875 44.6429 55.875 44.7929V48.6429Z" fill="#10121B"/>
<path d="M49.375 18.6179H42.5V19.8679H49.375V18.6179Z" fill="#10121B"/>
<path d="M35.2 42.5429H0V41.2929H34.575V10.9929H0V9.74292H35.2C35.55 9.74292 35.825 10.0179 35.825 10.3679V41.9179C35.825 42.2554 35.55 42.5429 35.2 42.5429Z" fill="#10121B"/>
<path d="M32 39.6179H25.25V38.3679H31.375V13.9054H0V12.6554H32C32.35 12.6554 32.625 12.9304 32.625 13.2804V38.9929C32.625 39.3429 32.35 39.6179 32 39.6179Z" fill="#10121B"/>
<path d="M22.75 38.3679H0V39.6179H22.75V38.3679Z" fill="#10121B"/>
<path d="M40 49.893H28.375C28.025 49.893 27.75 49.618 27.75 49.268V44.168C27.75 43.818 28.025 43.543 28.375 43.543H40C40.35 43.543 40.625 43.818 40.625 44.168V49.268C40.625 49.6055 40.35 49.893 40 49.893ZM29 48.643H39.375V44.793H29V48.643Z" fill="#10121B"/>
<path d="M33 44.1179H31.75V49.2429H33V44.1179Z" fill="#10121B"/>
<path d="M36.625 44.1179H35.375V49.2429H36.625V44.1179Z" fill="#10121B"/>
</g>
<defs>
<clipPath id="clip0_132_2276">
<rect width="64" height="64" fill="white" transform="translate(0 0.36792)"/>
</clipPath>
</defs>
</svg>
