<svg width="64" height="65" viewBox="0 0 64 65" fill="none" xmlns="http://www.w3.org/2000/svg">
<path d="M23.0659 45.7992C23.0659 49.4836 20.0562 52.4933 16.3719 52.4933C12.6616 52.4933 9.66054 49.4836 9.66054 45.7992C9.66054 44.0193 10.3676 42.3122 11.6262 41.0536C12.8849 39.795 14.5919 39.0879 16.3719 39.0879C20.0562 39.0879 23.0659 42.0976 23.0659 45.7992Z" fill="#343434"/>
<path opacity="0.2" d="M23.0659 45.7992C23.0659 49.4836 20.0562 52.4933 16.3719 52.4933C12.6616 52.4933 9.66054 49.4836 9.66054 45.7992C9.66054 44.0193 10.3676 42.3122 11.6262 41.0536C12.8849 39.795 14.5919 39.0879 16.3719 39.0879C20.0562 39.0879 23.0659 42.0976 23.0659 45.7992Z" fill="#343434"/>
<path d="M16.3632 51.2047C13.3795 51.2047 10.9492 48.7831 10.9492 45.808C10.9492 42.8242 13.3795 40.3853 16.3632 40.3853C19.3384 40.3853 21.76 42.8155 21.76 45.808C21.7686 48.7744 19.347 51.2047 16.3632 51.2047Z" fill="#343434"/>
<path d="M16.3632 51.2047C13.3795 51.2047 10.9492 48.7831 10.9492 45.808C10.9492 42.8242 13.3795 40.3853 16.3632 40.3853C19.3384 40.3853 21.76 42.8155 21.76 45.808C21.7686 48.7744 19.347 51.2047 16.3632 51.2047Z" fill="#343434"/>
<path d="M20.2465 45.5571C20.2465 47.6933 18.4995 49.4403 16.3632 49.4403C14.2184 49.4403 12.4713 47.6933 12.4713 45.5571C12.4713 43.4122 14.2184 41.6652 16.3632 41.6652C18.4995 41.6652 20.2465 43.4035 20.2465 45.5571Z" fill="#E6E6E6"/>
<path d="M16.3632 52.9344C12.4195 52.9344 9.21945 49.7344 9.21945 45.808C9.21945 41.8642 12.4281 38.6555 16.3632 38.6555C20.2984 38.6555 23.4897 41.8642 23.4897 45.808C23.4984 49.7344 20.2984 52.9344 16.3632 52.9344ZM16.3632 39.5204C12.8951 39.5204 10.0843 42.3398 10.0843 45.808C10.0843 49.2588 12.9038 52.0696 16.3632 52.0696C19.814 52.0696 22.6249 49.2588 22.6249 45.808C22.6335 42.3398 19.8227 39.5204 16.3632 39.5204Z" fill="black"/>
<path d="M16.3632 49.8641C15.2179 49.8641 14.1193 49.4097 13.3085 48.6006C12.4978 47.7915 12.0412 46.6938 12.0389 45.5484C12.0389 43.1614 13.9762 41.2241 16.3632 41.2241C17.5086 41.2264 18.6063 41.683 19.4154 42.4937C20.2245 43.3045 20.6789 44.4031 20.6789 45.5484C20.6789 47.9355 18.7416 49.8641 16.3632 49.8641ZM16.3632 42.0976C14.4519 42.0976 12.9038 43.6457 12.9038 45.5571C12.9046 46.2401 13.1079 46.9075 13.4879 47.475C13.8679 48.0426 14.4075 48.4847 15.0387 48.7457C15.6699 49.0067 16.3642 49.0748 17.034 48.9413C17.7039 48.8078 18.3191 48.4789 18.8021 47.9959C19.285 47.513 19.614 46.8977 19.7475 46.2279C19.8809 45.5581 19.8129 44.8637 19.5519 44.2325C19.2909 43.6014 18.8487 43.0617 18.2812 42.6817C17.7137 42.3017 17.0462 42.0985 16.3632 42.0976Z" fill="black"/>
<path d="M57.9459 45.7992C57.9459 49.4836 54.9362 52.4933 51.2519 52.4933C47.5416 52.4933 44.5405 49.4836 44.5405 45.7992C44.5405 44.0193 45.2476 42.3122 46.5063 41.0536C47.7649 39.795 49.4719 39.0879 51.2519 39.0879C54.9362 39.0879 57.9459 42.0976 57.9459 45.7992Z" fill="#343434"/>
<path opacity="0.2" d="M57.9459 45.7992C57.9459 49.4836 54.9362 52.4933 51.2519 52.4933C47.5416 52.4933 44.5405 49.4836 44.5405 45.7992C44.5405 44.0193 45.2476 42.3122 46.5063 41.0536C47.7649 39.795 49.4719 39.0879 51.2519 39.0879C54.9362 39.0879 57.9459 42.0976 57.9459 45.7992Z" fill="#343434"/>
<path d="M51.2519 51.2047C48.2681 51.2047 45.8292 48.7831 45.8292 45.808C45.8292 42.8242 48.2595 40.3853 51.2519 40.3853C54.227 40.3853 56.6487 42.8155 56.6487 45.808C56.6487 48.7744 54.227 51.2047 51.2519 51.2047Z" fill="#343434"/>
<path d="M55.1265 45.5571C55.1265 47.6933 53.3795 49.4403 51.2432 49.4403C49.0984 49.4403 47.3513 47.6933 47.3513 45.5571C47.3513 43.4122 49.0984 41.6652 51.2432 41.6652C53.3795 41.6652 55.1265 43.4035 55.1265 45.5571Z" fill="#E6E6E6"/>
<path d="M51.2519 52.9344C47.3081 52.9344 44.0995 49.7344 44.0995 45.808C44.0995 41.8642 47.3081 38.6555 51.2519 38.6555C55.187 38.6555 58.3784 41.8642 58.3784 45.808C58.3784 49.7344 55.1784 52.9344 51.2519 52.9344ZM51.2519 39.5204C47.7838 39.5204 44.9643 42.3398 44.9643 45.808C44.9643 49.2588 47.7838 52.0696 51.2519 52.0696C54.7027 52.0696 57.5135 49.2588 57.5135 45.808C57.5135 42.3398 54.7027 39.5204 51.2519 39.5204Z" fill="black"/>
<path d="M51.2432 49.8641C50.0979 49.8641 48.9993 49.4097 48.1885 48.6006C47.3778 47.7915 46.9212 46.6938 46.9189 45.5484C46.9189 43.1614 48.8562 41.2241 51.2432 41.2241C52.3886 41.2264 53.4863 41.683 54.2954 42.4937C55.1045 43.3045 55.5589 44.4031 55.5589 45.5484C55.5589 47.9355 53.6216 49.8641 51.2432 49.8641ZM51.2432 42.0976C49.3405 42.0976 47.7838 43.6457 47.7838 45.5571C47.7846 46.2401 47.9879 46.9075 48.3679 47.475C48.7479 48.0426 49.2875 48.4847 49.9187 48.7457C50.5499 49.0067 51.2442 49.0748 51.914 48.9413C52.5839 48.8078 53.1991 48.4789 53.6821 47.9959C54.165 47.513 54.494 46.8977 54.6274 46.2279C54.7609 45.5581 54.6928 44.8637 54.4319 44.2325C54.1709 43.6014 53.7287 43.0617 53.1612 42.6817C52.5936 42.3017 51.9262 42.0985 51.2432 42.0976Z" fill="black"/>
<path d="M51.2346 37.9723H44.5578V26.5128H46.253C47.2216 26.5128 48.0778 27.1528 48.3546 28.0869L51.2346 37.9723Z" fill="#E00000"/>
<path d="M51.2346 38.4046H44.5665C44.3243 38.4046 44.134 38.2144 44.134 37.9722V26.5128C44.134 26.2706 44.3243 26.0803 44.5665 26.0803H46.2616C47.4205 26.0803 48.4497 26.8587 48.7784 27.9657L51.6584 37.8511C51.693 37.9809 51.667 38.1192 51.5892 38.2317C51.5027 38.3355 51.373 38.4046 51.2346 38.4046ZM44.9989 37.5398H50.6638L47.9395 28.2079C47.8319 27.8438 47.6097 27.5242 47.3058 27.2967C47.0019 27.0691 46.6326 26.9459 46.253 26.9452H44.9903V37.5398H44.9989Z" fill="black"/>
<path d="M6.91026 32.835H14.3049V37.5139H6.91026V32.835Z" fill="#E00000"/>
<path d="M14.3049 37.9462H6.91028C6.66811 37.9462 6.47784 37.756 6.47784 37.5138V32.8349C6.47784 32.5927 6.66811 32.4025 6.91028 32.4025H14.3049C14.547 32.4025 14.7373 32.5927 14.7373 32.8349V37.5138C14.7373 37.756 14.5384 37.9462 14.3049 37.9462ZM7.34271 37.0814H13.8724V33.2673H7.34271V37.0814Z" fill="black"/>
<path d="M5.32756 33.4058H6.91026V36.9517H5.32756V33.4058Z" fill="#FFE200"/>
<path d="M6.91028 37.3842H5.32757C5.08541 37.3842 4.89514 37.1939 4.89514 36.9518V33.4058C4.89514 33.1637 5.08541 32.9734 5.32757 32.9734H6.91028C7.15244 32.9734 7.34271 33.1637 7.34271 33.4058V36.9518C7.34271 37.1939 7.15244 37.3842 6.91028 37.3842ZM5.76001 36.5193H6.47784V33.8383H5.76001V36.5193Z" fill="black"/>
<path d="M42.7935 44.2166C42.7935 39.555 46.5816 35.7668 51.2432 35.7668C55.8962 35.7668 59.6757 39.555 59.6757 44.2166H42.7935Z" fill="#E00000"/>
<path opacity="0.2" d="M42.7935 44.2166C42.7935 39.555 46.5816 35.7668 51.2432 35.7668C55.8962 35.7668 59.6757 39.555 59.6757 44.2166H42.7935Z" fill="#343434"/>
<path d="M44.2119 42.9192C44.8259 39.5981 47.7405 37.0641 51.2432 37.0641C54.7373 37.0641 57.6519 39.5895 58.2659 42.9192H44.2119Z" fill="#E00000"/>
<path d="M59.6757 44.6489H42.7935C42.5514 44.6489 42.3611 44.4587 42.3611 44.2165C42.3611 39.3214 46.3395 35.3344 51.2432 35.3344C56.1297 35.3344 60.1081 39.3214 60.1081 44.2165C60.1081 44.4587 59.9178 44.6489 59.6757 44.6489ZM43.2432 43.7841H59.2346C59.0097 39.5635 55.507 36.1992 51.2432 36.1992C46.9708 36.2079 43.4681 39.5635 43.2432 43.7841Z" fill="black"/>
<path d="M45.907 24.8608H42.2659L43.5373 36.6144C43.8313 39.3127 41.7124 41.6738 38.9968 41.6738H31.9222C28.8086 41.6738 26.6119 38.6295 27.5892 35.6716L29.2757 30.5689H9.05513V41.6738H12.48C12.48 43.9484 14.3222 45.7906 16.5968 45.7906H43.5978C45.8724 45.7906 47.7146 43.9484 47.7146 41.6738L45.907 24.8608Z" fill="#FF0000"/>
<path opacity="0.2" d="M45.907 24.8608H42.2659L43.5373 36.6144C43.8313 39.3127 41.7124 41.6738 38.9968 41.6738H31.9222C28.8086 41.6738 26.6119 38.6295 27.5892 35.6716L29.2757 30.5689H9.05513V41.6738H12.48C12.48 43.9484 14.3222 45.7906 16.5968 45.7906H43.5978C45.8724 45.7906 47.7146 43.9484 47.7146 41.6738L45.907 24.8608Z" fill="#343434"/>
<path d="M16.5968 44.4933C15.849 44.4933 15.1318 44.1963 14.6031 43.6675C14.0743 43.1388 13.7773 42.4216 13.7773 41.6739V40.3766H10.3524V31.8663H27.4768L26.3524 35.2652C25.7557 37.0728 26.0497 39.0014 27.1654 40.5409C28.2811 42.0804 30.0108 42.9712 31.9222 42.9712H38.9968C40.6573 42.9712 42.2486 42.262 43.3643 41.0252C43.913 40.4117 44.3267 39.6896 44.5785 38.9059C44.8303 38.1223 44.9146 37.2944 44.8259 36.476L43.7103 26.1582H44.7481L46.4346 41.7344C46.4174 42.4712 46.113 43.1721 45.5862 43.6876C45.0595 44.203 44.3521 44.4922 43.6151 44.4933H16.5968Z" fill="#FF0000"/>
<path d="M43.6065 46.223H16.5967C14.2357 46.223 12.2811 44.4068 12.0649 42.1063H9.05513C8.81297 42.1063 8.6227 41.916 8.6227 41.6739V30.569C8.6227 30.3268 8.81297 30.1366 9.05513 30.1366H29.267C29.4054 30.1366 29.5351 30.2058 29.6216 30.3182C29.6995 30.4306 29.7254 30.5776 29.6822 30.7074L27.9957 35.8101C27.5719 37.0814 27.7794 38.4393 28.5665 39.529C28.9475 40.0626 29.4513 40.4967 30.0353 40.7948C30.6193 41.0928 31.2665 41.246 31.9222 41.2414H38.9967C40.173 41.2414 41.2886 40.7398 42.0757 39.8663C42.4641 39.4345 42.7567 38.9253 42.9341 38.3722C43.1115 37.8192 43.1697 37.2348 43.1049 36.6576L41.8335 24.9041C41.8162 24.783 41.8595 24.662 41.9459 24.5668C42.0324 24.4717 42.1449 24.4198 42.2659 24.4198H45.907C46.0146 24.4193 46.1185 24.4588 46.1985 24.5308C46.2784 24.6028 46.3287 24.702 46.3395 24.809L48.1643 41.622C48.1557 44.182 46.1146 46.223 43.6065 46.223ZM9.48756 41.2414H12.48C12.7222 41.2414 12.9124 41.4317 12.9124 41.6739C12.9124 43.7063 14.5643 45.3582 16.5967 45.3582H43.6065C45.6389 45.3582 47.2908 43.7063 47.2908 41.6739L45.5092 25.2933H42.733L43.9524 36.5712C44.1081 37.9809 43.6497 39.3906 42.707 40.4458C42.2381 40.9676 41.6647 41.3851 41.024 41.6712C40.3833 41.9572 39.6897 42.1055 38.9881 42.1063H31.9135C31.1204 42.1115 30.3377 41.9255 29.6317 41.5642C28.9257 41.2029 28.317 40.6769 27.8573 40.0306C27.3903 39.3912 27.0837 38.6489 26.9633 37.8663C26.8429 37.0837 26.9122 36.2836 27.1654 35.5333L28.6616 31.0014H9.48756V41.2414Z" fill="black"/>
<path d="M4.32433 45.7906C4.32433 39.1485 9.72108 33.7517 16.3632 33.7517C22.9881 33.7517 28.3849 39.1485 28.3849 45.7906H4.32433Z" fill="#FF0000"/>
<path opacity="0.2" d="M4.32433 45.7906C4.32433 39.1485 9.72108 33.7517 16.3632 33.7517C22.9881 33.7517 28.3849 39.1485 28.3849 45.7906H4.32433Z" fill="#343434"/>
<path d="M5.69946 44.4933C6.33946 39.1744 10.88 35.049 16.3632 35.049C21.8378 35.049 26.3697 39.183 27.0097 44.4933H5.69946Z" fill="#FF0000"/>
<path d="M28.3935 46.223H4.32432C4.08216 46.223 3.89189 46.0327 3.89189 45.7906C3.89189 38.9149 9.48757 33.3192 16.3632 33.3192C23.2303 33.3192 28.8173 38.9149 28.8173 45.7906C28.8259 46.0327 28.627 46.223 28.3935 46.223ZM4.76541 45.3581H27.9524C27.7276 39.1571 22.6162 34.1841 16.3719 34.1841C10.1103 34.1841 4.99027 39.1571 4.76541 45.3581Z" fill="black"/>
<path d="M21.4746 38.8717H11.2432C11.0011 38.8717 10.8108 38.6814 10.8108 38.4393C10.8108 38.1971 11.0011 38.0068 11.2432 38.0068H21.4746C21.7168 38.0068 21.907 38.1971 21.907 38.4393C21.907 38.6814 21.7081 38.8717 21.4746 38.8717ZM21.4746 41.1549H11.2432C11.0011 41.1549 10.8108 40.9647 10.8108 40.7225C10.8108 40.4803 11.0011 40.2901 11.2432 40.2901H21.4746C21.7168 40.2901 21.907 40.4803 21.907 40.7225C21.907 40.9647 21.7081 41.1549 21.4746 41.1549ZM21.4746 43.4382H11.2432C11.0011 43.4382 10.8108 43.2479 10.8108 43.0058C10.8108 42.7636 11.0011 42.5733 11.2432 42.5733H21.4746C21.7168 42.5733 21.907 42.7636 21.907 43.0058C21.907 43.2479 21.7081 43.4382 21.4746 43.4382Z" fill="black"/>
<path d="M31.0573 29.9722L31.6368 28.2252C31.8703 27.516 31.3427 26.7809 30.5903 26.7809H8.83892C8.23351 26.7809 7.74054 27.2739 7.74054 27.8793V29.6263C7.74054 30.2317 8.23351 30.7247 8.83892 30.7247H30.0108C30.4865 30.7247 30.9016 30.422 31.0573 29.9722Z" fill="#343434"/>
<path d="M30.0108 31.1572H8.83892C7.99135 31.1572 7.30811 30.4653 7.30811 29.6263V27.8707C7.30811 27.0231 8 26.3399 8.83892 26.3399H30.5816C30.8249 26.3387 31.0649 26.3955 31.2818 26.5056C31.4988 26.6156 31.6864 26.7757 31.8292 26.9726C31.9721 27.1695 32.066 27.3976 32.1032 27.6379C32.1404 27.8783 32.1198 28.1241 32.0432 28.355L31.4638 30.102C31.2562 30.7334 30.6681 31.1572 30.0108 31.1572ZM8.83892 27.2047C8.6623 27.2047 8.49291 27.2749 8.36802 27.3998C8.24313 27.5247 8.17297 27.694 8.17297 27.8707V29.6177C8.17297 29.9896 8.47567 30.2836 8.83892 30.2836H30.0108C30.2962 30.2836 30.5557 30.102 30.6422 29.8253L31.2216 28.0782C31.2908 27.8707 31.2562 27.6545 31.1265 27.4728C31.0636 27.3874 30.9815 27.3178 30.8869 27.2698C30.7923 27.2217 30.6877 27.1965 30.5816 27.1961H8.83892V27.2047Z" fill="black"/>
<path d="M23.0573 13.1593V25.8555C23.0573 26.3658 22.6422 26.7723 22.1405 26.7723H7.62811C7.11784 26.7723 6.71135 26.3572 6.71135 25.8555V13.1593C6.71135 12.6491 7.12648 12.2426 7.62811 12.2426H22.1405C22.6508 12.2339 23.0573 12.6491 23.0573 13.1593Z" fill="#FF9F3F"/>
<path opacity="0.2" d="M23.0573 13.1593V25.8555C23.0573 26.3658 22.6422 26.7723 22.1405 26.7723H7.62811C7.11784 26.7723 6.71135 26.3572 6.71135 25.8555V13.1593C6.71135 12.6491 7.12648 12.2426 7.62811 12.2426H22.1405C22.6508 12.2339 23.0573 12.6491 23.0573 13.1593Z" fill="#343434"/>
<path d="M8.00865 13.5398H21.76V25.4749H8.00865V13.5398Z" fill="#FF9F3F"/>
<path d="M16.8995 12.2339V16.7485L14.8843 15.9009L12.8692 16.7485V12.2339H16.8995Z" fill="#E6E6E6"/>
<path d="M22.1405 27.2047H7.6281C6.88432 27.2047 6.27892 26.5992 6.27892 25.8555V13.1592C6.27892 12.4155 6.88432 11.8101 7.6281 11.8101H22.1405C22.8843 11.8101 23.4897 12.4155 23.4897 13.1592V25.8555C23.4897 26.5992 22.8843 27.2047 22.1405 27.2047ZM7.6281 12.6663C7.49965 12.6663 7.37646 12.7173 7.28563 12.8081C7.19481 12.899 7.14378 13.0221 7.14378 13.1506V25.8468C7.14378 26.1149 7.36 26.3311 7.6281 26.3311H22.1405C22.4086 26.3311 22.6249 26.1149 22.6249 25.8468V13.1592C22.6249 13.0308 22.5738 12.9076 22.483 12.8168C22.3922 12.726 22.269 12.6749 22.1405 12.6749H7.6281V12.6663Z" fill="black"/>
<path d="M16.8995 17.1809C16.8389 17.1809 16.787 17.1722 16.7351 17.1463L14.8843 16.3679L13.0335 17.1463C12.8951 17.1981 12.7481 17.1895 12.627 17.1117C12.5674 17.0719 12.5188 17.0178 12.4856 16.9543C12.4523 16.8908 12.4355 16.8201 12.4368 16.7484V12.2338C12.4368 11.9917 12.627 11.8014 12.8692 11.8014H16.9081C17.1503 11.8014 17.3405 11.9917 17.3405 12.2338V16.7484C17.3405 16.8954 17.2713 17.0252 17.1503 17.1117C17.0755 17.1594 16.9881 17.1835 16.8995 17.1809ZM14.8843 15.4684C14.9449 15.4684 14.9968 15.4771 15.0486 15.503L16.467 16.0998V12.6663H13.293V16.0998L14.7113 15.503C14.7719 15.4771 14.8324 15.4684 14.8843 15.4684Z" fill="black"/>
<path d="M46.0368 19.3517C47.8184 19.3517 49.2714 20.7614 49.2714 22.4911C49.2714 24.2209 47.827 25.6306 46.0368 25.6306V19.3517Z" fill="#E6E6E6"/>
<path d="M46.0368 26.0631C45.7946 26.0631 45.6043 25.8728 45.6043 25.6307V19.3517C45.6043 19.1096 45.7946 18.9193 46.0368 18.9193C48.0519 18.9193 49.6951 20.5193 49.6951 22.4912C49.7038 24.4631 48.0605 26.0631 46.0368 26.0631ZM46.4692 19.8188V25.1723C47.8097 24.9734 48.8303 23.849 48.8303 22.4999C48.8389 21.142 47.8097 20.0177 46.4692 19.8188Z" fill="black"/>
<path d="M46.9189 26.2706C43.373 26.2706 40.4843 24.5755 40.4843 22.4911C40.4843 20.4068 43.3643 18.7117 46.9189 18.7117V26.2706Z" fill="#FF0000"/>
<path opacity="0.2" d="M46.9189 26.2706C43.373 26.2706 40.4843 24.5755 40.4843 22.4911C40.4843 20.4068 43.3643 18.7117 46.9189 18.7117V26.2706Z" fill="#343434"/>
<path d="M46.9189 25.2933C44.2897 25.2933 42.1622 24.0393 42.1622 22.4911C42.1622 20.9517 44.2984 19.6976 46.9189 19.6976V25.2933Z" fill="#FF0000"/>
<path d="M46.9189 26.7031C43.0703 26.7031 40.0519 24.8523 40.0519 22.4912C40.0519 20.1301 43.0703 18.2793 46.9189 18.2793C47.1611 18.2793 47.3514 18.4696 47.3514 18.7117V26.2706C47.3514 26.5128 47.1611 26.7031 46.9189 26.7031ZM46.4865 19.1528C43.4249 19.2825 40.9168 20.7528 40.9168 22.4912C40.9168 24.2296 43.4249 25.6998 46.4865 25.8296V19.1528Z" fill="black"/>
<path d="M42.4995 23.8663C42.4995 24.5409 41.9459 25.0858 41.28 25.0858C40.6141 25.0858 40.0605 24.5323 40.0605 23.8663C40.0605 23.1917 40.6141 22.6469 41.28 22.6469C41.9459 22.6469 42.4995 23.2004 42.4995 23.8663Z" fill="#343434"/>
<path d="M41.2714 25.5269C40.8332 25.5269 40.4131 25.3528 40.1033 25.043C39.7935 24.7332 39.6195 24.3131 39.6195 23.875C39.6195 23.4369 39.7935 23.0167 40.1033 22.7069C40.4131 22.3971 40.8332 22.2231 41.2714 22.2231C41.7095 22.2231 42.1296 22.3971 42.4394 22.7069C42.7492 23.0167 42.9232 23.4369 42.9232 23.875C42.9232 24.3131 42.7492 24.7332 42.4394 25.043C42.1296 25.3528 41.7095 25.5269 41.2714 25.5269ZM41.2714 23.0793C40.8389 23.0793 40.4843 23.4339 40.4843 23.8663C40.4843 24.2988 40.8389 24.6534 41.2714 24.6534C41.7038 24.6534 42.0584 24.2988 42.0584 23.8663C42.0584 23.4339 41.7124 23.0793 41.2714 23.0793ZM44.307 23.1571C44.1254 23.1571 43.9524 23.0361 43.8919 22.8544L42.5341 18.5561C42.5137 18.4939 42.4744 18.4396 42.4217 18.4008C42.369 18.3621 42.3054 18.3407 42.24 18.3398H41.28C41.0378 18.3398 40.8476 18.1496 40.8476 17.9074C40.8476 17.6652 41.0378 17.475 41.28 17.475H42.24C42.7589 17.475 43.2086 17.8036 43.3643 18.2966L44.7222 22.595C44.7914 22.8198 44.6703 23.062 44.4368 23.1398C44.3935 23.1571 44.3503 23.1571 44.307 23.1571Z" fill="black"/>
<path d="M40.0519 15.6847C41.1589 15.6847 42.0584 16.5582 42.0584 17.6393C42.0584 18.7117 41.1589 19.5852 40.0519 19.5852V15.6847Z" fill="#343434"/>
<path d="M40.0519 20.0176C39.8097 20.0176 39.6195 19.8273 39.6195 19.5852V15.6846C39.6195 15.4425 39.8097 15.2522 40.0519 15.2522C41.4011 15.2522 42.4908 16.3246 42.4908 17.6392C42.4908 18.9538 41.3924 20.0176 40.0519 20.0176ZM40.4843 16.1776V19.1008C41.1416 18.9192 41.6259 18.3311 41.6259 17.6392C41.6259 16.9473 41.1416 16.3592 40.4843 16.1776Z" fill="black"/>
</svg>
