<svg width="64" height="65" viewBox="0 0 64 65" fill="none" xmlns="http://www.w3.org/2000/svg">
<path d="M46 32.8679H40V51.8679H46V32.8679Z" fill="#64C37D"/>
<path d="M35 34.8679H29V40.8679H35V34.8679Z" fill="#FF5023"/>
<path d="M59 23.8679V27.8679H55V23.8679C55.0016 23.338 55.2128 22.8302 55.5875 22.4555C55.9623 22.0807 56.4701 21.8695 57 21.8679C57.5292 21.8718 58.0356 22.0838 58.4099 22.458C58.7841 22.8323 58.9961 23.3387 59 23.8679Z" fill="#D80027"/>
<path d="M61 11.8679V13.8679L32 19.8679L3 13.8679V11.8679L32 3.86792L61 11.8679Z" fill="#FFDA44"/>
<path d="M51 15.938V29.868C51 32.838 46 35.368 38.93 36.388C36.6343 36.7125 34.3185 36.8729 32 36.868C21.51 36.868 13 33.738 13 29.868V15.938L32 19.868L51 15.938Z" fill="#FF9811"/>
<path d="M15 32.998C16.92 34.408 20.1 35.548 24 36.218V57.868H15V32.998Z" fill="#9BFBFF"/>
<path d="M35 43.8679V56.8679L33 54.8679L32 55.8679L31 54.8679L29 56.8679V43.8679H35Z" fill="#FF5023"/>
<path d="M35 40.8679H29V43.8679H35V40.8679Z" fill="#E0E0E2"/>
<path d="M35 56.8679V57.8679L32 61.8679L29 57.8679V56.8679L31 54.8679L32 55.8679L33 54.8679L35 56.8679Z" fill="#2D2D30"/>
<path d="M46 51.8679L43 57.8679L40 51.8679H46Z" fill="#00665A"/>
<path d="M61.27 10.908L32.27 2.90797C32.0935 2.85799 31.9065 2.85799 31.73 2.90797L2.73 10.908C2.52042 10.9667 2.33574 11.0923 2.20399 11.2655C2.07224 11.4388 2.00062 11.6503 2 11.868V13.868C1.99995 14.0985 2.07956 14.322 2.22534 14.5006C2.37112 14.6791 2.57413 14.8019 2.8 14.848L12 16.748V29.868C12.0355 30.5867 12.234 31.2878 12.5805 31.9185C12.927 32.5491 13.4124 33.0926 14 33.508V57.868C14 58.1332 14.1054 58.3875 14.2929 58.5751C14.4804 58.7626 14.7348 58.868 15 58.868H24C24.2652 58.868 24.5196 58.7626 24.7071 58.5751C24.8946 58.3875 25 58.1332 25 57.868V37.378C25.98 37.518 26.99 37.628 28 37.708V57.868C27.9988 58.0845 28.0691 58.2954 28.2 58.468L31.2 62.468C31.2931 62.5922 31.4139 62.693 31.5528 62.7624C31.6916 62.8318 31.8448 62.868 32 62.868C32.1552 62.868 32.3084 62.8318 32.4472 62.7624C32.5861 62.693 32.7069 62.5922 32.8 62.468L35.8 58.468C35.9309 58.2954 36.0012 58.0845 36 57.868V37.708C37.01 37.628 38.02 37.518 39 37.378V51.868C39.0009 52.0245 39.0386 52.1786 39.11 52.318L42.11 58.318C42.1939 58.4818 42.3214 58.6192 42.4784 58.7152C42.6355 58.8112 42.816 58.862 43 58.862C43.184 58.862 43.3645 58.8112 43.5216 58.7152C43.6786 58.6192 43.8061 58.4818 43.89 58.318L46.89 52.318C46.9614 52.1786 46.9991 52.0245 47 51.868V35.278C50.03 33.958 52 32.138 52 29.868V16.748L56 15.928V21.048C55.4173 21.2555 54.9126 21.6376 54.5548 22.1422C54.1969 22.6468 54.0032 23.2494 54 23.868V27.868C54 28.1332 54.1054 28.3875 54.2929 28.5751C54.4804 28.7626 54.7348 28.868 55 28.868H59C59.2652 28.868 59.5196 28.7626 59.7071 28.5751C59.8946 28.3875 60 28.1332 60 27.868V23.868C59.9968 23.2494 59.8031 22.6468 59.4452 22.1422C59.0874 21.6376 58.5827 21.2555 58 21.048V15.508L61.2 14.848C61.4259 14.8019 61.6289 14.6791 61.7747 14.5006C61.9204 14.322 62 14.0985 62 13.868V11.868C61.9994 11.6503 61.9278 11.4388 61.796 11.2655C61.6643 11.0923 61.4796 10.9667 61.27 10.908ZM23 56.868H16V52.868H20V50.868H16V45.868H18V43.868H16V38.868H20V36.868H16V34.798C18.2176 35.8691 20.5736 36.6264 23 37.048V56.868ZM34 57.538L32 60.198L30 57.538V57.278L31 56.278L31.29 56.578C31.4788 56.7653 31.734 56.8705 32 56.8705C32.266 56.8705 32.5212 56.7653 32.71 56.578L33 56.278L34 57.278V57.538ZM34 54.458L33.71 54.158C33.5212 53.9706 33.266 53.8655 33 53.8655C32.734 53.8655 32.4788 53.9706 32.29 54.158L32 54.458L31.71 54.158C31.5212 53.9706 31.266 53.8655 31 53.8655C30.734 53.8655 30.4788 53.9706 30.29 54.158L30 54.458V44.868H34V54.458ZM34 42.868H30V41.868H34V42.868ZM34 39.868H30V37.828C30.67 37.858 31.33 37.868 32 37.868C32.67 37.868 33.33 37.858 34 37.828V39.868ZM43 55.628L41.62 52.868H44.38L43 55.628ZM45 50.868H41V37.048C42.3544 36.7969 43.6907 36.4561 45 36.028V50.868ZM50 29.868C50 32.708 42.61 35.868 32 35.868C21.39 35.868 14 32.708 14 29.868V17.168L31.8 20.848C31.932 20.8746 32.068 20.8746 32.2 20.848L50 17.168V29.868ZM58 26.868H56V23.868C56 23.6028 56.1054 23.3484 56.2929 23.1609C56.4804 22.9733 56.7348 22.868 57 22.868C57.2652 22.868 57.5196 22.9733 57.7071 23.1609C57.8946 23.3484 58 23.6028 58 23.868V26.868ZM60 13.058L58 13.468V12.868H56V13.878L32 18.848L4 13.058V12.628L32 4.90797L60 12.628V13.058Z" fill="black"/>
<path d="M44 37.8679H42V48.8679H44V37.8679Z" fill="black"/>
</svg>
