<svg width="64" height="65" viewBox="0 0 64 65" fill="none" xmlns="http://www.w3.org/2000/svg">
<g clip-path="url(#clip0_132_2354)">
<path d="M7.67466 31.1519C7.89866 31.5581 8.13732 31.9635 8.39066 32.3679C12.8987 39.5759 31.844 59.6866 31.844 59.6866C31.844 59.6866 50.088 40.6346 55.2187 32.9706L56.8627 30.1279C62.976 17.7866 56.6093 5.04925 46.3133 5.04925C43.3083 4.94785 40.3412 5.74495 37.7916 7.33865C35.2419 8.93234 33.2254 11.2502 32 13.9959C30.7745 11.2502 28.7581 8.93234 26.2084 7.33865C23.6587 5.74495 20.6917 4.94785 17.6867 5.04925C7.99999 5.04925 1.79599 16.3133 6.17599 27.9199L7.67466 31.1519Z" fill="#EA4867"/>
<path d="M63 29.128H58.412C61.0853 22.728 60.812 15.7506 57.612 10.5946C56.4577 8.61688 54.8084 6.97371 52.8264 5.82676C50.8444 4.67982 48.5979 4.06862 46.308 4.0533C43.4475 3.97685 40.6176 4.65775 38.105 6.02704C35.5924 7.39633 33.4863 9.40536 32 11.8506C30.5139 9.40402 28.4074 7.39381 25.894 6.02376C23.3805 4.65372 20.5495 3.97255 17.688 4.04929C15.5309 4.06407 13.4106 4.60908 11.5137 5.63632C9.6169 6.66356 8.00178 8.1415 6.81067 9.93996C3.372 14.9133 2.78533 21.7666 5.24 28.2733C5.34494 28.5048 5.53412 28.6877 5.76907 28.7848C6.00403 28.8818 6.26713 28.8857 6.50487 28.7957C6.74261 28.7057 6.93715 28.5285 7.04894 28.3002C7.16073 28.0719 7.18137 27.8096 7.10667 27.5666C4.888 21.6746 5.39067 15.5106 8.456 11.0773C9.45538 9.53764 10.823 8.27154 12.435 7.3936C14.0469 6.51567 15.8524 6.05362 17.688 6.0493C20.4931 5.93502 23.2678 6.66541 25.6531 8.14592C28.0383 9.62643 29.9243 11.7889 31.0667 14.3533C31.1528 14.5273 31.2858 14.6738 31.4507 14.7762C31.6156 14.8786 31.8059 14.9328 32 14.9328C32.1941 14.9328 32.3844 14.8786 32.5493 14.7762C32.7142 14.6738 32.8472 14.5273 32.9333 14.3533C34.0757 11.7889 35.9617 9.62643 38.3469 8.14592C40.7322 6.66541 43.507 5.93502 46.312 6.0493C48.2605 6.06969 50.1701 6.5967 51.8533 7.57853C53.5364 8.56037 54.9352 9.96325 55.912 11.6493C58.9027 16.4693 58.9787 23.116 56.2 29.132H52.0853C51.9279 29.1324 51.7728 29.1697 51.6324 29.2411C51.4921 29.3124 51.3705 29.4157 51.2773 29.5426L50.5373 30.5586L48.8333 24.272C48.7774 24.0652 48.6565 23.882 48.4884 23.7492C48.3204 23.6164 48.1141 23.5412 47.9 23.5346H47.8667C47.6573 23.5348 47.4532 23.6006 47.2831 23.7228C47.113 23.8451 46.9856 24.0175 46.9187 24.216L44.0173 32.8546L41.8253 18.4546C41.7913 18.2296 41.6816 18.0229 41.5142 17.8686C41.3469 17.7144 41.1319 17.6219 40.9048 17.6063C40.6778 17.5908 40.4522 17.6531 40.2654 17.7831C40.0786 17.9131 39.9417 18.103 39.8773 18.3213L36.716 29.128H32.492C32.2698 29.128 32.054 29.2021 31.8787 29.3385C31.7034 29.4749 31.5786 29.6659 31.524 29.8813L30.948 32.148L28.096 23.7333C28.0303 23.5395 27.9068 23.3705 27.742 23.2492C27.5772 23.1278 27.3792 23.0599 27.1747 23.0546C26.9693 23.0478 26.7669 23.1052 26.5955 23.2187C26.4242 23.3322 26.2925 23.4962 26.2187 23.688L21.6267 35.3413L18.96 12.6893C18.9328 12.4551 18.8236 12.2381 18.6519 12.0765C18.4802 11.9149 18.2569 11.8193 18.0215 11.8063C17.7861 11.7934 17.5537 11.8641 17.3653 12.0059C17.1769 12.1477 17.0447 12.3515 16.992 12.5813L12.976 29.932H1C0.734784 29.932 0.48043 30.0373 0.292893 30.2249C0.105357 30.4124 0 30.6667 0 30.932C0 31.1972 0.105357 31.4515 0.292893 31.6391C0.48043 31.8266 0.734784 31.932 1 31.932H6.97333C7.15733 32.2546 7.34133 32.5773 7.54267 32.8986C12.052 40.1013 30.34 59.548 31.116 60.368C31.209 60.4669 31.3211 60.5458 31.4456 60.5999C31.5701 60.654 31.7043 60.6821 31.84 60.6826C31.975 60.6827 32.1086 60.6554 32.2328 60.6025C32.357 60.5495 32.4692 60.472 32.5627 60.3746C33.3093 59.5933 50.924 41.1746 56.0453 33.524C56.1201 33.4149 56.1725 33.2921 56.1995 33.1627C56.2266 33.0333 56.2276 32.8997 56.2027 32.7699C56.1778 32.64 56.1274 32.5164 56.0543 32.4062C55.9813 32.2959 55.8872 32.2013 55.7773 32.1277C55.6675 32.0541 55.5441 32.003 55.4144 31.9773C55.2847 31.9517 55.1512 31.9521 55.0216 31.9784C54.892 32.0047 54.769 32.0565 54.6595 32.1306C54.5501 32.2048 54.4564 32.3 54.384 32.4106C49.9387 39.048 35.2907 54.5973 31.8507 58.2266C28.3627 54.5013 13.296 38.244 9.30133 31.932H13.772C13.9981 31.932 14.2176 31.8555 14.3946 31.7148C14.5716 31.5741 14.6957 31.3776 14.7467 31.1573L17.64 18.6346L20.1053 39.5253C20.1319 39.7465 20.2314 39.9526 20.3881 40.111C20.5448 40.2694 20.7498 40.371 20.9707 40.4C21.0149 40.4055 21.0594 40.4081 21.104 40.408C21.3054 40.4091 21.5023 40.3492 21.669 40.2361C21.8356 40.1231 21.964 39.9622 22.0373 39.7746L27.0893 26.964L30.1333 35.9946C30.2026 36.1988 30.3361 36.3751 30.5137 36.4972C30.6914 36.6194 30.9038 36.6808 31.1192 36.6724C31.3346 36.664 31.5416 36.5862 31.7092 36.4506C31.8768 36.315 31.9961 36.1289 32.0493 35.92L33.2653 31.128H37.4667C37.6827 31.128 37.8929 31.0579 38.0657 30.9284C38.2386 30.7988 38.3648 30.6167 38.4253 30.4093L40.5333 23.2186L42.6667 37.2333C42.7006 37.4548 42.808 37.6585 42.9716 37.8116C43.1351 37.9648 43.3454 38.0586 43.5687 38.078C43.7919 38.0973 44.0152 38.0412 44.2027 37.9185C44.3902 37.7958 44.5311 37.6136 44.6027 37.4013L47.7693 27.9746L49.1573 33.0906C49.2067 33.2725 49.3065 33.4367 49.4452 33.5644C49.5839 33.692 49.7559 33.7778 49.9412 33.812C50.1266 33.8461 50.3178 33.8272 50.4929 33.7574C50.6679 33.6875 50.8197 33.5696 50.9307 33.4173L52.5987 31.128H62.9987C63.2639 31.128 63.5182 31.0226 63.7058 30.8351C63.8933 30.6475 63.9987 30.3932 63.9987 30.128C63.9987 29.8627 63.8933 29.6084 63.7058 29.4209C63.5182 29.2333 63.2652 29.128 63 29.128Z" fill="#1A1A1A"/>
</g>
<defs>
<clipPath id="clip0_132_2354">
<rect width="64" height="64" fill="white" transform="translate(0 0.36792)"/>
</clipPath>
</defs>
</svg>
