<svg width="64" height="65" viewBox="0 0 64 65" fill="none" xmlns="http://www.w3.org/2000/svg">
<path d="M33.4082 52.8816V47.8559C33.4082 47.7477 33.4512 47.6439 33.5278 47.5673C33.6043 47.4908 33.7081 47.4478 33.8164 47.4478C33.9246 47.4478 34.0284 47.4908 34.105 47.5673C34.1815 47.6439 34.2245 47.7477 34.2245 47.8559V52.8816C34.2245 58.9171 40.4516 63.0056 45.9139 60.5289C56.6582 55.6579 63.4189 44.8854 63.1367 33.0844C62.7619 17.3993 49.5559 4.4703 33.833 4.4703C21.021 4.4703 9.52925 12.9317 5.772 25.2019C5.74029 25.3054 5.66876 25.3921 5.57314 25.4429C5.47752 25.4937 5.36564 25.5044 5.26213 25.4727C5.15861 25.441 5.07193 25.3694 5.02115 25.2738C4.97038 25.1782 4.95967 25.0663 4.99138 24.9628C8.853 12.3518 20.6658 3.65405 33.833 3.65405C50.0919 3.65405 63.563 16.7688 63.953 33.0649C64.2425 45.1938 57.294 56.2658 46.2509 61.2724C40.2405 63.9964 33.4082 59.5034 33.4082 52.8816Z" fill="#646464"/>
<path d="M23.4184 30.594C23.4184 29.6292 24.2006 28.8469 25.1655 28.8469H42.3662C43.3311 28.8469 44.1134 29.6292 44.1134 30.594C44.1134 31.5589 43.3311 32.3412 42.3662 32.3412H25.1654C24.2005 32.3412 23.4184 31.5589 23.4184 30.594Z" fill="#F9E109"/>
<path d="M25.2659 40.0091V32.3413H42.2659V40.0091C42.2659 44.7034 38.4604 48.5091 33.7659 48.5091C29.0714 48.5091 25.2659 44.7034 25.2659 40.0091Z" fill="#F8664F"/>
<path d="M30.2541 20.6837V28.847H27.551V20.6837C27.551 19.9373 28.1561 19.3322 28.9025 19.3322C29.649 19.3322 30.2541 19.9373 30.2541 20.6837ZM39.9806 20.6837V28.847H37.2775V20.6837C37.2775 19.9373 37.8826 19.3322 38.629 19.3322C39.3755 19.3322 39.9806 19.9373 39.9806 20.6837Z" fill="#878787"/>
<path d="M33.7658 42.7678C35.5572 42.7678 37.0095 41.3155 37.0095 39.524C37.0095 37.7325 35.5572 36.2803 33.7658 36.2803C31.9743 36.2803 30.522 37.7325 30.522 39.524C30.522 41.3155 31.9743 42.7678 33.7658 42.7678Z" fill="#EEF0EE"/>
<path d="M14.3084 41.4223C13.4605 43.3363 12.0489 47.4986 13.9099 50.8637C14.1989 51.3862 13.7111 51.9912 13.1429 51.8078C7.59237 50.0173 -7.76538 43.1805 4.94462 24.9866C4.99437 24.912 5.04525 24.8385 5.09712 24.7648C5.13179 24.7154 5.17792 24.6751 5.23156 24.6474C5.2852 24.6198 5.34476 24.6055 5.40512 24.6058C5.49323 24.6064 5.58132 24.6081 5.66937 24.6111C7.95812 24.683 17.8966 25.6428 15.6862 37.1355C15.4022 38.6145 14.919 40.0446 14.3084 41.4223Z" fill="#A1D51C"/>
<path d="M8.01363 38.4218C7.989 38.6156 7.84638 38.7777 7.55663 38.7777C7.33463 38.7483 7.17463 38.5458 7.204 38.3206C7.21375 38.2455 8.09538 30.808 4.94463 24.9866C4.994 24.9126 5.04438 24.8397 5.096 24.7666C5.13104 24.7166 5.17769 24.6758 5.23195 24.6478C5.2862 24.6198 5.34645 24.6054 5.4075 24.6058C5.47775 24.6062 5.56575 24.6076 5.6695 24.6111C8.94088 30.6611 8.05275 38.1051 8.01363 38.4218Z" fill="#96BF16"/>
</svg>
