<svg width="64" height="65" viewBox="0 0 64 65" fill="none" xmlns="http://www.w3.org/2000/svg">
<g clip-path="url(#clip0_133_2664)">
<path d="M32 24.3679C33.1046 24.3679 34 23.4725 34 22.3679C34 21.2634 33.1046 20.3679 32 20.3679C30.8954 20.3679 30 21.2634 30 22.3679C30 23.4725 30.8954 24.3679 32 24.3679Z" fill="#39D5FE"/>
<path fill-rule="evenodd" clip-rule="evenodd" d="M27.7581 18.1248C30.1 15.7828 33.9014 15.7828 36.2433 18.1248C37.024 18.9054 38.2911 18.9054 39.0718 18.1248C39.8524 17.3441 39.8524 16.077 39.0718 15.2964C35.1685 11.3931 28.8329 11.3931 24.9296 15.2964C24.149 16.077 24.149 17.3441 24.9296 18.1248C25.7103 18.9054 26.9774 18.9054 27.7581 18.1248Z" fill="#19B5FF"/>
<path fill-rule="evenodd" clip-rule="evenodd" d="M22.1024 12.4687C27.5669 7.00414 36.4368 7.00414 41.9014 12.4687C42.682 13.2493 43.9491 13.2493 44.7298 12.4687C45.5104 11.688 45.5104 10.4209 44.7298 9.64023C37.704 2.61442 26.2998 2.61442 19.2739 9.64023C18.4933 10.4209 18.4933 11.688 19.2739 12.4687C20.0546 13.2493 21.3217 13.2493 22.1024 12.4687Z" fill="#1397E1"/>
<path fill-rule="evenodd" clip-rule="evenodd" d="M56 41.3679C56 42.4729 55.105 43.3679 54 43.3679C49.183 43.3679 37.333 43.3679 37.333 43.3679C37.333 43.3679 38.782 39.0209 39.544 36.7359C39.816 35.9189 40.581 35.3679 41.442 35.3679C45.375 35.3679 56 35.3679 56 35.3679V41.3679Z" fill="#C0C0C0"/>
<path fill-rule="evenodd" clip-rule="evenodd" d="M58 27.3679H10C9.47 27.3679 8.961 27.5789 8.586 27.9539C8.211 28.3289 8 28.8379 8 29.3679C8 33.1999 8 41.5359 8 45.3679C8 45.8979 8.211 46.4069 8.586 46.7819C8.961 47.1569 9.47 47.3679 10 47.3679H34.558C35.419 47.3679 36.184 46.8169 36.456 45.9999C37.226 43.6909 38.774 39.0449 39.544 36.7359C39.816 35.9189 40.581 35.3679 41.442 35.3679C45.375 35.3679 56 35.3679 56 35.3679C56.758 35.3679 57.45 34.9399 57.789 34.2619L59.789 30.2619C60.099 29.6419 60.066 28.9059 59.701 28.3169C59.337 27.7269 58.693 27.3679 58 27.3679Z" fill="#505050"/>
<path d="M14 35.3679C15.1046 35.3679 16 34.4725 16 33.3679C16 32.2634 15.1046 31.3679 14 31.3679C12.8954 31.3679 12 32.2634 12 33.3679C12 34.4725 12.8954 35.3679 14 35.3679Z" fill="#2DCC70"/>
<path d="M22 35.3679C23.1046 35.3679 24 34.4725 24 33.3679C24 32.2634 23.1046 31.3679 22 31.3679C20.8954 31.3679 20 32.2634 20 33.3679C20 34.4725 20.8954 35.3679 22 35.3679Z" fill="#2DCC70"/>
<path fill-rule="evenodd" clip-rule="evenodd" d="M32 47.3679H12V49.3679C12 49.8979 12.211 50.4069 12.586 50.7819C12.961 51.1569 13.47 51.3679 14 51.3679C17.832 51.3679 26.168 51.3679 30 51.3679C30.53 51.3679 31.039 51.1569 31.414 50.7819C31.789 50.4069 32 49.8979 32 49.3679C32 48.3679 32 47.3679 32 47.3679Z" fill="#C0C0C0"/>
<path fill-rule="evenodd" clip-rule="evenodd" d="M24.236 51.3679H19.764L17.764 55.3679H6C4.896 55.3679 4 56.2639 4 57.3679C4 58.4719 4.896 59.3679 6 59.3679H19C19.758 59.3679 20.45 58.9399 20.789 58.2619L24.236 51.3679Z" fill="#909090"/>
<path fill-rule="evenodd" clip-rule="evenodd" d="M8 31.3679H6C4.895 31.3679 4 32.2629 4 33.3679C4 35.5879 4 39.1479 4 41.3679C4 42.4729 4.895 43.3679 6 43.3679C7 43.3679 8 43.3679 8 43.3679V31.3679Z" fill="#C0C0C0"/>
<path fill-rule="evenodd" clip-rule="evenodd" d="M18.146 52.3679L17.146 54.3679H6C4.344 54.3679 3 55.7119 3 57.3679C3 59.0239 4.344 60.3679 6 60.3679H19C20.136 60.3679 21.175 59.7259 21.683 58.7099L24.854 52.3679H30C30.796 52.3679 31.559 52.0519 32.121 51.4889C32.684 50.9269 33 50.1639 33 49.3679V48.3679H34.558C35.85 48.3679 36.996 47.5419 37.405 46.3169L38.054 44.3679H54C55.657 44.3679 57 43.0249 57 41.3679V39.3679C57 38.8159 56.552 38.3679 56 38.3679C55.448 38.3679 55 38.8159 55 39.3679V41.3679C55 41.9199 54.552 42.3679 54 42.3679H38.721L40.493 37.0519C40.629 36.6429 41.011 36.3679 41.442 36.3679H56C57.136 36.3679 58.175 35.7259 58.683 34.7099L60.683 30.7099C61.148 29.7799 61.099 28.6749 60.552 27.7909C60.005 26.9059 59.04 26.3679 58 26.3679H24C23.448 26.3679 23 26.8159 23 27.3679C23 27.9199 23.448 28.3679 24 28.3679H58C58.347 28.3679 58.668 28.5469 58.851 28.8419C59.033 29.1369 59.049 29.5049 58.894 29.8149L56.894 33.8149C56.725 34.1539 56.379 34.3679 56 34.3679C56 34.3679 45.375 34.3679 41.442 34.3679C40.15 34.3679 39.004 35.1939 38.595 36.4189L35.507 45.6839C35.371 46.0929 34.989 46.3679 34.558 46.3679H10C9.735 46.3679 9.48 46.2629 9.293 46.0749C9.105 45.8879 9 45.6329 9 45.3679V29.3679C9 29.1029 9.105 28.8479 9.293 28.6609C9.48 28.4729 9.735 28.3679 10 28.3679H20C20.552 28.3679 21 27.9199 21 27.3679C21 26.8159 20.552 26.3679 20 26.3679H10C9.204 26.3679 8.441 26.6839 7.879 27.2469C7.316 27.8089 7 28.5719 7 29.3679V30.3679H6C4.343 30.3679 3 31.7109 3 33.3679V41.3679C3 43.0249 4.343 44.3679 6 44.3679H7V45.3679C7 46.1639 7.316 46.9269 7.879 47.4889C8.441 48.0519 9.204 48.3679 10 48.3679H11V49.3679C11 50.1639 11.316 50.9269 11.879 51.4889C12.441 52.0519 13.204 52.3679 14 52.3679H18.146ZM6 56.3679H17.764L17.835 56.3659C18.185 56.3409 18.5 56.1329 18.658 55.8149L20.382 52.3679H22.618L19.894 57.8149C19.725 58.1539 19.379 58.3679 19 58.3679H6C5.448 58.3679 5 57.9199 5 57.3679C5 56.8159 5.448 56.3679 6 56.3679ZM30 50.3679H14C13.735 50.3679 13.48 50.2629 13.293 50.0749C13.105 49.8879 13 49.6329 13 49.3679V48.3679H31V49.3679C31 49.6329 30.895 49.8879 30.707 50.0749C30.52 50.2629 30.265 50.3679 30 50.3679ZM7 32.3679V42.3679H6C5.448 42.3679 5 41.9199 5 41.3679V33.3679C5 32.8159 5.448 32.3679 6 32.3679H7Z" fill="black"/>
</g>
<defs>
<clipPath id="clip0_133_2664">
<rect width="64" height="64" fill="white" transform="translate(0 0.36792)"/>
</clipPath>
</defs>
</svg>
