<svg width="64" height="65" viewBox="0 0 64 65" fill="none" xmlns="http://www.w3.org/2000/svg">
<g clip-path="url(#clip0_132_2337)">
<path d="M59.4 5.82129V58.8746H4.60001V5.83462L59.4 5.82129Z" fill="#FFE6A2"/>
<path d="M54.04 33.528H41.08V58.8746H54.04V33.528Z" fill="#FFB044"/>
<path d="M34.6893 33.5332H11.368V47.8465H34.6893V33.5332Z" fill="#FFB044"/>
<path d="M59.4013 1.36792H4.56668V5.81592H59.4013V1.36792Z" fill="#FFC261"/>
<path d="M63 58.876H1V63.3693H63V58.876Z" fill="#FFC261"/>
<path d="M41.08 55.9946H4.60001V58.8746H41.08V55.9946Z" fill="#FFD486"/>
<path d="M59.4 55.9946H54.04V58.8746H59.4V55.9946Z" fill="#FFD486"/>
<path d="M54.04 55.9946H41.08V58.8746H54.04V55.9946Z" fill="#FFA844"/>
<path d="M59.4 8.39453V28.0345C58.8014 28.3072 58.1615 28.4785 57.5067 28.5412C55.9646 28.6963 54.4215 28.257 53.1924 27.3129C51.9634 26.3688 51.141 24.9911 50.8933 23.4612L50.8133 23.0345H50.7067C50.6712 24.6423 50.0142 26.1739 48.8736 27.3077C47.733 28.4414 46.1976 29.0893 44.5896 29.1151C42.9816 29.141 41.4261 28.5429 40.2496 27.4465C39.0732 26.35 38.3672 24.8404 38.28 23.2345V23.0345H38.2267C38.193 24.6619 37.5229 26.2112 36.36 27.3502C35.1972 28.4892 33.6344 29.1271 32.0067 29.1271C30.379 29.1271 28.8161 28.4892 27.6533 27.3502C26.4905 26.2112 25.8204 24.6619 25.7867 23.0345H25.7333L25.72 23.2345C25.6328 24.8404 24.9269 26.35 23.7504 27.4465C22.5739 28.5429 21.0184 29.141 19.4104 29.1151C17.8024 29.0893 16.267 28.4414 15.1264 27.3077C13.9858 26.1739 13.3288 24.6423 13.2933 23.0345H13.1867L13.1067 23.4612C12.859 24.9911 12.0366 26.3688 10.8076 27.3129C9.57849 28.257 8.03538 28.6963 6.49334 28.5412C5.8385 28.4785 5.19866 28.3072 4.60001 28.0345V8.39453H59.4Z" fill="#FFD486"/>
<path d="M49.6267 23.8213C48.8923 24.8933 47.8407 25.7085 46.6194 26.1525C45.3982 26.5965 44.0686 26.6471 42.8172 26.2971C41.5658 25.9471 40.4553 25.2141 39.6416 24.201C38.8279 23.1879 38.3518 21.9454 38.28 20.648L37.48 5.82129H48.44L50.64 19.3146C50.9024 20.8915 50.5388 22.5085 49.6267 23.8213ZM15.56 5.82129L13.1067 20.8746C12.8724 22.2992 12.1413 23.5949 11.0431 24.532C9.94489 25.4692 8.55037 25.9873 7.10667 25.9946C6.90186 25.9991 6.69698 25.9901 6.49333 25.968C5.6119 25.8795 4.76029 25.6003 3.99769 25.1495C3.23509 24.6987 2.57979 24.0873 2.07733 23.3577C1.57488 22.6282 1.23732 21.7979 1.08811 20.9247C0.938907 20.0515 0.981637 19.1563 1.21333 18.3013L4.6 5.82129H15.56Z" fill="#EE6148"/>
<path d="M26.52 5.82129L25.72 20.648C25.6267 22.2346 24.9322 23.726 23.7778 24.8184C22.6234 25.9109 21.096 26.5222 19.5067 26.528C17.8593 26.5297 16.2786 25.8779 15.1112 24.7156C13.9439 23.5532 13.2853 21.9753 13.28 20.328C13.2801 19.9886 13.3069 19.6498 13.36 19.3146L15.56 5.82129H26.52ZM38.2533 20.3013C38.247 21.1333 38.0747 21.9556 37.7464 22.7201C37.4181 23.4846 36.9405 24.1759 36.3416 24.7534C35.7426 25.331 35.0344 25.7831 34.2585 26.0833C33.4826 26.3836 32.6545 26.5259 31.8228 26.5019C30.9911 26.478 30.1726 26.2882 29.4153 25.9438C28.6579 25.5994 27.9769 25.1072 27.4122 24.4961C26.8475 23.8851 26.4105 23.1675 26.1268 22.3853C25.8431 21.6032 25.7184 20.7723 25.76 19.9413L26.52 5.82129H37.48L38.24 19.9413C38.24 20.0613 38.2533 20.1813 38.2533 20.3013ZM61.96 23.3013C61.46 24.0464 60.8016 24.6719 60.0317 25.1329C59.2618 25.5939 58.3996 25.8791 57.5067 25.968C57.303 25.9901 57.0981 25.9991 56.8933 25.9946C55.4479 25.9937 54.05 25.4779 52.9504 24.5396C51.8509 23.6013 51.1216 22.302 50.8933 20.8746L48.44 5.82129H59.4L62.7867 18.3013C63.0156 19.1452 63.0603 20.0286 62.9177 20.8913C62.775 21.754 62.4484 22.576 61.96 23.3013Z" fill="#EE6148"/>
<path d="M49.6267 23.8213C48.7055 24.2124 47.7037 24.3758 46.7061 24.2977C45.7084 24.2195 44.7442 23.9021 43.8953 23.3723C43.0463 22.8425 42.3375 22.1159 41.8288 21.2541C41.3202 20.3923 41.0268 19.4206 40.9733 18.4213L40.2933 5.82129H48.44L50.64 19.3146C50.9024 20.8915 50.5388 22.5085 49.6267 23.8213ZM15.56 5.82129L13.1067 20.8746C12.9687 21.7337 12.6457 22.5526 12.16 23.2746C11.4115 23.6013 10.6034 23.7693 9.78666 23.768C9.58185 23.7724 9.37698 23.7635 9.17333 23.7413C8.2935 23.6531 7.44345 23.3744 6.68231 22.9243C5.92116 22.4743 5.26721 21.8639 4.76595 21.1354C4.26468 20.407 3.92815 19.5781 3.77975 18.7064C3.63135 17.8348 3.67466 16.9412 3.90666 16.088L6.69333 5.82129H15.56ZM26.52 5.82129L25.72 20.648C25.6585 21.7808 25.2847 22.8745 24.64 23.808C23.8714 24.1467 23.0399 24.3194 22.2 24.3146C20.5512 24.3136 18.9701 23.659 17.8029 22.4944C16.6358 21.3298 15.9779 19.7501 15.9733 18.1013C15.9735 17.7619 16.0002 17.4231 16.0533 17.088L17.8933 5.82129H26.52ZM38.2533 20.3013C38.2534 21.5521 37.8771 22.7739 37.1733 23.808C36.3887 24.1405 35.5455 24.3128 34.6933 24.3146C33.8427 24.314 33.0011 24.1402 32.2197 23.8039C31.4384 23.4675 30.7338 22.9756 30.1487 22.3581C29.5637 21.7406 29.1104 21.0104 28.8167 20.2121C28.5229 19.4138 28.3947 18.5641 28.44 17.7146L29.0933 5.82129H37.48L38.24 19.9413C38.24 20.0613 38.2533 20.1813 38.2533 20.3013ZM61.96 23.3013C61.3976 23.5319 60.8048 23.6801 60.2 23.7413C59.9963 23.7635 59.7915 23.7724 59.5867 23.768C58.1397 23.7673 56.7402 23.2518 55.6385 22.3138C54.5368 21.3757 53.8047 20.0763 53.5733 18.648L51.4933 5.82129H59.4L62.7867 18.3013C63.0156 19.1452 63.0603 20.0286 62.9177 20.8913C62.775 21.754 62.4484 22.576 61.96 23.3013Z" fill="#FF6E56"/>
<path d="M11.368 32.5333C11.1028 32.5333 10.8484 32.6386 10.6609 32.8261C10.4733 33.0137 10.368 33.268 10.368 33.5333V47.8453C10.368 48.1105 10.4733 48.3648 10.6609 48.5524C10.8484 48.7399 11.1028 48.8453 11.368 48.8453H34.6893C34.9545 48.8453 35.2089 48.7399 35.3964 48.5524C35.584 48.3648 35.6893 48.1105 35.6893 47.8453V33.5333C35.6893 33.268 35.584 33.0137 35.3964 32.8261C35.2089 32.6386 34.9545 32.5333 34.6893 32.5333H11.368ZM33.6893 46.8453H12.368V34.5333H33.6893V46.8453ZM6.39066 26.9586C7.70761 27.0923 9.03556 26.8521 10.2222 26.2656C11.4089 25.6791 12.4063 24.77 13.1 23.6426C13.6932 24.7912 14.5852 25.7586 15.6819 26.4429C16.7787 27.1273 18.0397 27.5032 19.3321 27.5312C20.6246 27.5592 21.9006 27.2381 23.026 26.6019C24.1513 25.9657 25.0843 25.0378 25.7267 23.9159C26.0098 24.4034 26.3475 24.857 26.7333 25.2679C27.4112 25.9835 28.2279 26.5535 29.1334 26.943C30.0389 27.3325 31.0143 27.5334 32 27.5334C32.9857 27.5334 33.9611 27.3325 34.8666 26.943C35.7721 26.5535 36.5888 25.9835 37.2667 25.2679C37.6525 24.857 37.9902 24.4034 38.2733 23.9159C38.9182 25.0348 39.852 25.9596 40.9771 26.5935C42.1021 27.2274 43.377 27.547 44.668 27.519C45.9591 27.4909 47.2188 27.1161 48.3152 26.4338C49.4117 25.7516 50.3044 24.7871 50.9 23.6413C51.7973 25.0873 53.1853 26.1618 54.81 26.6684C56.4347 27.1749 58.1874 27.0795 59.7475 26.3996C61.3076 25.7198 62.5708 24.5009 63.3059 22.9661C64.041 21.4312 64.1989 19.683 63.7507 18.0413L60.4 5.68125V1.36792C60.4 1.1027 60.2946 0.84835 60.1071 0.660813C59.9196 0.473277 59.6652 0.36792 59.4 0.36792L4.56666 0.36792C4.30144 0.36792 4.04709 0.473277 3.85955 0.660813C3.67202 0.84835 3.56666 1.1027 3.56666 1.36792V5.79725L0.249326 18.0453C-0.0203222 19.0395 -0.0701197 20.0806 0.103397 21.0961C0.276914 22.1115 0.669579 23.077 1.25408 23.9253C1.83858 24.7737 2.60087 25.4845 3.48794 26.0083C4.37501 26.5321 5.36555 26.8564 6.39066 26.9586ZM19.504 25.5333C18.7476 25.5334 18.0003 25.3692 17.3137 25.0519C16.6271 24.7346 16.0176 24.2718 15.5276 23.6957C15.0375 23.1195 14.6786 22.4437 14.4756 21.7151C14.2726 20.9865 14.2304 20.2225 14.352 19.4759L16.4093 6.81592H25.4667L24.7587 19.8826L24.72 20.5906C24.6483 21.9255 24.0675 23.1821 23.0972 24.1016C22.1268 25.0211 20.8408 25.5335 19.504 25.5333ZM35.8147 23.8933C35.0753 24.6761 34.1132 25.2128 33.0587 25.4309C32.0042 25.6489 30.9081 25.5378 29.9189 25.1124C28.9296 24.687 28.095 23.968 27.5278 23.0526C26.9607 22.1373 26.6885 21.0698 26.748 19.9946L26.7893 19.2253L27.456 6.81592H36.5227L37.1893 19.2253L37.2307 19.9946C37.2744 20.7068 37.1712 21.4203 36.9276 22.091C36.6841 22.7617 36.3052 23.3751 35.8147 23.8933ZM48.472 23.6959C47.7951 24.491 46.8954 25.0648 45.8891 25.3434C44.8827 25.6219 43.816 25.5923 42.8267 25.2584C41.8373 24.9245 40.9708 24.3017 40.3391 23.4703C39.7073 22.6389 39.3393 21.6372 39.2827 20.5946L39.244 19.8866L38.536 6.81992H47.5907L49.648 19.4799C49.7703 20.2267 49.7284 20.9912 49.5253 21.7202C49.3222 22.4492 48.9628 23.1252 48.472 23.7013V23.6959ZM61.0973 22.7906C60.5206 23.6275 59.7065 24.2728 58.76 24.6433C57.8135 25.0138 56.7778 25.0927 55.7861 24.8697C54.7944 24.6467 53.8921 24.1321 53.1953 23.3921C52.4985 22.6521 52.039 21.7205 51.876 20.7173L49.616 6.81592H58.6373L61.82 18.5679C62.0141 19.282 62.05 20.0298 61.9252 20.7591C61.8003 21.4884 61.5178 22.1817 61.0973 22.7906ZM5.56666 2.36792H58.4V4.81592H5.56666V2.36792ZM2.17999 18.5679L5.36266 6.81592H14.384L12.9907 15.3866L12.3773 19.1546L12.124 20.7159C12.0128 21.3977 11.7642 22.0498 11.3931 22.6324C11.022 23.2151 10.5363 23.7162 9.96548 24.1052C9.39465 24.4942 8.75066 24.7631 8.07266 24.8954C7.39466 25.0277 6.69683 25.0208 6.02162 24.8749C5.3464 24.7291 4.70791 24.4474 4.14498 24.047C3.58205 23.6466 3.10645 23.1359 2.74709 22.546C2.38774 21.956 2.15216 21.2991 2.05467 20.6152C1.95718 19.9314 1.99981 19.2348 2.17999 18.5679Z" fill="black"/>
<path d="M63 57.8746H60.4V29.1799C60.4 28.9147 60.2946 28.6604 60.1071 28.4728C59.9196 28.2853 59.6652 28.1799 59.4 28.1799C59.1348 28.1799 58.8804 28.2853 58.6929 28.4728C58.5054 28.6604 58.4 28.9147 58.4 29.1799V57.8746H55.0467V33.5333C55.0467 33.268 54.9413 33.0137 54.7538 32.8262C54.5662 32.6386 54.3119 32.5333 54.0467 32.5333H41.0853C40.8201 32.5333 40.5658 32.6386 40.3782 32.8262C40.1907 33.0137 40.0853 33.268 40.0853 33.5333V57.8746H5.6V29.1906C5.6 28.9254 5.49464 28.671 5.30711 28.4835C5.11957 28.296 4.86522 28.1906 4.6 28.1906C4.33478 28.1906 4.08043 28.296 3.89289 28.4835C3.70536 28.671 3.6 28.9254 3.6 29.1906V57.8746H1C0.734784 57.8746 0.48043 57.98 0.292893 58.1675C0.105357 58.355 0 58.6094 0 58.8746L0 63.3679C0 63.6331 0.105357 63.8875 0.292893 64.075C0.48043 64.2626 0.734784 64.3679 1 64.3679H63C63.2652 64.3679 63.5196 64.2626 63.7071 64.075C63.8946 63.8875 64 63.6331 64 63.3679V58.8746C64 58.6094 63.8946 58.355 63.7071 58.1675C63.5196 57.98 63.2652 57.8746 63 57.8746ZM42.0853 34.5333H53.0467V57.8746H42.0853V34.5333ZM62 62.3679H2V59.8746H62V62.3679Z" fill="black"/>
</g>
<defs>
<clipPath id="clip0_132_2337">
<rect width="64" height="64" fill="white" transform="translate(0 0.36792)"/>
</clipPath>
</defs>
</svg>
