<svg width="64" height="65" viewBox="0 0 64 65" fill="none" xmlns="http://www.w3.org/2000/svg">
<path d="M40.0001 34.8678C40.353 34.8678 40.6889 34.928 41.0148 35.0138C40.7906 31.2929 45.6468 29.4191 48.0001 32.2473C50.3552 29.4184 55.2094 31.294 54.9854 35.0138C60.8359 33.7714 61.9881 42.539 56 42.8678C53.7909 42.8678 42.2093 42.8678 40.0001 42.8678C34.7181 42.7068 34.7095 35.0315 40.0001 34.8678Z" fill="#E6F3FF"/>
<path d="M56.0001 43.868H40.0001C33.3354 43.6423 33.3984 33.9404 40.1007 33.869C40.6868 30.3978 45.2134 28.6239 48.0001 30.8866C50.7872 28.6236 55.3134 30.3982 55.8995 33.869C62.5852 33.9805 62.6789 43.6236 56.0001 43.868ZM40.0001 35.868C36.0507 35.9682 36.0399 41.7644 40.0002 41.868C40.0001 41.868 56.0001 41.868 56.0001 41.868C60.4582 41.7094 59.5867 34.967 55.2403 35.9813C54.5407 36.1859 53.8461 35.51 54.0031 34.8064C54.0426 32.1646 50.4729 30.8083 48.753 32.9062C48.3722 33.3397 47.6281 33.3397 47.2472 32.9061C45.5051 30.8021 41.9494 32.1591 42.0002 34.8681C42.1374 35.5385 41.4237 36.1861 40.7599 35.9812C40.4659 35.9041 40.2247 35.868 40.0001 35.868Z" fill="#21257C"/>
<path d="M42.9189 55.8679H53.0813C55.9414 55.8679 58.4038 53.8492 58.9647 51.0446L61.0001 40.8679H35.0001L37.0354 51.0446C37.5963 53.8492 40.0588 55.8679 42.9189 55.8679Z" fill="#4AA5FF"/>
<path d="M53.0811 56.8679H42.919C39.5948 56.8679 36.7071 54.5017 36.0548 51.241L34.0196 41.0642C33.961 40.7703 34.0372 40.4656 34.2266 40.2341C34.4171 40.0027 34.7003 39.8679 35.0001 39.8679H61.0001C61.2999 39.8679 61.5831 40.0027 61.7735 40.2341C61.963 40.4656 62.0391 40.7703 61.9805 41.0642L59.9454 51.241C59.293 54.5017 56.4054 56.8679 53.0811 56.8679ZM36.2198 41.8679L38.0157 50.8484C38.4825 53.1775 40.544 54.8679 42.919 54.8679H53.0811C55.4561 54.8679 57.5177 53.1775 57.9845 50.8484L59.7804 41.8679H36.2198Z" fill="#21257C"/>
<path d="M50.5001 45.8679C49.1194 45.8679 48.0001 44.7486 48.0001 43.3679V38.8679H53.0001V43.3679C53.0001 44.7486 51.8808 45.8679 50.5001 45.8679ZM3.00009 17.8679H39.0001V48.8679C39.0001 50.5237 37.6558 51.8679 36.0001 51.8679H6.00009C4.34434 51.8679 3.00009 50.5237 3.00009 48.8679V17.8679Z" fill="#E6F3FF"/>
<path d="M36.0001 52.8679H6.00009C3.79404 52.8679 2.00009 51.074 2.00009 48.8679V17.8679C2.00009 17.3152 2.44736 16.8679 3.00009 16.8679H39.0001C39.5528 16.8679 40.0001 17.3152 40.0001 17.8679V48.8679C40.0001 51.074 38.2061 52.8679 36.0001 52.8679ZM4.00009 18.8679V48.8679C4.00009 49.9705 4.89755 50.8679 6.00009 50.8679H36.0001C37.1026 50.8679 38.0001 49.9705 38.0001 48.8679V18.8679H4.00009Z" fill="#21257C"/>
<path d="M6.00009 9.86792H36.0001C37.6558 9.86792 39.0001 11.2122 39.0001 12.8679V17.8679H3.00009V12.8679C3.00009 11.2122 4.34434 9.86792 6.00009 9.86792Z" fill="#4AA5FF"/>
<path d="M39.0001 18.8679H3.00009C2.44736 18.8679 2.00009 18.4206 2.00009 17.8679V12.8679C2.00009 10.6619 3.79404 8.86792 6.00009 8.86792H36.0001C38.2061 8.86792 40.0001 10.6619 40.0001 12.8679V17.8679C40.0001 18.4206 39.5528 18.8679 39.0001 18.8679ZM4.00009 16.8679H38.0001V12.8679C38.0001 11.7654 37.1026 10.8679 36.0001 10.8679H6.00009C4.89755 10.8679 4.00009 11.7654 4.00009 12.8679V16.8679Z" fill="#21257C"/>
<path d="M34.0001 14.8679H30.0001C28.6867 14.8465 28.6847 12.8896 30.0001 12.8679H34.0001C35.3135 12.8893 35.3155 14.8462 34.0001 14.8679ZM6.00009 51.8679H36.0001V52.8679C36.0001 54.5237 34.6558 55.8679 33.0001 55.8679H9.00009C7.34434 55.8679 6.00009 54.5237 6.00009 52.8679V51.8679Z" fill="#E6F3FF"/>
<path d="M33.0001 56.8679H9.00009C6.79404 56.8679 5.00009 55.074 5.00009 52.8679V51.8679C5.00009 51.3152 5.44736 50.8679 6.00009 50.8679H36.0001C36.5528 50.8679 37.0001 51.3152 37.0001 51.8679V52.8679C37.0001 55.074 35.2061 56.8679 33.0001 56.8679ZM7.00009 52.8679C7.00009 53.9705 7.89755 54.8679 9.00009 54.8679H33.0001C34.1026 54.8679 35.0001 53.9705 35.0001 52.8679H7.00009Z" fill="#21257C"/>
<path d="M34.0001 34.8679C34.0001 42.0476 28.1798 47.8679 21.0001 47.8679C3.75584 47.1832 3.76075 22.5501 21.0002 21.8679C28.1798 21.8679 34.0001 27.6882 34.0001 34.8679Z" fill="#4AA5FF"/>
<path d="M21.0001 48.8678C13.2804 48.8678 7.00009 42.5876 7.00009 34.8678C7.76896 16.2949 34.2341 16.3003 35.0001 34.868C35.0001 42.5876 28.7198 48.8678 21.0001 48.8678ZM21.0001 22.8678C14.3829 22.8678 9.00009 28.2507 9.00009 34.8678C9.65872 50.7876 32.3439 50.7829 33.0001 34.8678C33.0001 28.2507 27.6173 22.8678 21.0001 22.8678Z" fill="#21257C"/>
<path d="M27.0001 42.5701C26.1199 42.6014 25.6429 41.4006 26.3332 40.8249C28.0284 39.3074 29.0001 37.1355 29.0001 34.8679C29.0001 34.3152 29.4474 33.8679 30.0001 33.8679C30.5528 33.8679 31.0001 34.3152 31.0001 34.8679C31.0001 37.7039 29.7853 40.4187 27.6671 42.3152C27.4767 42.4861 27.2384 42.5701 27.0001 42.5701ZM23.0001 43.8679C23.0257 42.5539 24.9749 42.5548 25.0001 43.8679C24.9745 45.1819 23.0253 45.181 23.0001 43.8679Z" fill="#E6F3FF"/>
<path d="M47.0001 20.8679C47.0001 18.1065 45.2092 15.8679 43.0001 15.8679C45.2092 15.8679 47.0001 13.6293 47.0001 10.8679C47.0001 13.6293 48.791 15.8679 51.0001 15.8679C48.791 15.8679 47.0001 18.1065 47.0001 20.8679ZM56.0001 27.8679C56.0001 25.1065 54.2092 22.8679 52.0001 22.8679C54.2092 22.8679 56.0001 20.6293 56.0001 17.8679C56.0001 20.6293 57.791 22.8679 60.0001 22.8679C57.791 22.8679 56.0001 25.1065 56.0001 27.8679Z" fill="#21257C"/>
</svg>
