<svg width="64" height="64" viewBox="0 0 64 64" fill="none" xmlns="http://www.w3.org/2000/svg">
<path d="M52 54.424H12V60.485H52V54.424Z" fill="#FF641A"/>
<path d="M52 9.57599V54.424H12V9.57599C13.541 9.57599 49.634 9.57599 52 9.57599Z" fill="white"/>
<path d="M60.485 54.424C61.1544 54.424 61.697 53.8814 61.697 53.212C61.697 52.5426 61.1544 52 60.485 52C59.8156 52 59.273 52.5426 59.273 53.212C59.273 53.8814 59.8156 54.424 60.485 54.424Z" fill="#414141"/>
<path d="M57.455 38.666C58.459 38.666 59.273 37.8521 59.273 36.848C59.273 35.844 58.459 35.03 57.455 35.03C56.4509 35.03 55.637 35.844 55.637 36.848C55.637 37.8521 56.4509 38.666 57.455 38.666Z" fill="#414141"/>
<path d="M56.848 8.364C57.5174 8.364 58.06 7.82137 58.06 7.152C58.06 6.48263 57.5174 5.94 56.848 5.94C56.1786 5.94 55.636 6.48263 55.636 7.152C55.636 7.82137 56.1786 8.364 56.848 8.364Z" fill="#414141"/>
<path d="M7.152 43.515C7.82137 43.515 8.364 42.9724 8.364 42.303C8.364 41.6336 7.82137 41.091 7.152 41.091C6.48263 41.091 5.94 41.6336 5.94 42.303C5.94 42.9724 6.48263 43.515 7.152 43.515Z" fill="#414141"/>
<path d="M5.333 14.424C6.33705 14.424 7.151 13.61 7.151 12.606C7.151 11.6019 6.33705 10.788 5.333 10.788C4.32895 10.788 3.515 11.6019 3.515 12.606C3.515 13.61 4.32895 14.424 5.333 14.424Z" fill="#414141"/>
<path d="M3.515 60.485C4.18437 60.485 4.727 59.9423 4.727 59.273C4.727 58.6036 4.18437 58.061 3.515 58.061C2.84563 58.061 2.303 58.6036 2.303 59.273C2.303 59.9423 2.84563 60.485 3.515 60.485Z" fill="#414141"/>
<path d="M52 61.697H12C11.331 61.697 10.788 61.154 10.788 60.485V9.57601C10.788 8.90701 11.331 8.36401 12 8.36401H52C52.669 8.36401 53.212 8.90701 53.212 9.57601V60.485C53.212 61.154 52.669 61.697 52 61.697ZM13.212 59.273H50.788V10.788H13.212V59.273Z" fill="#414141"/>
<path d="M31.394 43.515H18.061C17.392 43.515 16.849 42.972 16.849 42.303C16.849 41.634 17.392 41.091 18.061 41.091H31.394C32.063 41.091 32.606 41.634 32.606 42.303C32.606 42.972 32.063 43.515 31.394 43.515ZM45.939 48.364H18.061C17.392 48.364 16.849 47.821 16.849 47.152C16.849 46.483 17.392 45.94 18.061 45.94H45.94C46.609 45.94 47.152 46.483 47.152 47.152C47.152 47.821 46.609 48.364 45.939 48.364ZM31.394 32.606H18.061C17.392 32.606 16.849 32.063 16.849 31.394C16.849 30.725 17.392 30.182 18.061 30.182H31.394C32.063 30.182 32.606 30.725 32.606 31.394C32.606 32.063 32.063 32.606 31.394 32.606ZM45.939 37.455H18.061C17.392 37.455 16.849 36.912 16.849 36.243C16.849 35.574 17.392 35.031 18.061 35.031H45.94C46.609 35.031 47.152 35.574 47.152 36.243C47.152 36.912 46.609 37.455 45.939 37.455ZM31.394 21.697H18.061C17.392 21.697 16.849 21.154 16.849 20.485C16.849 19.816 17.392 19.273 18.061 19.273H31.394C32.063 19.273 32.606 19.816 32.606 20.485C32.606 21.154 32.063 21.697 31.394 21.697ZM45.939 26.545H18.061C17.392 26.545 16.849 26.002 16.849 25.333C16.849 24.664 17.392 24.121 18.061 24.121H45.94C46.609 24.121 47.152 24.664 47.152 25.333C47.152 26.003 46.609 26.545 45.939 26.545ZM52 55.636H12C11.331 55.636 10.788 55.093 10.788 54.424C10.788 53.755 11.331 53.212 12 53.212H52C52.669 53.212 53.212 53.755 53.212 54.424C53.212 55.093 52.669 55.636 52 55.636ZM22.909 14.424C22.24 14.424 21.697 13.881 21.697 13.212V6.54501C21.697 6.06001 21.508 5.60301 21.164 5.25801C20.822 4.91601 20.365 4.72701 19.879 4.72701C18.876 4.72701 18.061 5.54301 18.061 6.54501V9.57501C18.061 10.244 17.518 10.787 16.849 10.787C16.18 10.787 15.637 10.244 15.637 9.57501V6.54501C15.637 4.20601 17.54 2.30301 19.879 2.30301C21.013 2.30301 22.078 2.74401 22.879 3.54501C23.68 4.34801 24.121 5.41301 24.121 6.54501V13.212C24.121 13.882 23.579 14.424 22.909 14.424ZM33.818 14.424C33.149 14.424 32.606 13.881 32.606 13.212V6.54501C32.606 6.06001 32.417 5.60301 32.073 5.25801C31.731 4.91601 31.274 4.72701 30.788 4.72701C29.785 4.72701 28.97 5.54301 28.97 6.54501V9.57501C28.97 10.244 28.427 10.787 27.758 10.787C27.089 10.787 26.546 10.244 26.546 9.57501V6.54501C26.546 4.20601 28.449 2.30301 30.788 2.30301C31.922 2.30301 32.987 2.74401 33.788 3.54501C34.589 4.34801 35.03 5.41301 35.03 6.54501V13.212C35.03 13.882 34.488 14.424 33.818 14.424ZM44.727 14.424C44.058 14.424 43.515 13.881 43.515 13.212V6.54501C43.515 6.06001 43.326 5.60301 42.982 5.25801C42.64 4.91601 42.183 4.72701 41.697 4.72701C40.694 4.72701 39.879 5.54301 39.879 6.54501V9.57501C39.879 10.244 39.336 10.787 38.667 10.787C37.998 10.787 37.455 10.244 37.455 9.57501V6.54501C37.455 4.20601 39.358 2.30301 41.697 2.30301C42.831 2.30301 43.896 2.74401 44.697 3.54501C45.498 4.34801 45.939 5.41301 45.939 6.54501V13.212C45.939 13.882 45.397 14.424 44.727 14.424Z" fill="#414141"/>
</svg>
