<svg width="66" height="64" viewBox="0 0 66 64" fill="none" xmlns="http://www.w3.org/2000/svg">
<g clip-path="url(#clip0_90_3568)">
<path d="M30.1765 55.5294C44.211 55.5294 55.5882 44.1522 55.5882 30.1176C55.5882 16.0831 44.211 4.70587 30.1765 4.70587C16.1419 4.70587 4.76471 16.0831 4.76471 30.1176C4.76471 44.1522 16.1419 55.5294 30.1765 55.5294Z" fill="white"/>
<path d="M30.1765 32.9412C31.7359 32.9412 33 31.6771 33 30.1177C33 28.5583 31.7359 27.2941 30.1765 27.2941C28.6171 27.2941 27.3529 28.5583 27.3529 30.1177C27.3529 31.6771 28.6171 32.9412 30.1765 32.9412Z" fill="#FF641A"/>
<path d="M30.1765 0.941162C24.4059 0.941162 18.7649 2.65233 13.9669 5.85828C9.16885 9.06424 5.42922 13.621 3.22092 18.9523C1.01263 24.2836 0.434835 30.15 1.56062 35.8097C2.6864 41.4694 5.46519 46.6681 9.54559 50.7485C13.626 54.8289 18.8247 57.6077 24.4844 58.7335C30.1441 59.8593 36.0105 59.2815 41.3418 57.0732C46.6731 54.8649 51.2299 51.1253 54.4358 46.3272C57.6418 41.5292 59.3529 35.8882 59.3529 30.1176C59.3529 22.3796 56.279 14.9584 50.8074 9.48675C45.3357 4.0151 37.9146 0.941162 30.1765 0.941162ZM30.1765 53.647C25.5228 53.647 20.9736 52.2671 17.1042 49.6816C13.2348 47.0962 10.219 43.4214 8.43813 39.1219C6.65724 34.8225 6.19128 30.0915 7.09917 25.5273C8.00706 20.963 10.248 16.7705 13.5387 13.4798C16.8293 10.1892 21.0219 7.94822 25.5861 7.04033C30.1504 6.13244 34.8813 6.5984 39.1808 8.37929C43.4802 10.1602 47.155 13.176 49.7405 17.0454C52.3259 20.9148 53.7059 25.464 53.7059 30.1176C53.7059 33.2076 53.0973 36.2672 51.9148 39.1219C50.7324 41.9767 48.9992 44.5705 46.8143 46.7554C44.6294 48.9403 42.0355 50.6735 39.1808 51.856C36.3261 53.0384 33.2664 53.647 30.1765 53.647Z" fill="#FF641A"/>
<path d="M40.5294 29.1765H32.8266C32.6863 28.7828 32.4601 28.4252 32.1645 28.1296C31.869 27.834 31.5114 27.6079 31.1177 27.4675V16C31.1177 15.7504 31.0185 15.511 30.842 15.3345C30.6655 15.158 30.4261 15.0588 30.1765 15.0588C29.9269 15.0588 29.6875 15.158 29.511 15.3345C29.3345 15.511 29.2353 15.7504 29.2353 16V27.4675C28.7861 27.6254 28.3842 27.8947 28.0673 28.2501C27.7504 28.6056 27.5287 29.0356 27.4231 29.4999C27.3175 29.9642 27.3313 30.4478 27.4633 30.9053C27.5953 31.3629 27.8412 31.7795 28.1779 32.1162C28.5146 32.4529 28.9313 32.6988 29.3888 32.8308C29.8463 32.9628 30.3299 32.9766 30.7942 32.871C31.2586 32.7654 31.6886 32.5438 32.044 32.2268C32.3994 31.9099 32.6687 31.5081 32.8266 31.0588H40.5294C40.779 31.0588 41.0184 30.9597 41.1949 30.7832C41.3714 30.6067 41.4706 30.3673 41.4706 30.1176C41.4706 29.868 41.3714 29.6286 41.1949 29.4521C41.0184 29.2756 40.779 29.1765 40.5294 29.1765ZM30.1765 31.0588C29.9903 31.0588 29.8084 31.0036 29.6536 30.9002C29.4988 30.7968 29.3782 30.6498 29.3069 30.4778C29.2357 30.3058 29.2171 30.1166 29.2534 29.934C29.2897 29.7515 29.3793 29.5838 29.511 29.4521C29.6426 29.3205 29.8103 29.2309 29.9929 29.1946C30.1754 29.1582 30.3647 29.1769 30.5367 29.2481C30.7086 29.3193 30.8556 29.44 30.959 29.5948C31.0625 29.7495 31.1177 29.9315 31.1177 30.1176C31.1175 30.3672 31.0183 30.6065 30.8418 30.783C30.6653 30.9594 30.426 31.0587 30.1765 31.0588ZM47.5208 12.8761C47.5044 12.8568 47.4981 12.8326 47.4798 12.8143C47.4615 12.796 47.4373 12.7897 47.418 12.7733C42.8404 8.20969 36.6403 5.64705 30.1765 5.64705C23.7127 5.64705 17.5125 8.20969 12.935 12.7733C12.9157 12.7897 12.8914 12.796 12.8732 12.8143C12.8549 12.8326 12.8486 12.8568 12.8321 12.8761C8.26853 17.4537 5.70589 23.6538 5.70589 30.1176C5.70589 36.5814 8.26853 42.7816 12.8321 47.3591C12.8486 47.3784 12.8549 47.4027 12.8732 47.421C12.8914 47.4392 12.9157 47.4455 12.935 47.462C17.5125 52.0256 23.7127 54.5882 30.1765 54.5882C36.6403 54.5882 42.8404 52.0256 47.418 47.462C47.4373 47.4455 47.4615 47.4392 47.4798 47.421C47.4981 47.4027 47.5044 47.3784 47.5208 47.3591C52.0844 42.7816 54.6471 36.5814 54.6471 30.1176C54.6471 23.6538 52.0844 17.4537 47.5208 12.8761ZM46.7749 45.3852L44.818 43.4283C44.6409 43.2548 44.4025 43.1581 44.1546 43.1594C43.9066 43.1606 43.6692 43.2597 43.4939 43.435C43.3186 43.6103 43.2195 43.8478 43.2183 44.0957C43.217 44.3436 43.3137 44.5821 43.4872 44.7591L45.4441 46.716C41.5253 50.3345 36.4471 52.4408 31.1177 52.6582V49.8824C31.1177 49.6327 31.0185 49.3933 30.842 49.2168C30.6655 49.0403 30.4261 48.9412 30.1765 48.9412C29.9269 48.9412 29.6875 49.0403 29.511 49.2168C29.3345 49.3933 29.2353 49.6327 29.2353 49.8824V52.6582C23.9059 52.4408 18.8277 50.3345 14.9089 46.7161L16.8658 44.7592C17.0394 44.5821 17.136 44.3437 17.1348 44.0957C17.1335 43.8478 17.0345 43.6104 16.8591 43.4351C16.6838 43.2597 16.4464 43.1607 16.1984 43.1594C15.9505 43.1582 15.7121 43.2548 15.535 43.4284L13.578 45.3852C9.95959 41.4665 7.85331 36.3882 7.63593 31.0588H10.4118C10.6614 31.0588 10.9008 30.9597 11.0773 30.7832C11.2538 30.6067 11.353 30.3673 11.353 30.1176C11.353 29.868 11.2538 29.6286 11.0773 29.4521C10.9008 29.2756 10.6614 29.1765 10.4118 29.1765H7.63593C7.85331 23.8471 9.95959 18.7688 13.578 14.8501L15.5349 16.807C15.712 16.9805 15.9504 17.0772 16.1984 17.0759C16.4463 17.0747 16.6838 16.9756 16.8591 16.8003C17.0344 16.625 17.1334 16.3875 17.1347 16.1396C17.136 15.8917 17.0393 15.6532 16.8658 15.4762L14.9089 13.5192C18.8277 9.90076 23.9059 7.79448 29.2353 7.57709V10.3529C29.2353 10.6026 29.3345 10.8419 29.511 11.0185C29.6875 11.195 29.9269 11.2941 30.1765 11.2941C30.4261 11.2941 30.6655 11.195 30.842 11.0185C31.0185 10.8419 31.1177 10.6026 31.1177 10.3529V7.57709C36.4471 7.79448 41.5253 9.90076 45.4441 13.5192L43.4871 15.4761C43.3983 15.5632 43.3276 15.667 43.2791 15.7815C43.2307 15.8961 43.2054 16.0191 43.2048 16.1435C43.2041 16.2679 43.2282 16.3911 43.2755 16.5062C43.3228 16.6212 43.3924 16.7257 43.4804 16.8137C43.5683 16.9016 43.6729 16.9713 43.7879 17.0186C43.9029 17.0659 44.0262 17.0899 44.1506 17.0893C44.275 17.0887 44.398 17.0634 44.5126 17.0149C44.6271 16.9665 44.7309 16.8958 44.818 16.8069L46.7749 14.8501C50.3934 18.7688 52.4997 23.8471 52.717 29.1765H49.9412C49.6916 29.1765 49.4522 29.2756 49.2757 29.4521C49.0992 29.6286 49 29.868 49 30.1176C49 30.3673 49.0992 30.6067 49.2757 30.7832C49.4522 30.9597 49.6916 31.0588 49.9412 31.0588H52.717C52.4997 36.3882 50.3934 41.4665 46.7749 45.3852ZM30.1765 0C24.2198 0 18.3968 1.76637 13.444 5.07574C8.49119 8.38511 4.63094 13.0888 2.35141 18.5921C0.071872 24.0954 -0.524558 30.1511 0.637538 35.9933C1.79963 41.8356 4.66806 47.202 8.88009 51.414C13.0921 55.6261 18.4586 58.4945 24.3008 59.6566C30.1431 60.8187 36.1987 60.2223 41.702 57.9427C47.2053 55.6632 51.909 51.8029 55.2184 46.8501C58.5278 41.8973 60.2941 36.0744 60.2941 30.1176C60.285 22.1328 57.109 14.4775 51.4628 8.83134C45.8166 3.18516 38.1614 0.00913201 30.1765 0ZM30.1765 58.3529C24.5921 58.3529 19.1331 56.697 14.4898 53.5944C9.84652 50.4919 6.22754 46.0822 4.09047 40.9228C1.95341 35.7635 1.39426 30.0863 2.48372 24.6092C3.57319 19.1321 6.26234 14.1011 10.2111 10.1523C14.1599 6.2035 19.1909 3.51435 24.6681 2.42489C30.1452 1.33542 35.8223 1.89457 40.9817 4.03164C46.141 6.1687 50.5507 9.78769 53.6533 14.431C56.7558 19.0742 58.4118 24.5332 58.4118 30.1176C58.4033 37.6035 55.4258 44.7804 50.1325 50.0737C44.8392 55.367 37.6623 58.3445 30.1765 58.3529Z" fill="black"/>
<g clip-path="url(#clip1_90_3568)">
<path d="M64.1341 47.6639H37.6306C36.9653 47.6639 36.4259 48.2057 36.4259 48.874V62.1849C36.4259 62.8532 36.9653 63.395 37.6306 63.395H64.1341C64.7995 63.395 65.3388 62.8532 65.3388 62.1849V48.874C65.3388 48.2057 64.7995 47.6639 64.1341 47.6639Z" fill="#B1DA7A"/>
<path d="M64.1341 61.5798H37.6306C37.3111 61.5798 37.0047 61.4523 36.7787 61.2254C36.5528 60.9985 36.4259 60.6907 36.4259 60.3698V62.1849C36.4259 62.5058 36.5528 62.8136 36.7787 63.0405C37.0047 63.2675 37.3111 63.395 37.6306 63.395H64.1341C64.4536 63.395 64.7601 63.2675 64.986 63.0405C65.2119 62.8136 65.3388 62.5058 65.3388 62.1849V60.3698C65.3388 60.6907 65.2119 60.9985 64.986 61.2254C64.7601 61.4523 64.4536 61.5798 64.1341 61.5798Z" fill="#96BF5B"/>
<path d="M64.1341 64H37.6306C37.1513 64 36.6917 63.8088 36.3528 63.4684C36.0139 63.128 35.8235 62.6663 35.8235 62.1849V48.874C35.8235 48.3926 36.0139 47.9309 36.3528 47.5905C36.6917 47.2501 37.1513 47.0588 37.6306 47.0588H64.1341C64.6134 47.0588 65.073 47.2501 65.4119 47.5905C65.7508 47.9309 65.9412 48.3926 65.9412 48.874V57.3446C65.9412 57.505 65.8777 57.6589 65.7648 57.7724C65.6518 57.8858 65.4986 57.9496 65.3388 57.9496C65.1791 57.9496 65.0259 57.8858 64.9129 57.7724C64.7999 57.6589 64.7365 57.505 64.7365 57.3446V48.874C64.7365 48.7135 64.673 48.5596 64.56 48.4461C64.4471 48.3327 64.2939 48.2689 64.1341 48.2689H37.6306C37.4708 48.2689 37.3176 48.3327 37.2047 48.4461C37.0917 48.5596 37.0282 48.7135 37.0282 48.874V62.1849C37.0282 62.3454 37.0917 62.4993 37.2047 62.6127C37.3176 62.7262 37.4708 62.7899 37.6306 62.7899H64.1341C64.2939 62.7899 64.4471 62.7262 64.56 62.6127C64.673 62.4993 64.7365 62.3454 64.7365 62.1849V59.7647C64.7365 59.6043 64.7999 59.4504 64.9129 59.3369C65.0259 59.2234 65.1791 59.1597 65.3388 59.1597C65.4986 59.1597 65.6518 59.2234 65.7648 59.3369C65.8777 59.4504 65.9412 59.6043 65.9412 59.7647V62.1849C65.9412 62.6663 65.7508 63.128 65.4119 63.4684C65.073 63.8088 64.6134 64 64.1341 64Z" fill="black"/>
<path d="M51.1835 59.1597H49.0753C48.9155 59.1597 48.7623 59.0959 48.6494 58.9825C48.5364 58.869 48.4729 58.7151 48.4729 58.5546C48.4729 58.3942 48.5364 58.2403 48.6494 58.1268C48.7623 58.0133 48.9155 57.9496 49.0753 57.9496H51.1835C51.4232 57.9496 51.653 57.854 51.8224 57.6838C51.9919 57.5136 52.0871 57.2827 52.0871 57.042C52.0871 56.8013 51.9919 56.5705 51.8224 56.4003C51.653 56.2301 51.4232 56.1345 51.1835 56.1345H50.5812C50.022 56.1345 49.4858 55.9114 49.0904 55.5142C48.6951 55.1171 48.4729 54.5785 48.4729 54.0168C48.4729 53.4552 48.6951 52.9166 49.0904 52.5194C49.4858 52.1223 50.022 51.8992 50.5812 51.8992H52.6894C52.8492 51.8992 53.0024 51.9629 53.1153 52.0764C53.2283 52.1898 53.2918 52.3437 53.2918 52.5042C53.2918 52.6647 53.2283 52.8186 53.1153 52.932C53.0024 53.0455 52.8492 53.1093 52.6894 53.1093H50.5812C50.3416 53.1093 50.1117 53.2049 49.9423 53.3751C49.7728 53.5453 49.6777 53.7761 49.6777 54.0168C49.6777 54.2575 49.7728 54.4884 49.9423 54.6586C50.1117 54.8288 50.3416 54.9244 50.5812 54.9244H51.1835C51.7427 54.9244 52.2789 55.1475 52.6743 55.5446C53.0697 55.9418 53.2918 56.4804 53.2918 57.042C53.2918 57.6037 53.0697 58.1423 52.6743 58.5394C52.2789 58.9366 51.7427 59.1597 51.1835 59.1597Z" fill="black"/>
<path d="M50.8824 53.1093C50.7226 53.1093 50.5694 53.0455 50.4564 52.932C50.3435 52.8186 50.28 52.6647 50.28 52.5042V51.2941C50.28 51.1337 50.3435 50.9798 50.4564 50.8663C50.5694 50.7528 50.7226 50.6891 50.8824 50.6891C51.0421 50.6891 51.1953 50.7528 51.3083 50.8663C51.4212 50.9798 51.4847 51.1337 51.4847 51.2941V52.5042C51.4847 52.6647 51.4212 52.8186 51.3083 52.932C51.1953 53.0455 51.0421 53.1093 50.8824 53.1093ZM50.8824 60.3698C50.7226 60.3698 50.5694 60.306 50.4564 60.1925C50.3435 60.0791 50.28 59.9252 50.28 59.7647V58.5546C50.28 58.3942 50.3435 58.2403 50.4564 58.1268C50.5694 58.0133 50.7226 57.9496 50.8824 57.9496C51.0421 57.9496 51.1953 58.0133 51.3083 58.1268C51.4212 58.2403 51.4847 58.3942 51.4847 58.5546V59.7647C51.4847 59.9252 51.4212 60.0791 51.3083 60.1925C51.1953 60.306 51.0421 60.3698 50.8824 60.3698Z" fill="black"/>
<path d="M65.3388 48.874V51.2941C64.3803 51.2941 63.461 50.9117 62.7833 50.2309C62.1055 49.5501 61.7247 48.6267 61.7247 47.6639H64.1341C64.4536 47.6639 64.7601 47.7914 64.986 48.0183C65.2119 48.2452 65.3388 48.553 65.3388 48.874Z" fill="#96BF5B"/>
<path d="M65.3388 51.8992C64.2209 51.898 63.1491 51.4514 62.3586 50.6574C61.5682 49.8633 61.1235 48.7868 61.1224 47.6639C61.1224 47.5034 61.1858 47.3495 61.2988 47.2361C61.4117 47.1226 61.565 47.0588 61.7247 47.0588H64.1341C64.6134 47.0588 65.073 47.2501 65.4119 47.5905C65.7508 47.9309 65.9412 48.3926 65.9412 48.874V51.2941C65.9412 51.4546 65.8777 51.6085 65.7648 51.722C65.6518 51.8354 65.4986 51.8992 65.3388 51.8992ZM62.3873 48.2689C62.5065 48.8498 62.7925 49.3828 63.21 49.8022C63.6275 50.2215 64.1582 50.5088 64.7365 50.6286V48.874C64.7365 48.7135 64.673 48.5596 64.56 48.4461C64.4471 48.3327 64.2939 48.2689 64.1341 48.2689H62.3873ZM64.1341 64H61.7247C61.565 64 61.4117 63.9363 61.2988 63.8228C61.1858 63.7093 61.1224 63.5554 61.1224 63.395C61.1235 62.2721 61.5682 61.1955 62.3586 60.4015C63.1491 59.6075 64.2209 59.1609 65.3388 59.1597C65.4986 59.1597 65.6518 59.2234 65.7648 59.3369C65.8777 59.4504 65.9412 59.6043 65.9412 59.7647V62.1849C65.9412 62.6663 65.7508 63.128 65.4119 63.4684C65.073 63.8088 64.6134 64 64.1341 64ZM62.3873 62.7899H64.1341C64.2939 62.7899 64.4471 62.7262 64.56 62.6127C64.673 62.4993 64.7365 62.3454 64.7365 62.1849V60.4303C64.1582 60.55 63.6275 60.8373 63.21 61.2567C62.7925 61.676 62.5065 62.2091 62.3873 62.7899Z" fill="black"/>
<path d="M65.3388 59.7647V62.1849C65.3388 62.5058 65.2119 62.8136 64.986 63.0405C64.7601 63.2675 64.4536 63.395 64.1341 63.395H61.7247C61.7247 62.4322 62.1055 61.5088 62.7833 60.828C63.461 60.1472 64.3803 59.7647 65.3388 59.7647Z" fill="#96BF5B"/>
<path d="M64.1341 61.5798H62.2096C61.8912 62.1312 61.7239 62.7575 61.7247 63.395H64.1341C64.4536 63.395 64.76 63.2675 64.986 63.0405C65.2119 62.8136 65.3388 62.5058 65.3388 62.1849V60.3698C65.3388 60.6907 65.2119 60.9985 64.986 61.2254C64.76 61.4523 64.4536 61.5798 64.1341 61.5798Z" fill="#8EB24F"/>
<path d="M64.1341 64H61.7247C61.565 64 61.4117 63.9363 61.2988 63.8228C61.1858 63.7093 61.1224 63.5554 61.1224 63.395C61.1235 62.2721 61.5682 61.1955 62.3586 60.4015C63.1491 59.6075 64.2209 59.1609 65.3388 59.1597C65.4986 59.1597 65.6518 59.2234 65.7648 59.3369C65.8777 59.4503 65.9412 59.6042 65.9412 59.7647V62.1849C65.9412 62.6663 65.7508 63.128 65.4119 63.4684C65.073 63.8088 64.6134 64 64.1341 64ZM62.3873 62.7899H64.1341C64.2939 62.7899 64.4471 62.7262 64.56 62.6127C64.673 62.4992 64.7365 62.3453 64.7365 62.1849V60.4303C64.1582 60.55 63.6275 60.8373 63.21 61.2567C62.7925 61.676 62.5065 62.2091 62.3873 62.7899Z" fill="black"/>
<path d="M40.04 47.6639C40.04 48.6267 39.6592 49.5501 38.9815 50.2309C38.3037 50.9117 37.3844 51.2941 36.4259 51.2941V48.874C36.4259 48.553 36.5528 48.2452 36.7787 48.0183C37.0047 47.7914 37.3111 47.6639 37.6306 47.6639H40.04Z" fill="#96BF5B"/>
<path d="M36.4259 51.8992C36.2661 51.8992 36.1129 51.8354 36 51.722C35.887 51.6085 35.8235 51.4546 35.8235 51.2941V48.874C35.8235 48.3926 36.0139 47.9309 36.3528 47.5905C36.6917 47.2501 37.1513 47.0588 37.6306 47.0588H40.04C40.1998 47.0588 40.353 47.1226 40.4659 47.2361C40.5789 47.3495 40.6424 47.5034 40.6424 47.6639C40.6412 48.7868 40.1965 49.8633 39.4061 50.6574C38.6156 51.4514 37.5438 51.898 36.4259 51.8992ZM37.6306 48.2689C37.4708 48.2689 37.3176 48.3327 37.2047 48.4461C37.0917 48.5596 37.0282 48.7135 37.0282 48.874V50.6286C37.6065 50.5088 38.1372 50.2215 38.5547 49.8022C38.9722 49.3828 39.2582 48.8498 39.3774 48.2689H37.6306Z" fill="black"/>
<path d="M40.04 63.395H37.6306C37.3111 63.395 37.0047 63.2675 36.7787 63.0405C36.5528 62.8136 36.4259 62.5058 36.4259 62.1849V59.7647C37.3844 59.7647 38.3037 60.1472 38.9815 60.828C39.6592 61.5088 40.04 62.4322 40.04 63.395Z" fill="#96BF5B"/>
<path d="M37.6306 61.5798C37.3111 61.5798 37.0047 61.4523 36.7787 61.2254C36.5528 60.9985 36.4259 60.6907 36.4259 60.3698V62.1849C36.4259 62.5058 36.5528 62.8136 36.7787 63.0405C37.0047 63.2675 37.3111 63.395 37.6306 63.395H40.04C40.0408 62.7575 39.8735 62.1312 39.5551 61.5798H37.6306Z" fill="#8EB24F"/>
<path d="M40.04 64H37.6306C37.1513 64 36.6917 63.8088 36.3528 63.4684C36.0139 63.128 35.8235 62.6663 35.8235 62.1849V59.7647C35.8235 59.6042 35.887 59.4504 36 59.3369C36.1129 59.2234 36.2661 59.1597 36.4259 59.1597C37.5438 59.1609 38.6156 59.6075 39.4061 60.4015C40.1965 61.1955 40.6412 62.2721 40.6424 63.395C40.6424 63.5554 40.5789 63.7093 40.4659 63.8228C40.353 63.9363 40.1998 64 40.04 64ZM37.0282 60.4303V62.1849C37.0282 62.3453 37.0917 62.4992 37.2047 62.6127C37.3176 62.7262 37.4708 62.7899 37.6306 62.7899H39.3774C39.2582 62.2091 38.9722 61.676 38.5547 61.2567C38.1372 60.8373 37.6065 60.55 37.0282 60.4303ZM46.0635 56.1345H43.6541C43.4944 56.1345 43.3412 56.0707 43.2282 55.9572C43.1152 55.8438 43.0518 55.6899 43.0518 55.5294C43.0518 55.369 43.1152 55.2151 43.2282 55.1016C43.3412 54.9881 43.4944 54.9244 43.6541 54.9244H46.0635C46.2233 54.9244 46.3765 54.9881 46.4895 55.1016C46.6024 55.2151 46.6659 55.369 46.6659 55.5294C46.6659 55.6899 46.6024 55.8438 46.4895 55.9572C46.3765 56.0707 46.2233 56.1345 46.0635 56.1345ZM58.1106 56.1345H55.7012C55.5414 56.1345 55.3882 56.0707 55.2752 55.9572C55.1623 55.8438 55.0988 55.6899 55.0988 55.5294C55.0988 55.369 55.1623 55.2151 55.2752 55.1016C55.3882 54.9881 55.5414 54.9244 55.7012 54.9244H58.1106C58.2703 54.9244 58.4236 54.9881 58.5365 55.1016C58.6495 55.2151 58.7129 55.369 58.7129 55.5294C58.7129 55.6899 58.6495 55.8438 58.5365 55.9572C58.4236 56.0707 58.2703 56.1345 58.1106 56.1345Z" fill="black"/>
</g>
</g>
<defs>
<clipPath id="clip0_90_3568">
<rect width="65.8824" height="64" fill="white" transform="translate(0.0588226)"/>
</clipPath>
<clipPath id="clip1_90_3568">
<rect width="30.1176" height="16.9412" fill="white" transform="translate(35.8235 47.0588)"/>
</clipPath>
</defs>
</svg>
