<svg width="78" height="64" viewBox="0 0 78 64" fill="none" xmlns="http://www.w3.org/2000/svg">
<path fill-rule="evenodd" clip-rule="evenodd" d="M11.4605 58.6535V24.6976C11.4605 23.424 12.4832 22.3987 13.753 22.3987H64.2067C65.4778 22.3987 66.5005 23.4227 66.5005 24.6976V58.6535H11.4605Z" fill="#F0F4F7" stroke="#496078"/>
<path d="M70.3405 55.7158C70.3422 56.5521 70.1787 57.3805 69.8593 58.1534C69.54 58.9263 69.0712 59.6285 68.4797 60.2197C67.8883 60.8109 67.1858 61.2795 66.4128 61.5985C65.6398 61.9175 64.8113 62.0807 63.9751 62.0787H13.9872C13.1509 62.0807 12.3225 61.9175 11.5495 61.5985C10.7764 61.2795 10.074 60.8109 9.48256 60.2197C8.89111 59.6285 8.42226 58.9263 8.10293 58.1534C7.7836 57.3805 7.62009 56.5521 7.62178 55.7158H70.3405Z" fill="#7D9EC7" stroke="#496078" stroke-linejoin="round"/>
<path d="M33.2205 55.7158H44.7405V57.4144C44.7405 58.3552 44.0071 59.1129 43.0944 59.1129H34.8666C33.9552 59.1129 33.2205 58.3552 33.2205 57.4144V55.7158Z" fill="#E6DFD2" stroke="#496078"/>
<path d="M51.6998 52.16H14.9805V25.9136H62.9805V52.16H58.5798" fill="#E6DFD2"/>
<path d="M25.8605 52.16H14.9805V25.9136H62.9805V52.16H39.7792" stroke="#496078" stroke-width="0.5" stroke-linejoin="round"/>
<path d="M38.9791 48.3155C43.9275 48.3155 47.939 44.304 47.939 39.3556C47.939 34.4072 43.9275 30.3958 38.9791 30.3958C34.0307 30.3958 30.0193 34.4072 30.0193 39.3556C30.0193 44.304 34.0307 48.3155 38.9791 48.3155Z" fill="#F8B84E"/>
<path fill-rule="evenodd" clip-rule="evenodd" d="M35.8271 32.0871C35.6807 32.1143 35.5153 32.2269 35.2775 32.4126C35.0231 32.6118 34.69 32.7761 34.5374 32.7761C34.2907 32.7773 34.2907 32.757 34.5374 32.5975C34.7558 32.4562 34.7125 32.4153 34.3338 32.4153C33.9912 32.4135 33.5059 32.5294 33.1495 32.6671C32.9314 32.8539 32.7224 33.051 32.5233 33.2579C32.5537 33.2558 32.5579 33.2591 32.5943 33.2555C32.8999 33.2268 33.2621 33.2928 33.4007 33.4024C33.5877 33.5508 33.7113 33.5207 33.884 33.2847C34.0115 33.1103 34.1799 32.9681 34.2585 32.9681C34.5347 32.9681 35.0708 33.7453 35.1954 34.3253C35.2647 34.6478 35.4003 35.0621 35.497 35.2464C35.721 35.6737 36.0929 35.557 36.1696 35.0352C36.2022 34.8142 36.2933 34.6332 36.3721 34.6332C36.4507 34.6332 36.6654 34.3537 36.85 34.0114L37.1851 33.389L36.6478 32.7161C36.2625 32.2331 36.0714 32.0417 35.8271 32.0871ZM39.1754 32.4091C39.1365 32.4055 39.0944 32.4213 39.0529 32.4628C38.992 32.5237 39.0069 32.6796 39.0867 32.8087V32.8093C39.2031 32.9974 39.2467 32.9974 39.3095 32.8093C39.3767 32.6083 39.2918 32.4204 39.1754 32.4091ZM44.8493 32.7952C44.7621 32.8054 44.6884 32.8633 44.6236 32.9681C44.5608 33.0697 44.3861 33.153 44.2353 33.153C44.0842 33.153 43.7831 33.3182 43.5666 33.5198C43.2856 33.7814 43.1073 33.8322 42.943 33.696C42.6861 33.4824 42.3976 33.7698 42.5774 34.0604C42.6342 34.153 42.5153 34.1855 42.3131 34.1329C42.1109 34.0792 41.7985 34.1013 41.619 34.1795C41.4392 34.2581 41.2299 34.3092 41.1534 34.293C41.0772 34.2766 41.0145 34.3468 41.0145 34.4483C41.0145 34.5502 40.8485 34.4671 40.6448 34.2635C40.1385 33.7572 39.8441 33.7969 39.1783 34.4624C38.5601 35.0806 38.4592 35.462 38.8722 35.6203C39.044 35.6863 39.2016 35.5328 39.3253 35.1777C39.5424 34.5546 39.9229 34.4289 39.7652 35.0325C39.6906 35.3177 39.7258 35.3918 39.8889 35.2909C40.0564 35.1872 40.0525 35.2526 39.8739 35.5393C39.7398 35.7535 39.5466 35.9324 39.4439 35.9428C38.6264 36.005 38.0536 36.352 38.0536 36.7848C38.0536 36.9251 37.9643 37.0395 37.8553 37.0395C37.7463 37.0395 37.6827 37.236 37.7143 37.4765C37.7457 37.7169 37.6644 38.0427 37.5333 38.2004C37.177 38.6299 37.0414 39.7651 37.3081 40.0862C37.4336 40.2373 37.8111 40.4132 38.1474 40.4759C38.791 40.5966 38.9714 40.9099 38.9765 41.9155C38.9779 42.2055 39.1126 42.7249 39.2757 43.0689C39.5305 43.6056 39.6243 43.6662 39.9343 43.5005C40.1332 43.3942 40.3384 43.1669 40.3912 42.9954C40.4438 42.824 40.5638 42.5391 40.6582 42.3623C40.7526 42.1858 40.8297 41.836 40.8297 41.5861C40.8297 41.3361 41.0136 40.8197 41.2388 40.4386C41.6289 39.7776 41.6307 39.7517 41.2848 39.8735C41.0429 39.9586 41.0913 39.8729 41.4312 39.6149C41.935 39.2329 42.1339 38.6616 41.7322 38.7512C41.6175 38.7765 41.4849 38.6914 41.4374 38.5621C41.3687 38.3734 41.4565 38.3715 41.8774 38.5516C42.6724 38.8915 42.8313 39.0513 42.9606 39.64C43.0756 40.1674 43.4949 40.6602 43.397 40.1567C43.3235 39.7792 43.6045 39.0743 43.8285 39.0743C43.9372 39.0743 44.2234 39.2873 44.4647 39.5474C44.9369 40.0572 45.3547 39.9969 45.1791 39.4441C45.1044 39.2093 45.1847 39.0677 45.4389 38.9871C45.8624 38.8527 46.0434 38.4229 45.9281 37.8235C45.8564 37.4532 45.8899 37.4293 46.2298 37.6115C46.4756 37.7435 46.5694 37.7483 46.4926 37.624C46.4272 37.5183 46.5523 37.2647 46.7709 37.0613C47.0565 36.7955 47.1359 36.5638 47.0547 36.2388C46.9985 36.0163 47.0084 35.8434 47.0971 35.7084C46.5877 34.6062 45.8595 33.619 44.9569 32.8069C44.9221 32.7962 44.8856 32.7923 44.8493 32.7952ZM33.4267 32.8072C33.5106 32.8072 33.5949 32.8197 33.6585 32.8454C33.7857 32.8968 33.6812 32.9395 33.4267 32.9395C33.1722 32.9395 33.0683 32.8971 33.1958 32.8454C33.2595 32.8197 33.3428 32.8072 33.4267 32.8072ZM42.2349 32.9685C42.0799 32.9685 41.8609 33.1417 41.748 33.3531C41.5611 33.7023 41.576 33.7187 41.9159 33.5368C42.4156 33.2695 42.5843 32.9685 42.2349 32.9685ZM32.815 33.5449C32.7228 33.5449 32.7117 33.5995 32.7792 33.7088C32.8419 33.811 33.0761 33.8913 33.2989 33.8809C33.6901 33.8683 33.6913 33.8621 33.3347 33.7088C33.08 33.5995 32.907 33.5449 32.815 33.5449ZM32.0875 33.7339C32.0474 33.7854 32.0079 33.8372 31.9689 33.8895C32.0585 33.8842 32.1317 33.8537 32.1317 33.8119C32.1317 33.7925 32.1138 33.7641 32.0875 33.7339ZM32.6714 34.1013C32.6072 34.0986 32.534 34.1102 32.4671 34.1371V34.1365C32.3196 34.1957 32.3629 34.2381 32.5785 34.2485C32.7738 34.2569 32.8831 34.2133 32.8219 34.1515C32.7912 34.1207 32.7356 34.104 32.6714 34.1013ZM33.2395 34.1037C33.1896 34.0995 33.1528 34.1058 33.134 34.1246C33.0623 34.1962 33.1056 34.3767 33.2296 34.5263C33.4157 34.7503 33.39 34.7924 33.0838 34.77C32.8796 34.7548 32.7541 34.655 32.8055 34.549C32.8569 34.443 32.7888 34.4884 32.6538 34.6499C32.3951 34.9602 31.7942 35.0456 31.4836 34.8166C31.4663 34.8037 31.4054 34.7885 31.3513 34.7736C30.9833 35.369 30.6863 36.0055 30.4664 36.6701C30.5799 36.8502 30.6506 37.0353 30.6506 37.2008C30.6506 37.9385 32.0194 39.809 32.8918 40.2633V40.2639C33.1352 40.3908 33.3756 40.4547 33.4267 40.4072C33.4775 40.3595 33.4198 40.2848 33.2983 40.2415C33.1764 40.1979 33.1203 40.0509 33.1726 39.915C33.232 39.7594 33.1421 39.6782 32.9309 39.6955C32.7084 39.714 32.5937 39.5979 32.5937 39.3533C32.5937 39.0707 32.715 38.9799 33.103 38.9904C33.3882 38.9946 33.6116 38.8969 33.6116 38.7688C33.6116 38.4552 34.4275 37.598 34.7435 37.5804C34.9311 37.5694 34.9376 37.5404 34.7683 37.4726C34.3113 37.288 34.5371 36.9998 35.0461 37.1178C35.4236 37.2053 35.4836 37.1874 35.2775 37.0479C35.1249 36.9448 35.0792 36.857 35.176 36.857C35.273 36.8555 35.0649 36.5706 34.7136 36.2242C34.0399 35.56 33.797 35.5334 33.797 36.125C33.797 36.556 33.6196 36.5784 33.1385 36.2068C32.8124 35.9548 32.8067 35.9076 33.0761 35.6967C33.2394 35.5692 33.4324 35.278 33.505 35.0495C33.648 34.5985 33.8861 34.5131 34.0877 34.8393C34.1575 34.9528 34.1136 35.1075 33.9903 35.1836C33.829 35.2831 33.8574 35.3569 34.0906 35.4465C34.4224 35.574 34.7635 35.2535 34.6605 34.9113C34.5888 34.6729 33.5898 34.1332 33.2395 34.104V34.1037ZM31.7572 34.1679C31.6803 34.2692 31.6057 34.3722 31.5332 34.4767C31.6509 34.5072 31.7145 34.5603 31.6756 34.623C31.6165 34.718 31.7363 34.7837 31.9421 34.7682C32.1481 34.7527 32.316 34.695 32.3139 34.6404C32.3067 34.3892 32.0651 34.193 31.7578 34.1679H31.7572ZM37.0357 34.5104C36.7457 34.5104 36.6744 34.6735 36.8766 34.8754C37.0148 35.0137 37.3135 34.8623 37.3135 34.6538C37.3135 34.5756 37.1884 34.5104 37.0357 34.5104ZM37.9924 35.6693C37.9386 35.6633 37.8693 35.7168 37.7579 35.8282C37.4587 36.1274 37.4103 36.3759 37.6838 36.2065C37.7854 36.1438 37.8684 36.1982 37.869 36.3257C37.869 36.4858 37.9281 36.4989 38.0596 36.3675C38.1647 36.2624 38.1984 36.0402 38.1342 35.8729C38.084 35.7424 38.0461 35.6758 37.9924 35.6696V35.6693ZM41.3884 36.7597C41.5106 36.6844 41.7453 37.2531 41.7528 37.641C41.754 37.7172 41.6814 37.7799 41.5915 37.7799C41.3837 37.7799 41.203 36.8744 41.3884 36.7597ZM40.5713 36.7928C40.6997 36.8018 40.7675 36.8914 40.7807 37.0664C40.7947 37.2552 40.7905 37.3994 40.7714 37.3881C40.7523 37.3764 40.5913 37.3283 40.413 37.2817C39.9937 37.1721 39.9985 36.9213 40.4226 36.8105C40.4793 36.7955 40.5283 36.7901 40.5713 36.7928ZM38.9567 36.9646C39.1097 36.9592 39.2375 37.0153 39.2883 37.1464C39.3435 37.2913 39.5463 37.4093 39.7389 37.4093C39.9316 37.4093 40.0896 37.4929 40.0896 37.595C40.0896 37.6966 40.2195 37.7802 40.3784 37.7802C40.5367 37.7802 40.6149 37.8629 40.5522 37.9648C40.4892 38.0663 40.1099 38.15 39.7085 38.15C39.3074 38.15 38.9788 38.0669 38.9788 37.9648C38.9788 37.8632 38.768 37.7799 38.5099 37.7799C38.1085 37.7799 38.0673 37.7297 38.2262 37.4329C38.377 37.1509 38.7017 36.9729 38.9567 36.9646ZM47.3495 37.0413C47.2754 37.0422 47.1183 37.2504 47.0006 37.5042C46.8829 37.7578 46.8489 37.9654 46.9248 37.9654C47.0009 37.9654 47.1577 37.7569 47.2736 37.5024C47.3898 37.248 47.4238 37.0413 47.3495 37.0413ZM40.4742 38.5424C40.5044 38.5322 40.6221 38.7001 40.7592 38.953C40.9157 39.2418 41.0091 39.513 40.9667 39.5549C40.8849 39.6367 40.4542 38.7774 40.4668 38.5573C40.4674 38.5484 40.4698 38.5439 40.4742 38.5424ZM33.5551 39.4482C33.4225 39.45 33.4455 39.5229 33.6122 39.6307C33.9676 39.8607 34.0318 39.8607 33.8899 39.6307C33.8272 39.5289 33.6764 39.4482 33.5551 39.4482ZM44.6445 40.2498C44.5785 40.2385 44.531 40.2791 44.531 40.36C44.531 40.4676 44.6146 40.556 44.7164 40.556C44.818 40.556 44.9016 40.5201 44.9016 40.4747C44.9016 40.4299 44.818 40.3418 44.7164 40.2788C44.6946 40.2647 44.6703 40.2548 44.6448 40.2498H44.6445ZM45.7041 40.2561C45.6808 40.2577 45.6583 40.2657 45.6393 40.2794C45.5387 40.3415 45.4565 40.4706 45.4565 40.5664C45.4565 40.8328 45.5891 40.7746 45.7122 40.4538C45.7597 40.3314 45.754 40.2576 45.7041 40.2561ZM33.8159 40.699C33.68 40.7005 33.5817 40.8451 33.4575 41.1882C33.1528 42.0305 33.1878 42.4175 33.6077 42.8643C33.9407 43.2185 33.9583 43.384 33.8078 44.7262C33.6973 45.7118 33.7063 46.2762 33.835 46.4313C34.085 46.7323 34.0685 46.7541 34.1157 46.0615C34.1381 45.7309 34.3069 45.3352 34.4908 45.1822C35.0192 44.7432 35.9686 43.238 36.103 42.6263C36.204 42.1664 36.1586 42.0469 35.8441 41.9471C35.6344 41.8805 35.4627 41.7172 35.4627 41.5837C35.4627 41.4502 35.1921 41.2411 34.8612 41.1183C34.5303 40.9956 34.1283 40.8266 33.967 40.7432C33.9108 40.714 33.8613 40.6984 33.8159 40.699ZM46.2641 41.0034C46.2632 41.0129 46.2707 41.0329 46.2868 41.0646C46.3513 41.1918 46.3158 41.2964 46.208 41.2964C46.1002 41.2964 46.012 41.3883 46.012 41.5009C46.012 41.6132 46.1369 41.6577 46.2898 41.5989C46.4421 41.5407 46.5667 41.5729 46.5667 41.6718C46.5667 41.7709 46.6085 41.8516 46.6592 41.8516C46.8399 41.8516 46.7479 41.5472 46.4606 41.193C46.3403 41.0446 46.2665 40.975 46.2641 41.0034ZM45.3194 41.1446C45.2543 41.1512 45.3711 41.3886 45.6928 41.8047C45.7913 41.9322 45.9442 42.0364 46.0332 42.0364C46.1216 42.0364 46.0132 41.8283 45.7922 41.5738C45.5315 41.2743 45.3705 41.1393 45.3194 41.1446ZM41.3729 41.9618C41.3443 41.957 41.3084 41.9636 41.2636 41.9806C41.1268 42.0332 41.0145 42.2333 41.0145 42.4262V42.4268C41.0145 42.9303 41.3263 42.8584 41.427 42.3312C41.473 42.0914 41.458 41.9758 41.3729 41.9618ZM47.4919 42.2225C47.3032 42.2356 46.9943 42.428 46.676 42.7601C46.2522 43.2024 46.1823 43.4001 46.2847 43.8681C46.351 44.1692 46.3887 44.3054 46.4863 44.3296C46.912 43.6741 47.25 42.9657 47.4919 42.2225Z" fill="#496078"/>
<path d="M43.8202 1.28003C41.9872 1.28003 40.2669 2.16323 39.193 3.64803C38.6639 3.28992 38.0474 3.08258 37.4095 3.04827C36.7716 3.01396 36.1363 3.15396 35.5719 3.45326C35.0076 3.75255 34.5353 4.19985 34.2058 4.74718C33.8763 5.2945 33.7021 5.92119 33.7017 6.56003C33.7017 6.71747 33.7145 6.87491 33.7363 7.03107C33.4415 6.7999 33.0924 6.6479 32.7223 6.58949C32.3523 6.53108 31.9734 6.56819 31.6217 6.69731C31.2699 6.82644 30.9571 7.04328 30.7127 7.32727C30.4683 7.61127 30.3005 7.95299 30.2253 8.32003H30.1805C29.7179 8.31902 29.2598 8.40937 28.8322 8.58591C28.4047 8.76245 28.0163 9.02169 27.6892 9.34875C27.3621 9.67582 27.1029 10.0643 26.9264 10.4918C26.7498 10.9193 26.6595 11.3775 26.6605 11.84C26.6596 12.3024 26.7501 12.7604 26.9266 13.1878C27.1031 13.6151 27.3622 14.0035 27.6891 14.3305C28.016 14.6575 28.4042 14.9168 28.8315 15.0934C29.2588 15.2701 29.7168 15.3607 30.1792 15.36H47.7792C48.2417 15.3609 48.6998 15.2704 49.1272 15.0938C49.5547 14.9172 49.9431 14.658 50.2701 14.3309C50.5971 14.0039 50.8564 13.6155 51.033 13.1881C51.2096 12.7606 51.3 12.3025 51.2992 11.84C51.2992 10.432 50.4774 9.23267 49.2896 8.66819C49.5502 7.81333 49.6068 6.90932 49.455 6.02862C49.3032 5.14793 48.9471 4.31505 48.4154 3.59677C47.8836 2.87849 47.191 2.29479 46.393 1.89247C45.595 1.49015 44.7138 1.28039 43.8202 1.28003Z" fill="#8FB6D7"/>
<path d="M53.2456 48.548C53.448 48.7504 53.7753 48.7513 53.9766 48.55C54.1779 48.3486 54.177 48.0214 53.9746 47.819C53.7723 47.6166 53.445 47.6157 53.2437 47.817C53.0424 48.0183 53.0432 48.3456 53.2456 48.548Z" fill="#496078"/>
<path d="M54.8386 48.2836C54.8254 47.9355 54.6815 47.6052 54.4357 47.3584C54.1892 47.112 53.8587 46.9677 53.5105 46.9544L53.5087 46.2643C54.0401 46.2782 54.5459 46.4956 54.9216 46.8717C55.2974 47.2478 55.5144 47.7537 55.5278 48.2852L54.8386 48.2836Z" fill="#496078"/>
<path d="M56.2951 48.2872C56.261 47.6019 55.9739 46.9537 55.4894 46.4678C55.2294 46.2079 54.9202 46.0025 54.5799 45.8634C54.2395 45.7244 53.8749 45.6546 53.5073 45.6581L53.5055 44.9697C53.9637 44.9666 54.418 45.0545 54.842 45.2282C55.266 45.4019 55.6512 45.658 55.9755 45.9817C56.5889 46.5973 56.9488 47.4207 56.9841 48.289L56.2951 48.2872Z" fill="#496078"/>
<path d="M57.6723 48.2906C57.6369 47.2393 57.2043 46.2405 56.4617 45.4956C56.0731 45.108 55.6118 44.8011 55.1041 44.5926C54.5964 44.3841 54.0525 44.2781 53.5037 44.2807L53.5022 43.5915C54.1416 43.589 54.7753 43.7129 55.3666 43.9563C55.958 44.1996 56.4954 44.5575 56.9478 45.0094C57.8197 45.8839 58.3252 47.058 58.3613 48.2924L57.6723 48.2906Z" fill="#8FB6D7"/>
<path d="M38.9805 8.96002L36.4205 11.52H38.1267V14.08H39.833V11.52H41.5405L38.9805 8.96002Z" fill="#496078"/>
<path d="M8.90048 38.4H19.1405V43.52H29.2525" stroke="#2DBCA4" stroke-linejoin="round"/>
<path d="M38.9805 28.8V15.36" stroke="#2DBCA4"/>
<path d="M49.3485 37.12H54.9805V39.68H64.5805V35.84" stroke="#2DBCA4" stroke-linejoin="round"/>
<path d="M60.9872 35.9413C61.9037 35.9413 62.6406 35.2044 62.6406 34.288L62.6373 34.0962V32.6346H66.8887V34.288C66.8887 35.2044 67.6261 35.9413 68.5421 35.9413" fill="#7D9EC7"/>
<path d="M60.9872 35.9413C61.9037 35.9413 62.6406 35.2044 62.6406 34.288L62.6373 34.0962V32.6346H66.8887V34.288C66.8887 35.2044 67.6261 35.9413 68.5421 35.9413" stroke="#496078" stroke-width="0.500063" stroke-linecap="round" stroke-linejoin="round"/>
<path d="M75.1555 17.5183H54.3706C53.9792 17.5183 53.662 17.8356 53.662 18.2269V31.9261C53.662 32.3174 53.9792 32.6346 54.3706 32.6346H75.1555C75.5468 32.6346 75.864 32.3174 75.864 31.9261V18.2269C75.864 17.8356 75.5468 17.5183 75.1555 17.5183Z" fill="#E6DFD2" stroke="#496078" stroke-width="0.500063" stroke-linecap="round" stroke-linejoin="round"/>
<path d="M75.1555 17.7545H54.3706C54.1097 17.7545 53.8982 17.966 53.8982 18.2269V31.9261C53.8982 32.187 54.1097 32.3984 54.3706 32.3984H75.1555C75.4164 32.3984 75.6279 32.187 75.6279 31.9261V18.2269C75.6279 17.966 75.4164 17.7545 75.1555 17.7545Z" fill="white"/>
<path d="M54.9611 18.8174H74.565V29.9184H54.9611V18.8174Z" fill="#E6DFD2"/>
<path d="M70.9635 29.9184H54.9611V18.8174H74.565V29.9184H72.3571" stroke="#496078" stroke-width="0.500063" stroke-linecap="round" stroke-linejoin="round"/>
<path d="M64.763 31.9261C65.1544 31.9261 65.4716 31.6088 65.4716 31.2175C65.4716 30.8262 65.1544 30.5089 64.763 30.5089C64.3717 30.5089 64.0544 30.8262 64.0544 31.2175C64.0544 31.6088 64.3717 31.9261 64.763 31.9261Z" fill="#496078"/>
<path d="M69.723 35.9413H59.803C59.5421 35.9413 59.3306 36.1528 59.3306 36.4137C59.3306 36.6746 59.5421 36.8861 59.803 36.8861H69.723C69.9839 36.8861 70.1954 36.6746 70.1954 36.4137C70.1954 36.1528 69.9839 35.9413 69.723 35.9413Z" fill="#7D9EC7" stroke="#496078" stroke-width="0.500063" stroke-linecap="round" stroke-linejoin="round"/>
<path d="M43.5885 48.8614C41.1622 50.0381 38.3777 50.2421 35.8059 49.4315C33.2341 48.6208 31.0698 46.8571 29.7568 44.5018C28.4435 42.1465 28.081 39.3781 28.7436 36.7642C29.4062 34.1502 31.0437 31.8888 33.3203 30.4435C35.5968 28.9985 38.3399 28.4791 40.9871 28.9917C43.6344 29.5044 45.9852 31.0102 47.5578 33.2006C49.1304 35.3911 49.8055 38.1001 49.4447 40.7723C49.0839 43.4446 47.7145 45.8776 45.6173 47.5725" stroke="#496078" stroke-width="0.5"/>
<path d="M20.0736 28.8768V32.7168M18.8231 29.6448L20.0736 28.48L21.3242 29.6448" stroke="#EE7581" stroke-width="0.5" stroke-linecap="round" stroke-linejoin="round"/>
<path d="M22.3405 35.0029V31.1629M21.0899 34.2349L22.3405 35.3997L23.591 34.2349" stroke="#2DBCA4" stroke-width="0.5" stroke-linecap="round" stroke-linejoin="round"/>
<path fill-rule="evenodd" clip-rule="evenodd" d="M6.49023 25.0419C6.45771 25.0506 6.42379 25.0528 6.39041 25.0484C6.35703 25.044 6.32486 25.033 6.29573 25.0161C6.2666 24.9992 6.24109 24.9768 6.22065 24.95C6.20021 24.9232 6.18526 24.8927 6.17664 24.8602L5.82207 23.5392C5.39989 23.5599 4.97739 23.5057 4.57407 23.3792L3.89312 24.5594C3.85912 24.6181 3.80324 24.6609 3.73772 24.6784C3.67221 24.6959 3.60242 24.6867 3.54367 24.6528L2.65664 24.1408C2.59795 24.1068 2.55515 24.0509 2.53763 23.9854C2.52012 23.9199 2.52931 23.8501 2.5632 23.7914L3.24543 22.6086C2.93296 22.3237 2.67338 21.9857 2.47872 21.6103L1.16031 21.9648C1.12779 21.9735 1.09387 21.9757 1.06049 21.9713C1.02711 21.9668 0.994938 21.9559 0.965808 21.939C0.936678 21.9221 0.911166 21.8996 0.89073 21.8729C0.870294 21.8461 0.855337 21.8156 0.846716 21.7831L0.648315 21.0407L3.63327 20.2419C3.6442 20.3269 3.66044 20.4111 3.68191 20.4941C3.75157 20.7539 3.87172 20.9974 4.0355 21.2108C4.19928 21.4241 4.40349 21.6031 4.63646 21.7376C4.86943 21.872 5.1266 21.9592 5.39328 21.9943C5.65996 22.0293 5.93093 22.0115 6.19072 21.9418C6.71516 21.8008 7.16216 21.4573 7.4334 20.9869C7.70464 20.5164 7.77791 19.9575 7.63711 19.433C7.6145 19.3502 7.58671 19.269 7.55392 19.1898L10.5389 18.3911L10.7373 19.1335C10.7549 19.199 10.7458 19.2688 10.7119 19.3276C10.6781 19.3864 10.6223 19.4294 10.5568 19.4471L9.23584 19.8003C9.2561 20.2226 9.2015 20.6451 9.07456 21.0483L10.256 21.7306C10.3147 21.7646 10.3575 21.8204 10.375 21.886C10.3925 21.9515 10.3833 22.0213 10.3494 22.08L9.83743 22.9671C9.80344 23.0257 9.74756 23.0685 9.68204 23.0861C9.61653 23.1036 9.54674 23.0944 9.488 23.0605L8.30399 22.377C8.01952 22.6898 7.68195 22.9498 7.30687 23.145L7.66016 24.4634C7.67777 24.5289 7.66865 24.5987 7.63481 24.6575C7.60097 24.7163 7.54517 24.7593 7.47968 24.777L6.49023 25.0419Z" fill="#EB8E68"/>
<path fill-rule="evenodd" clip-rule="evenodd" d="M3.84065 15.1513C3.7752 15.1688 3.71933 15.2114 3.68526 15.2699C3.6512 15.3285 3.64171 15.3981 3.65889 15.4637L4.01345 16.7859C3.63742 16.9792 3.29854 17.2374 3.01249 17.5488L1.83233 16.8665C1.80312 16.8496 1.77084 16.8386 1.73736 16.8342C1.70388 16.8298 1.66986 16.8321 1.63726 16.8409C1.60466 16.8497 1.57413 16.8649 1.54741 16.8855C1.5207 16.9062 1.49834 16.9319 1.48161 16.9613L0.969614 17.847C0.952888 17.8762 0.94207 17.9083 0.937778 17.9417C0.933486 17.975 0.935804 18.0089 0.944599 18.0413C0.953395 18.0738 0.968496 18.1042 0.98904 18.1308C1.00958 18.1574 1.03517 18.1797 1.06433 18.1965L2.24706 18.88C2.11838 19.2829 2.06204 19.7054 2.08065 20.128L0.762256 20.4813C0.696759 20.4989 0.640959 20.5419 0.607119 20.6007C0.573278 20.6595 0.564163 20.7293 0.581775 20.7949L0.780175 21.5373L3.76641 20.736C3.73318 20.6568 3.70496 20.5755 3.68193 20.4928C3.54156 19.9683 3.61521 19.4095 3.88668 18.9393C4.15814 18.4691 4.60521 18.1259 5.12961 17.9853C5.38948 17.9156 5.66054 17.8978 5.92729 17.9329C6.19403 17.968 6.45125 18.0554 6.68423 18.1899C6.91721 18.3245 7.1214 18.5036 7.28512 18.7171C7.44884 18.9306 7.5689 19.1743 7.63842 19.4342C7.65984 19.5167 7.67608 19.6005 7.68706 19.6851L10.672 18.8864L10.4723 18.144C10.4546 18.0785 10.4117 18.0227 10.3529 17.9888C10.2941 17.955 10.2243 17.9459 10.1587 17.9635L8.83777 18.3168C8.64451 17.9407 8.38624 17.6019 8.07489 17.3158L8.75585 16.1357C8.78974 16.0769 8.79893 16.0071 8.78142 15.9416C8.7639 15.8761 8.7211 15.8202 8.66241 15.7862L7.77666 15.2742C7.74751 15.2572 7.7153 15.2462 7.68187 15.2417C7.64845 15.2372 7.61446 15.2394 7.58187 15.248C7.54928 15.2567 7.51873 15.2718 7.49197 15.2923C7.46521 15.3128 7.44277 15.3384 7.42593 15.3677L6.74369 16.5504C6.34069 16.4221 5.91818 16.3662 5.4957 16.3853L5.14241 15.0669C5.13379 15.0343 5.11884 15.0038 5.0984 14.977C5.07796 14.9503 5.05245 14.9278 5.02332 14.9109C4.99419 14.894 4.96202 14.8831 4.92864 14.8786C4.89526 14.8742 4.86134 14.8764 4.82881 14.8851L3.84065 15.1513Z" fill="#EB8E68"/>
<path d="M4.47679 18.2912C4.85156 18.0262 5.3045 17.8947 5.76293 17.9179C6.22137 17.9411 6.65872 18.1177 7.00479 18.4192C7.35109 18.7207 7.58604 19.1298 7.67193 19.5808C7.75781 20.0318 7.68966 20.4986 7.47839 20.9063C7.26719 21.3137 6.92527 21.6384 6.50747 21.8282C6.08967 22.0181 5.62021 22.0622 5.17439 21.9533C4.729 21.8444 4.33304 21.5892 4.04991 21.2286C3.76678 20.8679 3.61286 20.4227 3.61279 19.9642" stroke="#496078" stroke-width="0.5"/>
<path fill-rule="evenodd" clip-rule="evenodd" d="M14.3584 19.7645C14.3323 19.7736 14.3048 19.7774 14.2772 19.7759C14.2496 19.7743 14.2227 19.7673 14.1978 19.7553C14.173 19.7433 14.1507 19.7265 14.1324 19.7059C14.114 19.6853 14.0999 19.6613 14.0909 19.6352L13.7197 18.5728C13.3747 18.615 13.025 18.596 12.6867 18.5165L12.199 19.5277C12.187 19.5526 12.1702 19.5749 12.1495 19.5933C12.1288 19.6118 12.1047 19.6259 12.0785 19.6349C12.0523 19.644 12.0246 19.6477 11.997 19.646C11.9693 19.6443 11.9423 19.6372 11.9174 19.625L11.1584 19.2589C11.1335 19.2468 11.1111 19.23 11.0927 19.2093C11.0743 19.1886 11.0602 19.1645 11.0511 19.1383C11.0421 19.1121 11.0383 19.0844 11.04 19.0568C11.0417 19.0292 11.0489 19.0021 11.0611 18.9773L11.5488 17.9661C11.2747 17.7516 11.0406 17.4903 10.8576 17.1942L9.79775 17.5642C9.77162 17.5734 9.74391 17.5775 9.71622 17.576C9.68852 17.5745 9.6614 17.5676 9.6364 17.5556C9.61141 17.5435 9.58904 17.5267 9.5706 17.506C9.55216 17.4852 9.538 17.4611 9.52896 17.4349L9.32159 16.8371L11.7229 16C11.737 16.0689 11.7553 16.1369 11.7779 16.2035C11.9254 16.6254 12.2343 16.9715 12.6368 17.1656C13.0393 17.3598 13.5025 17.3862 13.9245 17.239C14.3464 17.0916 14.6924 16.7826 14.8866 16.3801C15.0808 15.9776 15.1072 15.5144 14.96 15.0925C14.9363 15.0264 14.9085 14.9618 14.8768 14.8992L17.2768 14.0608L17.4854 14.6573C17.4947 14.6834 17.4988 14.7111 17.4973 14.7388C17.4958 14.7665 17.4889 14.7936 17.4768 14.8186C17.4648 14.8436 17.448 14.866 17.4273 14.8844C17.4065 14.9029 17.3824 14.917 17.3562 14.9261L16.2938 15.2973C16.336 15.6422 16.3169 15.9919 16.2374 16.3302L17.2486 16.8179C17.3523 16.8691 17.3971 16.9946 17.3459 17.0995L16.9798 17.8586C16.9678 17.8835 16.951 17.9058 16.9303 17.9242C16.9096 17.9426 16.8855 17.9568 16.8593 17.9658C16.8331 17.9748 16.8054 17.9786 16.7778 17.9769C16.7501 17.9752 16.7231 17.968 16.6982 17.9558L15.687 17.4681C15.4721 17.7419 15.2103 17.9755 14.9139 18.1581L15.2851 19.2179C15.2944 19.2441 15.2984 19.2719 15.2968 19.2997C15.2952 19.3274 15.2882 19.3546 15.276 19.3796C15.2639 19.4046 15.2469 19.427 15.226 19.4453C15.2052 19.4637 15.1809 19.4778 15.1546 19.4867L14.3584 19.7645Z" fill="#EB8E68"/>
<path fill-rule="evenodd" clip-rule="evenodd" d="M11.5821 11.8093C11.556 11.8185 11.5319 11.8327 11.5114 11.8512C11.4908 11.8697 11.4741 11.8921 11.4622 11.9171C11.4503 11.942 11.4434 11.9691 11.442 11.9968C11.4407 12.0244 11.4447 12.052 11.4541 12.0781L11.824 13.1405C11.5273 13.3221 11.2652 13.5548 11.0496 13.8278L10.0384 13.3402C10.0135 13.328 9.98635 13.3209 9.95866 13.3193C9.93096 13.3177 9.90322 13.3215 9.87703 13.3307C9.85085 13.3399 9.82674 13.3541 9.8061 13.3727C9.78546 13.3912 9.7687 13.4137 9.75679 13.4387L9.39199 14.1965C9.37979 14.2213 9.37262 14.2484 9.37091 14.276C9.3692 14.3036 9.37297 14.3314 9.38201 14.3575C9.39106 14.3837 9.40519 14.4078 9.4236 14.4285C9.442 14.4492 9.46432 14.4661 9.48927 14.4781L10.5018 14.967C10.4214 15.3052 10.4015 15.6549 10.4429 16L9.38175 16.3712C9.35553 16.3802 9.33137 16.3944 9.31066 16.4128C9.28994 16.4313 9.27309 16.4537 9.26107 16.4786C9.24905 16.5036 9.2421 16.5308 9.24062 16.5585C9.23915 16.5862 9.24317 16.6139 9.25247 16.64L9.46111 17.2352L11.8624 16.3968C11.8303 16.3346 11.8021 16.2705 11.7779 16.2048C11.7048 15.9958 11.6737 15.7744 11.6862 15.5533C11.6986 15.3323 11.7546 15.1158 11.8507 14.9164C11.9469 14.7169 12.0814 14.5383 12.2466 14.3909C12.4118 14.2434 12.6044 14.13 12.8134 14.057C13.2356 13.9098 13.6989 13.9364 14.1014 14.1308C14.504 14.3253 14.8128 14.6716 14.96 15.0938C14.9825 15.16 15.0009 15.2275 15.015 15.296L17.4163 14.4589L17.2077 13.8624C17.1988 13.8361 17.1847 13.8118 17.1663 13.7909C17.1479 13.7701 17.1256 13.7531 17.1006 13.7409C17.0756 13.7288 17.0484 13.7217 17.0206 13.7202C16.9929 13.7186 16.9651 13.7226 16.9389 13.7318L15.8765 14.103C15.6948 13.8064 15.4621 13.5442 15.1891 13.3286L15.6768 12.3174C15.6888 12.2926 15.6957 12.2656 15.6972 12.238C15.6987 12.2105 15.6948 12.1829 15.6856 12.1568C15.6765 12.1308 15.6623 12.1068 15.6439 12.0863C15.6254 12.0657 15.6031 12.049 15.5782 12.0371L14.8205 11.671C14.7955 11.6589 14.7684 11.6518 14.7407 11.6502C14.713 11.6485 14.6853 11.6524 14.6591 11.6616C14.6329 11.6707 14.6088 11.685 14.5882 11.7036C14.5675 11.7221 14.5508 11.7445 14.5389 11.7696L14.0499 12.7808C13.7118 12.7005 13.3621 12.6805 13.017 12.7219L12.6458 11.6608C12.6366 11.6347 12.6223 11.6107 12.6038 11.5901C12.5853 11.5695 12.5629 11.5528 12.538 11.5409C12.513 11.529 12.4859 11.5222 12.4583 11.5208C12.4306 11.5194 12.403 11.5235 12.377 11.5328L11.5821 11.8093Z" fill="#EB8E68"/>
<path d="M12.2976 14.3475C12.589 14.1076 12.9525 13.9724 13.3298 13.9635C13.7072 13.9547 14.0766 14.0728 14.3789 14.2989C14.6811 14.5252 14.8986 14.8463 14.9965 15.211C15.0945 15.5756 15.0672 15.9625 14.919 16.3098C14.7707 16.6571 14.5101 16.9446 14.1788 17.1261C13.8476 17.3076 13.4651 17.3726 13.0925 17.3107C12.7201 17.2487 12.3793 17.0635 12.1247 16.7848C11.8701 16.506 11.7164 16.1499 11.6883 15.7734" stroke="#496078" stroke-width="0.499964"/>
<path d="M0.900482 29.76H9.0784V44.4801H0.900482V29.76Z" fill="white" stroke="#496078" stroke-width="0.5" stroke-linecap="round" stroke-linejoin="round"/>
<path d="M3.89954 30.871H6.07938" stroke="#496078" stroke-width="0.5"/>
<path d="M1.86047 31.5661H8.11839V42.1196H1.86047V31.5661Z" fill="#E6DFD2"/>
<path d="M4.98879 43.7862C5.28994 43.7862 5.53407 43.5375 5.53407 43.2307C5.53407 42.9239 5.28994 42.6752 4.98879 42.6752C4.68764 42.6752 4.44351 42.9239 4.44351 43.2307C4.44351 43.5375 4.68764 43.7862 4.98879 43.7862Z" fill="#496078"/>
<path d="M26.8512 48.6297C26.6388 48.7517 26.3902 48.7952 26.1489 48.7526C25.9076 48.71 25.689 48.584 25.5315 48.3968C25.3739 48.2094 25.2875 47.9726 25.2875 47.728C25.2875 47.4834 25.3739 47.2465 25.5315 47.0591C25.6892 46.8721 25.9078 46.7463 26.1491 46.704C26.3904 46.6616 26.639 46.7054 26.8512 46.8276" stroke="#496078" stroke-width="0.5" stroke-miterlimit="11.545" stroke-linecap="round" stroke-linejoin="round"/>
<path d="M26.8512 48.6055V46.4807" stroke="#496078" stroke-width="0.5" stroke-miterlimit="11.545" stroke-linecap="round" stroke-linejoin="round"/>
<path d="M26.0205 49.6C25.5263 49.6 25.0484 49.4239 24.6722 49.1035C24.296 48.7831 24.0461 48.3393 23.9674 47.8514C23.8887 47.3636 23.9864 46.8638 24.2427 46.4414C24.499 46.019 24.8974 45.7016 25.3664 45.5461C25.8353 45.3907 26.3441 45.4073 26.8019 45.5928C27.2597 45.7784 27.6365 46.1207 27.865 46.5586C28.0934 46.9969 28.1583 47.5022 28.048 47.9839C27.9378 48.4657 27.6596 48.8925 27.2634 49.1878" stroke="#496078" stroke-width="0.5" stroke-miterlimit="11.545" stroke-linecap="round" stroke-linejoin="round"/>
<path d="M27.2685 49.184C27.2138 49.1842 27.1596 49.1736 27.1091 49.1528C27.0585 49.1319 27.0126 49.1013 26.9739 49.0626C26.9353 49.0239 26.9046 48.978 26.8838 48.9274C26.863 48.8769 26.8523 48.8227 26.8525 48.7681V48.2535" stroke="#496078" stroke-width="0.5" stroke-miterlimit="11.545" stroke-linecap="round" stroke-linejoin="round"/>
</svg>
