<svg width="64" height="64" viewBox="0 0 64 64" fill="none" xmlns="http://www.w3.org/2000/svg">
<path d="M33.1963 58.9168C47.7316 58.9168 59.5149 47.1335 59.5149 32.5981C59.5149 18.0628 47.7316 6.27951 33.1963 6.27951C18.6609 6.27951 6.87762 18.0628 6.87762 32.5981C6.87762 47.1335 18.6609 58.9168 33.1963 58.9168Z" fill="white"/>
<path d="M33.1963 12.261C44.4284 12.261 53.5334 21.366 53.5334 32.5981C53.5334 43.8302 44.4284 52.9352 33.1963 52.9352C21.9641 52.9352 12.8591 43.8302 12.8591 32.5981C12.8591 21.366 21.9643 12.261 33.1963 12.261Z" fill="#FFB0CD"/>
<path d="M44.3626 25.9276C46.6224 28.1886 46.6224 31.8529 44.3626 34.1127L40.9017 37.5736L32.7179 45.7575L24.534 37.5736L21.0731 34.1127C19.9439 32.9835 19.378 31.5024 19.378 30.0202C19.378 28.5392 19.9439 27.0582 21.0731 25.9277C23.333 23.6679 26.9972 23.6679 29.257 25.9277L32.7179 29.3886L36.1787 25.9277C38.4385 23.6677 42.1027 23.6677 44.3626 25.9276Z" fill="white"/>
<path d="M60.7113 13.4573C61.3719 13.4573 61.9075 12.9217 61.9075 12.261C61.9075 11.6003 61.3719 11.0648 60.7113 11.0648C60.0506 11.0648 59.515 11.6003 59.515 12.261C59.515 12.9217 60.0506 13.4573 60.7113 13.4573Z" fill="#FF6086"/>
<path d="M53.5334 61.3094C54.194 61.3094 54.7296 60.7738 54.7296 60.1131C54.7296 59.4525 54.194 58.9169 53.5334 58.9169C52.8727 58.9169 52.3371 59.4525 52.3371 60.1131C52.3371 60.7738 52.8727 61.3094 53.5334 61.3094Z" fill="#FF6086"/>
<path d="M51.739 2.69061C52.7295 2.69061 53.5335 3.49449 53.5335 4.48511C53.5335 5.47574 52.7296 6.27961 51.739 6.27961C50.7485 6.27961 49.9445 5.47574 49.9445 4.48511C49.9445 3.49449 50.7484 2.69061 51.739 2.69061Z" fill="#FF6086"/>
<path d="M15.2518 6.27949C15.9124 6.27949 16.448 5.74391 16.448 5.08324C16.448 4.42257 15.9124 3.88699 15.2518 3.88699C14.5911 3.88699 14.0555 4.42257 14.0555 5.08324C14.0555 5.74391 14.5911 6.27949 15.2518 6.27949Z" fill="#FF6086"/>
<path d="M6.87762 60.113C7.53829 60.113 8.07387 59.5774 8.07387 58.9168C8.07387 58.2561 7.53829 57.7205 6.87762 57.7205C6.21695 57.7205 5.68137 58.2561 5.68137 58.9168C5.68137 59.5774 6.21695 60.113 6.87762 60.113Z" fill="#FF6086"/>
<path d="M3.88688 15.8499C4.87738 15.8499 5.68138 16.6537 5.68138 17.6444C5.68138 18.635 4.8775 19.4389 3.88688 19.4389C2.89625 19.4389 2.09238 18.635 2.09238 17.6444C2.09238 16.6537 2.89638 15.8499 3.88688 15.8499ZM33.1963 60.1131C25.8469 60.1131 18.9373 57.251 13.7404 52.0541C8.54338 46.8571 5.68138 39.9475 5.68138 32.5983C5.68138 25.2489 8.5435 18.3392 13.7404 13.1424C18.9373 7.9455 25.8469 5.08337 33.1963 5.08337C40.5455 5.08337 47.4551 7.9455 52.6521 13.1424C57.849 18.3394 60.7111 25.2489 60.7111 32.5983C60.7111 39.9475 57.849 46.8571 52.6521 52.0541C47.4551 57.251 40.5456 60.1131 33.1963 60.1131ZM33.1963 7.47587C19.3438 7.47587 8.07388 18.7458 8.07388 32.5983C8.07388 46.4506 19.3438 57.7206 33.1963 57.7206C47.0488 57.7206 58.3186 46.4508 58.3186 32.5983C58.3186 18.7456 47.0488 7.47587 33.1963 7.47587Z" fill="#FF6086"/>
<path d="M33.1962 54.1316C21.3226 54.1316 11.6629 44.4718 11.6629 32.5983C11.6629 20.7246 21.3227 11.0649 33.1962 11.0649C45.0697 11.0649 54.7296 20.7248 54.7296 32.5983C54.7297 44.4716 45.0699 54.1316 33.1962 54.1316ZM33.1962 13.4574C22.642 13.4574 14.0554 22.0439 14.0554 32.5983C14.0554 43.1526 22.6419 51.7391 33.1962 51.7391C43.7506 51.7391 52.3371 43.1526 52.3371 32.5983C52.3371 22.0439 43.7506 13.4574 33.1962 13.4574Z" fill="#FF6086"/>
<path d="M32.7177 46.9538C32.5606 46.9539 32.405 46.9231 32.2598 46.8629C32.1146 46.8028 31.9827 46.7146 31.8717 46.6034L20.227 34.9586C18.9079 33.6394 18.1815 31.8856 18.1815 30.0201C18.1815 28.156 18.9077 26.4023 20.2266 25.0821C21.546 23.7628 23.2996 23.0365 25.1649 23.0365C27.0302 23.0365 28.7839 23.7629 30.1027 25.0818L32.7177 27.6966L35.3326 25.0816C36.6516 23.7628 38.4052 23.0364 40.2705 23.0364C42.1359 23.0364 43.8895 23.7628 45.2084 25.0816L45.2086 25.0818C47.9309 27.8055 47.9307 32.2361 45.2084 34.9585L33.5636 46.6033C33.4527 46.7145 33.3208 46.8028 33.1757 46.8629C33.0305 46.9231 32.8749 46.954 32.7177 46.9538ZM25.1649 25.429C23.9386 25.429 22.7859 25.9065 21.9189 26.7734C21.0519 27.6414 20.5741 28.7945 20.5741 30.02C20.5741 31.2464 21.0517 32.3994 21.9189 33.2666L32.7177 44.0655L43.5166 33.2666C45.3062 31.477 45.3061 28.5643 43.5166 26.7734C42.6496 25.9064 41.4969 25.429 40.2706 25.429C39.0444 25.429 37.8916 25.9065 37.0246 26.7735L33.5637 30.2344C33.4527 30.3455 33.3208 30.4336 33.1756 30.4937C33.0305 30.5539 32.8749 30.5848 32.7178 30.5848C32.5607 30.5848 32.4051 30.5539 32.26 30.4937C32.1148 30.4336 31.9829 30.3455 31.8719 30.2344L28.411 26.7735C27.544 25.9065 26.3911 25.429 25.1649 25.429Z" fill="#FF6086"/>
</svg>
