<svg width="64" height="64" viewBox="0 0 64 64" fill="none" xmlns="http://www.w3.org/2000/svg">
<path d="M60 14.6667C60 20 53.3333 25.3333 53.3333 25.3333C53.3333 25.3333 46.6667 20 46.6667 14.6667C46.6667 12.8986 47.369 11.2029 48.6193 9.95262C49.8695 8.70238 51.5652 8 53.3333 8C55.1014 8 56.7971 8.70238 58.0474 9.95262C59.2976 11.2029 60 12.8986 60 14.6667ZM41.3333 50.6667V58.6667C41.3333 59.3739 41.0524 60.0522 40.5523 60.5523C40.0522 61.0524 39.3739 61.3333 38.6667 61.3333H6.66667C5.95942 61.3333 5.28115 61.0524 4.78105 60.5523C4.28095 60.0522 4 59.3739 4 58.6667V50.6667H41.3333Z" fill="#7D9EC7"/>
<path d="M41.3333 5.33335V50.6667H4V5.33335C4 4.62611 4.28095 3.94783 4.78105 3.44774C5.28115 2.94764 5.95942 2.66669 6.66667 2.66669H38.6667C39.3739 2.66669 40.0522 2.94764 40.5523 3.44774C41.0524 3.94783 41.3333 4.62611 41.3333 5.33335ZM24 57.3334H21.3333C20.9797 57.3334 20.6406 57.1929 20.3905 56.9428C20.1405 56.6928 20 56.3536 20 56C20 55.6464 20.1405 55.3073 20.3905 55.0572C20.6406 54.8072 20.9797 54.6667 21.3333 54.6667H24C24.3536 54.6667 24.6928 54.8072 24.9428 55.0572C25.1929 55.3073 25.3333 55.6464 25.3333 56C25.3333 56.3536 25.1929 56.6928 24.9428 56.9428C24.6928 57.1929 24.3536 57.3334 24 57.3334Z" fill="#F8F9F9"/>
<path d="M22.6667 33.3334H12C11.2636 33.3334 10.6667 33.9303 10.6667 34.6667V42.6667C10.6667 43.4031 11.2636 44 12 44H22.6667C23.403 44 24 43.4031 24 42.6667V34.6667C24 33.9303 23.403 33.3334 22.6667 33.3334Z" fill="#FF641A"/>
<path d="M16 33.3334H18.6667V37.3334H16V33.3334Z" fill="#F8F9F9"/>
<path d="M53.3333 17.3333C54.8061 17.3333 56 16.1394 56 14.6667C56 13.1939 54.8061 12 53.3333 12C51.8606 12 50.6667 13.1939 50.6667 14.6667C50.6667 16.1394 51.8606 17.3333 53.3333 17.3333Z" fill="#F8F9F9"/>
<path d="M41.3333 45.3333C40.9797 45.3333 40.6406 45.4738 40.3905 45.7239C40.1405 45.9739 40 46.3131 40 46.6667V49.3333H5.33332V5.33334C5.33332 4.97972 5.4738 4.64058 5.72385 4.39053C5.9739 4.14049 6.31303 4.00001 6.66666 4.00001H16.3733C16.606 4.40304 16.9401 4.73817 17.3424 4.97208C17.7448 5.20599 18.2013 5.33053 18.6667 5.33334H26.6667C27.132 5.33053 27.5886 5.20599 27.9909 4.97208C28.3932 4.73817 28.7273 4.40304 28.96 4.00001H38.6667C39.0203 4.00001 39.3594 4.14049 39.6095 4.39053C39.8595 4.64058 40 4.97972 40 5.33334V20C40 20.3536 40.1405 20.6928 40.3905 20.9428C40.6406 21.1929 40.9797 21.3333 41.3333 21.3333C41.6869 21.3333 42.0261 21.1929 42.2761 20.9428C42.5262 20.6928 42.6667 20.3536 42.6667 20V5.33334C42.6667 4.27248 42.2452 3.25506 41.4951 2.50492C40.7449 1.75477 39.7275 1.33334 38.6667 1.33334H6.66666C5.60579 1.33334 4.58838 1.75477 3.83823 2.50492C3.08808 3.25506 2.66666 4.27248 2.66666 5.33334V58.6667C2.66666 59.7275 3.08808 60.745 3.83823 61.4951C4.58838 62.2452 5.60579 62.6667 6.66666 62.6667H38.6667C39.7275 62.6667 40.7449 62.2452 41.4951 61.4951C42.2452 60.745 42.6667 59.7275 42.6667 58.6667V46.6667C42.6667 46.3131 42.5262 45.9739 42.2761 45.7239C42.0261 45.4738 41.6869 45.3333 41.3333 45.3333ZM38.6667 60H6.66666C6.31303 60 5.9739 59.8595 5.72385 59.6095C5.4738 59.3594 5.33332 59.0203 5.33332 58.6667V52H40V58.6667C40 59.0203 39.8595 59.3594 39.6095 59.6095C39.3594 59.8595 39.0203 60 38.6667 60ZM52.5067 26.3733C52.7421 26.5594 53.0333 26.6605 53.3333 26.6605C53.6333 26.6605 53.9246 26.5594 54.16 26.3733C54.4533 26.1467 61.3333 20.5733 61.3333 14.6667C61.3333 12.5449 60.4905 10.5101 58.9902 9.00982C57.4899 7.50953 55.4551 6.66668 53.3333 6.66668C51.2116 6.66668 49.1768 7.50953 47.6765 9.00982C46.1762 10.5101 45.3333 12.5449 45.3333 14.6667C45.3333 20.5733 52.2133 26.1467 52.5067 26.3733ZM53.3333 9.33334C54.7478 9.33334 56.1044 9.89525 57.1046 10.8954C58.1048 11.8956 58.6667 13.2522 58.6667 14.6667C58.6667 18.24 55.0133 22.0133 53.3333 23.56C51.6533 22.0133 48 18.2267 48 14.6667C48 13.2522 48.5619 11.8956 49.5621 10.8954C50.5623 9.89525 51.9188 9.33334 53.3333 9.33334Z" fill="#414141"/>
<path d="M56 32H40C39.2927 32 38.6145 31.719 38.1144 31.219C37.6143 30.7189 37.3333 30.0406 37.3333 29.3333C37.3333 28.6261 37.6143 27.9478 38.1144 27.4477C38.6145 26.9476 39.2927 26.6667 40 26.6667H46.6667C47.0203 26.6667 47.3594 26.5262 47.6095 26.2761C47.8595 26.0261 48 25.687 48 25.3333C48 24.9797 47.8595 24.6406 47.6095 24.3905C47.3594 24.1405 47.0203 24 46.6667 24H40C38.5855 24 37.2289 24.5619 36.2288 25.5621C35.2286 26.5623 34.6667 27.9188 34.6667 29.3333C34.6667 30.7478 35.2286 32.1044 36.2288 33.1046C37.2289 34.1048 38.5855 34.6667 40 34.6667H56C56.7072 34.6667 57.3855 34.9476 57.8856 35.4477C58.3857 35.9478 58.6667 36.6261 58.6667 37.3333C58.6667 38.0406 58.3857 38.7189 57.8856 39.219C57.3855 39.719 56.7072 40 56 40H28C27.6464 40 27.3072 40.1405 27.0572 40.3905C26.8071 40.6406 26.6667 40.9797 26.6667 41.3333C26.6667 41.687 26.8071 42.0261 27.0572 42.2761C27.3072 42.5262 27.6464 42.6667 28 42.6667H56C57.4145 42.6667 58.771 42.1048 59.7712 41.1046C60.7714 40.1044 61.3333 38.7478 61.3333 37.3333C61.3333 35.9188 60.7714 34.5623 59.7712 33.5621C58.771 32.5619 57.4145 32 56 32Z" fill="#414141"/>
</svg>
