<svg width="80" height="60" viewBox="0 0 80 60" fill="none" xmlns="http://www.w3.org/2000/svg">
<g clip-path="url(#clip0_90_3447)">
<path fill-rule="evenodd" clip-rule="evenodd" d="M77.1656 33.41C77.1658 33.338 77.1518 33.2666 77.1244 33.2C77.097 33.1333 77.0567 33.0728 77.0059 33.0218C76.9551 32.9707 76.8947 32.9302 76.8283 32.9024C76.7618 32.8747 76.6905 32.8603 76.6184 32.8601H73.6948C73.5038 31.9706 73.158 31.1222 72.6734 30.354L74.7338 28.2788C74.8365 28.1751 74.8941 28.035 74.8941 27.889C74.8941 27.743 74.8365 27.6029 74.7338 27.4992L73.1868 25.9401C73.1363 25.8888 73.076 25.848 73.0096 25.8202C72.9431 25.7923 72.8718 25.778 72.7997 25.778C72.7277 25.778 72.6564 25.7923 72.5899 25.8202C72.5235 25.848 72.4632 25.8888 72.4127 25.9401L70.3483 28.0207C69.588 27.5291 68.7473 27.177 67.8651 26.9805V24.042C67.8655 23.9698 67.8516 23.8983 67.8242 23.8315C67.7969 23.7648 67.7567 23.704 67.7059 23.6528C67.655 23.6016 67.5946 23.5609 67.528 23.5331C67.4615 23.5053 67.3901 23.4909 67.3179 23.4907H65.6778V30.1446C65.8591 30.1195 66.0419 30.106 66.2249 30.1041C67.3857 30.1044 68.4987 30.569 69.3193 31.3957C70.1399 32.2224 70.6009 33.3435 70.6009 34.5125C70.6011 35.0915 70.488 35.6649 70.2681 36.1999C70.0482 36.7349 69.7258 37.2211 69.3193 37.6306C68.9128 38.0401 68.4302 38.3649 67.899 38.5865C67.3679 38.8082 66.7985 38.9222 66.2236 38.9222C66.041 38.9202 65.8587 38.9066 65.6778 38.8817V45.5355H67.3179C67.3901 45.5353 67.4615 45.5209 67.528 45.4931C67.5946 45.4653 67.655 45.4246 67.7059 45.3734C67.7567 45.3222 67.7969 45.2615 67.8242 45.1948C67.8516 45.128 67.8655 45.0565 67.8651 44.9843V42.039C68.748 41.8463 69.59 41.4978 70.3524 41.0096L72.4127 43.0848C72.6275 43.3009 72.972 43.3009 73.1868 43.0848L74.7338 41.5271C74.8365 41.4234 74.8941 41.2832 74.8941 41.1372C74.8941 40.9912 74.8365 40.8512 74.7338 40.7475L72.6694 38.6669C73.1572 37.9011 73.5066 37.0545 73.7016 36.1662H76.6184C76.6906 36.166 76.762 36.1515 76.8286 36.1237C76.8951 36.0959 76.9556 36.0552 77.0064 36.004C77.0572 35.9528 77.0975 35.8921 77.1248 35.8253C77.1521 35.7586 77.166 35.6871 77.1656 35.6149V33.41Z" fill="#EB8E68"/>
<path d="M66.2246 30.104C66.7994 30.1033 67.3687 30.2171 67.8996 30.4388C68.4306 30.6605 68.9128 30.9857 69.3186 31.3958M70.2574 32.7967C70.5386 33.4671 70.6507 34.1973 70.5837 34.922C70.5166 35.6467 70.2725 36.3434 69.8732 36.9499C69.4738 37.5564 68.9317 38.0539 68.2951 38.398C67.6585 38.7421 66.9471 38.922 66.2246 38.9217" stroke="#496078" stroke-width="0.499878"/>
<path d="M65.6777 45.535H67.3188C67.6218 45.535 67.8658 45.2892 67.8658 44.9838V42.0387C68.7484 41.8463 69.5904 41.4982 70.3527 41.0104L72.4127 43.0847C72.4635 43.136 72.5237 43.1767 72.5901 43.2045C72.6565 43.2323 72.7276 43.2465 72.7995 43.2465C72.8714 43.2465 72.9426 43.2323 73.0089 43.2045C73.0753 43.1767 73.1356 43.136 73.1863 43.0847L74.7334 41.5262C74.7843 41.4751 74.8247 41.4144 74.8522 41.3475C74.8798 41.2807 74.8939 41.209 74.8939 41.1366C74.8939 41.0642 74.8798 40.9925 74.8522 40.9256C74.8247 40.8588 74.7843 40.798 74.7334 40.7469L72.67 38.6682C73.1577 37.902 73.5069 37.0549 73.7017 36.1661H76.6183C76.9214 36.1661 77.1654 35.9203 77.1654 35.615V33.4106C77.1654 33.1053 76.9214 32.8595 76.6183 32.8595H73.695C73.5037 31.9702 73.1577 31.122 72.6732 30.3542L74.7334 28.2787C74.7843 28.2276 74.8247 28.1669 74.8522 28.1C74.8798 28.0331 74.8939 27.9614 74.8939 27.889C74.8939 27.8166 74.8798 27.745 74.8522 27.6781C74.8247 27.6112 74.7843 27.5505 74.7334 27.4994L73.1863 25.9409C73.1356 25.8896 73.0753 25.8489 73.0089 25.8211C72.9426 25.7934 72.8714 25.7791 72.7995 25.7791C72.7276 25.7791 72.6565 25.7934 72.5901 25.8211C72.5237 25.8489 72.4635 25.8896 72.4127 25.9409L70.3483 28.0197C69.5878 27.5283 68.7469 27.1764 67.8647 26.9803V24.0418C67.8647 23.7365 67.6218 23.4907 67.3177 23.4907H65.6766" stroke="#496078" stroke-width="0.999756" stroke-linejoin="round"/>
<path d="M20.4141 48.5781H10.615V20.8751H61.2788V48.5781H27.6759" fill="#E6DFD2"/>
<path fill-rule="evenodd" clip-rule="evenodd" d="M9.31937 17.1652C7.97914 17.1652 6.90102 18.246 6.90102 19.5903V55.4333H64.9955V19.5903C64.9955 18.246 63.9147 17.1652 62.5744 17.1652H9.31937ZM10.6164 20.8751H61.2802V48.5768H10.615V20.8751H10.6164Z" fill="white"/>
<path d="M6.89967 52.7299V19.5917C6.89967 18.2474 7.9805 17.1652 9.32073 17.1652H62.5731C63.9147 17.1652 64.9942 18.246 64.9942 19.5917V52.7299" stroke="#496078"/>
<path d="M41.0349 48.5781H10.615V20.8751H61.2788V48.5781H52.8618" stroke="#496078" stroke-width="0.5" stroke-linejoin="round"/>
<path d="M69.0473 52.2922C69.0473 55.9859 66.052 59.0473 62.3286 59.0473H9.56525C5.84315 59.0473 2.84656 55.9859 2.84656 52.2922H69.0473Z" fill="#7D9EC7" stroke="#496078" stroke-linejoin="round"/>
<path d="M29.8672 52.3812H42.0266V54.1241C42.0266 55.1171 41.2524 55.917 40.2905 55.917H31.6047C30.6427 55.917 29.8672 55.1171 29.8672 54.1241V52.3812Z" fill="#E6DFD2" stroke="#496078"/>
<path d="M50.3624 34.2396C50.5408 34.2328 50.7218 34.2639 50.8947 34.3206C50.761 34.58 51.0163 34.861 51.3001 34.7894C51.6716 34.6949 52.0229 34.7881 52.3512 34.9651C52.1366 35.0397 51.9172 35.0997 51.6946 35.1448C51.1744 35.2555 50.5367 35.3339 50.199 35.338C49.6356 35.338 49.0884 35.2326 48.6912 35.111C48.6047 35.084 48.4264 35.061 48.3562 35.034C48.7831 34.857 49.3465 34.8029 49.7707 35.0556C50.1571 35.2812 50.5205 34.7638 50.1382 34.5327C50.033 34.4708 49.9227 34.4179 49.8085 34.3747C49.9855 34.3025 50.1721 34.257 50.3624 34.2396Z" fill="#70979C"/>
<path d="M53.0037 35.1489L52.8146 35.4056C49.8315 39.5519 54.3007 40.5395 55.441 43.7644C56.3989 46.1841 55.4491 49.2104 53.2766 50.5871C51.1825 52.0002 48.1657 51.695 46.4053 49.8563C44.5381 48.0121 44.403 44.6939 45.7392 42.6052C47.0767 40.5165 48.6656 40.141 48.6656 37.47C48.5424 36.6446 48.1705 35.8764 47.5996 35.2678" fill="#A3BF62"/>
<path d="M53.0037 35.1489L52.8146 35.4056C49.8315 39.5519 54.3007 40.5395 55.441 43.7644C56.3989 46.1841 55.4491 49.2104 53.2766 50.5871C51.1825 52.0002 48.1657 51.695 46.4053 49.8563C44.5381 48.0121 44.403 44.6939 45.7392 42.6052C47.0767 40.5165 48.6656 40.141 48.6656 37.47C48.5424 36.6446 48.1705 35.8764 47.5996 35.2678" stroke="#496078" stroke-width="0.5" stroke-linecap="round" stroke-linejoin="round"/>
<path d="M52.8146 35.057C52.6741 35.3583 50.9583 35.6649 50.199 35.6744C48.9884 35.6744 47.8914 35.2245 47.8914 35.0813" fill="#70979C"/>
<path d="M52.8146 35.057C52.6741 35.3583 50.9583 35.6649 50.199 35.6744C48.9884 35.6744 47.8914 35.2245 47.8914 35.0813" stroke="#496078" stroke-width="0.5" stroke-linecap="round" stroke-linejoin="round"/>
<path d="M48.0481 39.0208H52.3066M48.0481 38.4534H52.3066M48.0481 37.8873H52.3066" stroke="#7D9EC7" stroke-width="0.5" stroke-linecap="round" stroke-linejoin="round"/>
<path d="M47.6063 35.265C47.891 34.9115 48.2875 34.6733 48.7258 34.5925C49.1642 34.5116 49.6161 34.5933 50.0017 34.8232M49.0601 34.4922C49.3951 34.1462 49.8441 33.943 50.3177 33.923C50.7913 33.9029 51.2548 34.0675 51.6162 34.3841M51.1623 34.4922C51.4984 34.4065 51.8509 34.4179 52.1812 34.5251C52.5115 34.6323 52.8068 34.8313 53.0348 35.1002" stroke="#496078" stroke-width="0.5" stroke-linecap="round" stroke-linejoin="round"/>
<path fill-rule="evenodd" clip-rule="evenodd" d="M50.2517 41.4852C50.1945 41.4862 50.1382 41.4985 50.0858 41.5214C50.0334 41.5442 49.986 41.5771 49.9464 41.6182C49.9067 41.6594 49.8756 41.708 49.8547 41.7612C49.8338 41.8143 49.8237 41.8712 49.8247 41.9283V42.3106C48.9736 42.4889 48.3048 43.1793 48.3048 44.048C48.3048 45.06 49.21 45.8354 50.2598 45.8354C50.8948 45.8354 51.3446 46.2679 51.3446 46.7542C51.3446 47.2406 50.8948 47.6702 50.2598 47.6702C49.6248 47.6702 49.1749 47.2406 49.1749 46.7542C49.183 46.1652 48.2967 46.1652 48.3048 46.7542C48.3048 47.6459 48.9871 48.3038 49.8247 48.493V48.8781C49.8247 48.9935 49.8706 49.1041 49.9521 49.1857C50.0337 49.2672 50.1444 49.313 50.2598 49.313C50.3751 49.313 50.4858 49.2672 50.5674 49.1857C50.649 49.1041 50.6948 48.9935 50.6948 48.8781V48.4917C51.5459 48.312 52.2134 47.6216 52.2134 46.7542C52.2134 45.7409 51.3082 44.9653 50.2598 44.9653C49.6248 44.9653 49.1749 44.5331 49.1749 44.0467C49.1749 43.5671 49.614 43.1455 50.2354 43.1347C50.2521 43.1357 50.2688 43.1357 50.2854 43.1347C50.9056 43.1482 51.3446 43.5671 51.3446 44.0454C51.3352 44.6344 52.2228 44.6344 52.2134 44.0454C52.2134 43.1537 51.5324 42.4958 50.6948 42.3066V41.9256C50.6957 41.8673 50.6849 41.8095 50.663 41.7555C50.6411 41.7015 50.6086 41.6524 50.5674 41.6112C50.5262 41.57 50.4772 41.5375 50.4231 41.5156C50.3691 41.4937 50.3113 41.4828 50.253 41.4838L50.2517 41.4852Z" fill="#496078" stroke="#496078" stroke-width="0.1" stroke-linecap="round" stroke-linejoin="round"/>
<path d="M61.1369 49.7252H56.6934C56.08 49.7252 55.5828 50.209 55.5828 50.8059C55.5828 51.4028 56.08 51.8868 56.6934 51.8868H61.1369C61.7503 51.8868 62.2475 51.4028 62.2475 50.8059C62.2475 50.209 61.7503 49.7252 61.1369 49.7252Z" fill="#F8B84E" stroke="#496078" stroke-width="0.4"/>
<path d="M62.488 47.5635H58.0444C57.4311 47.5635 56.9339 48.0473 56.9339 48.6443C56.9339 49.2412 57.4311 49.7252 58.0444 49.7252H62.488C63.1013 49.7252 63.5985 49.2412 63.5985 48.6443C63.5985 48.0473 63.1013 47.5635 62.488 47.5635Z" fill="#F8B84E" stroke="#496078" stroke-width="0.4"/>
<path d="M62.488 45.4017H58.0444C57.4311 45.4017 56.9339 45.8857 56.9339 46.4826C56.9339 47.0796 57.4311 47.5635 58.0444 47.5635H62.488C63.1013 47.5635 63.5985 47.0796 63.5985 46.4826C63.5985 45.8857 63.1013 45.4017 62.488 45.4017Z" fill="#F8B84E" stroke="#496078" stroke-width="0.4"/>
<path d="M44.3868 31.0078V29.6568M45.0623 30.3323H43.7113" stroke="#A3BF62" stroke-width="0.5" stroke-linecap="round" stroke-linejoin="round"/>
<path d="M50.4665 29.6568V28.3058M49.791 28.9813H51.142" stroke="#EB8E68" stroke-width="0.5" stroke-linecap="round" stroke-linejoin="round"/>
<path d="M57.2311 37.763V36.412M56.5556 37.0875H57.9066" stroke="#70979C" stroke-width="0.5" stroke-linecap="round" stroke-linejoin="round"/>
<path d="M43.3776 42.1594V40.8083M42.7021 41.4839H44.0531" stroke="#496078" stroke-width="0.5" stroke-linecap="round" stroke-linejoin="round"/>
<path d="M42.0171 36.4174C41.4575 36.4174 41.0038 35.9638 41.0038 35.4041C41.0038 34.8445 41.4575 34.3909 42.0171 34.3909C42.5767 34.3909 43.0304 34.8445 43.0304 35.4041C43.0304 35.9638 42.5767 36.4174 42.0171 36.4174Z" stroke="#7D9EC7" stroke-width="0.5" stroke-linecap="round" stroke-linejoin="round"/>
<path d="M58.239 43.5105C58.612 43.5105 58.9145 43.208 58.9145 42.8349C58.9145 42.4619 58.612 42.1594 58.239 42.1594C57.8659 42.1594 57.5635 42.4619 57.5635 42.8349C57.5635 43.208 57.8659 43.5105 58.239 43.5105Z" fill="#496078"/>
<path d="M55.1992 32.3643C55.5722 32.3643 55.8747 32.0619 55.8747 31.6888C55.8747 31.3157 55.5722 31.0133 55.1992 31.0133C54.8261 31.0133 54.5236 31.3157 54.5236 31.6888C54.5236 32.0619 54.8261 32.3643 55.1992 32.3643Z" stroke="#7D9EC7" stroke-width="0.5" stroke-linecap="round" stroke-linejoin="round"/>
<path d="M2.6439 0.973053H25.8277L32.5558 7.68229V39.5789C32.5558 40.8178 31.556 41.8149 30.3131 41.8149H3.40048C2.15753 41.8149 1.15776 40.8178 1.15776 39.5789V3.33332C1.15776 2.09442 1.41716 1.17436 2.6439 0.973053Z" fill="white"/>
<path d="M1.15773 13.5775V3.22662C1.15773 1.98833 2.15869 0.991238 3.40132 0.991238H26.1797L32.9067 7.69947V39.5776C32.9067 40.8178 31.9057 41.8149 30.6631 41.8149H3.40322C2.16059 41.8149 1.15963 40.8178 1.15963 39.5776V17.41" stroke="#496078" stroke-width="0.499533" stroke-linecap="round" stroke-linejoin="round"/>
<path d="M26.1778 0.991293L32.9067 7.69952H28.4214C26.1778 7.69952 26.1778 5.48872 26.1778 5.48872V0.991293Z" fill="#496078" stroke="#496078" stroke-width="0.499533" stroke-linecap="round" stroke-linejoin="round"/>
<path d="M19.7156 15.3913C15.9462 15.3913 12.9739 18.3919 12.9739 22.1545C12.9739 22.599 13.0185 23.0327 13.0982 23.4515L20.4235 27.8572C20.8468 27.6677 21.3054 27.5696 21.7692 27.5695C21.8448 27.5695 21.9151 27.5857 21.988 27.5911L26.4843 21.7479C26.383 20.0237 25.625 18.4038 24.3659 17.2215C23.1069 16.0391 21.4427 15.3841 19.7156 15.3913Z" fill="#F8B84E"/>
<path d="M13.3441 22.4504C13.3418 21.6129 13.5047 20.7832 13.8236 20.0088C14.1425 19.2344 14.6111 18.5306 15.2025 17.9376C15.7938 17.3446 16.4964 16.8741 17.2699 16.5531C18.0434 16.2321 18.8727 16.0668 19.7102 16.0668C23.2418 16.0668 26.1141 18.9269 26.1141 22.4504" stroke="#70979C" stroke-miterlimit="34.178" stroke-linecap="round" stroke-linejoin="round"/>
<path d="M3.52208 7.71875V34.7286H30.5333" stroke="#496078" stroke-linecap="round" stroke-linejoin="round"/>
<path d="M8.02103 30.2864L12.6281 24.7107M14.0264 24.5796L20.4168 28.422M21.9515 28.0464L28.2811 19.8186" stroke="#B4CEC5"/>
<path d="M13.6548 7.03241H9.60173V8.38344H13.6548V7.03241ZM13.6548 9.73448H9.60173V11.0855H13.6548V9.73448Z" fill="#7D9EC7"/>
<path d="M8.25071 7.03241H6.89967V8.38344H8.25071V7.03241Z" fill="#A3BF62"/>
<path d="M8.25071 9.7345H6.89967V11.0855H8.25071V9.7345Z" fill="#EB8E68"/>
<path d="M7.20635 32.0266C7.74881 32.0266 8.18856 31.5868 8.18856 31.0444C8.18856 30.5019 7.74881 30.0622 7.20635 30.0622C6.6639 30.0622 6.22415 30.5019 6.22415 31.0444C6.22415 31.5868 6.6639 32.0266 7.20635 32.0266Z" stroke="#70979C" stroke-linecap="square"/>
<path d="M13.3441 24.9066C13.8866 24.9066 14.3263 24.4668 14.3263 23.9244C14.3263 23.3819 13.8866 22.9422 13.3441 22.9422C12.8016 22.9422 12.3619 23.3819 12.3619 23.9244C12.3619 24.4668 12.8016 24.9066 13.3441 24.9066Z" stroke="#70979C" stroke-linecap="square"/>
<path d="M21.2017 29.8176C21.7442 29.8176 22.1839 29.3779 22.1839 28.8354C22.1839 28.2929 21.7442 27.8532 21.2017 27.8532C20.6593 27.8532 20.2195 28.2929 20.2195 28.8354C20.2195 29.3779 20.6593 29.8176 21.2017 29.8176Z" stroke="#70979C" stroke-linecap="square"/>
<path d="M29.0607 19.9956C29.6031 19.9956 30.0429 19.5558 30.0429 19.0134C30.0429 18.4709 29.6031 18.0312 29.0607 18.0312C28.5182 18.0312 28.0785 18.4709 28.0785 19.0134C28.0785 19.5558 28.5182 19.9956 29.0607 19.9956Z" stroke="#70979C" stroke-linecap="square"/>
<path fill-rule="evenodd" clip-rule="evenodd" d="M19.721 17.8434C19.6019 17.8455 19.4885 17.8947 19.4057 17.9803C19.3229 18.0659 19.2774 18.181 19.2792 18.3V18.6959C18.3956 18.8809 17.7052 19.5943 17.7052 20.4928C17.7052 21.5398 18.6415 22.3437 19.7291 22.3437C20.3857 22.3437 20.8532 22.7895 20.8532 23.292C20.8532 23.796 20.3857 24.2405 19.7291 24.2405C19.0711 24.2405 18.605 23.7946 18.605 23.292C18.6145 22.6841 17.6958 22.6841 17.7052 23.292C17.7052 24.2148 18.4105 24.8958 19.2792 25.0917V25.4902C19.2792 25.6095 19.3266 25.724 19.411 25.8083C19.4953 25.8927 19.6098 25.9401 19.7291 25.9401C19.8484 25.9401 19.9628 25.8927 20.0472 25.8083C20.1316 25.724 20.179 25.6095 20.179 25.4902V25.0889C21.0612 24.9039 21.7529 24.1905 21.7529 23.292C21.7529 22.245 20.8153 21.4411 19.7291 21.4411C19.0711 21.4411 18.605 20.9953 18.605 20.4928C18.605 19.9956 19.0617 19.5605 19.7048 19.5483C19.7214 19.5493 19.7381 19.5493 19.7548 19.5483C20.3979 19.5632 20.8532 19.9942 20.8532 20.4914C20.8437 21.0993 21.761 21.0993 21.7529 20.4914C21.7529 19.5672 21.0477 18.8877 20.179 18.6918V18.2986C20.1801 18.2383 20.169 18.1784 20.1465 18.1224C20.1239 18.0665 20.0904 18.0156 20.0478 17.9728C20.0052 17.9301 19.9544 17.8964 19.8985 17.8736C19.8426 17.8509 19.7827 17.8397 19.7223 17.8407L19.721 17.8434Z" fill="#496078"/>
<path d="M6.22415 37.4307H27.8407V39.4573H6.22415V37.4307Z" fill="#7D9EC7"/>
</g>
<defs>
<clipPath id="clip0_90_3447">
<rect width="78.36" height="59.4455" fill="white" transform="translate(0.820007 0.277252)"/>
</clipPath>
</defs>
</svg>
