<svg width="64" height="64" viewBox="0 0 64 64" fill="none" xmlns="http://www.w3.org/2000/svg">
<path d="M52 35V29H47.71C47.3048 26.8507 46.4605 24.8081 45.23 23L48.23 20L44 15.74L41 18.74C39.1919 17.5095 37.1493 16.6652 35 16.26V12H29V16.29C26.8507 16.6952 24.8081 17.5395 23 18.77L20 15.77L15.74 20L18.74 23C17.5095 24.8081 16.6652 26.8507 16.26 29H12V35H16.29C16.6952 37.1493 17.5395 39.1919 18.77 41L15.77 44L20 48.26L23 45.26C24.8081 46.4905 26.8507 47.3348 29 47.74V52H35V47.71C37.1493 47.3048 39.1919 46.4605 41 45.23L44 48.23L48.26 44L45.26 41C46.4905 39.1919 47.3348 37.1493 47.74 35H52Z" fill="#E6DFD2"/>
<path d="M52 35V29H47.71C47.3048 26.8507 46.4605 24.8081 45.23 23L48.23 20L44 15.74L41 18.74C39.1919 17.5095 37.1493 16.6652 35 16.26V12H29V16.29C26.8507 16.6952 24.8081 17.5395 23 18.77L20 15.77L15.74 20L18.74 23C17.5095 24.8081 16.6652 26.8507 16.26 29H12V35H16.29C16.6952 37.1493 17.5395 39.1919 18.77 41L15.77 44L20 48.26L23 45.26C24.8081 46.4905 26.8507 47.3348 29 47.74V52H35V47.71C37.1493 47.3048 39.1919 46.4605 41 45.23L44 48.23L48.26 44L45.26 41C46.4905 39.1919 47.3348 37.1493 47.74 35H52Z" stroke="#414141" stroke-width="2" stroke-linejoin="round"/>
<path d="M32 42C37.5228 42 42 37.5228 42 32C42 26.4772 37.5228 22 32 22C26.4772 22 22 26.4772 22 32C22 37.5228 26.4772 42 32 42Z" fill="#7D9EC7"/>
<path d="M30.5 41.88C35.1944 41.88 39 37.4566 39 32C39 26.5434 35.1944 22.12 30.5 22.12C25.8056 22.12 22 26.5434 22 32C22 37.4566 25.8056 41.88 30.5 41.88Z" fill="#7D9EC7"/>
<path d="M32 42C37.5228 42 42 37.5228 42 32C42 26.4772 37.5228 22 32 22C26.4772 22 22 26.4772 22 32C22 37.5228 26.4772 42 32 42Z" stroke="#414141" stroke-width="2" stroke-linejoin="round"/>
<path d="M50 14L62 2" stroke="#414141" stroke-width="2" stroke-linejoin="round"/>
<path d="M55 2H62V9" stroke="#414141" stroke-width="2" stroke-linejoin="round"/>
<path d="M14 14L2 2" stroke="#414141" stroke-width="2" stroke-linejoin="round"/>
<path d="M9 2H2V9" stroke="#414141" stroke-width="2" stroke-linejoin="round"/>
<path d="M50 50L62 62" stroke="#414141" stroke-width="2" stroke-linejoin="round"/>
<path d="M55 62H62V55" stroke="#414141" stroke-width="2" stroke-linejoin="round"/>
<path d="M14 50L2 62" stroke="#414141" stroke-width="2" stroke-linejoin="round"/>
<path d="M9 62H2V55" stroke="#414141" stroke-width="2" stroke-linejoin="round"/>
</svg>
